G04 #@! TF.FileFunction,Legend,Top*
%FSLAX46Y46*%
G04 Gerber Fmt 4.6, Leading zero omitted, Abs format (unit mm)*
G04 Created by KiCad (PCBNEW 4.0.7) date Sun Jan 21 13:03:22 2018*
%MOMM*%
%LPD*%
G01*
G04 APERTURE LIST*
%ADD10C,0.100000*%
%ADD11C,0.200000*%
%ADD12C,0.300000*%
%ADD13C,0.120000*%
%ADD14C,0.150000*%
G04 APERTURE END LIST*
D10*
D11*
X74089523Y-135342381D02*
X74184762Y-135342381D01*
X74280000Y-135390000D01*
X74327619Y-135437619D01*
X74375238Y-135532857D01*
X74422857Y-135723333D01*
X74422857Y-135961429D01*
X74375238Y-136151905D01*
X74327619Y-136247143D01*
X74280000Y-136294762D01*
X74184762Y-136342381D01*
X74089523Y-136342381D01*
X73994285Y-136294762D01*
X73946666Y-136247143D01*
X73899047Y-136151905D01*
X73851428Y-135961429D01*
X73851428Y-135723333D01*
X73899047Y-135532857D01*
X73946666Y-135437619D01*
X73994285Y-135390000D01*
X74089523Y-135342381D01*
X75280000Y-135675714D02*
X75280000Y-136342381D01*
X75041904Y-135294762D02*
X74803809Y-136009048D01*
X75422857Y-136009048D01*
X76756190Y-135342381D02*
X76851429Y-135342381D01*
X76946667Y-135390000D01*
X76994286Y-135437619D01*
X77041905Y-135532857D01*
X77089524Y-135723333D01*
X77089524Y-135961429D01*
X77041905Y-136151905D01*
X76994286Y-136247143D01*
X76946667Y-136294762D01*
X76851429Y-136342381D01*
X76756190Y-136342381D01*
X76660952Y-136294762D01*
X76613333Y-136247143D01*
X76565714Y-136151905D01*
X76518095Y-135961429D01*
X76518095Y-135723333D01*
X76565714Y-135532857D01*
X76613333Y-135437619D01*
X76660952Y-135390000D01*
X76756190Y-135342381D01*
X77660952Y-135770952D02*
X77565714Y-135723333D01*
X77518095Y-135675714D01*
X77470476Y-135580476D01*
X77470476Y-135532857D01*
X77518095Y-135437619D01*
X77565714Y-135390000D01*
X77660952Y-135342381D01*
X77851429Y-135342381D01*
X77946667Y-135390000D01*
X77994286Y-135437619D01*
X78041905Y-135532857D01*
X78041905Y-135580476D01*
X77994286Y-135675714D01*
X77946667Y-135723333D01*
X77851429Y-135770952D01*
X77660952Y-135770952D01*
X77565714Y-135818571D01*
X77518095Y-135866190D01*
X77470476Y-135961429D01*
X77470476Y-136151905D01*
X77518095Y-136247143D01*
X77565714Y-136294762D01*
X77660952Y-136342381D01*
X77851429Y-136342381D01*
X77946667Y-136294762D01*
X77994286Y-136247143D01*
X78041905Y-136151905D01*
X78041905Y-135961429D01*
X77994286Y-135866190D01*
X77946667Y-135818571D01*
X77851429Y-135770952D01*
X79756191Y-136342381D02*
X79184762Y-136342381D01*
X79470476Y-136342381D02*
X79470476Y-135342381D01*
X79375238Y-135485238D01*
X79280000Y-135580476D01*
X79184762Y-135628095D01*
X80375238Y-135342381D02*
X80470477Y-135342381D01*
X80565715Y-135390000D01*
X80613334Y-135437619D01*
X80660953Y-135532857D01*
X80708572Y-135723333D01*
X80708572Y-135961429D01*
X80660953Y-136151905D01*
X80613334Y-136247143D01*
X80565715Y-136294762D01*
X80470477Y-136342381D01*
X80375238Y-136342381D01*
X80280000Y-136294762D01*
X80232381Y-136247143D01*
X80184762Y-136151905D01*
X80137143Y-135961429D01*
X80137143Y-135723333D01*
X80184762Y-135532857D01*
X80232381Y-135437619D01*
X80280000Y-135390000D01*
X80375238Y-135342381D01*
X81851429Y-135437619D02*
X81899048Y-135390000D01*
X81994286Y-135342381D01*
X82232382Y-135342381D01*
X82327620Y-135390000D01*
X82375239Y-135437619D01*
X82422858Y-135532857D01*
X82422858Y-135628095D01*
X82375239Y-135770952D01*
X81803810Y-136342381D01*
X82422858Y-136342381D01*
X83041905Y-135342381D02*
X83137144Y-135342381D01*
X83232382Y-135390000D01*
X83280001Y-135437619D01*
X83327620Y-135532857D01*
X83375239Y-135723333D01*
X83375239Y-135961429D01*
X83327620Y-136151905D01*
X83280001Y-136247143D01*
X83232382Y-136294762D01*
X83137144Y-136342381D01*
X83041905Y-136342381D01*
X82946667Y-136294762D01*
X82899048Y-136247143D01*
X82851429Y-136151905D01*
X82803810Y-135961429D01*
X82803810Y-135723333D01*
X82851429Y-135532857D01*
X82899048Y-135437619D01*
X82946667Y-135390000D01*
X83041905Y-135342381D01*
X84994287Y-135675714D02*
X84994287Y-136342381D01*
X84756191Y-135294762D02*
X84518096Y-136009048D01*
X85137144Y-136009048D01*
X85708572Y-135342381D02*
X85803811Y-135342381D01*
X85899049Y-135390000D01*
X85946668Y-135437619D01*
X85994287Y-135532857D01*
X86041906Y-135723333D01*
X86041906Y-135961429D01*
X85994287Y-136151905D01*
X85946668Y-136247143D01*
X85899049Y-136294762D01*
X85803811Y-136342381D01*
X85708572Y-136342381D01*
X85613334Y-136294762D01*
X85565715Y-136247143D01*
X85518096Y-136151905D01*
X85470477Y-135961429D01*
X85470477Y-135723333D01*
X85518096Y-135532857D01*
X85565715Y-135437619D01*
X85613334Y-135390000D01*
X85708572Y-135342381D01*
X87375239Y-135770952D02*
X87280001Y-135723333D01*
X87232382Y-135675714D01*
X87184763Y-135580476D01*
X87184763Y-135532857D01*
X87232382Y-135437619D01*
X87280001Y-135390000D01*
X87375239Y-135342381D01*
X87565716Y-135342381D01*
X87660954Y-135390000D01*
X87708573Y-135437619D01*
X87756192Y-135532857D01*
X87756192Y-135580476D01*
X87708573Y-135675714D01*
X87660954Y-135723333D01*
X87565716Y-135770952D01*
X87375239Y-135770952D01*
X87280001Y-135818571D01*
X87232382Y-135866190D01*
X87184763Y-135961429D01*
X87184763Y-136151905D01*
X87232382Y-136247143D01*
X87280001Y-136294762D01*
X87375239Y-136342381D01*
X87565716Y-136342381D01*
X87660954Y-136294762D01*
X87708573Y-136247143D01*
X87756192Y-136151905D01*
X87756192Y-135961429D01*
X87708573Y-135866190D01*
X87660954Y-135818571D01*
X87565716Y-135770952D01*
X88375239Y-135342381D02*
X88470478Y-135342381D01*
X88565716Y-135390000D01*
X88613335Y-135437619D01*
X88660954Y-135532857D01*
X88708573Y-135723333D01*
X88708573Y-135961429D01*
X88660954Y-136151905D01*
X88613335Y-136247143D01*
X88565716Y-136294762D01*
X88470478Y-136342381D01*
X88375239Y-136342381D01*
X88280001Y-136294762D01*
X88232382Y-136247143D01*
X88184763Y-136151905D01*
X88137144Y-135961429D01*
X88137144Y-135723333D01*
X88184763Y-135532857D01*
X88232382Y-135437619D01*
X88280001Y-135390000D01*
X88375239Y-135342381D01*
X74137142Y-123356667D02*
X74613333Y-123356667D01*
X74041904Y-123642381D02*
X74375237Y-122642381D01*
X74708571Y-123642381D01*
X74994285Y-122737619D02*
X75041904Y-122690000D01*
X75137142Y-122642381D01*
X75375238Y-122642381D01*
X75470476Y-122690000D01*
X75518095Y-122737619D01*
X75565714Y-122832857D01*
X75565714Y-122928095D01*
X75518095Y-123070952D01*
X74946666Y-123642381D01*
X75565714Y-123642381D01*
X76708571Y-123356667D02*
X77184762Y-123356667D01*
X76613333Y-123642381D02*
X76946666Y-122642381D01*
X77280000Y-123642381D01*
X77518095Y-122642381D02*
X78137143Y-122642381D01*
X77803809Y-123023333D01*
X77946667Y-123023333D01*
X78041905Y-123070952D01*
X78089524Y-123118571D01*
X78137143Y-123213810D01*
X78137143Y-123451905D01*
X78089524Y-123547143D01*
X78041905Y-123594762D01*
X77946667Y-123642381D01*
X77660952Y-123642381D01*
X77565714Y-123594762D01*
X77518095Y-123547143D01*
X79280000Y-123356667D02*
X79756191Y-123356667D01*
X79184762Y-123642381D02*
X79518095Y-122642381D01*
X79851429Y-123642381D01*
X80613334Y-122975714D02*
X80613334Y-123642381D01*
X80375238Y-122594762D02*
X80137143Y-123309048D01*
X80756191Y-123309048D01*
X81851429Y-123356667D02*
X82327620Y-123356667D01*
X81756191Y-123642381D02*
X82089524Y-122642381D01*
X82422858Y-123642381D01*
X83232382Y-122642381D02*
X82756191Y-122642381D01*
X82708572Y-123118571D01*
X82756191Y-123070952D01*
X82851429Y-123023333D01*
X83089525Y-123023333D01*
X83184763Y-123070952D01*
X83232382Y-123118571D01*
X83280001Y-123213810D01*
X83280001Y-123451905D01*
X83232382Y-123547143D01*
X83184763Y-123594762D01*
X83089525Y-123642381D01*
X82851429Y-123642381D01*
X82756191Y-123594762D01*
X82708572Y-123547143D01*
X84422858Y-123356667D02*
X84899049Y-123356667D01*
X84327620Y-123642381D02*
X84660953Y-122642381D01*
X84994287Y-123642381D01*
X85756192Y-122642381D02*
X85565715Y-122642381D01*
X85470477Y-122690000D01*
X85422858Y-122737619D01*
X85327620Y-122880476D01*
X85280001Y-123070952D01*
X85280001Y-123451905D01*
X85327620Y-123547143D01*
X85375239Y-123594762D01*
X85470477Y-123642381D01*
X85660954Y-123642381D01*
X85756192Y-123594762D01*
X85803811Y-123547143D01*
X85851430Y-123451905D01*
X85851430Y-123213810D01*
X85803811Y-123118571D01*
X85756192Y-123070952D01*
X85660954Y-123023333D01*
X85470477Y-123023333D01*
X85375239Y-123070952D01*
X85327620Y-123118571D01*
X85280001Y-123213810D01*
X86994287Y-123356667D02*
X87470478Y-123356667D01*
X86899049Y-123642381D02*
X87232382Y-122642381D01*
X87565716Y-123642381D01*
X87803811Y-122642381D02*
X88470478Y-122642381D01*
X88041906Y-123642381D01*
D12*
X65909287Y-160698571D02*
X65409287Y-159984286D01*
X65052144Y-160698571D02*
X65052144Y-159198571D01*
X65623572Y-159198571D01*
X65766430Y-159270000D01*
X65837858Y-159341429D01*
X65909287Y-159484286D01*
X65909287Y-159698571D01*
X65837858Y-159841429D01*
X65766430Y-159912857D01*
X65623572Y-159984286D01*
X65052144Y-159984286D01*
X67123572Y-160627143D02*
X66980715Y-160698571D01*
X66695001Y-160698571D01*
X66552144Y-160627143D01*
X66480715Y-160484286D01*
X66480715Y-159912857D01*
X66552144Y-159770000D01*
X66695001Y-159698571D01*
X66980715Y-159698571D01*
X67123572Y-159770000D01*
X67195001Y-159912857D01*
X67195001Y-160055714D01*
X66480715Y-160198571D01*
X67695001Y-159698571D02*
X68052144Y-160698571D01*
X68409286Y-159698571D01*
X70909286Y-160698571D02*
X70052143Y-160698571D01*
X70480715Y-160698571D02*
X70480715Y-159198571D01*
X70337858Y-159412857D01*
X70195000Y-159555714D01*
X70052143Y-159627143D01*
X64647715Y-129351929D02*
X63789086Y-129200407D01*
X64041623Y-129958021D02*
X62980963Y-128897361D01*
X63385024Y-128493300D01*
X63536548Y-128442792D01*
X63637563Y-128442793D01*
X63789086Y-128493300D01*
X63940608Y-128644823D01*
X63991116Y-128796346D01*
X63991116Y-128897361D01*
X63940608Y-129048885D01*
X63536548Y-129452945D01*
X65455837Y-128442793D02*
X65405329Y-128594315D01*
X65203299Y-128796346D01*
X65051776Y-128846854D01*
X64900253Y-128796346D01*
X64496192Y-128392285D01*
X64445685Y-128240762D01*
X64496192Y-128089239D01*
X64698222Y-127887209D01*
X64849745Y-127836701D01*
X65001268Y-127887209D01*
X65102284Y-127988224D01*
X64698222Y-128594315D01*
X66465989Y-127533655D02*
X65910405Y-126978071D01*
X65758882Y-126927564D01*
X65607359Y-126978071D01*
X65405329Y-127180102D01*
X65354822Y-127331625D01*
X66415482Y-127483148D02*
X66364974Y-127634670D01*
X66112436Y-127887209D01*
X65960913Y-127937716D01*
X65809390Y-127887209D01*
X65708375Y-127786194D01*
X65657867Y-127634670D01*
X65708375Y-127483148D01*
X65960913Y-127230610D01*
X66011421Y-127079087D01*
X67122589Y-126877056D02*
X66971066Y-126927564D01*
X66819543Y-126877056D01*
X65910405Y-125967918D01*
X67122588Y-124755736D02*
X67728680Y-124149644D01*
X68486294Y-125513350D02*
X67425634Y-124452690D01*
X69142893Y-124856751D02*
X68435786Y-124149644D01*
X68082233Y-123796091D02*
X68082233Y-123897107D01*
X68183249Y-123897107D01*
X68183248Y-123796092D01*
X68082233Y-123796091D01*
X68183249Y-123897107D01*
X69647970Y-124351675D02*
X68940863Y-123644568D01*
X69041879Y-123745584D02*
X69041878Y-123644569D01*
X69092386Y-123493045D01*
X69243908Y-123341522D01*
X69395431Y-123291015D01*
X69546955Y-123341522D01*
X70102538Y-123897106D01*
X69546955Y-123341522D02*
X69496447Y-123189999D01*
X69546955Y-123038476D01*
X69698477Y-122886954D01*
X69850001Y-122836446D01*
X70001523Y-122886954D01*
X70557107Y-123442538D01*
X71415737Y-122482893D02*
X71365229Y-122634416D01*
X71163198Y-122836446D01*
X71011676Y-122886954D01*
X70860153Y-122836447D01*
X70456092Y-122432385D01*
X70405584Y-122280862D01*
X70456092Y-122129339D01*
X70658122Y-121927309D01*
X70809645Y-121876802D01*
X70961168Y-121927309D01*
X71062183Y-122028324D01*
X70658122Y-122634416D01*
X73284519Y-120513095D02*
X73284519Y-120614111D01*
X73183503Y-120816141D01*
X73082488Y-120917157D01*
X72880458Y-121018172D01*
X72678427Y-121018172D01*
X72526905Y-120967665D01*
X72274366Y-120816141D01*
X72122843Y-120664619D01*
X71971320Y-120412080D01*
X71920812Y-120260558D01*
X71920813Y-120058527D01*
X72021828Y-119856496D01*
X72122843Y-119755481D01*
X72324874Y-119654466D01*
X72425890Y-119654466D01*
X73991626Y-120008019D02*
X73840102Y-120058527D01*
X73688580Y-120008019D01*
X72779442Y-119098882D01*
X74547209Y-119452435D02*
X74395686Y-119502944D01*
X74294671Y-119502943D01*
X74143148Y-119452436D01*
X73840102Y-119149390D01*
X73789595Y-118997867D01*
X73789595Y-118896852D01*
X73840102Y-118745328D01*
X73991625Y-118593806D01*
X74143148Y-118543299D01*
X74244164Y-118543299D01*
X74395687Y-118593806D01*
X74698732Y-118896851D01*
X74749240Y-119048374D01*
X74749240Y-119149390D01*
X74698732Y-119300913D01*
X74547209Y-119452435D01*
X75759392Y-118139237D02*
X75708885Y-118290760D01*
X75506854Y-118492790D01*
X75355331Y-118543299D01*
X75254316Y-118543298D01*
X75102793Y-118492791D01*
X74799747Y-118189745D01*
X74749240Y-118038222D01*
X74749240Y-117937207D01*
X74799747Y-117785683D01*
X75001778Y-117583653D01*
X75153301Y-117533146D01*
X76264468Y-117735176D02*
X75203808Y-116674516D01*
X75961423Y-117230100D02*
X76668529Y-117331115D01*
X75961422Y-116624009D02*
X75961423Y-117432131D01*
X110691430Y-159698571D02*
X110691430Y-160912857D01*
X110620001Y-161055714D01*
X110548573Y-161127143D01*
X110405716Y-161198571D01*
X110191430Y-161198571D01*
X110048573Y-161127143D01*
X110691430Y-160627143D02*
X110548573Y-160698571D01*
X110262859Y-160698571D01*
X110120001Y-160627143D01*
X110048573Y-160555714D01*
X109977144Y-160412857D01*
X109977144Y-159984286D01*
X110048573Y-159841429D01*
X110120001Y-159770000D01*
X110262859Y-159698571D01*
X110548573Y-159698571D01*
X110691430Y-159770000D01*
X111405716Y-160698571D02*
X111405716Y-159698571D01*
X111405716Y-159198571D02*
X111334287Y-159270000D01*
X111405716Y-159341429D01*
X111477144Y-159270000D01*
X111405716Y-159198571D01*
X111405716Y-159341429D01*
X111905716Y-159698571D02*
X112477145Y-159698571D01*
X112120002Y-159198571D02*
X112120002Y-160484286D01*
X112191430Y-160627143D01*
X112334288Y-160698571D01*
X112477145Y-160698571D01*
X112977145Y-160698571D02*
X112977145Y-159198571D01*
X113620002Y-160698571D02*
X113620002Y-159912857D01*
X113548573Y-159770000D01*
X113405716Y-159698571D01*
X113191431Y-159698571D01*
X113048573Y-159770000D01*
X112977145Y-159841429D01*
X114977145Y-159698571D02*
X114977145Y-160698571D01*
X114334288Y-159698571D02*
X114334288Y-160484286D01*
X114405716Y-160627143D01*
X114548574Y-160698571D01*
X114762859Y-160698571D01*
X114905716Y-160627143D01*
X114977145Y-160555714D01*
X115691431Y-160698571D02*
X115691431Y-159198571D01*
X115691431Y-159770000D02*
X115834288Y-159698571D01*
X116120002Y-159698571D01*
X116262859Y-159770000D01*
X116334288Y-159841429D01*
X116405717Y-159984286D01*
X116405717Y-160412857D01*
X116334288Y-160555714D01*
X116262859Y-160627143D01*
X116120002Y-160698571D01*
X115834288Y-160698571D01*
X115691431Y-160627143D01*
X117048574Y-160555714D02*
X117120002Y-160627143D01*
X117048574Y-160698571D01*
X116977145Y-160627143D01*
X117048574Y-160555714D01*
X117048574Y-160698571D01*
X118405717Y-160627143D02*
X118262860Y-160698571D01*
X117977146Y-160698571D01*
X117834288Y-160627143D01*
X117762860Y-160555714D01*
X117691431Y-160412857D01*
X117691431Y-159984286D01*
X117762860Y-159841429D01*
X117834288Y-159770000D01*
X117977146Y-159698571D01*
X118262860Y-159698571D01*
X118405717Y-159770000D01*
X119262860Y-160698571D02*
X119120002Y-160627143D01*
X119048574Y-160555714D01*
X118977145Y-160412857D01*
X118977145Y-159984286D01*
X119048574Y-159841429D01*
X119120002Y-159770000D01*
X119262860Y-159698571D01*
X119477145Y-159698571D01*
X119620002Y-159770000D01*
X119691431Y-159841429D01*
X119762860Y-159984286D01*
X119762860Y-160412857D01*
X119691431Y-160555714D01*
X119620002Y-160627143D01*
X119477145Y-160698571D01*
X119262860Y-160698571D01*
X120405717Y-160698571D02*
X120405717Y-159698571D01*
X120405717Y-159841429D02*
X120477145Y-159770000D01*
X120620003Y-159698571D01*
X120834288Y-159698571D01*
X120977145Y-159770000D01*
X121048574Y-159912857D01*
X121048574Y-160698571D01*
X121048574Y-159912857D02*
X121120003Y-159770000D01*
X121262860Y-159698571D01*
X121477145Y-159698571D01*
X121620003Y-159770000D01*
X121691431Y-159912857D01*
X121691431Y-160698571D01*
X123477145Y-159127143D02*
X122191431Y-161055714D01*
X124548574Y-160627143D02*
X124405717Y-160698571D01*
X124120003Y-160698571D01*
X123977146Y-160627143D01*
X123905717Y-160484286D01*
X123905717Y-159912857D01*
X123977146Y-159770000D01*
X124120003Y-159698571D01*
X124405717Y-159698571D01*
X124548574Y-159770000D01*
X124620003Y-159912857D01*
X124620003Y-160055714D01*
X123905717Y-160198571D01*
X125477146Y-160698571D02*
X125334288Y-160627143D01*
X125262860Y-160484286D01*
X125262860Y-159198571D01*
X126620002Y-160627143D02*
X126477145Y-160698571D01*
X126191431Y-160698571D01*
X126048574Y-160627143D01*
X125977145Y-160484286D01*
X125977145Y-159912857D01*
X126048574Y-159770000D01*
X126191431Y-159698571D01*
X126477145Y-159698571D01*
X126620002Y-159770000D01*
X126691431Y-159912857D01*
X126691431Y-160055714D01*
X125977145Y-160198571D01*
X127977145Y-160627143D02*
X127834288Y-160698571D01*
X127548574Y-160698571D01*
X127405716Y-160627143D01*
X127334288Y-160555714D01*
X127262859Y-160412857D01*
X127262859Y-159984286D01*
X127334288Y-159841429D01*
X127405716Y-159770000D01*
X127548574Y-159698571D01*
X127834288Y-159698571D01*
X127977145Y-159770000D01*
X128405716Y-159698571D02*
X128977145Y-159698571D01*
X128620002Y-159198571D02*
X128620002Y-160484286D01*
X128691430Y-160627143D01*
X128834288Y-160698571D01*
X128977145Y-160698571D01*
X129477145Y-160698571D02*
X129477145Y-159698571D01*
X129477145Y-159984286D02*
X129548573Y-159841429D01*
X129620002Y-159770000D01*
X129762859Y-159698571D01*
X129905716Y-159698571D01*
X130405716Y-160698571D02*
X130405716Y-159698571D01*
X130405716Y-159198571D02*
X130334287Y-159270000D01*
X130405716Y-159341429D01*
X130477144Y-159270000D01*
X130405716Y-159198571D01*
X130405716Y-159341429D01*
X130905716Y-159698571D02*
X131477145Y-159698571D01*
X131120002Y-160698571D02*
X131120002Y-159412857D01*
X131191430Y-159270000D01*
X131334288Y-159198571D01*
X131477145Y-159198571D01*
X131977145Y-160698571D02*
X131977145Y-159698571D01*
X131977145Y-159198571D02*
X131905716Y-159270000D01*
X131977145Y-159341429D01*
X132048573Y-159270000D01*
X131977145Y-159198571D01*
X131977145Y-159341429D01*
X133262859Y-160627143D02*
X133120002Y-160698571D01*
X132834288Y-160698571D01*
X132691431Y-160627143D01*
X132620002Y-160484286D01*
X132620002Y-159912857D01*
X132691431Y-159770000D01*
X132834288Y-159698571D01*
X133120002Y-159698571D01*
X133262859Y-159770000D01*
X133334288Y-159912857D01*
X133334288Y-160055714D01*
X132620002Y-160198571D01*
X134620002Y-160698571D02*
X134620002Y-159198571D01*
X134620002Y-160627143D02*
X134477145Y-160698571D01*
X134191431Y-160698571D01*
X134048573Y-160627143D01*
X133977145Y-160555714D01*
X133905716Y-160412857D01*
X133905716Y-159984286D01*
X133977145Y-159841429D01*
X134048573Y-159770000D01*
X134191431Y-159698571D01*
X134477145Y-159698571D01*
X134620002Y-159770000D01*
X136405716Y-159127143D02*
X135120002Y-161055714D01*
X136905717Y-160698571D02*
X136905717Y-159698571D01*
X136905717Y-159984286D02*
X136977145Y-159841429D01*
X137048574Y-159770000D01*
X137191431Y-159698571D01*
X137334288Y-159698571D01*
X138477145Y-160627143D02*
X138334288Y-160698571D01*
X138048574Y-160698571D01*
X137905716Y-160627143D01*
X137834288Y-160555714D01*
X137762859Y-160412857D01*
X137762859Y-159984286D01*
X137834288Y-159841429D01*
X137905716Y-159770000D01*
X138048574Y-159698571D01*
X138334288Y-159698571D01*
X138477145Y-159770000D01*
X139048573Y-159341429D02*
X139120002Y-159270000D01*
X139262859Y-159198571D01*
X139620002Y-159198571D01*
X139762859Y-159270000D01*
X139834288Y-159341429D01*
X139905716Y-159484286D01*
X139905716Y-159627143D01*
X139834288Y-159841429D01*
X138977145Y-160698571D01*
X139905716Y-160698571D01*
X140834287Y-159198571D02*
X140977144Y-159198571D01*
X141120001Y-159270000D01*
X141191430Y-159341429D01*
X141262859Y-159484286D01*
X141334287Y-159770000D01*
X141334287Y-160127143D01*
X141262859Y-160412857D01*
X141191430Y-160555714D01*
X141120001Y-160627143D01*
X140977144Y-160698571D01*
X140834287Y-160698571D01*
X140691430Y-160627143D01*
X140620001Y-160555714D01*
X140548573Y-160412857D01*
X140477144Y-160127143D01*
X140477144Y-159770000D01*
X140548573Y-159484286D01*
X140620001Y-159341429D01*
X140691430Y-159270000D01*
X140834287Y-159198571D01*
X142762858Y-160698571D02*
X141905715Y-160698571D01*
X142334287Y-160698571D02*
X142334287Y-159198571D01*
X142191430Y-159412857D01*
X142048572Y-159555714D01*
X141905715Y-159627143D01*
X144048572Y-159698571D02*
X144048572Y-160698571D01*
X143691429Y-159127143D02*
X143334286Y-160198571D01*
X144262858Y-160198571D01*
X144834286Y-160127143D02*
X145977143Y-160127143D01*
X147334286Y-160698571D02*
X147334286Y-159198571D01*
X147334286Y-160627143D02*
X147191429Y-160698571D01*
X146905715Y-160698571D01*
X146762857Y-160627143D01*
X146691429Y-160555714D01*
X146620000Y-160412857D01*
X146620000Y-159984286D01*
X146691429Y-159841429D01*
X146762857Y-159770000D01*
X146905715Y-159698571D01*
X147191429Y-159698571D01*
X147334286Y-159770000D01*
X147977143Y-160627143D02*
X148120000Y-160698571D01*
X148405715Y-160698571D01*
X148548572Y-160627143D01*
X148620000Y-160484286D01*
X148620000Y-160412857D01*
X148548572Y-160270000D01*
X148405715Y-160198571D01*
X148191429Y-160198571D01*
X148048572Y-160127143D01*
X147977143Y-159984286D01*
X147977143Y-159912857D01*
X148048572Y-159770000D01*
X148191429Y-159698571D01*
X148405715Y-159698571D01*
X148548572Y-159770000D01*
X150048572Y-160698571D02*
X149191429Y-160698571D01*
X149620001Y-160698571D02*
X149620001Y-159198571D01*
X149477144Y-159412857D01*
X149334286Y-159555714D01*
X149191429Y-159627143D01*
X150548572Y-159198571D02*
X151477143Y-159198571D01*
X150977143Y-159770000D01*
X151191429Y-159770000D01*
X151334286Y-159841429D01*
X151405715Y-159912857D01*
X151477143Y-160055714D01*
X151477143Y-160412857D01*
X151405715Y-160555714D01*
X151334286Y-160627143D01*
X151191429Y-160698571D01*
X150762857Y-160698571D01*
X150620000Y-160627143D01*
X150548572Y-160555714D01*
X152405714Y-159198571D02*
X152548571Y-159198571D01*
X152691428Y-159270000D01*
X152762857Y-159341429D01*
X152834286Y-159484286D01*
X152905714Y-159770000D01*
X152905714Y-160127143D01*
X152834286Y-160412857D01*
X152762857Y-160555714D01*
X152691428Y-160627143D01*
X152548571Y-160698571D01*
X152405714Y-160698571D01*
X152262857Y-160627143D01*
X152191428Y-160555714D01*
X152120000Y-160412857D01*
X152048571Y-160127143D01*
X152048571Y-159770000D01*
X152120000Y-159484286D01*
X152191428Y-159341429D01*
X152262857Y-159270000D01*
X152405714Y-159198571D01*
X153477142Y-159341429D02*
X153548571Y-159270000D01*
X153691428Y-159198571D01*
X154048571Y-159198571D01*
X154191428Y-159270000D01*
X154262857Y-159341429D01*
X154334285Y-159484286D01*
X154334285Y-159627143D01*
X154262857Y-159841429D01*
X153405714Y-160698571D01*
X154334285Y-160698571D01*
X154977142Y-160127143D02*
X156119999Y-160127143D01*
X156834285Y-160698571D02*
X156834285Y-159698571D01*
X156834285Y-159984286D02*
X156905713Y-159841429D01*
X156977142Y-159770000D01*
X157119999Y-159698571D01*
X157262856Y-159698571D01*
X157548570Y-159698571D02*
X158119999Y-159698571D01*
X157762856Y-159198571D02*
X157762856Y-160484286D01*
X157834284Y-160627143D01*
X157977142Y-160698571D01*
X158119999Y-160698571D01*
X159262856Y-160627143D02*
X159119999Y-160698571D01*
X158834285Y-160698571D01*
X158691427Y-160627143D01*
X158619999Y-160555714D01*
X158548570Y-160412857D01*
X158548570Y-159984286D01*
X158619999Y-159841429D01*
X158691427Y-159770000D01*
X158834285Y-159698571D01*
X159119999Y-159698571D01*
X159262856Y-159770000D01*
D13*
X65830000Y-152130000D02*
X65830000Y-155250000D01*
X63710000Y-152130000D02*
X63710000Y-155250000D01*
X65830000Y-152130000D02*
X65766000Y-152130000D01*
X63774000Y-152130000D02*
X63710000Y-152130000D01*
X65830000Y-155250000D02*
X65766000Y-155250000D01*
X63774000Y-155250000D02*
X63710000Y-155250000D01*
X62000000Y-164330000D02*
X60670000Y-164330000D01*
X60670000Y-164330000D02*
X60670000Y-163000000D01*
X90310000Y-124330000D02*
X89040000Y-124330000D01*
X90310000Y-124330000D02*
X90310000Y-126870000D01*
X90110000Y-124530000D02*
X90110000Y-134550000D01*
X90110000Y-134550000D02*
X72450000Y-134550000D01*
X72450000Y-134550000D02*
X72450000Y-124530000D01*
X72450000Y-124530000D02*
X90110000Y-124530000D01*
X88265000Y-127510000D02*
X86995000Y-127510000D01*
X86995000Y-127510000D02*
X86995000Y-131570000D01*
X86995000Y-131570000D02*
X88265000Y-131570000D01*
X88265000Y-131570000D02*
X88265000Y-127510000D01*
X88265000Y-129540000D02*
X86995000Y-129540000D01*
X85725000Y-127510000D02*
X84455000Y-127510000D01*
X84455000Y-127510000D02*
X84455000Y-131570000D01*
X84455000Y-131570000D02*
X85725000Y-131570000D01*
X85725000Y-131570000D02*
X85725000Y-127510000D01*
X85725000Y-129540000D02*
X84455000Y-129540000D01*
X83185000Y-127510000D02*
X81915000Y-127510000D01*
X81915000Y-127510000D02*
X81915000Y-131570000D01*
X81915000Y-131570000D02*
X83185000Y-131570000D01*
X83185000Y-131570000D02*
X83185000Y-127510000D01*
X83185000Y-129540000D02*
X81915000Y-129540000D01*
X80645000Y-127510000D02*
X79375000Y-127510000D01*
X79375000Y-127510000D02*
X79375000Y-131570000D01*
X79375000Y-131570000D02*
X80645000Y-131570000D01*
X80645000Y-131570000D02*
X80645000Y-127510000D01*
X80645000Y-129540000D02*
X79375000Y-129540000D01*
X78105000Y-127510000D02*
X76835000Y-127510000D01*
X76835000Y-127510000D02*
X76835000Y-131570000D01*
X76835000Y-131570000D02*
X78105000Y-131570000D01*
X78105000Y-131570000D02*
X78105000Y-127510000D01*
X78105000Y-129540000D02*
X76835000Y-129540000D01*
X75565000Y-127510000D02*
X74295000Y-127510000D01*
X74295000Y-127510000D02*
X74295000Y-131570000D01*
X74295000Y-131570000D02*
X75565000Y-131570000D01*
X75565000Y-131570000D02*
X75565000Y-127510000D01*
X75565000Y-129540000D02*
X74295000Y-129540000D01*
X98000000Y-127270000D02*
X98000000Y-124150000D01*
X100120000Y-127270000D02*
X100120000Y-124150000D01*
X98000000Y-127270000D02*
X98064000Y-127270000D01*
X100056000Y-127270000D02*
X100120000Y-127270000D01*
X98000000Y-124150000D02*
X98064000Y-124150000D01*
X100056000Y-124150000D02*
X100120000Y-124150000D01*
X98000000Y-150130000D02*
X98000000Y-147010000D01*
X100120000Y-150130000D02*
X100120000Y-147010000D01*
X98000000Y-150130000D02*
X98064000Y-150130000D01*
X100056000Y-150130000D02*
X100120000Y-150130000D01*
X98000000Y-147010000D02*
X98064000Y-147010000D01*
X100056000Y-147010000D02*
X100120000Y-147010000D01*
X70950000Y-139570000D02*
X70950000Y-142370000D01*
X70950000Y-142370000D02*
X91610000Y-142370000D01*
X91610000Y-142370000D02*
X91610000Y-139570000D01*
X91610000Y-139570000D02*
X70950000Y-139570000D01*
X73660000Y-139570000D02*
X73660000Y-142370000D01*
X68520000Y-150130000D02*
G75*
G02X68520000Y-152130000I0J-1000000D01*
G01*
X68520000Y-152130000D02*
X68520000Y-153380000D01*
X68520000Y-153380000D02*
X94040000Y-153380000D01*
X94040000Y-153380000D02*
X94040000Y-148880000D01*
X94040000Y-148880000D02*
X68520000Y-148880000D01*
X68520000Y-148880000D02*
X68520000Y-150130000D01*
X68460000Y-156380000D02*
X94100000Y-156380000D01*
X94100000Y-156380000D02*
X94100000Y-145880000D01*
X94100000Y-145880000D02*
X68460000Y-145880000D01*
X68460000Y-145880000D02*
X68460000Y-156380000D01*
X98000000Y-136200000D02*
X98000000Y-133080000D01*
X100120000Y-136200000D02*
X100120000Y-133080000D01*
X98000000Y-136200000D02*
X98064000Y-136200000D01*
X100056000Y-136200000D02*
X100120000Y-136200000D01*
X98000000Y-133080000D02*
X98064000Y-133080000D01*
X100056000Y-133080000D02*
X100120000Y-133080000D01*
X127210000Y-155250000D02*
X127210000Y-152130000D01*
X129330000Y-155250000D02*
X129330000Y-152130000D01*
X127210000Y-155250000D02*
X127274000Y-155250000D01*
X129266000Y-155250000D02*
X129330000Y-155250000D01*
X127210000Y-152130000D02*
X127274000Y-152130000D01*
X129266000Y-152130000D02*
X129330000Y-152130000D01*
X117470217Y-124997137D02*
G75*
G03X115570000Y-124996856I-950217J-732863D01*
G01*
X117470217Y-126462863D02*
G75*
G02X115570000Y-126463144I-950217J732863D01*
G01*
X102810000Y-136160000D02*
G75*
G02X102810000Y-138160000I0J-1000000D01*
G01*
X102810000Y-138160000D02*
X102810000Y-139410000D01*
X102810000Y-139410000D02*
X120710000Y-139410000D01*
X120710000Y-139410000D02*
X120710000Y-134910000D01*
X120710000Y-134910000D02*
X102810000Y-134910000D01*
X102810000Y-134910000D02*
X102810000Y-136160000D01*
X102750000Y-142410000D02*
X120770000Y-142410000D01*
X120770000Y-142410000D02*
X120770000Y-131910000D01*
X120770000Y-131910000D02*
X102750000Y-131910000D01*
X102750000Y-131910000D02*
X102750000Y-142410000D01*
X132020000Y-150130000D02*
G75*
G02X132020000Y-152130000I0J-1000000D01*
G01*
X132020000Y-152130000D02*
X132020000Y-153380000D01*
X132020000Y-153380000D02*
X152460000Y-153380000D01*
X152460000Y-153380000D02*
X152460000Y-148880000D01*
X152460000Y-148880000D02*
X132020000Y-148880000D01*
X132020000Y-148880000D02*
X132020000Y-150130000D01*
X131960000Y-156380000D02*
X152520000Y-156380000D01*
X152520000Y-156380000D02*
X152520000Y-145880000D01*
X152520000Y-145880000D02*
X131960000Y-145880000D01*
X131960000Y-145880000D02*
X131960000Y-156380000D01*
X102810000Y-122190000D02*
G75*
G02X102810000Y-124190000I0J-1000000D01*
G01*
X102810000Y-124190000D02*
X102810000Y-125440000D01*
X102810000Y-125440000D02*
X113090000Y-125440000D01*
X113090000Y-125440000D02*
X113090000Y-120940000D01*
X113090000Y-120940000D02*
X102810000Y-120940000D01*
X102810000Y-120940000D02*
X102810000Y-122190000D01*
X102750000Y-128440000D02*
X113150000Y-128440000D01*
X113150000Y-128440000D02*
X113150000Y-117940000D01*
X113150000Y-117940000D02*
X102750000Y-117940000D01*
X102750000Y-117940000D02*
X102750000Y-128440000D01*
X102810000Y-150130000D02*
G75*
G02X102810000Y-152130000I0J-1000000D01*
G01*
X102810000Y-152130000D02*
X102810000Y-153380000D01*
X102810000Y-153380000D02*
X120710000Y-153380000D01*
X120710000Y-153380000D02*
X120710000Y-148880000D01*
X120710000Y-148880000D02*
X102810000Y-148880000D01*
X102810000Y-148880000D02*
X102810000Y-150130000D01*
X102750000Y-156380000D02*
X120770000Y-156380000D01*
X120770000Y-156380000D02*
X120770000Y-145880000D01*
X120770000Y-145880000D02*
X102750000Y-145880000D01*
X102750000Y-145880000D02*
X102750000Y-156380000D01*
X125910262Y-129555231D02*
G75*
G02X153460000Y-126020000I13999738J15231D01*
G01*
X125910262Y-129524769D02*
G75*
G03X153460000Y-133060000I13999738J-15231D01*
G01*
X153455231Y-125996515D02*
G75*
G03X154160000Y-126490000I704769J256515D01*
G01*
X153455231Y-133083485D02*
G75*
G02X154160000Y-132590000I704769J-256515D01*
G01*
X154160000Y-132590000D02*
X156610000Y-132590000D01*
X156610000Y-126490000D02*
X154160000Y-126490000D01*
X156610000Y-132590000D02*
G75*
G03X157160000Y-132040000I0J550000D01*
G01*
X156610000Y-126490000D02*
G75*
G02X157160000Y-127040000I0J-550000D01*
G01*
X157160000Y-132040000D02*
X157160000Y-127040000D01*
D14*
X64603334Y-150257143D02*
X64555715Y-150304762D01*
X64412858Y-150352381D01*
X64317620Y-150352381D01*
X64174762Y-150304762D01*
X64079524Y-150209524D01*
X64031905Y-150114286D01*
X63984286Y-149923810D01*
X63984286Y-149780952D01*
X64031905Y-149590476D01*
X64079524Y-149495238D01*
X64174762Y-149400000D01*
X64317620Y-149352381D01*
X64412858Y-149352381D01*
X64555715Y-149400000D01*
X64603334Y-149447619D01*
X64984286Y-149447619D02*
X65031905Y-149400000D01*
X65127143Y-149352381D01*
X65365239Y-149352381D01*
X65460477Y-149400000D01*
X65508096Y-149447619D01*
X65555715Y-149542857D01*
X65555715Y-149638095D01*
X65508096Y-149780952D01*
X64936667Y-150352381D01*
X65555715Y-150352381D01*
X61261905Y-160912381D02*
X61261905Y-159912381D01*
X61642858Y-159912381D01*
X61738096Y-159960000D01*
X61785715Y-160007619D01*
X61833334Y-160102857D01*
X61833334Y-160245714D01*
X61785715Y-160340952D01*
X61738096Y-160388571D01*
X61642858Y-160436190D01*
X61261905Y-160436190D01*
X62785715Y-160912381D02*
X62214286Y-160912381D01*
X62500000Y-160912381D02*
X62500000Y-159912381D01*
X62404762Y-160055238D01*
X62309524Y-160150476D01*
X62214286Y-160198095D01*
X69151667Y-129944762D02*
X69294524Y-129992381D01*
X69532620Y-129992381D01*
X69627858Y-129944762D01*
X69675477Y-129897143D01*
X69723096Y-129801905D01*
X69723096Y-129706667D01*
X69675477Y-129611429D01*
X69627858Y-129563810D01*
X69532620Y-129516190D01*
X69342143Y-129468571D01*
X69246905Y-129420952D01*
X69199286Y-129373333D01*
X69151667Y-129278095D01*
X69151667Y-129182857D01*
X69199286Y-129087619D01*
X69246905Y-129040000D01*
X69342143Y-128992381D01*
X69580239Y-128992381D01*
X69723096Y-129040000D01*
X70056429Y-128992381D02*
X70294524Y-129992381D01*
X70485001Y-129278095D01*
X70675477Y-129992381D01*
X70913572Y-128992381D01*
X71818334Y-129992381D02*
X71246905Y-129992381D01*
X71532619Y-129992381D02*
X71532619Y-128992381D01*
X71437381Y-129135238D01*
X71342143Y-129230476D01*
X71246905Y-129278095D01*
X98893334Y-122237143D02*
X98845715Y-122284762D01*
X98702858Y-122332381D01*
X98607620Y-122332381D01*
X98464762Y-122284762D01*
X98369524Y-122189524D01*
X98321905Y-122094286D01*
X98274286Y-121903810D01*
X98274286Y-121760952D01*
X98321905Y-121570476D01*
X98369524Y-121475238D01*
X98464762Y-121380000D01*
X98607620Y-121332381D01*
X98702858Y-121332381D01*
X98845715Y-121380000D01*
X98893334Y-121427619D01*
X99845715Y-122332381D02*
X99274286Y-122332381D01*
X99560000Y-122332381D02*
X99560000Y-121332381D01*
X99464762Y-121475238D01*
X99369524Y-121570476D01*
X99274286Y-121618095D01*
X98893334Y-145097143D02*
X98845715Y-145144762D01*
X98702858Y-145192381D01*
X98607620Y-145192381D01*
X98464762Y-145144762D01*
X98369524Y-145049524D01*
X98321905Y-144954286D01*
X98274286Y-144763810D01*
X98274286Y-144620952D01*
X98321905Y-144430476D01*
X98369524Y-144335238D01*
X98464762Y-144240000D01*
X98607620Y-144192381D01*
X98702858Y-144192381D01*
X98845715Y-144240000D01*
X98893334Y-144287619D01*
X99226667Y-144192381D02*
X99845715Y-144192381D01*
X99512381Y-144573333D01*
X99655239Y-144573333D01*
X99750477Y-144620952D01*
X99798096Y-144668571D01*
X99845715Y-144763810D01*
X99845715Y-145001905D01*
X99798096Y-145097143D01*
X99750477Y-145144762D01*
X99655239Y-145192381D01*
X99369524Y-145192381D01*
X99274286Y-145144762D01*
X99226667Y-145097143D01*
X68524524Y-141422381D02*
X68191190Y-140946190D01*
X67953095Y-141422381D02*
X67953095Y-140422381D01*
X68334048Y-140422381D01*
X68429286Y-140470000D01*
X68476905Y-140517619D01*
X68524524Y-140612857D01*
X68524524Y-140755714D01*
X68476905Y-140850952D01*
X68429286Y-140898571D01*
X68334048Y-140946190D01*
X67953095Y-140946190D01*
X68953095Y-141422381D02*
X68953095Y-140422381D01*
X69524524Y-141422381D01*
X69524524Y-140422381D01*
X70524524Y-141422381D02*
X69953095Y-141422381D01*
X70238809Y-141422381D02*
X70238809Y-140422381D01*
X70143571Y-140565238D01*
X70048333Y-140660476D01*
X69953095Y-140708095D01*
X66972381Y-151891905D02*
X67781905Y-151891905D01*
X67877143Y-151844286D01*
X67924762Y-151796667D01*
X67972381Y-151701429D01*
X67972381Y-151510952D01*
X67924762Y-151415714D01*
X67877143Y-151368095D01*
X67781905Y-151320476D01*
X66972381Y-151320476D01*
X67972381Y-150320476D02*
X67972381Y-150891905D01*
X67972381Y-150606191D02*
X66972381Y-150606191D01*
X67115238Y-150701429D01*
X67210476Y-150796667D01*
X67258095Y-150891905D01*
X98893334Y-131207143D02*
X98845715Y-131254762D01*
X98702858Y-131302381D01*
X98607620Y-131302381D01*
X98464762Y-131254762D01*
X98369524Y-131159524D01*
X98321905Y-131064286D01*
X98274286Y-130873810D01*
X98274286Y-130730952D01*
X98321905Y-130540476D01*
X98369524Y-130445238D01*
X98464762Y-130350000D01*
X98607620Y-130302381D01*
X98702858Y-130302381D01*
X98845715Y-130350000D01*
X98893334Y-130397619D01*
X99750477Y-130635714D02*
X99750477Y-131302381D01*
X99512381Y-130254762D02*
X99274286Y-130969048D01*
X99893334Y-130969048D01*
X128103334Y-150257143D02*
X128055715Y-150304762D01*
X127912858Y-150352381D01*
X127817620Y-150352381D01*
X127674762Y-150304762D01*
X127579524Y-150209524D01*
X127531905Y-150114286D01*
X127484286Y-149923810D01*
X127484286Y-149780952D01*
X127531905Y-149590476D01*
X127579524Y-149495238D01*
X127674762Y-149400000D01*
X127817620Y-149352381D01*
X127912858Y-149352381D01*
X128055715Y-149400000D01*
X128103334Y-149447619D01*
X129008096Y-149352381D02*
X128531905Y-149352381D01*
X128484286Y-149828571D01*
X128531905Y-149780952D01*
X128627143Y-149733333D01*
X128865239Y-149733333D01*
X128960477Y-149780952D01*
X129008096Y-149828571D01*
X129055715Y-149923810D01*
X129055715Y-150161905D01*
X129008096Y-150257143D01*
X128960477Y-150304762D01*
X128865239Y-150352381D01*
X128627143Y-150352381D01*
X128531905Y-150304762D01*
X128484286Y-150257143D01*
X116043809Y-123506190D02*
X116043809Y-123982381D01*
X115710476Y-122982381D02*
X116043809Y-123506190D01*
X116377143Y-122982381D01*
X117234286Y-123982381D02*
X116662857Y-123982381D01*
X116948571Y-123982381D02*
X116948571Y-122982381D01*
X116853333Y-123125238D01*
X116758095Y-123220476D01*
X116662857Y-123268095D01*
X101262381Y-137921905D02*
X102071905Y-137921905D01*
X102167143Y-137874286D01*
X102214762Y-137826667D01*
X102262381Y-137731429D01*
X102262381Y-137540952D01*
X102214762Y-137445714D01*
X102167143Y-137398095D01*
X102071905Y-137350476D01*
X101262381Y-137350476D01*
X101357619Y-136921905D02*
X101310000Y-136874286D01*
X101262381Y-136779048D01*
X101262381Y-136540952D01*
X101310000Y-136445714D01*
X101357619Y-136398095D01*
X101452857Y-136350476D01*
X101548095Y-136350476D01*
X101690952Y-136398095D01*
X102262381Y-136969524D01*
X102262381Y-136350476D01*
X130472381Y-151891905D02*
X131281905Y-151891905D01*
X131377143Y-151844286D01*
X131424762Y-151796667D01*
X131472381Y-151701429D01*
X131472381Y-151510952D01*
X131424762Y-151415714D01*
X131377143Y-151368095D01*
X131281905Y-151320476D01*
X130472381Y-151320476D01*
X130472381Y-150939524D02*
X130472381Y-150320476D01*
X130853333Y-150653810D01*
X130853333Y-150510952D01*
X130900952Y-150415714D01*
X130948571Y-150368095D01*
X131043810Y-150320476D01*
X131281905Y-150320476D01*
X131377143Y-150368095D01*
X131424762Y-150415714D01*
X131472381Y-150510952D01*
X131472381Y-150796667D01*
X131424762Y-150891905D01*
X131377143Y-150939524D01*
X101262381Y-123951905D02*
X102071905Y-123951905D01*
X102167143Y-123904286D01*
X102214762Y-123856667D01*
X102262381Y-123761429D01*
X102262381Y-123570952D01*
X102214762Y-123475714D01*
X102167143Y-123428095D01*
X102071905Y-123380476D01*
X101262381Y-123380476D01*
X101595714Y-122475714D02*
X102262381Y-122475714D01*
X101214762Y-122713810D02*
X101929048Y-122951905D01*
X101929048Y-122332857D01*
X101262381Y-151891905D02*
X102071905Y-151891905D01*
X102167143Y-151844286D01*
X102214762Y-151796667D01*
X102262381Y-151701429D01*
X102262381Y-151510952D01*
X102214762Y-151415714D01*
X102167143Y-151368095D01*
X102071905Y-151320476D01*
X101262381Y-151320476D01*
X101262381Y-150368095D02*
X101262381Y-150844286D01*
X101738571Y-150891905D01*
X101690952Y-150844286D01*
X101643333Y-150749048D01*
X101643333Y-150510952D01*
X101690952Y-150415714D01*
X101738571Y-150368095D01*
X101833810Y-150320476D01*
X102071905Y-150320476D01*
X102167143Y-150368095D01*
X102214762Y-150415714D01*
X102262381Y-150510952D01*
X102262381Y-150749048D01*
X102214762Y-150844286D01*
X102167143Y-150891905D01*
X155574286Y-133968571D02*
X155717143Y-134016190D01*
X155764762Y-134063810D01*
X155812381Y-134159048D01*
X155812381Y-134301905D01*
X155764762Y-134397143D01*
X155717143Y-134444762D01*
X155621905Y-134492381D01*
X155240952Y-134492381D01*
X155240952Y-133492381D01*
X155574286Y-133492381D01*
X155669524Y-133540000D01*
X155717143Y-133587619D01*
X155764762Y-133682857D01*
X155764762Y-133778095D01*
X155717143Y-133873333D01*
X155669524Y-133920952D01*
X155574286Y-133968571D01*
X155240952Y-133968571D01*
X156098095Y-133492381D02*
X156669524Y-133492381D01*
X156383809Y-134492381D02*
X156383809Y-133492381D01*
X157526667Y-134492381D02*
X156955238Y-134492381D01*
X157240952Y-134492381D02*
X157240952Y-133492381D01*
X157145714Y-133635238D01*
X157050476Y-133730476D01*
X156955238Y-133778095D01*
X151788572Y-129647143D02*
X152931429Y-129647143D01*
X152360000Y-130218571D02*
X152360000Y-129075714D01*
M02*
