M48
;DRILL file {KiCad 4.0.7} date Sun Jan 21 13:03:25 2018
;FORMAT={-:-/ absolute / metric / decimal}
FMAT,2
METRIC,TZ
T1C0.300
T2C0.500
T3C0.800
T4C1.000
T5C1.500
%
G90
G05
M71
T1
X63.5Y-132.08
X63.5Y-158.75
X67.31Y-144.78
X73.66Y-160.02
X81.28Y-119.38
X91.341Y-152.175
X93.956Y-154.178
X93.98Y-119.38
X93.98Y-132.08
X93.98Y-142.24
X96.52Y-158.75
X97.221Y-150.524
X103.408Y-157.141
X113.335Y-159.924
X117.868Y-157.819
X123.19Y-154.94
X127.Y-130.81
X127.Y-140.97
X140.97Y-119.38
X140.97Y-142.24
X154.94Y-119.38
X154.94Y-142.24
X154.94Y-153.67
T2
X115.57Y-125.73
X117.47Y-125.73
T3
X64.77Y-152.44
X64.77Y-154.94
X69.85Y-147.32
X69.85Y-154.94
X72.39Y-140.97
X72.39Y-147.32
X72.39Y-154.94
X74.93Y-125.73
X74.93Y-133.35
X74.93Y-140.97
X74.93Y-147.32
X74.93Y-154.94
X77.47Y-125.73
X77.47Y-133.35
X77.47Y-140.97
X77.47Y-147.32
X77.47Y-154.94
X80.01Y-125.73
X80.01Y-133.35
X80.01Y-140.97
X80.01Y-147.32
X80.01Y-154.94
X82.55Y-125.73
X82.55Y-133.35
X82.55Y-140.97
X82.55Y-147.32
X82.55Y-154.94
X85.09Y-125.73
X85.09Y-133.35
X85.09Y-140.97
X85.09Y-147.32
X85.09Y-154.94
X87.63Y-125.73
X87.63Y-133.35
X87.63Y-140.97
X87.63Y-147.32
X87.63Y-154.94
X90.17Y-140.97
X90.17Y-147.32
X90.17Y-154.94
X92.71Y-147.32
X92.71Y-154.94
X99.06Y-124.46
X99.06Y-126.96
X99.06Y-133.39
X99.06Y-135.89
X99.06Y-147.32
X99.06Y-149.82
X104.14Y-119.38
X104.14Y-127.
X104.14Y-133.35
X104.14Y-140.97
X104.14Y-147.32
X104.14Y-154.94
X106.68Y-119.38
X106.68Y-127.
X106.68Y-133.35
X106.68Y-140.97
X106.68Y-147.32
X106.68Y-154.94
X109.22Y-119.38
X109.22Y-127.
X109.22Y-133.35
X109.22Y-140.97
X109.22Y-147.32
X109.22Y-154.94
X111.76Y-119.38
X111.76Y-127.
X111.76Y-133.35
X111.76Y-140.97
X111.76Y-147.32
X111.76Y-154.94
X114.3Y-133.35
X114.3Y-140.97
X114.3Y-147.32
X114.3Y-154.94
X116.84Y-133.35
X116.84Y-140.97
X116.84Y-147.32
X116.84Y-154.94
X119.38Y-133.35
X119.38Y-140.97
X119.38Y-147.32
X119.38Y-154.94
X128.27Y-152.44
X128.27Y-154.94
X133.35Y-147.32
X133.35Y-154.94
X135.89Y-147.32
X135.89Y-154.94
X138.43Y-147.32
X138.43Y-154.94
X140.97Y-147.32
X140.97Y-154.94
X143.51Y-147.32
X143.51Y-154.94
X146.05Y-147.32
X146.05Y-154.94
X148.59Y-147.32
X148.59Y-154.94
X151.13Y-147.32
X151.13Y-154.94
T4
X62.Y-163.
X64.54Y-163.
X67.08Y-163.
X69.62Y-163.
X72.16Y-163.
X74.7Y-163.
X77.24Y-163.
X79.78Y-163.
X82.32Y-163.
X84.86Y-163.
X87.4Y-163.
X89.94Y-163.
X92.48Y-163.
X95.02Y-163.
X97.56Y-163.
X100.1Y-163.
X102.64Y-163.
X105.18Y-163.
X107.72Y-163.
X110.26Y-163.
X112.8Y-163.
X115.34Y-163.
X117.88Y-163.
X120.42Y-163.
X122.96Y-163.
X125.5Y-163.
X128.04Y-163.
X130.58Y-163.
X133.12Y-163.
X135.66Y-163.
X138.2Y-163.
X140.74Y-163.
X143.28Y-163.
X145.82Y-163.
X148.36Y-163.
X150.9Y-163.
X153.44Y-163.
X155.98Y-163.
X158.52Y-163.
T5
X134.62Y-129.54
X155.11Y-129.54
T0
M30
