G04 #@! TF.FileFunction,Copper,L1,Top,Signal*
%FSLAX46Y46*%
G04 Gerber Fmt 4.6, Leading zero omitted, Abs format (unit mm)*
G04 Created by KiCad (PCBNEW 4.0.7) date Sun Jan 21 13:03:22 2018*
%MOMM*%
%LPD*%
G01*
G04 APERTURE LIST*
%ADD10C,0.100000*%
%ADD11C,0.600000*%
%ADD12C,1.600000*%
%ADD13R,2.000000X2.000000*%
%ADD14O,2.000000X2.000000*%
%ADD15R,1.600000X1.600000*%
%ADD16O,1.600000X1.600000*%
%ADD17R,1.600000X2.400000*%
%ADD18O,1.600000X2.400000*%
%ADD19C,1.000000*%
%ADD20C,3.000000*%
%ADD21R,3.000000X3.000000*%
%ADD22C,0.635000*%
%ADD23C,0.507000*%
G04 APERTURE END LIST*
D10*
D11*
X127000000Y-130810000D03*
X127000000Y-140970000D03*
X140970000Y-142240000D03*
X140970000Y-119380000D03*
X63500000Y-132080000D03*
X93980000Y-142240000D03*
X93980000Y-132080000D03*
X81280000Y-119380000D03*
X123190000Y-154940000D03*
X154940000Y-119380000D03*
X154940000Y-142240000D03*
X154940000Y-153670000D03*
X93980000Y-119380000D03*
X63500000Y-158750000D03*
D12*
X64770000Y-152440000D03*
X64770000Y-154940000D03*
D13*
X62000000Y-163000000D03*
D14*
X64540000Y-163000000D03*
X67080000Y-163000000D03*
X69620000Y-163000000D03*
X72160000Y-163000000D03*
X74700000Y-163000000D03*
X77240000Y-163000000D03*
X79780000Y-163000000D03*
X82320000Y-163000000D03*
X84860000Y-163000000D03*
X87400000Y-163000000D03*
X89940000Y-163000000D03*
X92480000Y-163000000D03*
X95020000Y-163000000D03*
X97560000Y-163000000D03*
X100100000Y-163000000D03*
X102640000Y-163000000D03*
X105180000Y-163000000D03*
X107720000Y-163000000D03*
X110260000Y-163000000D03*
X112800000Y-163000000D03*
X115340000Y-163000000D03*
X117880000Y-163000000D03*
X120420000Y-163000000D03*
X122960000Y-163000000D03*
X125500000Y-163000000D03*
X128040000Y-163000000D03*
X130580000Y-163000000D03*
X133120000Y-163000000D03*
X135660000Y-163000000D03*
X138200000Y-163000000D03*
X140740000Y-163000000D03*
X143280000Y-163000000D03*
X145820000Y-163000000D03*
X148360000Y-163000000D03*
X150900000Y-163000000D03*
X153440000Y-163000000D03*
X155980000Y-163000000D03*
X158520000Y-163000000D03*
D15*
X87630000Y-125730000D03*
D16*
X74930000Y-133350000D03*
X85090000Y-125730000D03*
X77470000Y-133350000D03*
X82550000Y-125730000D03*
X80010000Y-133350000D03*
X80010000Y-125730000D03*
X82550000Y-133350000D03*
X77470000Y-125730000D03*
X85090000Y-133350000D03*
X74930000Y-125730000D03*
X87630000Y-133350000D03*
D12*
X99060000Y-126960000D03*
X99060000Y-124460000D03*
X99060000Y-149820000D03*
X99060000Y-147320000D03*
D15*
X72390000Y-140970000D03*
D16*
X74930000Y-140970000D03*
X77470000Y-140970000D03*
X80010000Y-140970000D03*
X82550000Y-140970000D03*
X85090000Y-140970000D03*
X87630000Y-140970000D03*
X90170000Y-140970000D03*
D17*
X69850000Y-154940000D03*
D18*
X92710000Y-147320000D03*
X72390000Y-154940000D03*
X90170000Y-147320000D03*
X74930000Y-154940000D03*
X87630000Y-147320000D03*
X77470000Y-154940000D03*
X85090000Y-147320000D03*
X80010000Y-154940000D03*
X82550000Y-147320000D03*
X82550000Y-154940000D03*
X80010000Y-147320000D03*
X85090000Y-154940000D03*
X77470000Y-147320000D03*
X87630000Y-154940000D03*
X74930000Y-147320000D03*
X90170000Y-154940000D03*
X72390000Y-147320000D03*
X92710000Y-154940000D03*
X69850000Y-147320000D03*
D12*
X99060000Y-135890000D03*
X99060000Y-133390000D03*
X128270000Y-154940000D03*
X128270000Y-152440000D03*
D19*
X115570000Y-125730000D03*
X117470000Y-125730000D03*
D17*
X104140000Y-140970000D03*
D18*
X119380000Y-133350000D03*
X106680000Y-140970000D03*
X116840000Y-133350000D03*
X109220000Y-140970000D03*
X114300000Y-133350000D03*
X111760000Y-140970000D03*
X111760000Y-133350000D03*
X114300000Y-140970000D03*
X109220000Y-133350000D03*
X116840000Y-140970000D03*
X106680000Y-133350000D03*
X119380000Y-140970000D03*
X104140000Y-133350000D03*
D17*
X133350000Y-154940000D03*
D18*
X151130000Y-147320000D03*
X135890000Y-154940000D03*
X148590000Y-147320000D03*
X138430000Y-154940000D03*
X146050000Y-147320000D03*
X140970000Y-154940000D03*
X143510000Y-147320000D03*
X143510000Y-154940000D03*
X140970000Y-147320000D03*
X146050000Y-154940000D03*
X138430000Y-147320000D03*
X148590000Y-154940000D03*
X135890000Y-147320000D03*
X151130000Y-154940000D03*
X133350000Y-147320000D03*
D17*
X104140000Y-127000000D03*
D18*
X111760000Y-119380000D03*
X106680000Y-127000000D03*
X109220000Y-119380000D03*
X109220000Y-127000000D03*
X106680000Y-119380000D03*
X111760000Y-127000000D03*
X104140000Y-119380000D03*
D17*
X104140000Y-154940000D03*
D18*
X119380000Y-147320000D03*
X106680000Y-154940000D03*
X116840000Y-147320000D03*
X109220000Y-154940000D03*
X114300000Y-147320000D03*
X111760000Y-154940000D03*
X111760000Y-147320000D03*
X114300000Y-154940000D03*
X109220000Y-147320000D03*
X116840000Y-154940000D03*
X106680000Y-147320000D03*
X119380000Y-154940000D03*
X104140000Y-147320000D03*
D20*
X134620000Y-129540000D03*
D21*
X155110000Y-129540000D03*
D11*
X73660000Y-160020000D03*
X67310000Y-144780000D03*
X96520000Y-158750000D03*
X113335500Y-159924500D03*
X93956300Y-154177700D03*
X103408400Y-157141500D03*
X117868500Y-157818800D03*
X97221100Y-150523900D03*
X91341200Y-152174700D03*
D22*
X73660000Y-127000000D02*
X73660000Y-143110000D01*
X73660000Y-143110000D02*
X69850000Y-146920000D01*
X69850000Y-146920000D02*
X69850000Y-147320000D01*
X74930000Y-125730000D02*
X73660000Y-127000000D01*
X99100000Y-127000000D02*
X99060000Y-126960000D01*
X99060000Y-149820000D02*
X103735200Y-149820000D01*
X124604300Y-158605700D02*
X128270000Y-154940000D01*
X110688000Y-158605700D02*
X124604300Y-158605700D01*
X107950000Y-155867700D02*
X110688000Y-158605700D01*
X107950000Y-154034800D02*
X107950000Y-155867700D01*
X103735200Y-149820000D02*
X107950000Y-154034800D01*
X104140000Y-149415200D02*
X103735200Y-149820000D01*
X104140000Y-147320000D02*
X104140000Y-149415200D01*
X111760000Y-127000000D02*
X111760000Y-127400000D01*
X92710000Y-155340000D02*
X92710000Y-154940000D01*
X125770000Y-154940000D02*
X128270000Y-152440000D01*
X119380000Y-154940000D02*
X125770000Y-154940000D01*
X133120000Y-160250000D02*
X133120000Y-163000000D01*
X138430000Y-154940000D02*
X133120000Y-160250000D01*
X135660000Y-160250000D02*
X135660000Y-163000000D01*
X140970000Y-154940000D02*
X135660000Y-160250000D01*
X138200000Y-162790000D02*
X138200000Y-163000000D01*
X146050000Y-154940000D02*
X138200000Y-162790000D01*
X128365500Y-159924500D02*
X113335500Y-159924500D01*
X133350000Y-154940000D02*
X128365500Y-159924500D01*
X93956300Y-161523700D02*
X93956300Y-154177700D01*
X92480000Y-163000000D02*
X93956300Y-161523700D01*
X103408400Y-157141500D02*
X100726200Y-157141500D01*
X100726200Y-157141500D02*
X94783298Y-151198598D01*
X69850000Y-154540000D02*
X69850000Y-154940000D01*
X94783298Y-151198598D02*
X73191402Y-151198598D01*
X73191402Y-151198598D02*
X69850000Y-154540000D01*
X117178800Y-157818800D02*
X117868500Y-157818800D01*
X114300000Y-154940000D02*
X117178800Y-157818800D01*
X118892600Y-161472600D02*
X120420000Y-163000000D01*
X110672600Y-161472600D02*
X118892600Y-161472600D01*
X104140000Y-154940000D02*
X110672600Y-161472600D01*
X82550000Y-147320000D02*
X84410278Y-149180278D01*
X84410278Y-149180278D02*
X95877478Y-149180278D01*
X95877478Y-149180278D02*
X97221100Y-150523900D01*
X83129400Y-144089400D02*
X80010000Y-140970000D01*
X86939400Y-144089400D02*
X83129400Y-144089400D01*
X90170000Y-147320000D02*
X86939400Y-144089400D01*
X80010000Y-138430000D02*
X80010000Y-133350000D01*
X82550000Y-140970000D02*
X80010000Y-138430000D01*
X77695300Y-152174700D02*
X91341200Y-152174700D01*
X74930000Y-154940000D02*
X77695300Y-152174700D01*
X79149900Y-142649900D02*
X77470000Y-140970000D01*
X80419900Y-142649900D02*
X79149900Y-142649900D01*
X85090000Y-147320000D02*
X80419900Y-142649900D01*
X106654900Y-121894900D02*
X104140000Y-119380000D01*
X147464900Y-121894900D02*
X106654900Y-121894900D01*
X155110000Y-129540000D02*
X147464900Y-121894900D01*
X72390000Y-147320000D02*
X75280910Y-150210910D01*
X75280910Y-150210910D02*
X95371164Y-150210910D01*
X95371164Y-150210910D02*
X97045940Y-151885686D01*
X97045940Y-151885686D02*
X103728586Y-151885686D01*
X103728586Y-151885686D02*
X106680000Y-154837100D01*
X106680000Y-154837100D02*
X106680000Y-154940000D01*
X151130000Y-147320000D02*
X147710728Y-150739272D01*
X147710728Y-150739272D02*
X113420728Y-150739272D01*
X113420728Y-150739272D02*
X109220000Y-154940000D01*
X148590000Y-147320000D02*
X148590000Y-148069238D01*
X148590000Y-148069238D02*
X147000024Y-149659214D01*
X147000024Y-149659214D02*
X124976236Y-149659214D01*
X124976236Y-149659214D02*
X119462022Y-144145000D01*
X119462022Y-144145000D02*
X114935000Y-144145000D01*
X114935000Y-144145000D02*
X111760000Y-140970000D01*
X116598300Y-143268300D02*
X114300000Y-140970000D01*
X131838300Y-143268300D02*
X116598300Y-143268300D01*
X135890000Y-147320000D02*
X131838300Y-143268300D01*
D23*
G36*
X155905033Y-115429251D02*
X156775593Y-115692089D01*
X157578522Y-116119013D01*
X158283237Y-116693765D01*
X158862892Y-117394447D01*
X159295411Y-118194375D01*
X159564319Y-119063076D01*
X159663500Y-120006721D01*
X159663500Y-161662235D01*
X159505018Y-161531127D01*
X159202609Y-161367615D01*
X158874199Y-161265955D01*
X158532297Y-161230020D01*
X158189928Y-161261178D01*
X157860130Y-161358243D01*
X157555467Y-161517517D01*
X157287543Y-161732933D01*
X157251149Y-161776306D01*
X157229909Y-161750264D01*
X156965018Y-161531127D01*
X156662609Y-161367615D01*
X156334199Y-161265955D01*
X155992297Y-161230020D01*
X155649928Y-161261178D01*
X155320130Y-161358243D01*
X155015467Y-161517517D01*
X154747543Y-161732933D01*
X154711149Y-161776306D01*
X154689909Y-161750264D01*
X154425018Y-161531127D01*
X154122609Y-161367615D01*
X153794199Y-161265955D01*
X153452297Y-161230020D01*
X153109928Y-161261178D01*
X152780130Y-161358243D01*
X152475467Y-161517517D01*
X152207543Y-161732933D01*
X152171149Y-161776306D01*
X152149909Y-161750264D01*
X151885018Y-161531127D01*
X151582609Y-161367615D01*
X151254199Y-161265955D01*
X150912297Y-161230020D01*
X150569928Y-161261178D01*
X150240130Y-161358243D01*
X149935467Y-161517517D01*
X149667543Y-161732933D01*
X149631149Y-161776306D01*
X149609909Y-161750264D01*
X149345018Y-161531127D01*
X149042609Y-161367615D01*
X148714199Y-161265955D01*
X148372297Y-161230020D01*
X148029928Y-161261178D01*
X147700130Y-161358243D01*
X147395467Y-161517517D01*
X147127543Y-161732933D01*
X147091149Y-161776306D01*
X147069909Y-161750264D01*
X146805018Y-161531127D01*
X146502609Y-161367615D01*
X146174199Y-161265955D01*
X145832297Y-161230020D01*
X145489928Y-161261178D01*
X145160130Y-161358243D01*
X144855467Y-161517517D01*
X144587543Y-161732933D01*
X144551149Y-161776306D01*
X144529909Y-161750264D01*
X144265018Y-161531127D01*
X143962609Y-161367615D01*
X143634199Y-161265955D01*
X143292297Y-161230020D01*
X142949928Y-161261178D01*
X142620130Y-161358243D01*
X142315467Y-161517517D01*
X142047543Y-161732933D01*
X142011149Y-161776306D01*
X141989909Y-161750264D01*
X141725018Y-161531127D01*
X141422609Y-161367615D01*
X141213157Y-161302779D01*
X145660283Y-156855654D01*
X145736017Y-156879098D01*
X146039099Y-156910953D01*
X146342596Y-156883333D01*
X146634948Y-156797289D01*
X146905020Y-156656098D01*
X147142524Y-156465140D01*
X147321031Y-156252404D01*
X147482005Y-156449777D01*
X147716820Y-156644033D01*
X147984894Y-156788980D01*
X148276017Y-156879098D01*
X148579099Y-156910953D01*
X148882596Y-156883333D01*
X149174948Y-156797289D01*
X149445020Y-156656098D01*
X149682524Y-156465140D01*
X149864782Y-156247934D01*
X150026206Y-156444501D01*
X150262893Y-156638618D01*
X150532902Y-156782830D01*
X150825857Y-156871594D01*
X150885234Y-156882197D01*
X151129500Y-156711125D01*
X151129500Y-154940500D01*
X151130500Y-154940500D01*
X151130500Y-156711125D01*
X151374766Y-156882197D01*
X151434143Y-156871594D01*
X151727098Y-156782830D01*
X151997107Y-156638618D01*
X152233794Y-156444501D01*
X152428062Y-156207939D01*
X152572447Y-155938022D01*
X152661399Y-155645124D01*
X152691500Y-155340500D01*
X152691500Y-154940500D01*
X151130500Y-154940500D01*
X151129500Y-154940500D01*
X151109500Y-154940500D01*
X151109500Y-154939500D01*
X151129500Y-154939500D01*
X151129500Y-153168875D01*
X151130500Y-153168875D01*
X151130500Y-154939500D01*
X152691500Y-154939500D01*
X152691500Y-154539500D01*
X152661399Y-154234876D01*
X152572447Y-153941978D01*
X152428062Y-153672061D01*
X152233794Y-153435499D01*
X151997107Y-153241382D01*
X151727098Y-153097170D01*
X151434143Y-153008406D01*
X151374766Y-152997803D01*
X151130500Y-153168875D01*
X151129500Y-153168875D01*
X150885234Y-152997803D01*
X150825857Y-153008406D01*
X150532902Y-153097170D01*
X150262893Y-153241382D01*
X150026206Y-153435499D01*
X149863695Y-153633390D01*
X149697995Y-153430223D01*
X149463180Y-153235967D01*
X149195106Y-153091020D01*
X148903983Y-153000902D01*
X148600901Y-152969047D01*
X148297404Y-152996667D01*
X148005052Y-153082711D01*
X147734980Y-153223902D01*
X147497476Y-153414860D01*
X147318969Y-153627596D01*
X147157995Y-153430223D01*
X146923180Y-153235967D01*
X146655106Y-153091020D01*
X146363983Y-153000902D01*
X146060901Y-152969047D01*
X145757404Y-152996667D01*
X145465052Y-153082711D01*
X145194980Y-153223902D01*
X144957476Y-153414860D01*
X144778969Y-153627596D01*
X144617995Y-153430223D01*
X144383180Y-153235967D01*
X144115106Y-153091020D01*
X143823983Y-153000902D01*
X143520901Y-152969047D01*
X143217404Y-152996667D01*
X142925052Y-153082711D01*
X142654980Y-153223902D01*
X142417476Y-153414860D01*
X142238969Y-153627596D01*
X142077995Y-153430223D01*
X141843180Y-153235967D01*
X141575106Y-153091020D01*
X141283983Y-153000902D01*
X140980901Y-152969047D01*
X140677404Y-152996667D01*
X140385052Y-153082711D01*
X140114980Y-153223902D01*
X139877476Y-153414860D01*
X139698969Y-153627596D01*
X139537995Y-153430223D01*
X139303180Y-153235967D01*
X139035106Y-153091020D01*
X138743983Y-153000902D01*
X138440901Y-152969047D01*
X138137404Y-152996667D01*
X137845052Y-153082711D01*
X137574980Y-153223902D01*
X137337476Y-153414860D01*
X137158969Y-153627596D01*
X136997995Y-153430223D01*
X136763180Y-153235967D01*
X136495106Y-153091020D01*
X136203983Y-153000902D01*
X135900901Y-152969047D01*
X135597404Y-152996667D01*
X135305052Y-153082711D01*
X135034980Y-153223902D01*
X134827239Y-153390930D01*
X134723344Y-153233262D01*
X134559471Y-153093594D01*
X134363175Y-153005110D01*
X134150000Y-152974816D01*
X132550000Y-152974816D01*
X132428734Y-152984486D01*
X132223054Y-153048182D01*
X132043262Y-153166656D01*
X131903594Y-153330529D01*
X131815110Y-153526825D01*
X131784816Y-153740000D01*
X131784816Y-154979247D01*
X127918564Y-158845500D01*
X125890436Y-158845500D01*
X128234765Y-156501171D01*
X128390376Y-156504431D01*
X128691950Y-156451255D01*
X128977452Y-156340516D01*
X129236007Y-156176432D01*
X129457767Y-155965253D01*
X129634285Y-155715022D01*
X129758839Y-155435271D01*
X129826683Y-155136655D01*
X129831567Y-154786887D01*
X129772087Y-154486493D01*
X129655393Y-154203373D01*
X129485931Y-153948311D01*
X129270153Y-153731022D01*
X129196885Y-153681602D01*
X129244520Y-153415228D01*
X128270000Y-152440707D01*
X127295480Y-153415228D01*
X127342913Y-153680473D01*
X127286824Y-153717176D01*
X127068034Y-153931431D01*
X126895027Y-154184102D01*
X126774391Y-154465565D01*
X126710723Y-154765099D01*
X126707774Y-154976290D01*
X124157364Y-157526700D01*
X118901924Y-157526700D01*
X118868931Y-157414599D01*
X118771369Y-157227979D01*
X118639416Y-157063863D01*
X118478099Y-156928503D01*
X118293563Y-156827053D01*
X118092837Y-156763379D01*
X117883565Y-156739905D01*
X117868500Y-156739800D01*
X117625736Y-156739800D01*
X117594556Y-156708620D01*
X117695020Y-156656098D01*
X117932524Y-156465140D01*
X118114782Y-156247934D01*
X118276206Y-156444501D01*
X118512893Y-156638618D01*
X118782902Y-156782830D01*
X119075857Y-156871594D01*
X119135234Y-156882197D01*
X119379500Y-156711125D01*
X119379500Y-154940500D01*
X119380500Y-154940500D01*
X119380500Y-156711125D01*
X119624766Y-156882197D01*
X119684143Y-156871594D01*
X119977098Y-156782830D01*
X120247107Y-156638618D01*
X120483794Y-156444501D01*
X120678062Y-156207939D01*
X120822447Y-155938022D01*
X120911399Y-155645124D01*
X120941500Y-155340500D01*
X120941500Y-154940500D01*
X119380500Y-154940500D01*
X119379500Y-154940500D01*
X119359500Y-154940500D01*
X119359500Y-154939500D01*
X119379500Y-154939500D01*
X119379500Y-153168875D01*
X119380500Y-153168875D01*
X119380500Y-154939500D01*
X120941500Y-154939500D01*
X120941500Y-154539500D01*
X120911399Y-154234876D01*
X120822447Y-153941978D01*
X120678062Y-153672061D01*
X120483794Y-153435499D01*
X120247107Y-153241382D01*
X119977098Y-153097170D01*
X119684143Y-153008406D01*
X119624766Y-152997803D01*
X119380500Y-153168875D01*
X119379500Y-153168875D01*
X119135234Y-152997803D01*
X119075857Y-153008406D01*
X118782902Y-153097170D01*
X118512893Y-153241382D01*
X118276206Y-153435499D01*
X118113695Y-153633390D01*
X117947995Y-153430223D01*
X117713180Y-153235967D01*
X117445106Y-153091020D01*
X117153983Y-153000902D01*
X116850901Y-152969047D01*
X116547404Y-152996667D01*
X116255052Y-153082711D01*
X115984980Y-153223902D01*
X115747476Y-153414860D01*
X115568969Y-153627596D01*
X115407995Y-153430223D01*
X115173180Y-153235967D01*
X114905106Y-153091020D01*
X114613983Y-153000902D01*
X114310901Y-152969047D01*
X114007404Y-152996667D01*
X113715052Y-153082711D01*
X113444980Y-153223902D01*
X113207476Y-153414860D01*
X113028969Y-153627596D01*
X112867995Y-153430223D01*
X112633180Y-153235967D01*
X112514266Y-153171671D01*
X113867665Y-151818272D01*
X126832837Y-151818272D01*
X126744181Y-152074198D01*
X126702134Y-152378900D01*
X126720340Y-152685949D01*
X126798099Y-152983547D01*
X126932421Y-153260257D01*
X127000314Y-153361863D01*
X127294772Y-153414520D01*
X128269293Y-152440000D01*
X128255150Y-152425858D01*
X128255858Y-152425150D01*
X128270000Y-152439293D01*
X128284142Y-152425150D01*
X128284850Y-152425858D01*
X128270707Y-152440000D01*
X129245228Y-153414520D01*
X129539686Y-153361863D01*
X129695136Y-153096446D01*
X129795819Y-152805802D01*
X129837866Y-152501100D01*
X129819660Y-152194051D01*
X129741901Y-151896453D01*
X129703950Y-151818272D01*
X147710728Y-151818272D01*
X147809946Y-151808544D01*
X147909211Y-151799859D01*
X147914656Y-151798277D01*
X147920307Y-151797723D01*
X148015760Y-151768904D01*
X148111434Y-151741108D01*
X148116471Y-151738497D01*
X148121903Y-151736857D01*
X148209889Y-151690074D01*
X148298393Y-151644198D01*
X148302829Y-151640657D01*
X148307837Y-151637994D01*
X148385049Y-151575021D01*
X148462969Y-151512819D01*
X148470865Y-151505032D01*
X148471028Y-151504899D01*
X148471153Y-151504748D01*
X148473696Y-151502240D01*
X150740282Y-149235654D01*
X150816017Y-149259098D01*
X151119099Y-149290953D01*
X151422596Y-149263333D01*
X151714948Y-149177289D01*
X151985020Y-149036098D01*
X152222524Y-148845140D01*
X152418415Y-148611687D01*
X152565230Y-148344631D01*
X152657377Y-148054145D01*
X152691348Y-147751293D01*
X152691500Y-147729491D01*
X152691500Y-146910509D01*
X152661761Y-146607212D01*
X152573679Y-146315468D01*
X152430607Y-146046388D01*
X152237995Y-145810223D01*
X152003180Y-145615967D01*
X151735106Y-145471020D01*
X151443983Y-145380902D01*
X151140901Y-145349047D01*
X150837404Y-145376667D01*
X150545052Y-145462711D01*
X150274980Y-145603902D01*
X150037476Y-145794860D01*
X149858969Y-146007596D01*
X149697995Y-145810223D01*
X149463180Y-145615967D01*
X149195106Y-145471020D01*
X148903983Y-145380902D01*
X148600901Y-145349047D01*
X148297404Y-145376667D01*
X148005052Y-145462711D01*
X147734980Y-145603902D01*
X147497476Y-145794860D01*
X147318969Y-146007596D01*
X147157995Y-145810223D01*
X146923180Y-145615967D01*
X146655106Y-145471020D01*
X146363983Y-145380902D01*
X146060901Y-145349047D01*
X145757404Y-145376667D01*
X145465052Y-145462711D01*
X145194980Y-145603902D01*
X144957476Y-145794860D01*
X144778969Y-146007596D01*
X144617995Y-145810223D01*
X144383180Y-145615967D01*
X144115106Y-145471020D01*
X143823983Y-145380902D01*
X143520901Y-145349047D01*
X143217404Y-145376667D01*
X142925052Y-145462711D01*
X142654980Y-145603902D01*
X142417476Y-145794860D01*
X142238969Y-146007596D01*
X142077995Y-145810223D01*
X141843180Y-145615967D01*
X141575106Y-145471020D01*
X141283983Y-145380902D01*
X140980901Y-145349047D01*
X140677404Y-145376667D01*
X140385052Y-145462711D01*
X140114980Y-145603902D01*
X139877476Y-145794860D01*
X139698969Y-146007596D01*
X139537995Y-145810223D01*
X139303180Y-145615967D01*
X139035106Y-145471020D01*
X138743983Y-145380902D01*
X138440901Y-145349047D01*
X138137404Y-145376667D01*
X137845052Y-145462711D01*
X137574980Y-145603902D01*
X137337476Y-145794860D01*
X137158969Y-146007596D01*
X136997995Y-145810223D01*
X136763180Y-145615967D01*
X136495106Y-145471020D01*
X136203983Y-145380902D01*
X135900901Y-145349047D01*
X135597404Y-145376667D01*
X135500982Y-145405046D01*
X132601268Y-142505332D01*
X132524224Y-142442047D01*
X132447899Y-142378003D01*
X132442933Y-142375273D01*
X132438543Y-142371667D01*
X132350648Y-142324539D01*
X132263363Y-142276553D01*
X132257955Y-142274837D01*
X132252954Y-142272156D01*
X132157644Y-142243017D01*
X132062637Y-142212879D01*
X132056997Y-142212246D01*
X132051573Y-142210588D01*
X131952453Y-142200520D01*
X131853365Y-142189405D01*
X131842271Y-142189328D01*
X131842067Y-142189307D01*
X131841877Y-142189325D01*
X131838300Y-142189300D01*
X120704080Y-142189300D01*
X120822447Y-141968022D01*
X120911399Y-141675124D01*
X120941500Y-141370500D01*
X120941500Y-140970500D01*
X119380500Y-140970500D01*
X119380500Y-140990500D01*
X119379500Y-140990500D01*
X119379500Y-140970500D01*
X119359500Y-140970500D01*
X119359500Y-140969500D01*
X119379500Y-140969500D01*
X119379500Y-139198875D01*
X119380500Y-139198875D01*
X119380500Y-140969500D01*
X120941500Y-140969500D01*
X120941500Y-140569500D01*
X120911399Y-140264876D01*
X120822447Y-139971978D01*
X120678062Y-139702061D01*
X120483794Y-139465499D01*
X120247107Y-139271382D01*
X119977098Y-139127170D01*
X119684143Y-139038406D01*
X119624766Y-139027803D01*
X119380500Y-139198875D01*
X119379500Y-139198875D01*
X119135234Y-139027803D01*
X119075857Y-139038406D01*
X118782902Y-139127170D01*
X118512893Y-139271382D01*
X118276206Y-139465499D01*
X118113695Y-139663390D01*
X117947995Y-139460223D01*
X117713180Y-139265967D01*
X117445106Y-139121020D01*
X117153983Y-139030902D01*
X116850901Y-138999047D01*
X116547404Y-139026667D01*
X116255052Y-139112711D01*
X115984980Y-139253902D01*
X115747476Y-139444860D01*
X115568969Y-139657596D01*
X115407995Y-139460223D01*
X115173180Y-139265967D01*
X114905106Y-139121020D01*
X114613983Y-139030902D01*
X114310901Y-138999047D01*
X114007404Y-139026667D01*
X113715052Y-139112711D01*
X113444980Y-139253902D01*
X113207476Y-139444860D01*
X113028969Y-139657596D01*
X112867995Y-139460223D01*
X112633180Y-139265967D01*
X112365106Y-139121020D01*
X112073983Y-139030902D01*
X111770901Y-138999047D01*
X111467404Y-139026667D01*
X111175052Y-139112711D01*
X110904980Y-139253902D01*
X110667476Y-139444860D01*
X110488969Y-139657596D01*
X110327995Y-139460223D01*
X110093180Y-139265967D01*
X109825106Y-139121020D01*
X109533983Y-139030902D01*
X109230901Y-138999047D01*
X108927404Y-139026667D01*
X108635052Y-139112711D01*
X108364980Y-139253902D01*
X108127476Y-139444860D01*
X107948969Y-139657596D01*
X107787995Y-139460223D01*
X107553180Y-139265967D01*
X107285106Y-139121020D01*
X106993983Y-139030902D01*
X106690901Y-138999047D01*
X106387404Y-139026667D01*
X106095052Y-139112711D01*
X105824980Y-139253902D01*
X105617239Y-139420930D01*
X105513344Y-139263262D01*
X105349471Y-139123594D01*
X105153175Y-139035110D01*
X104940000Y-139004816D01*
X103340000Y-139004816D01*
X103218734Y-139014486D01*
X103013054Y-139078182D01*
X102833262Y-139196656D01*
X102693594Y-139360529D01*
X102605110Y-139556825D01*
X102574816Y-139770000D01*
X102574816Y-142170000D01*
X102584486Y-142291266D01*
X102648182Y-142496946D01*
X102766656Y-142676738D01*
X102930529Y-142816406D01*
X103126825Y-142904890D01*
X103340000Y-142935184D01*
X104940000Y-142935184D01*
X105061266Y-142925514D01*
X105266946Y-142861818D01*
X105446738Y-142743344D01*
X105586406Y-142579471D01*
X105615227Y-142515533D01*
X105806820Y-142674033D01*
X106074894Y-142818980D01*
X106366017Y-142909098D01*
X106669099Y-142940953D01*
X106972596Y-142913333D01*
X107264948Y-142827289D01*
X107535020Y-142686098D01*
X107772524Y-142495140D01*
X107951031Y-142282404D01*
X108112005Y-142479777D01*
X108346820Y-142674033D01*
X108614894Y-142818980D01*
X108906017Y-142909098D01*
X109209099Y-142940953D01*
X109512596Y-142913333D01*
X109804948Y-142827289D01*
X110075020Y-142686098D01*
X110312524Y-142495140D01*
X110491031Y-142282404D01*
X110652005Y-142479777D01*
X110886820Y-142674033D01*
X111154894Y-142818980D01*
X111446017Y-142909098D01*
X111749099Y-142940953D01*
X112052596Y-142913333D01*
X112149018Y-142884954D01*
X114172032Y-144907968D01*
X114249076Y-144971253D01*
X114325401Y-145035297D01*
X114330367Y-145038027D01*
X114334757Y-145041633D01*
X114422670Y-145088772D01*
X114509937Y-145136747D01*
X114515343Y-145138462D01*
X114520345Y-145141144D01*
X114615670Y-145170288D01*
X114710663Y-145200421D01*
X114716303Y-145201054D01*
X114721727Y-145202712D01*
X114820847Y-145212780D01*
X114919935Y-145223895D01*
X114931029Y-145223972D01*
X114931233Y-145223993D01*
X114931423Y-145223975D01*
X114935000Y-145224000D01*
X119015086Y-145224000D01*
X119161051Y-145369965D01*
X119087404Y-145376667D01*
X118795052Y-145462711D01*
X118524980Y-145603902D01*
X118287476Y-145794860D01*
X118105218Y-146012066D01*
X117943794Y-145815499D01*
X117707107Y-145621382D01*
X117437098Y-145477170D01*
X117144143Y-145388406D01*
X117084766Y-145377803D01*
X116840500Y-145548875D01*
X116840500Y-147319500D01*
X116860500Y-147319500D01*
X116860500Y-147320500D01*
X116840500Y-147320500D01*
X116840500Y-149091125D01*
X117084766Y-149262197D01*
X117144143Y-149251594D01*
X117437098Y-149162830D01*
X117707107Y-149018618D01*
X117943794Y-148824501D01*
X118106305Y-148626610D01*
X118272005Y-148829777D01*
X118506820Y-149024033D01*
X118774894Y-149168980D01*
X119066017Y-149259098D01*
X119369099Y-149290953D01*
X119672596Y-149263333D01*
X119964948Y-149177289D01*
X120235020Y-149036098D01*
X120472524Y-148845140D01*
X120668415Y-148611687D01*
X120815230Y-148344631D01*
X120907377Y-148054145D01*
X120941348Y-147751293D01*
X120941500Y-147729491D01*
X120941500Y-147150414D01*
X123451358Y-149660272D01*
X113420728Y-149660272D01*
X113321510Y-149670000D01*
X113222245Y-149678685D01*
X113216800Y-149680267D01*
X113211149Y-149680821D01*
X113115696Y-149709640D01*
X113020022Y-149737436D01*
X113014985Y-149740047D01*
X113009553Y-149741687D01*
X112921567Y-149788470D01*
X112833063Y-149834346D01*
X112828627Y-149837887D01*
X112823619Y-149840550D01*
X112746407Y-149903523D01*
X112668487Y-149965725D01*
X112660587Y-149973516D01*
X112660428Y-149973645D01*
X112660306Y-149973792D01*
X112657760Y-149976303D01*
X109609718Y-153024346D01*
X109533983Y-153000902D01*
X109230901Y-152969047D01*
X108927404Y-152996667D01*
X108635052Y-153082711D01*
X108562025Y-153120889D01*
X105167787Y-149726651D01*
X105195421Y-149639537D01*
X105196054Y-149633896D01*
X105197712Y-149628472D01*
X105207785Y-149529314D01*
X105218895Y-149430265D01*
X105218972Y-149419181D01*
X105218994Y-149418967D01*
X105218975Y-149418767D01*
X105219000Y-149415200D01*
X105219000Y-148856014D01*
X105232524Y-148845140D01*
X105414782Y-148627934D01*
X105576206Y-148824501D01*
X105812893Y-149018618D01*
X106082902Y-149162830D01*
X106375857Y-149251594D01*
X106435234Y-149262197D01*
X106679500Y-149091125D01*
X106679500Y-147320500D01*
X106680500Y-147320500D01*
X106680500Y-149091125D01*
X106924766Y-149262197D01*
X106984143Y-149251594D01*
X107277098Y-149162830D01*
X107547107Y-149018618D01*
X107783794Y-148824501D01*
X107950000Y-148622110D01*
X108116206Y-148824501D01*
X108352893Y-149018618D01*
X108622902Y-149162830D01*
X108915857Y-149251594D01*
X108975234Y-149262197D01*
X109219500Y-149091125D01*
X109219500Y-147320500D01*
X106680500Y-147320500D01*
X106679500Y-147320500D01*
X106659500Y-147320500D01*
X106659500Y-147319500D01*
X106679500Y-147319500D01*
X106679500Y-145548875D01*
X106680500Y-145548875D01*
X106680500Y-147319500D01*
X109219500Y-147319500D01*
X109219500Y-145548875D01*
X109220500Y-145548875D01*
X109220500Y-147319500D01*
X109240500Y-147319500D01*
X109240500Y-147320500D01*
X109220500Y-147320500D01*
X109220500Y-149091125D01*
X109464766Y-149262197D01*
X109524143Y-149251594D01*
X109817098Y-149162830D01*
X110087107Y-149018618D01*
X110323794Y-148824501D01*
X110486305Y-148626610D01*
X110652005Y-148829777D01*
X110886820Y-149024033D01*
X111154894Y-149168980D01*
X111446017Y-149259098D01*
X111749099Y-149290953D01*
X112052596Y-149263333D01*
X112344948Y-149177289D01*
X112615020Y-149036098D01*
X112852524Y-148845140D01*
X113034782Y-148627934D01*
X113196206Y-148824501D01*
X113432893Y-149018618D01*
X113702902Y-149162830D01*
X113995857Y-149251594D01*
X114055234Y-149262197D01*
X114299500Y-149091125D01*
X114299500Y-147320500D01*
X114300500Y-147320500D01*
X114300500Y-149091125D01*
X114544766Y-149262197D01*
X114604143Y-149251594D01*
X114897098Y-149162830D01*
X115167107Y-149018618D01*
X115403794Y-148824501D01*
X115570000Y-148622110D01*
X115736206Y-148824501D01*
X115972893Y-149018618D01*
X116242902Y-149162830D01*
X116535857Y-149251594D01*
X116595234Y-149262197D01*
X116839500Y-149091125D01*
X116839500Y-147320500D01*
X114300500Y-147320500D01*
X114299500Y-147320500D01*
X114279500Y-147320500D01*
X114279500Y-147319500D01*
X114299500Y-147319500D01*
X114299500Y-145548875D01*
X114300500Y-145548875D01*
X114300500Y-147319500D01*
X116839500Y-147319500D01*
X116839500Y-145548875D01*
X116595234Y-145377803D01*
X116535857Y-145388406D01*
X116242902Y-145477170D01*
X115972893Y-145621382D01*
X115736206Y-145815499D01*
X115570000Y-146017890D01*
X115403794Y-145815499D01*
X115167107Y-145621382D01*
X114897098Y-145477170D01*
X114604143Y-145388406D01*
X114544766Y-145377803D01*
X114300500Y-145548875D01*
X114299500Y-145548875D01*
X114055234Y-145377803D01*
X113995857Y-145388406D01*
X113702902Y-145477170D01*
X113432893Y-145621382D01*
X113196206Y-145815499D01*
X113033695Y-146013390D01*
X112867995Y-145810223D01*
X112633180Y-145615967D01*
X112365106Y-145471020D01*
X112073983Y-145380902D01*
X111770901Y-145349047D01*
X111467404Y-145376667D01*
X111175052Y-145462711D01*
X110904980Y-145603902D01*
X110667476Y-145794860D01*
X110485218Y-146012066D01*
X110323794Y-145815499D01*
X110087107Y-145621382D01*
X109817098Y-145477170D01*
X109524143Y-145388406D01*
X109464766Y-145377803D01*
X109220500Y-145548875D01*
X109219500Y-145548875D01*
X108975234Y-145377803D01*
X108915857Y-145388406D01*
X108622902Y-145477170D01*
X108352893Y-145621382D01*
X108116206Y-145815499D01*
X107950000Y-146017890D01*
X107783794Y-145815499D01*
X107547107Y-145621382D01*
X107277098Y-145477170D01*
X106984143Y-145388406D01*
X106924766Y-145377803D01*
X106680500Y-145548875D01*
X106679500Y-145548875D01*
X106435234Y-145377803D01*
X106375857Y-145388406D01*
X106082902Y-145477170D01*
X105812893Y-145621382D01*
X105576206Y-145815499D01*
X105413695Y-146013390D01*
X105247995Y-145810223D01*
X105013180Y-145615967D01*
X104745106Y-145471020D01*
X104453983Y-145380902D01*
X104150901Y-145349047D01*
X103847404Y-145376667D01*
X103555052Y-145462711D01*
X103284980Y-145603902D01*
X103047476Y-145794860D01*
X102851585Y-146028313D01*
X102704770Y-146295369D01*
X102612623Y-146585855D01*
X102578652Y-146888707D01*
X102578500Y-146910509D01*
X102578500Y-147729491D01*
X102608239Y-148032788D01*
X102696321Y-148324532D01*
X102839393Y-148593612D01*
X102959600Y-148741000D01*
X100189227Y-148741000D01*
X100060153Y-148611022D01*
X99986885Y-148561602D01*
X100034520Y-148295228D01*
X99060000Y-147320707D01*
X98085480Y-148295228D01*
X98132913Y-148560473D01*
X98076824Y-148597176D01*
X97858034Y-148811431D01*
X97685027Y-149064102D01*
X97565684Y-149342548D01*
X96640446Y-148417310D01*
X96563402Y-148354025D01*
X96487077Y-148289981D01*
X96482111Y-148287251D01*
X96477721Y-148283645D01*
X96389826Y-148236517D01*
X96302541Y-148188531D01*
X96297133Y-148186815D01*
X96292132Y-148184134D01*
X96196822Y-148154995D01*
X96101815Y-148124857D01*
X96096175Y-148124224D01*
X96090751Y-148122566D01*
X95991631Y-148112498D01*
X95892543Y-148101383D01*
X95881449Y-148101306D01*
X95881245Y-148101285D01*
X95881055Y-148101303D01*
X95877478Y-148101278D01*
X94222426Y-148101278D01*
X94237377Y-148054145D01*
X94271348Y-147751293D01*
X94271500Y-147729491D01*
X94271500Y-147258900D01*
X97492134Y-147258900D01*
X97510340Y-147565949D01*
X97588099Y-147863547D01*
X97722421Y-148140257D01*
X97790314Y-148241863D01*
X98084772Y-148294520D01*
X99059293Y-147320000D01*
X99060707Y-147320000D01*
X100035228Y-148294520D01*
X100329686Y-148241863D01*
X100485136Y-147976446D01*
X100585819Y-147685802D01*
X100627866Y-147381100D01*
X100609660Y-147074051D01*
X100531901Y-146776453D01*
X100397579Y-146499743D01*
X100329686Y-146398137D01*
X100035228Y-146345480D01*
X99060707Y-147320000D01*
X99059293Y-147320000D01*
X98084772Y-146345480D01*
X97790314Y-146398137D01*
X97634864Y-146663554D01*
X97534181Y-146954198D01*
X97492134Y-147258900D01*
X94271500Y-147258900D01*
X94271500Y-146910509D01*
X94241761Y-146607212D01*
X94162527Y-146344772D01*
X98085480Y-146344772D01*
X99060000Y-147319293D01*
X100034520Y-146344772D01*
X99981863Y-146050314D01*
X99716446Y-145894864D01*
X99425802Y-145794181D01*
X99121100Y-145752134D01*
X98814051Y-145770340D01*
X98516453Y-145848099D01*
X98239743Y-145982421D01*
X98138137Y-146050314D01*
X98085480Y-146344772D01*
X94162527Y-146344772D01*
X94153679Y-146315468D01*
X94010607Y-146046388D01*
X93817995Y-145810223D01*
X93583180Y-145615967D01*
X93315106Y-145471020D01*
X93023983Y-145380902D01*
X92720901Y-145349047D01*
X92417404Y-145376667D01*
X92125052Y-145462711D01*
X91854980Y-145603902D01*
X91617476Y-145794860D01*
X91438969Y-146007596D01*
X91277995Y-145810223D01*
X91043180Y-145615967D01*
X90775106Y-145471020D01*
X90483983Y-145380902D01*
X90180901Y-145349047D01*
X89877404Y-145376667D01*
X89780982Y-145405046D01*
X87702368Y-143326432D01*
X87625324Y-143263147D01*
X87548999Y-143199103D01*
X87544033Y-143196373D01*
X87539643Y-143192767D01*
X87451748Y-143145639D01*
X87364463Y-143097653D01*
X87359055Y-143095937D01*
X87354054Y-143093256D01*
X87258744Y-143064117D01*
X87163737Y-143033979D01*
X87158097Y-143033346D01*
X87152673Y-143031688D01*
X87053553Y-143021620D01*
X86954465Y-143010505D01*
X86943371Y-143010428D01*
X86943167Y-143010407D01*
X86942977Y-143010425D01*
X86939400Y-143010400D01*
X83576336Y-143010400D01*
X83019729Y-142453793D01*
X83152596Y-142413679D01*
X83421676Y-142270607D01*
X83657841Y-142077995D01*
X83820829Y-141880977D01*
X83966796Y-142062524D01*
X84200249Y-142258415D01*
X84467305Y-142405230D01*
X84757791Y-142497377D01*
X85060643Y-142531348D01*
X85082445Y-142531500D01*
X85097555Y-142531500D01*
X85400852Y-142501761D01*
X85692596Y-142413679D01*
X85961676Y-142270607D01*
X86197841Y-142077995D01*
X86360829Y-141880977D01*
X86506796Y-142062524D01*
X86740249Y-142258415D01*
X87007305Y-142405230D01*
X87297791Y-142497377D01*
X87600643Y-142531348D01*
X87622445Y-142531500D01*
X87637555Y-142531500D01*
X87940852Y-142501761D01*
X88232596Y-142413679D01*
X88501676Y-142270607D01*
X88737841Y-142077995D01*
X88900829Y-141880977D01*
X89046796Y-142062524D01*
X89280249Y-142258415D01*
X89547305Y-142405230D01*
X89837791Y-142497377D01*
X90140643Y-142531348D01*
X90162445Y-142531500D01*
X90177555Y-142531500D01*
X90480852Y-142501761D01*
X90772596Y-142413679D01*
X91041676Y-142270607D01*
X91277841Y-142077995D01*
X91472097Y-141843180D01*
X91617044Y-141575106D01*
X91707162Y-141283983D01*
X91739017Y-140980901D01*
X91711397Y-140677404D01*
X91625353Y-140385052D01*
X91484162Y-140114980D01*
X91293204Y-139877476D01*
X91059751Y-139681585D01*
X90792695Y-139534770D01*
X90502209Y-139442623D01*
X90199357Y-139408652D01*
X90177555Y-139408500D01*
X90162445Y-139408500D01*
X89859148Y-139438239D01*
X89567404Y-139526321D01*
X89298324Y-139669393D01*
X89062159Y-139862005D01*
X88899171Y-140059023D01*
X88753204Y-139877476D01*
X88519751Y-139681585D01*
X88252695Y-139534770D01*
X87962209Y-139442623D01*
X87659357Y-139408652D01*
X87637555Y-139408500D01*
X87622445Y-139408500D01*
X87319148Y-139438239D01*
X87027404Y-139526321D01*
X86758324Y-139669393D01*
X86522159Y-139862005D01*
X86359171Y-140059023D01*
X86213204Y-139877476D01*
X85979751Y-139681585D01*
X85712695Y-139534770D01*
X85422209Y-139442623D01*
X85119357Y-139408652D01*
X85097555Y-139408500D01*
X85082445Y-139408500D01*
X84779148Y-139438239D01*
X84487404Y-139526321D01*
X84218324Y-139669393D01*
X83982159Y-139862005D01*
X83819171Y-140059023D01*
X83673204Y-139877476D01*
X83439751Y-139681585D01*
X83172695Y-139534770D01*
X82882209Y-139442623D01*
X82579357Y-139408652D01*
X82557555Y-139408500D01*
X82542445Y-139408500D01*
X82516938Y-139411001D01*
X81089000Y-137983064D01*
X81089000Y-136021295D01*
X97496448Y-136021295D01*
X97551728Y-136322490D01*
X97664457Y-136607212D01*
X97830342Y-136864615D01*
X98043064Y-137084895D01*
X98294521Y-137259663D01*
X98575135Y-137382260D01*
X98874218Y-137448017D01*
X99180376Y-137454431D01*
X99481950Y-137401255D01*
X99767452Y-137290516D01*
X100026007Y-137126432D01*
X100247767Y-136915253D01*
X100424285Y-136665022D01*
X100548839Y-136385271D01*
X100616683Y-136086655D01*
X100621567Y-135736887D01*
X100562087Y-135436493D01*
X100445393Y-135153373D01*
X100275931Y-134898311D01*
X100060153Y-134681022D01*
X99986885Y-134631602D01*
X100034520Y-134365228D01*
X99060000Y-133390707D01*
X98085480Y-134365228D01*
X98132913Y-134630473D01*
X98076824Y-134667176D01*
X97858034Y-134881431D01*
X97685027Y-135134102D01*
X97564391Y-135415565D01*
X97500723Y-135715099D01*
X97496448Y-136021295D01*
X81089000Y-136021295D01*
X81089000Y-134484078D01*
X81102524Y-134473204D01*
X81281031Y-134260468D01*
X81442005Y-134457841D01*
X81676820Y-134652097D01*
X81944894Y-134797044D01*
X82236017Y-134887162D01*
X82539099Y-134919017D01*
X82842596Y-134891397D01*
X83134948Y-134805353D01*
X83405020Y-134664162D01*
X83642524Y-134473204D01*
X83821031Y-134260468D01*
X83982005Y-134457841D01*
X84216820Y-134652097D01*
X84484894Y-134797044D01*
X84776017Y-134887162D01*
X85079099Y-134919017D01*
X85382596Y-134891397D01*
X85674948Y-134805353D01*
X85945020Y-134664162D01*
X86182524Y-134473204D01*
X86361031Y-134260468D01*
X86522005Y-134457841D01*
X86756820Y-134652097D01*
X87024894Y-134797044D01*
X87316017Y-134887162D01*
X87619099Y-134919017D01*
X87922596Y-134891397D01*
X88214948Y-134805353D01*
X88485020Y-134664162D01*
X88722524Y-134473204D01*
X88918415Y-134239751D01*
X89065230Y-133972695D01*
X89157377Y-133682209D01*
X89191348Y-133379357D01*
X89191500Y-133357555D01*
X89191500Y-133342445D01*
X89190172Y-133328900D01*
X97492134Y-133328900D01*
X97510340Y-133635949D01*
X97588099Y-133933547D01*
X97722421Y-134210257D01*
X97790314Y-134311863D01*
X98084772Y-134364520D01*
X99059293Y-133390000D01*
X99060707Y-133390000D01*
X100035228Y-134364520D01*
X100329686Y-134311863D01*
X100485136Y-134046446D01*
X100585819Y-133755802D01*
X100627866Y-133451100D01*
X100609660Y-133144051D01*
X100556477Y-132940509D01*
X102578500Y-132940509D01*
X102578500Y-133759491D01*
X102608239Y-134062788D01*
X102696321Y-134354532D01*
X102839393Y-134623612D01*
X103032005Y-134859777D01*
X103266820Y-135054033D01*
X103534894Y-135198980D01*
X103826017Y-135289098D01*
X104129099Y-135320953D01*
X104432596Y-135293333D01*
X104724948Y-135207289D01*
X104995020Y-135066098D01*
X105232524Y-134875140D01*
X105414782Y-134657934D01*
X105576206Y-134854501D01*
X105812893Y-135048618D01*
X106082902Y-135192830D01*
X106375857Y-135281594D01*
X106435234Y-135292197D01*
X106679500Y-135121125D01*
X106679500Y-133350500D01*
X106680500Y-133350500D01*
X106680500Y-135121125D01*
X106924766Y-135292197D01*
X106984143Y-135281594D01*
X107277098Y-135192830D01*
X107547107Y-135048618D01*
X107783794Y-134854501D01*
X107950000Y-134652110D01*
X108116206Y-134854501D01*
X108352893Y-135048618D01*
X108622902Y-135192830D01*
X108915857Y-135281594D01*
X108975234Y-135292197D01*
X109219500Y-135121125D01*
X109219500Y-133350500D01*
X106680500Y-133350500D01*
X106679500Y-133350500D01*
X106659500Y-133350500D01*
X106659500Y-133349500D01*
X106679500Y-133349500D01*
X106679500Y-131578875D01*
X106680500Y-131578875D01*
X106680500Y-133349500D01*
X109219500Y-133349500D01*
X109219500Y-131578875D01*
X109220500Y-131578875D01*
X109220500Y-133349500D01*
X109240500Y-133349500D01*
X109240500Y-133350500D01*
X109220500Y-133350500D01*
X109220500Y-135121125D01*
X109464766Y-135292197D01*
X109524143Y-135281594D01*
X109817098Y-135192830D01*
X110087107Y-135048618D01*
X110323794Y-134854501D01*
X110486305Y-134656610D01*
X110652005Y-134859777D01*
X110886820Y-135054033D01*
X111154894Y-135198980D01*
X111446017Y-135289098D01*
X111749099Y-135320953D01*
X112052596Y-135293333D01*
X112344948Y-135207289D01*
X112615020Y-135066098D01*
X112852524Y-134875140D01*
X113034782Y-134657934D01*
X113196206Y-134854501D01*
X113432893Y-135048618D01*
X113702902Y-135192830D01*
X113995857Y-135281594D01*
X114055234Y-135292197D01*
X114299500Y-135121125D01*
X114299500Y-133350500D01*
X114300500Y-133350500D01*
X114300500Y-135121125D01*
X114544766Y-135292197D01*
X114604143Y-135281594D01*
X114897098Y-135192830D01*
X115167107Y-135048618D01*
X115403794Y-134854501D01*
X115570000Y-134652110D01*
X115736206Y-134854501D01*
X115972893Y-135048618D01*
X116242902Y-135192830D01*
X116535857Y-135281594D01*
X116595234Y-135292197D01*
X116839500Y-135121125D01*
X116839500Y-133350500D01*
X114300500Y-133350500D01*
X114299500Y-133350500D01*
X114279500Y-133350500D01*
X114279500Y-133349500D01*
X114299500Y-133349500D01*
X114299500Y-131578875D01*
X114300500Y-131578875D01*
X114300500Y-133349500D01*
X116839500Y-133349500D01*
X116839500Y-131578875D01*
X116840500Y-131578875D01*
X116840500Y-133349500D01*
X116860500Y-133349500D01*
X116860500Y-133350500D01*
X116840500Y-133350500D01*
X116840500Y-135121125D01*
X117084766Y-135292197D01*
X117144143Y-135281594D01*
X117437098Y-135192830D01*
X117707107Y-135048618D01*
X117943794Y-134854501D01*
X118106305Y-134656610D01*
X118272005Y-134859777D01*
X118506820Y-135054033D01*
X118774894Y-135198980D01*
X119066017Y-135289098D01*
X119369099Y-135320953D01*
X119672596Y-135293333D01*
X119964948Y-135207289D01*
X120235020Y-135066098D01*
X120472524Y-134875140D01*
X120668415Y-134641687D01*
X120815230Y-134374631D01*
X120907377Y-134084145D01*
X120941348Y-133781293D01*
X120941500Y-133759491D01*
X120941500Y-132940509D01*
X120911761Y-132637212D01*
X120823679Y-132345468D01*
X120680607Y-132076388D01*
X120487995Y-131840223D01*
X120253180Y-131645967D01*
X119985106Y-131501020D01*
X119693983Y-131410902D01*
X119390901Y-131379047D01*
X119087404Y-131406667D01*
X118795052Y-131492711D01*
X118524980Y-131633902D01*
X118287476Y-131824860D01*
X118105218Y-132042066D01*
X117943794Y-131845499D01*
X117707107Y-131651382D01*
X117437098Y-131507170D01*
X117144143Y-131418406D01*
X117084766Y-131407803D01*
X116840500Y-131578875D01*
X116839500Y-131578875D01*
X116595234Y-131407803D01*
X116535857Y-131418406D01*
X116242902Y-131507170D01*
X115972893Y-131651382D01*
X115736206Y-131845499D01*
X115570000Y-132047890D01*
X115403794Y-131845499D01*
X115167107Y-131651382D01*
X114897098Y-131507170D01*
X114604143Y-131418406D01*
X114544766Y-131407803D01*
X114300500Y-131578875D01*
X114299500Y-131578875D01*
X114055234Y-131407803D01*
X113995857Y-131418406D01*
X113702902Y-131507170D01*
X113432893Y-131651382D01*
X113196206Y-131845499D01*
X113033695Y-132043390D01*
X112867995Y-131840223D01*
X112633180Y-131645967D01*
X112365106Y-131501020D01*
X112073983Y-131410902D01*
X111770901Y-131379047D01*
X111467404Y-131406667D01*
X111175052Y-131492711D01*
X110904980Y-131633902D01*
X110667476Y-131824860D01*
X110485218Y-132042066D01*
X110323794Y-131845499D01*
X110087107Y-131651382D01*
X109817098Y-131507170D01*
X109524143Y-131418406D01*
X109464766Y-131407803D01*
X109220500Y-131578875D01*
X109219500Y-131578875D01*
X108975234Y-131407803D01*
X108915857Y-131418406D01*
X108622902Y-131507170D01*
X108352893Y-131651382D01*
X108116206Y-131845499D01*
X107950000Y-132047890D01*
X107783794Y-131845499D01*
X107547107Y-131651382D01*
X107277098Y-131507170D01*
X106984143Y-131418406D01*
X106924766Y-131407803D01*
X106680500Y-131578875D01*
X106679500Y-131578875D01*
X106435234Y-131407803D01*
X106375857Y-131418406D01*
X106082902Y-131507170D01*
X105812893Y-131651382D01*
X105576206Y-131845499D01*
X105413695Y-132043390D01*
X105247995Y-131840223D01*
X105013180Y-131645967D01*
X104745106Y-131501020D01*
X104453983Y-131410902D01*
X104150901Y-131379047D01*
X103847404Y-131406667D01*
X103555052Y-131492711D01*
X103284980Y-131633902D01*
X103047476Y-131824860D01*
X102851585Y-132058313D01*
X102704770Y-132325369D01*
X102612623Y-132615855D01*
X102578652Y-132918707D01*
X102578500Y-132940509D01*
X100556477Y-132940509D01*
X100531901Y-132846453D01*
X100397579Y-132569743D01*
X100329686Y-132468137D01*
X100035228Y-132415480D01*
X99060707Y-133390000D01*
X99059293Y-133390000D01*
X98084772Y-132415480D01*
X97790314Y-132468137D01*
X97634864Y-132733554D01*
X97534181Y-133024198D01*
X97492134Y-133328900D01*
X89190172Y-133328900D01*
X89161761Y-133039148D01*
X89073679Y-132747404D01*
X88930607Y-132478324D01*
X88878776Y-132414772D01*
X98085480Y-132414772D01*
X99060000Y-133389293D01*
X100034520Y-132414772D01*
X99981863Y-132120314D01*
X99716446Y-131964864D01*
X99425802Y-131864181D01*
X99121100Y-131822134D01*
X98814051Y-131840340D01*
X98516453Y-131918099D01*
X98239743Y-132052421D01*
X98138137Y-132120314D01*
X98085480Y-132414772D01*
X88878776Y-132414772D01*
X88737995Y-132242159D01*
X88503180Y-132047903D01*
X88235106Y-131902956D01*
X87943983Y-131812838D01*
X87640901Y-131780983D01*
X87337404Y-131808603D01*
X87045052Y-131894647D01*
X86774980Y-132035838D01*
X86537476Y-132226796D01*
X86358969Y-132439532D01*
X86197995Y-132242159D01*
X85963180Y-132047903D01*
X85695106Y-131902956D01*
X85403983Y-131812838D01*
X85100901Y-131780983D01*
X84797404Y-131808603D01*
X84505052Y-131894647D01*
X84234980Y-132035838D01*
X83997476Y-132226796D01*
X83818969Y-132439532D01*
X83657995Y-132242159D01*
X83423180Y-132047903D01*
X83155106Y-131902956D01*
X82863983Y-131812838D01*
X82560901Y-131780983D01*
X82257404Y-131808603D01*
X81965052Y-131894647D01*
X81694980Y-132035838D01*
X81457476Y-132226796D01*
X81278969Y-132439532D01*
X81117995Y-132242159D01*
X80883180Y-132047903D01*
X80615106Y-131902956D01*
X80323983Y-131812838D01*
X80020901Y-131780983D01*
X79717404Y-131808603D01*
X79425052Y-131894647D01*
X79154980Y-132035838D01*
X78917476Y-132226796D01*
X78738969Y-132439532D01*
X78577995Y-132242159D01*
X78343180Y-132047903D01*
X78075106Y-131902956D01*
X77783983Y-131812838D01*
X77480901Y-131780983D01*
X77177404Y-131808603D01*
X76885052Y-131894647D01*
X76614980Y-132035838D01*
X76377476Y-132226796D01*
X76198969Y-132439532D01*
X76037995Y-132242159D01*
X75803180Y-132047903D01*
X75535106Y-131902956D01*
X75243983Y-131812838D01*
X74940901Y-131780983D01*
X74739000Y-131799357D01*
X74739000Y-131012597D01*
X133148110Y-131012597D01*
X133284697Y-131378738D01*
X133669074Y-131603912D01*
X134089995Y-131749771D01*
X134531284Y-131810709D01*
X134975982Y-131784387D01*
X135406999Y-131671813D01*
X135807773Y-131477315D01*
X135955303Y-131378738D01*
X136091890Y-131012597D01*
X134620000Y-129540707D01*
X133148110Y-131012597D01*
X74739000Y-131012597D01*
X74739000Y-129451284D01*
X132349291Y-129451284D01*
X132375613Y-129895982D01*
X132488187Y-130326999D01*
X132682685Y-130727773D01*
X132781262Y-130875303D01*
X133147403Y-131011890D01*
X134619293Y-129540000D01*
X134620707Y-129540000D01*
X136092597Y-131011890D01*
X136458738Y-130875303D01*
X136683912Y-130490926D01*
X136829771Y-130070005D01*
X136890709Y-129628716D01*
X136864387Y-129184018D01*
X136751813Y-128753001D01*
X136557315Y-128352227D01*
X136458738Y-128204697D01*
X136092597Y-128068110D01*
X134620707Y-129540000D01*
X134619293Y-129540000D01*
X133147403Y-128068110D01*
X132781262Y-128204697D01*
X132556088Y-128589074D01*
X132410229Y-129009995D01*
X132349291Y-129451284D01*
X74739000Y-129451284D01*
X74739000Y-127446936D01*
X74889980Y-127295956D01*
X74919099Y-127299017D01*
X75222596Y-127271397D01*
X75514948Y-127185353D01*
X75785020Y-127044162D01*
X76022524Y-126853204D01*
X76201031Y-126640468D01*
X76362005Y-126837841D01*
X76596820Y-127032097D01*
X76864894Y-127177044D01*
X77156017Y-127267162D01*
X77459099Y-127299017D01*
X77762596Y-127271397D01*
X78054948Y-127185353D01*
X78325020Y-127044162D01*
X78562524Y-126853204D01*
X78741031Y-126640468D01*
X78902005Y-126837841D01*
X79136820Y-127032097D01*
X79404894Y-127177044D01*
X79696017Y-127267162D01*
X79999099Y-127299017D01*
X80302596Y-127271397D01*
X80594948Y-127185353D01*
X80865020Y-127044162D01*
X81102524Y-126853204D01*
X81281031Y-126640468D01*
X81442005Y-126837841D01*
X81676820Y-127032097D01*
X81944894Y-127177044D01*
X82236017Y-127267162D01*
X82539099Y-127299017D01*
X82842596Y-127271397D01*
X83134948Y-127185353D01*
X83405020Y-127044162D01*
X83642524Y-126853204D01*
X83821031Y-126640468D01*
X83982005Y-126837841D01*
X84216820Y-127032097D01*
X84484894Y-127177044D01*
X84776017Y-127267162D01*
X85079099Y-127299017D01*
X85382596Y-127271397D01*
X85674948Y-127185353D01*
X85945020Y-127044162D01*
X86151927Y-126877805D01*
X86256656Y-127036738D01*
X86420529Y-127176406D01*
X86616825Y-127264890D01*
X86830000Y-127295184D01*
X88430000Y-127295184D01*
X88551266Y-127285514D01*
X88756946Y-127221818D01*
X88936738Y-127103344D01*
X88947007Y-127091295D01*
X97496448Y-127091295D01*
X97551728Y-127392490D01*
X97664457Y-127677212D01*
X97830342Y-127934615D01*
X98043064Y-128154895D01*
X98294521Y-128329663D01*
X98575135Y-128452260D01*
X98874218Y-128518017D01*
X99180376Y-128524431D01*
X99481950Y-128471255D01*
X99767452Y-128360516D01*
X100026007Y-128196432D01*
X100247767Y-127985253D01*
X100424285Y-127735022D01*
X100548839Y-127455271D01*
X100616683Y-127156655D01*
X100621567Y-126806887D01*
X100562087Y-126506493D01*
X100445393Y-126223373D01*
X100275931Y-125968311D01*
X100108791Y-125800000D01*
X102574816Y-125800000D01*
X102574816Y-128200000D01*
X102584486Y-128321266D01*
X102648182Y-128526946D01*
X102766656Y-128706738D01*
X102930529Y-128846406D01*
X103126825Y-128934890D01*
X103340000Y-128965184D01*
X104940000Y-128965184D01*
X105061266Y-128955514D01*
X105266946Y-128891818D01*
X105446738Y-128773344D01*
X105586406Y-128609471D01*
X105615227Y-128545533D01*
X105806820Y-128704033D01*
X106074894Y-128848980D01*
X106366017Y-128939098D01*
X106669099Y-128970953D01*
X106972596Y-128943333D01*
X107264948Y-128857289D01*
X107535020Y-128716098D01*
X107772524Y-128525140D01*
X107951031Y-128312404D01*
X108112005Y-128509777D01*
X108346820Y-128704033D01*
X108614894Y-128848980D01*
X108906017Y-128939098D01*
X109209099Y-128970953D01*
X109512596Y-128943333D01*
X109804948Y-128857289D01*
X110075020Y-128716098D01*
X110312524Y-128525140D01*
X110494782Y-128307934D01*
X110656206Y-128504501D01*
X110892893Y-128698618D01*
X111162902Y-128842830D01*
X111455857Y-128931594D01*
X111515234Y-128942197D01*
X111759500Y-128771125D01*
X111759500Y-127000500D01*
X111760500Y-127000500D01*
X111760500Y-128771125D01*
X112004766Y-128942197D01*
X112064143Y-128931594D01*
X112357098Y-128842830D01*
X112627107Y-128698618D01*
X112863794Y-128504501D01*
X113058062Y-128267939D01*
X113165333Y-128067403D01*
X133148110Y-128067403D01*
X134620000Y-129539293D01*
X136091890Y-128067403D01*
X135955303Y-127701262D01*
X135570926Y-127476088D01*
X135150005Y-127330229D01*
X134708716Y-127269291D01*
X134264018Y-127295613D01*
X133833001Y-127408187D01*
X133432227Y-127602685D01*
X133284697Y-127701262D01*
X133148110Y-128067403D01*
X113165333Y-128067403D01*
X113202447Y-127998022D01*
X113291399Y-127705124D01*
X113321500Y-127400500D01*
X113321500Y-127000500D01*
X111760500Y-127000500D01*
X111759500Y-127000500D01*
X111739500Y-127000500D01*
X111739500Y-126999500D01*
X111759500Y-126999500D01*
X111759500Y-125228875D01*
X111760500Y-125228875D01*
X111760500Y-126999500D01*
X113321500Y-126999500D01*
X113321500Y-126599500D01*
X113291399Y-126294876D01*
X113202447Y-126001978D01*
X113113699Y-125836070D01*
X114306842Y-125836070D01*
X114351501Y-126079399D01*
X114442572Y-126309419D01*
X114576587Y-126517369D01*
X114748441Y-126695329D01*
X114951587Y-126836520D01*
X115178289Y-126935563D01*
X115419911Y-126988687D01*
X115667249Y-126993868D01*
X115910884Y-126950909D01*
X116141534Y-126861445D01*
X116350415Y-126728886D01*
X116522549Y-126564965D01*
X116648441Y-126695329D01*
X116851587Y-126836520D01*
X117078289Y-126935563D01*
X117319911Y-126988687D01*
X117567249Y-126993868D01*
X117810884Y-126950909D01*
X118041534Y-126861445D01*
X118250415Y-126728886D01*
X118429570Y-126558279D01*
X118572175Y-126356123D01*
X118672799Y-126130118D01*
X118727609Y-125888873D01*
X118731554Y-125606304D01*
X118683502Y-125363622D01*
X118589228Y-125134896D01*
X118452323Y-124928837D01*
X118278001Y-124753294D01*
X118072903Y-124614954D01*
X117844841Y-124519085D01*
X117602501Y-124469340D01*
X117355114Y-124467613D01*
X117112103Y-124513970D01*
X116882724Y-124606645D01*
X116675715Y-124742108D01*
X116519148Y-124895430D01*
X116378001Y-124753294D01*
X116172903Y-124614954D01*
X115944841Y-124519085D01*
X115702501Y-124469340D01*
X115455114Y-124467613D01*
X115212103Y-124513970D01*
X114982724Y-124606645D01*
X114775715Y-124742108D01*
X114598959Y-124915200D01*
X114459190Y-125119327D01*
X114361732Y-125346715D01*
X114310296Y-125588702D01*
X114306842Y-125836070D01*
X113113699Y-125836070D01*
X113058062Y-125732061D01*
X112863794Y-125495499D01*
X112627107Y-125301382D01*
X112357098Y-125157170D01*
X112064143Y-125068406D01*
X112004766Y-125057803D01*
X111760500Y-125228875D01*
X111759500Y-125228875D01*
X111515234Y-125057803D01*
X111455857Y-125068406D01*
X111162902Y-125157170D01*
X110892893Y-125301382D01*
X110656206Y-125495499D01*
X110493695Y-125693390D01*
X110327995Y-125490223D01*
X110093180Y-125295967D01*
X109825106Y-125151020D01*
X109533983Y-125060902D01*
X109230901Y-125029047D01*
X108927404Y-125056667D01*
X108635052Y-125142711D01*
X108364980Y-125283902D01*
X108127476Y-125474860D01*
X107948969Y-125687596D01*
X107787995Y-125490223D01*
X107553180Y-125295967D01*
X107285106Y-125151020D01*
X106993983Y-125060902D01*
X106690901Y-125029047D01*
X106387404Y-125056667D01*
X106095052Y-125142711D01*
X105824980Y-125283902D01*
X105617239Y-125450930D01*
X105513344Y-125293262D01*
X105349471Y-125153594D01*
X105153175Y-125065110D01*
X104940000Y-125034816D01*
X103340000Y-125034816D01*
X103218734Y-125044486D01*
X103013054Y-125108182D01*
X102833262Y-125226656D01*
X102693594Y-125390529D01*
X102605110Y-125586825D01*
X102574816Y-125800000D01*
X100108791Y-125800000D01*
X100060153Y-125751022D01*
X99986885Y-125701602D01*
X100034520Y-125435228D01*
X99060000Y-124460707D01*
X98085480Y-125435228D01*
X98132913Y-125700473D01*
X98076824Y-125737176D01*
X97858034Y-125951431D01*
X97685027Y-126204102D01*
X97564391Y-126485565D01*
X97500723Y-126785099D01*
X97496448Y-127091295D01*
X88947007Y-127091295D01*
X89076406Y-126939471D01*
X89164890Y-126743175D01*
X89195184Y-126530000D01*
X89195184Y-124930000D01*
X89185514Y-124808734D01*
X89121818Y-124603054D01*
X89003344Y-124423262D01*
X88974760Y-124398900D01*
X97492134Y-124398900D01*
X97510340Y-124705949D01*
X97588099Y-125003547D01*
X97722421Y-125280257D01*
X97790314Y-125381863D01*
X98084772Y-125434520D01*
X99059293Y-124460000D01*
X99060707Y-124460000D01*
X100035228Y-125434520D01*
X100329686Y-125381863D01*
X100485136Y-125116446D01*
X100585819Y-124825802D01*
X100627866Y-124521100D01*
X100609660Y-124214051D01*
X100531901Y-123916453D01*
X100397579Y-123639743D01*
X100329686Y-123538137D01*
X100035228Y-123485480D01*
X99060707Y-124460000D01*
X99059293Y-124460000D01*
X98084772Y-123485480D01*
X97790314Y-123538137D01*
X97634864Y-123803554D01*
X97534181Y-124094198D01*
X97492134Y-124398900D01*
X88974760Y-124398900D01*
X88839471Y-124283594D01*
X88643175Y-124195110D01*
X88430000Y-124164816D01*
X86830000Y-124164816D01*
X86708734Y-124174486D01*
X86503054Y-124238182D01*
X86323262Y-124356656D01*
X86183594Y-124520529D01*
X86154137Y-124585877D01*
X85963180Y-124427903D01*
X85695106Y-124282956D01*
X85403983Y-124192838D01*
X85100901Y-124160983D01*
X84797404Y-124188603D01*
X84505052Y-124274647D01*
X84234980Y-124415838D01*
X83997476Y-124606796D01*
X83818969Y-124819532D01*
X83657995Y-124622159D01*
X83423180Y-124427903D01*
X83155106Y-124282956D01*
X82863983Y-124192838D01*
X82560901Y-124160983D01*
X82257404Y-124188603D01*
X81965052Y-124274647D01*
X81694980Y-124415838D01*
X81457476Y-124606796D01*
X81278969Y-124819532D01*
X81117995Y-124622159D01*
X80883180Y-124427903D01*
X80615106Y-124282956D01*
X80323983Y-124192838D01*
X80020901Y-124160983D01*
X79717404Y-124188603D01*
X79425052Y-124274647D01*
X79154980Y-124415838D01*
X78917476Y-124606796D01*
X78738969Y-124819532D01*
X78577995Y-124622159D01*
X78343180Y-124427903D01*
X78075106Y-124282956D01*
X77783983Y-124192838D01*
X77480901Y-124160983D01*
X77177404Y-124188603D01*
X76885052Y-124274647D01*
X76614980Y-124415838D01*
X76377476Y-124606796D01*
X76198969Y-124819532D01*
X76037995Y-124622159D01*
X75803180Y-124427903D01*
X75535106Y-124282956D01*
X75243983Y-124192838D01*
X74940901Y-124160983D01*
X74637404Y-124188603D01*
X74345052Y-124274647D01*
X74074980Y-124415838D01*
X73837476Y-124606796D01*
X73641585Y-124840249D01*
X73494770Y-125107305D01*
X73402623Y-125397791D01*
X73368652Y-125700643D01*
X73368500Y-125722445D01*
X73368500Y-125737555D01*
X73371001Y-125763063D01*
X72897032Y-126237032D01*
X72833747Y-126314076D01*
X72769703Y-126390401D01*
X72766973Y-126395367D01*
X72763367Y-126399757D01*
X72716239Y-126487652D01*
X72668253Y-126574937D01*
X72666537Y-126580345D01*
X72663856Y-126585346D01*
X72634717Y-126680656D01*
X72604579Y-126775663D01*
X72603946Y-126781303D01*
X72602288Y-126786727D01*
X72592220Y-126885847D01*
X72581105Y-126984935D01*
X72581028Y-126996029D01*
X72581007Y-126996233D01*
X72581025Y-126996423D01*
X72581000Y-127000000D01*
X72581000Y-139408500D01*
X72580875Y-139408500D01*
X72390500Y-139598875D01*
X72390500Y-140969500D01*
X72410500Y-140969500D01*
X72410500Y-140970500D01*
X72390500Y-140970500D01*
X72390500Y-142341125D01*
X72580875Y-142531500D01*
X72581000Y-142531500D01*
X72581000Y-142663064D01*
X69891772Y-145352292D01*
X69860901Y-145349047D01*
X69557404Y-145376667D01*
X69265052Y-145462711D01*
X68994980Y-145603902D01*
X68757476Y-145794860D01*
X68561585Y-146028313D01*
X68414770Y-146295369D01*
X68322623Y-146585855D01*
X68288652Y-146888707D01*
X68288500Y-146910509D01*
X68288500Y-147729491D01*
X68318239Y-148032788D01*
X68406321Y-148324532D01*
X68549393Y-148593612D01*
X68742005Y-148829777D01*
X68976820Y-149024033D01*
X69244894Y-149168980D01*
X69536017Y-149259098D01*
X69839099Y-149290953D01*
X70142596Y-149263333D01*
X70434948Y-149177289D01*
X70705020Y-149036098D01*
X70942524Y-148845140D01*
X71121031Y-148632404D01*
X71282005Y-148829777D01*
X71516820Y-149024033D01*
X71784894Y-149168980D01*
X72076017Y-149259098D01*
X72379099Y-149290953D01*
X72682596Y-149263333D01*
X72779018Y-149234954D01*
X73663662Y-150119598D01*
X73191402Y-150119598D01*
X73092184Y-150129326D01*
X72992919Y-150138011D01*
X72987474Y-150139593D01*
X72981823Y-150140147D01*
X72886370Y-150168966D01*
X72790696Y-150196762D01*
X72785659Y-150199373D01*
X72780227Y-150201013D01*
X72692241Y-150247796D01*
X72603737Y-150293672D01*
X72599301Y-150297213D01*
X72594293Y-150299876D01*
X72517081Y-150362849D01*
X72439161Y-150425051D01*
X72431265Y-150432838D01*
X72431102Y-150432971D01*
X72430977Y-150433122D01*
X72428434Y-150435630D01*
X69889248Y-152974816D01*
X69050000Y-152974816D01*
X68928734Y-152984486D01*
X68723054Y-153048182D01*
X68543262Y-153166656D01*
X68403594Y-153330529D01*
X68315110Y-153526825D01*
X68284816Y-153740000D01*
X68284816Y-156140000D01*
X68294486Y-156261266D01*
X68358182Y-156466946D01*
X68476656Y-156646738D01*
X68640529Y-156786406D01*
X68836825Y-156874890D01*
X69050000Y-156905184D01*
X70650000Y-156905184D01*
X70771266Y-156895514D01*
X70976946Y-156831818D01*
X71156738Y-156713344D01*
X71296406Y-156549471D01*
X71325227Y-156485533D01*
X71516820Y-156644033D01*
X71784894Y-156788980D01*
X72076017Y-156879098D01*
X72379099Y-156910953D01*
X72682596Y-156883333D01*
X72974948Y-156797289D01*
X73245020Y-156656098D01*
X73482524Y-156465140D01*
X73661031Y-156252404D01*
X73822005Y-156449777D01*
X74056820Y-156644033D01*
X74324894Y-156788980D01*
X74616017Y-156879098D01*
X74919099Y-156910953D01*
X75222596Y-156883333D01*
X75514948Y-156797289D01*
X75785020Y-156656098D01*
X76022524Y-156465140D01*
X76201031Y-156252404D01*
X76362005Y-156449777D01*
X76596820Y-156644033D01*
X76864894Y-156788980D01*
X77156017Y-156879098D01*
X77459099Y-156910953D01*
X77762596Y-156883333D01*
X78054948Y-156797289D01*
X78325020Y-156656098D01*
X78562524Y-156465140D01*
X78741031Y-156252404D01*
X78902005Y-156449777D01*
X79136820Y-156644033D01*
X79404894Y-156788980D01*
X79696017Y-156879098D01*
X79999099Y-156910953D01*
X80302596Y-156883333D01*
X80594948Y-156797289D01*
X80865020Y-156656098D01*
X81102524Y-156465140D01*
X81281031Y-156252404D01*
X81442005Y-156449777D01*
X81676820Y-156644033D01*
X81944894Y-156788980D01*
X82236017Y-156879098D01*
X82539099Y-156910953D01*
X82842596Y-156883333D01*
X83134948Y-156797289D01*
X83405020Y-156656098D01*
X83642524Y-156465140D01*
X83821031Y-156252404D01*
X83982005Y-156449777D01*
X84216820Y-156644033D01*
X84484894Y-156788980D01*
X84776017Y-156879098D01*
X85079099Y-156910953D01*
X85382596Y-156883333D01*
X85674948Y-156797289D01*
X85945020Y-156656098D01*
X86182524Y-156465140D01*
X86361031Y-156252404D01*
X86522005Y-156449777D01*
X86756820Y-156644033D01*
X87024894Y-156788980D01*
X87316017Y-156879098D01*
X87619099Y-156910953D01*
X87922596Y-156883333D01*
X88214948Y-156797289D01*
X88485020Y-156656098D01*
X88722524Y-156465140D01*
X88901031Y-156252404D01*
X89062005Y-156449777D01*
X89296820Y-156644033D01*
X89564894Y-156788980D01*
X89856017Y-156879098D01*
X90159099Y-156910953D01*
X90462596Y-156883333D01*
X90754948Y-156797289D01*
X91025020Y-156656098D01*
X91262524Y-156465140D01*
X91444782Y-156247934D01*
X91606206Y-156444501D01*
X91842893Y-156638618D01*
X92112902Y-156782830D01*
X92405857Y-156871594D01*
X92465234Y-156882197D01*
X92709500Y-156711125D01*
X92709500Y-154940500D01*
X92689500Y-154940500D01*
X92689500Y-154939500D01*
X92709500Y-154939500D01*
X92709500Y-153168875D01*
X92465234Y-152997803D01*
X92405857Y-153008406D01*
X92112902Y-153097170D01*
X91842893Y-153241382D01*
X91606206Y-153435499D01*
X91443695Y-153633390D01*
X91277995Y-153430223D01*
X91064615Y-153253700D01*
X91341200Y-153253700D01*
X91550779Y-153233151D01*
X91752375Y-153172285D01*
X91938309Y-153073422D01*
X92101500Y-152940327D01*
X92235732Y-152778069D01*
X92335890Y-152592829D01*
X92398162Y-152391663D01*
X92410151Y-152277598D01*
X94336362Y-152277598D01*
X99963232Y-157904468D01*
X100040276Y-157967753D01*
X100116601Y-158031797D01*
X100121567Y-158034527D01*
X100125957Y-158038133D01*
X100213852Y-158085261D01*
X100301137Y-158133247D01*
X100306545Y-158134963D01*
X100311546Y-158137644D01*
X100406885Y-158166792D01*
X100501863Y-158196921D01*
X100507499Y-158197553D01*
X100512928Y-158199213D01*
X100612132Y-158209290D01*
X100711135Y-158220395D01*
X100722220Y-158220472D01*
X100722434Y-158220494D01*
X100722633Y-158220475D01*
X100726200Y-158220500D01*
X103408400Y-158220500D01*
X103617979Y-158199951D01*
X103819575Y-158139085D01*
X104005509Y-158040222D01*
X104168700Y-157907127D01*
X104302932Y-157744869D01*
X104403090Y-157559629D01*
X104465362Y-157358463D01*
X104487374Y-157149033D01*
X104468288Y-156939316D01*
X104458242Y-156905184D01*
X104579248Y-156905184D01*
X109237881Y-161563818D01*
X109027543Y-161732933D01*
X108991149Y-161776306D01*
X108969909Y-161750264D01*
X108705018Y-161531127D01*
X108402609Y-161367615D01*
X108074199Y-161265955D01*
X107732297Y-161230020D01*
X107389928Y-161261178D01*
X107060130Y-161358243D01*
X106755467Y-161517517D01*
X106487543Y-161732933D01*
X106451149Y-161776306D01*
X106429909Y-161750264D01*
X106165018Y-161531127D01*
X105862609Y-161367615D01*
X105534199Y-161265955D01*
X105192297Y-161230020D01*
X104849928Y-161261178D01*
X104520130Y-161358243D01*
X104215467Y-161517517D01*
X103947543Y-161732933D01*
X103907272Y-161780926D01*
X103674979Y-161574623D01*
X103377015Y-161400097D01*
X103050728Y-161287054D01*
X102916053Y-161260265D01*
X102640500Y-161428875D01*
X102640500Y-162999500D01*
X102660500Y-162999500D01*
X102660500Y-163000500D01*
X102640500Y-163000500D01*
X102640500Y-163020500D01*
X102639500Y-163020500D01*
X102639500Y-163000500D01*
X102619500Y-163000500D01*
X102619500Y-162999500D01*
X102639500Y-162999500D01*
X102639500Y-161428875D01*
X102363947Y-161260265D01*
X102229272Y-161287054D01*
X101902985Y-161400097D01*
X101605021Y-161574623D01*
X101373997Y-161779799D01*
X101349909Y-161750264D01*
X101085018Y-161531127D01*
X100782609Y-161367615D01*
X100454199Y-161265955D01*
X100112297Y-161230020D01*
X99769928Y-161261178D01*
X99440130Y-161358243D01*
X99135467Y-161517517D01*
X98867543Y-161732933D01*
X98831149Y-161776306D01*
X98809909Y-161750264D01*
X98545018Y-161531127D01*
X98242609Y-161367615D01*
X97914199Y-161265955D01*
X97572297Y-161230020D01*
X97229928Y-161261178D01*
X96900130Y-161358243D01*
X96595467Y-161517517D01*
X96327543Y-161732933D01*
X96291149Y-161776306D01*
X96269909Y-161750264D01*
X96005018Y-161531127D01*
X95702609Y-161367615D01*
X95374199Y-161265955D01*
X95035300Y-161230336D01*
X95035300Y-154177700D01*
X95014751Y-153968121D01*
X94953885Y-153766525D01*
X94855022Y-153580591D01*
X94721927Y-153417400D01*
X94559669Y-153283168D01*
X94374429Y-153183010D01*
X94173263Y-153120738D01*
X93963833Y-153098726D01*
X93754116Y-153117812D01*
X93552099Y-153177269D01*
X93504075Y-153202375D01*
X93307098Y-153097170D01*
X93014143Y-153008406D01*
X92954766Y-152997803D01*
X92710500Y-153168875D01*
X92710500Y-154939500D01*
X92730500Y-154939500D01*
X92730500Y-154940500D01*
X92710500Y-154940500D01*
X92710500Y-156711125D01*
X92877300Y-156827944D01*
X92877300Y-161076763D01*
X92702003Y-161252061D01*
X92492297Y-161230020D01*
X92149928Y-161261178D01*
X91820130Y-161358243D01*
X91515467Y-161517517D01*
X91247543Y-161732933D01*
X91211149Y-161776306D01*
X91189909Y-161750264D01*
X90925018Y-161531127D01*
X90622609Y-161367615D01*
X90294199Y-161265955D01*
X89952297Y-161230020D01*
X89609928Y-161261178D01*
X89280130Y-161358243D01*
X88975467Y-161517517D01*
X88707543Y-161732933D01*
X88671149Y-161776306D01*
X88649909Y-161750264D01*
X88385018Y-161531127D01*
X88082609Y-161367615D01*
X87754199Y-161265955D01*
X87412297Y-161230020D01*
X87069928Y-161261178D01*
X86740130Y-161358243D01*
X86435467Y-161517517D01*
X86167543Y-161732933D01*
X86131149Y-161776306D01*
X86109909Y-161750264D01*
X85845018Y-161531127D01*
X85542609Y-161367615D01*
X85214199Y-161265955D01*
X84872297Y-161230020D01*
X84529928Y-161261178D01*
X84200130Y-161358243D01*
X83895467Y-161517517D01*
X83627543Y-161732933D01*
X83591149Y-161776306D01*
X83569909Y-161750264D01*
X83305018Y-161531127D01*
X83002609Y-161367615D01*
X82674199Y-161265955D01*
X82332297Y-161230020D01*
X81989928Y-161261178D01*
X81660130Y-161358243D01*
X81355467Y-161517517D01*
X81087543Y-161732933D01*
X81051149Y-161776306D01*
X81029909Y-161750264D01*
X80765018Y-161531127D01*
X80462609Y-161367615D01*
X80134199Y-161265955D01*
X79792297Y-161230020D01*
X79449928Y-161261178D01*
X79120130Y-161358243D01*
X78815467Y-161517517D01*
X78547543Y-161732933D01*
X78511149Y-161776306D01*
X78489909Y-161750264D01*
X78225018Y-161531127D01*
X77922609Y-161367615D01*
X77594199Y-161265955D01*
X77252297Y-161230020D01*
X76909928Y-161261178D01*
X76580130Y-161358243D01*
X76275467Y-161517517D01*
X76007543Y-161732933D01*
X75971149Y-161776306D01*
X75949909Y-161750264D01*
X75685018Y-161531127D01*
X75382609Y-161367615D01*
X75054199Y-161265955D01*
X74712297Y-161230020D01*
X74369928Y-161261178D01*
X74040130Y-161358243D01*
X73735467Y-161517517D01*
X73467543Y-161732933D01*
X73431149Y-161776306D01*
X73409909Y-161750264D01*
X73145018Y-161531127D01*
X72842609Y-161367615D01*
X72514199Y-161265955D01*
X72172297Y-161230020D01*
X71829928Y-161261178D01*
X71500130Y-161358243D01*
X71195467Y-161517517D01*
X70927543Y-161732933D01*
X70891149Y-161776306D01*
X70869909Y-161750264D01*
X70605018Y-161531127D01*
X70302609Y-161367615D01*
X69974199Y-161265955D01*
X69632297Y-161230020D01*
X69289928Y-161261178D01*
X68960130Y-161358243D01*
X68655467Y-161517517D01*
X68387543Y-161732933D01*
X68351149Y-161776306D01*
X68329909Y-161750264D01*
X68065018Y-161531127D01*
X67762609Y-161367615D01*
X67434199Y-161265955D01*
X67092297Y-161230020D01*
X66749928Y-161261178D01*
X66420130Y-161358243D01*
X66115467Y-161517517D01*
X65847543Y-161732933D01*
X65811149Y-161776306D01*
X65789909Y-161750264D01*
X65525018Y-161531127D01*
X65222609Y-161367615D01*
X64894199Y-161265955D01*
X64552297Y-161230020D01*
X64209928Y-161261178D01*
X63880130Y-161358243D01*
X63585776Y-161512128D01*
X63573344Y-161493262D01*
X63409471Y-161353594D01*
X63213175Y-161265110D01*
X63000000Y-161234816D01*
X61336500Y-161234816D01*
X61336500Y-155915228D01*
X63795480Y-155915228D01*
X63848137Y-156209686D01*
X64113554Y-156365136D01*
X64404198Y-156465819D01*
X64708900Y-156507866D01*
X65015949Y-156489660D01*
X65313547Y-156411901D01*
X65590257Y-156277579D01*
X65691863Y-156209686D01*
X65744520Y-155915228D01*
X64770000Y-154940707D01*
X63795480Y-155915228D01*
X61336500Y-155915228D01*
X61336500Y-154878900D01*
X63202134Y-154878900D01*
X63220340Y-155185949D01*
X63298099Y-155483547D01*
X63432421Y-155760257D01*
X63500314Y-155861863D01*
X63794772Y-155914520D01*
X64769293Y-154940000D01*
X64770707Y-154940000D01*
X65745228Y-155914520D01*
X66039686Y-155861863D01*
X66195136Y-155596446D01*
X66295819Y-155305802D01*
X66337866Y-155001100D01*
X66319660Y-154694051D01*
X66241901Y-154396453D01*
X66107579Y-154119743D01*
X66039686Y-154018137D01*
X65745228Y-153965480D01*
X64770707Y-154940000D01*
X64769293Y-154940000D01*
X63794772Y-153965480D01*
X63500314Y-154018137D01*
X63344864Y-154283554D01*
X63244181Y-154574198D01*
X63202134Y-154878900D01*
X61336500Y-154878900D01*
X61336500Y-152571295D01*
X63206448Y-152571295D01*
X63261728Y-152872490D01*
X63374457Y-153157212D01*
X63540342Y-153414615D01*
X63753064Y-153634895D01*
X63843260Y-153697583D01*
X63795480Y-153964772D01*
X64770000Y-154939293D01*
X65744520Y-153964772D01*
X65697345Y-153700968D01*
X65736007Y-153676432D01*
X65957767Y-153465253D01*
X66134285Y-153215022D01*
X66258839Y-152935271D01*
X66326683Y-152636655D01*
X66331567Y-152286887D01*
X66272087Y-151986493D01*
X66155393Y-151703373D01*
X65985931Y-151448311D01*
X65770153Y-151231022D01*
X65516281Y-151059783D01*
X65233982Y-150941116D01*
X64934011Y-150879540D01*
X64627792Y-150877403D01*
X64326991Y-150934784D01*
X64043063Y-151049498D01*
X63786824Y-151217176D01*
X63568034Y-151431431D01*
X63395027Y-151684102D01*
X63274391Y-151965565D01*
X63210723Y-152265099D01*
X63206448Y-152571295D01*
X61336500Y-152571295D01*
X61336500Y-141160875D01*
X70828500Y-141160875D01*
X70828500Y-141845001D01*
X70857764Y-141992122D01*
X70915168Y-142130706D01*
X70998504Y-142255428D01*
X71104572Y-142361496D01*
X71229295Y-142444833D01*
X71367879Y-142502236D01*
X71514999Y-142531500D01*
X72199125Y-142531500D01*
X72389500Y-142341125D01*
X72389500Y-140970500D01*
X71018875Y-140970500D01*
X70828500Y-141160875D01*
X61336500Y-141160875D01*
X61336500Y-140094999D01*
X70828500Y-140094999D01*
X70828500Y-140779125D01*
X71018875Y-140969500D01*
X72389500Y-140969500D01*
X72389500Y-139598875D01*
X72199125Y-139408500D01*
X71514999Y-139408500D01*
X71367879Y-139437764D01*
X71229295Y-139495167D01*
X71104572Y-139578504D01*
X70998504Y-139684572D01*
X70915168Y-139809294D01*
X70857764Y-139947878D01*
X70828500Y-140094999D01*
X61336500Y-140094999D01*
X61336500Y-129846490D01*
X67698218Y-123484772D01*
X98085480Y-123484772D01*
X99060000Y-124459293D01*
X100034520Y-123484772D01*
X99981863Y-123190314D01*
X99716446Y-123034864D01*
X99425802Y-122934181D01*
X99121100Y-122892134D01*
X98814051Y-122910340D01*
X98516453Y-122988099D01*
X98239743Y-123122421D01*
X98138137Y-123190314D01*
X98085480Y-123484772D01*
X67698218Y-123484772D01*
X72212481Y-118970509D01*
X102578500Y-118970509D01*
X102578500Y-119789491D01*
X102608239Y-120092788D01*
X102696321Y-120384532D01*
X102839393Y-120653612D01*
X103032005Y-120889777D01*
X103266820Y-121084033D01*
X103534894Y-121228980D01*
X103826017Y-121319098D01*
X104129099Y-121350953D01*
X104432596Y-121323333D01*
X104529018Y-121294954D01*
X105891932Y-122657868D01*
X105968976Y-122721153D01*
X106045301Y-122785197D01*
X106050267Y-122787927D01*
X106054657Y-122791533D01*
X106142552Y-122838661D01*
X106229837Y-122886647D01*
X106235245Y-122888363D01*
X106240246Y-122891044D01*
X106335544Y-122920179D01*
X106430563Y-122950321D01*
X106436204Y-122950954D01*
X106441628Y-122952612D01*
X106540786Y-122962685D01*
X106639835Y-122973795D01*
X106650919Y-122973872D01*
X106651133Y-122973894D01*
X106651333Y-122973875D01*
X106654900Y-122973900D01*
X147017964Y-122973900D01*
X152844816Y-128800752D01*
X152844816Y-131040000D01*
X152854486Y-131161266D01*
X152918182Y-131366946D01*
X153036656Y-131546738D01*
X153200529Y-131686406D01*
X153396825Y-131774890D01*
X153610000Y-131805184D01*
X156610000Y-131805184D01*
X156731266Y-131795514D01*
X156936946Y-131731818D01*
X157116738Y-131613344D01*
X157256406Y-131449471D01*
X157344890Y-131253175D01*
X157375184Y-131040000D01*
X157375184Y-128040000D01*
X157365514Y-127918734D01*
X157301818Y-127713054D01*
X157183344Y-127533262D01*
X157019471Y-127393594D01*
X156823175Y-127305110D01*
X156610000Y-127274816D01*
X154370752Y-127274816D01*
X148227868Y-121131932D01*
X148150824Y-121068647D01*
X148074499Y-121004603D01*
X148069533Y-121001873D01*
X148065143Y-120998267D01*
X147977248Y-120951139D01*
X147889963Y-120903153D01*
X147884555Y-120901437D01*
X147879554Y-120898756D01*
X147784244Y-120869617D01*
X147689237Y-120839479D01*
X147683597Y-120838846D01*
X147678173Y-120837188D01*
X147579053Y-120827120D01*
X147479965Y-120816005D01*
X147468871Y-120815928D01*
X147468667Y-120815907D01*
X147468477Y-120815925D01*
X147464900Y-120815900D01*
X112927406Y-120815900D01*
X113048415Y-120671687D01*
X113195230Y-120404631D01*
X113287377Y-120114145D01*
X113321348Y-119811293D01*
X113321500Y-119789491D01*
X113321500Y-118970509D01*
X113291761Y-118667212D01*
X113203679Y-118375468D01*
X113060607Y-118106388D01*
X112867995Y-117870223D01*
X112633180Y-117675967D01*
X112365106Y-117531020D01*
X112073983Y-117440902D01*
X111770901Y-117409047D01*
X111467404Y-117436667D01*
X111175052Y-117522711D01*
X110904980Y-117663902D01*
X110667476Y-117854860D01*
X110488969Y-118067596D01*
X110327995Y-117870223D01*
X110093180Y-117675967D01*
X109825106Y-117531020D01*
X109533983Y-117440902D01*
X109230901Y-117409047D01*
X108927404Y-117436667D01*
X108635052Y-117522711D01*
X108364980Y-117663902D01*
X108127476Y-117854860D01*
X107948969Y-118067596D01*
X107787995Y-117870223D01*
X107553180Y-117675967D01*
X107285106Y-117531020D01*
X106993983Y-117440902D01*
X106690901Y-117409047D01*
X106387404Y-117436667D01*
X106095052Y-117522711D01*
X105824980Y-117663902D01*
X105587476Y-117854860D01*
X105408969Y-118067596D01*
X105247995Y-117870223D01*
X105013180Y-117675967D01*
X104745106Y-117531020D01*
X104453983Y-117440902D01*
X104150901Y-117409047D01*
X103847404Y-117436667D01*
X103555052Y-117522711D01*
X103284980Y-117663902D01*
X103047476Y-117854860D01*
X102851585Y-118088313D01*
X102704770Y-118355369D01*
X102612623Y-118645855D01*
X102578652Y-118948707D01*
X102578500Y-118970509D01*
X72212481Y-118970509D01*
X75846490Y-115336500D01*
X154959085Y-115336500D01*
X155905033Y-115429251D01*
X155905033Y-115429251D01*
G37*
X155905033Y-115429251D02*
X156775593Y-115692089D01*
X157578522Y-116119013D01*
X158283237Y-116693765D01*
X158862892Y-117394447D01*
X159295411Y-118194375D01*
X159564319Y-119063076D01*
X159663500Y-120006721D01*
X159663500Y-161662235D01*
X159505018Y-161531127D01*
X159202609Y-161367615D01*
X158874199Y-161265955D01*
X158532297Y-161230020D01*
X158189928Y-161261178D01*
X157860130Y-161358243D01*
X157555467Y-161517517D01*
X157287543Y-161732933D01*
X157251149Y-161776306D01*
X157229909Y-161750264D01*
X156965018Y-161531127D01*
X156662609Y-161367615D01*
X156334199Y-161265955D01*
X155992297Y-161230020D01*
X155649928Y-161261178D01*
X155320130Y-161358243D01*
X155015467Y-161517517D01*
X154747543Y-161732933D01*
X154711149Y-161776306D01*
X154689909Y-161750264D01*
X154425018Y-161531127D01*
X154122609Y-161367615D01*
X153794199Y-161265955D01*
X153452297Y-161230020D01*
X153109928Y-161261178D01*
X152780130Y-161358243D01*
X152475467Y-161517517D01*
X152207543Y-161732933D01*
X152171149Y-161776306D01*
X152149909Y-161750264D01*
X151885018Y-161531127D01*
X151582609Y-161367615D01*
X151254199Y-161265955D01*
X150912297Y-161230020D01*
X150569928Y-161261178D01*
X150240130Y-161358243D01*
X149935467Y-161517517D01*
X149667543Y-161732933D01*
X149631149Y-161776306D01*
X149609909Y-161750264D01*
X149345018Y-161531127D01*
X149042609Y-161367615D01*
X148714199Y-161265955D01*
X148372297Y-161230020D01*
X148029928Y-161261178D01*
X147700130Y-161358243D01*
X147395467Y-161517517D01*
X147127543Y-161732933D01*
X147091149Y-161776306D01*
X147069909Y-161750264D01*
X146805018Y-161531127D01*
X146502609Y-161367615D01*
X146174199Y-161265955D01*
X145832297Y-161230020D01*
X145489928Y-161261178D01*
X145160130Y-161358243D01*
X144855467Y-161517517D01*
X144587543Y-161732933D01*
X144551149Y-161776306D01*
X144529909Y-161750264D01*
X144265018Y-161531127D01*
X143962609Y-161367615D01*
X143634199Y-161265955D01*
X143292297Y-161230020D01*
X142949928Y-161261178D01*
X142620130Y-161358243D01*
X142315467Y-161517517D01*
X142047543Y-161732933D01*
X142011149Y-161776306D01*
X141989909Y-161750264D01*
X141725018Y-161531127D01*
X141422609Y-161367615D01*
X141213157Y-161302779D01*
X145660283Y-156855654D01*
X145736017Y-156879098D01*
X146039099Y-156910953D01*
X146342596Y-156883333D01*
X146634948Y-156797289D01*
X146905020Y-156656098D01*
X147142524Y-156465140D01*
X147321031Y-156252404D01*
X147482005Y-156449777D01*
X147716820Y-156644033D01*
X147984894Y-156788980D01*
X148276017Y-156879098D01*
X148579099Y-156910953D01*
X148882596Y-156883333D01*
X149174948Y-156797289D01*
X149445020Y-156656098D01*
X149682524Y-156465140D01*
X149864782Y-156247934D01*
X150026206Y-156444501D01*
X150262893Y-156638618D01*
X150532902Y-156782830D01*
X150825857Y-156871594D01*
X150885234Y-156882197D01*
X151129500Y-156711125D01*
X151129500Y-154940500D01*
X151130500Y-154940500D01*
X151130500Y-156711125D01*
X151374766Y-156882197D01*
X151434143Y-156871594D01*
X151727098Y-156782830D01*
X151997107Y-156638618D01*
X152233794Y-156444501D01*
X152428062Y-156207939D01*
X152572447Y-155938022D01*
X152661399Y-155645124D01*
X152691500Y-155340500D01*
X152691500Y-154940500D01*
X151130500Y-154940500D01*
X151129500Y-154940500D01*
X151109500Y-154940500D01*
X151109500Y-154939500D01*
X151129500Y-154939500D01*
X151129500Y-153168875D01*
X151130500Y-153168875D01*
X151130500Y-154939500D01*
X152691500Y-154939500D01*
X152691500Y-154539500D01*
X152661399Y-154234876D01*
X152572447Y-153941978D01*
X152428062Y-153672061D01*
X152233794Y-153435499D01*
X151997107Y-153241382D01*
X151727098Y-153097170D01*
X151434143Y-153008406D01*
X151374766Y-152997803D01*
X151130500Y-153168875D01*
X151129500Y-153168875D01*
X150885234Y-152997803D01*
X150825857Y-153008406D01*
X150532902Y-153097170D01*
X150262893Y-153241382D01*
X150026206Y-153435499D01*
X149863695Y-153633390D01*
X149697995Y-153430223D01*
X149463180Y-153235967D01*
X149195106Y-153091020D01*
X148903983Y-153000902D01*
X148600901Y-152969047D01*
X148297404Y-152996667D01*
X148005052Y-153082711D01*
X147734980Y-153223902D01*
X147497476Y-153414860D01*
X147318969Y-153627596D01*
X147157995Y-153430223D01*
X146923180Y-153235967D01*
X146655106Y-153091020D01*
X146363983Y-153000902D01*
X146060901Y-152969047D01*
X145757404Y-152996667D01*
X145465052Y-153082711D01*
X145194980Y-153223902D01*
X144957476Y-153414860D01*
X144778969Y-153627596D01*
X144617995Y-153430223D01*
X144383180Y-153235967D01*
X144115106Y-153091020D01*
X143823983Y-153000902D01*
X143520901Y-152969047D01*
X143217404Y-152996667D01*
X142925052Y-153082711D01*
X142654980Y-153223902D01*
X142417476Y-153414860D01*
X142238969Y-153627596D01*
X142077995Y-153430223D01*
X141843180Y-153235967D01*
X141575106Y-153091020D01*
X141283983Y-153000902D01*
X140980901Y-152969047D01*
X140677404Y-152996667D01*
X140385052Y-153082711D01*
X140114980Y-153223902D01*
X139877476Y-153414860D01*
X139698969Y-153627596D01*
X139537995Y-153430223D01*
X139303180Y-153235967D01*
X139035106Y-153091020D01*
X138743983Y-153000902D01*
X138440901Y-152969047D01*
X138137404Y-152996667D01*
X137845052Y-153082711D01*
X137574980Y-153223902D01*
X137337476Y-153414860D01*
X137158969Y-153627596D01*
X136997995Y-153430223D01*
X136763180Y-153235967D01*
X136495106Y-153091020D01*
X136203983Y-153000902D01*
X135900901Y-152969047D01*
X135597404Y-152996667D01*
X135305052Y-153082711D01*
X135034980Y-153223902D01*
X134827239Y-153390930D01*
X134723344Y-153233262D01*
X134559471Y-153093594D01*
X134363175Y-153005110D01*
X134150000Y-152974816D01*
X132550000Y-152974816D01*
X132428734Y-152984486D01*
X132223054Y-153048182D01*
X132043262Y-153166656D01*
X131903594Y-153330529D01*
X131815110Y-153526825D01*
X131784816Y-153740000D01*
X131784816Y-154979247D01*
X127918564Y-158845500D01*
X125890436Y-158845500D01*
X128234765Y-156501171D01*
X128390376Y-156504431D01*
X128691950Y-156451255D01*
X128977452Y-156340516D01*
X129236007Y-156176432D01*
X129457767Y-155965253D01*
X129634285Y-155715022D01*
X129758839Y-155435271D01*
X129826683Y-155136655D01*
X129831567Y-154786887D01*
X129772087Y-154486493D01*
X129655393Y-154203373D01*
X129485931Y-153948311D01*
X129270153Y-153731022D01*
X129196885Y-153681602D01*
X129244520Y-153415228D01*
X128270000Y-152440707D01*
X127295480Y-153415228D01*
X127342913Y-153680473D01*
X127286824Y-153717176D01*
X127068034Y-153931431D01*
X126895027Y-154184102D01*
X126774391Y-154465565D01*
X126710723Y-154765099D01*
X126707774Y-154976290D01*
X124157364Y-157526700D01*
X118901924Y-157526700D01*
X118868931Y-157414599D01*
X118771369Y-157227979D01*
X118639416Y-157063863D01*
X118478099Y-156928503D01*
X118293563Y-156827053D01*
X118092837Y-156763379D01*
X117883565Y-156739905D01*
X117868500Y-156739800D01*
X117625736Y-156739800D01*
X117594556Y-156708620D01*
X117695020Y-156656098D01*
X117932524Y-156465140D01*
X118114782Y-156247934D01*
X118276206Y-156444501D01*
X118512893Y-156638618D01*
X118782902Y-156782830D01*
X119075857Y-156871594D01*
X119135234Y-156882197D01*
X119379500Y-156711125D01*
X119379500Y-154940500D01*
X119380500Y-154940500D01*
X119380500Y-156711125D01*
X119624766Y-156882197D01*
X119684143Y-156871594D01*
X119977098Y-156782830D01*
X120247107Y-156638618D01*
X120483794Y-156444501D01*
X120678062Y-156207939D01*
X120822447Y-155938022D01*
X120911399Y-155645124D01*
X120941500Y-155340500D01*
X120941500Y-154940500D01*
X119380500Y-154940500D01*
X119379500Y-154940500D01*
X119359500Y-154940500D01*
X119359500Y-154939500D01*
X119379500Y-154939500D01*
X119379500Y-153168875D01*
X119380500Y-153168875D01*
X119380500Y-154939500D01*
X120941500Y-154939500D01*
X120941500Y-154539500D01*
X120911399Y-154234876D01*
X120822447Y-153941978D01*
X120678062Y-153672061D01*
X120483794Y-153435499D01*
X120247107Y-153241382D01*
X119977098Y-153097170D01*
X119684143Y-153008406D01*
X119624766Y-152997803D01*
X119380500Y-153168875D01*
X119379500Y-153168875D01*
X119135234Y-152997803D01*
X119075857Y-153008406D01*
X118782902Y-153097170D01*
X118512893Y-153241382D01*
X118276206Y-153435499D01*
X118113695Y-153633390D01*
X117947995Y-153430223D01*
X117713180Y-153235967D01*
X117445106Y-153091020D01*
X117153983Y-153000902D01*
X116850901Y-152969047D01*
X116547404Y-152996667D01*
X116255052Y-153082711D01*
X115984980Y-153223902D01*
X115747476Y-153414860D01*
X115568969Y-153627596D01*
X115407995Y-153430223D01*
X115173180Y-153235967D01*
X114905106Y-153091020D01*
X114613983Y-153000902D01*
X114310901Y-152969047D01*
X114007404Y-152996667D01*
X113715052Y-153082711D01*
X113444980Y-153223902D01*
X113207476Y-153414860D01*
X113028969Y-153627596D01*
X112867995Y-153430223D01*
X112633180Y-153235967D01*
X112514266Y-153171671D01*
X113867665Y-151818272D01*
X126832837Y-151818272D01*
X126744181Y-152074198D01*
X126702134Y-152378900D01*
X126720340Y-152685949D01*
X126798099Y-152983547D01*
X126932421Y-153260257D01*
X127000314Y-153361863D01*
X127294772Y-153414520D01*
X128269293Y-152440000D01*
X128255150Y-152425858D01*
X128255858Y-152425150D01*
X128270000Y-152439293D01*
X128284142Y-152425150D01*
X128284850Y-152425858D01*
X128270707Y-152440000D01*
X129245228Y-153414520D01*
X129539686Y-153361863D01*
X129695136Y-153096446D01*
X129795819Y-152805802D01*
X129837866Y-152501100D01*
X129819660Y-152194051D01*
X129741901Y-151896453D01*
X129703950Y-151818272D01*
X147710728Y-151818272D01*
X147809946Y-151808544D01*
X147909211Y-151799859D01*
X147914656Y-151798277D01*
X147920307Y-151797723D01*
X148015760Y-151768904D01*
X148111434Y-151741108D01*
X148116471Y-151738497D01*
X148121903Y-151736857D01*
X148209889Y-151690074D01*
X148298393Y-151644198D01*
X148302829Y-151640657D01*
X148307837Y-151637994D01*
X148385049Y-151575021D01*
X148462969Y-151512819D01*
X148470865Y-151505032D01*
X148471028Y-151504899D01*
X148471153Y-151504748D01*
X148473696Y-151502240D01*
X150740282Y-149235654D01*
X150816017Y-149259098D01*
X151119099Y-149290953D01*
X151422596Y-149263333D01*
X151714948Y-149177289D01*
X151985020Y-149036098D01*
X152222524Y-148845140D01*
X152418415Y-148611687D01*
X152565230Y-148344631D01*
X152657377Y-148054145D01*
X152691348Y-147751293D01*
X152691500Y-147729491D01*
X152691500Y-146910509D01*
X152661761Y-146607212D01*
X152573679Y-146315468D01*
X152430607Y-146046388D01*
X152237995Y-145810223D01*
X152003180Y-145615967D01*
X151735106Y-145471020D01*
X151443983Y-145380902D01*
X151140901Y-145349047D01*
X150837404Y-145376667D01*
X150545052Y-145462711D01*
X150274980Y-145603902D01*
X150037476Y-145794860D01*
X149858969Y-146007596D01*
X149697995Y-145810223D01*
X149463180Y-145615967D01*
X149195106Y-145471020D01*
X148903983Y-145380902D01*
X148600901Y-145349047D01*
X148297404Y-145376667D01*
X148005052Y-145462711D01*
X147734980Y-145603902D01*
X147497476Y-145794860D01*
X147318969Y-146007596D01*
X147157995Y-145810223D01*
X146923180Y-145615967D01*
X146655106Y-145471020D01*
X146363983Y-145380902D01*
X146060901Y-145349047D01*
X145757404Y-145376667D01*
X145465052Y-145462711D01*
X145194980Y-145603902D01*
X144957476Y-145794860D01*
X144778969Y-146007596D01*
X144617995Y-145810223D01*
X144383180Y-145615967D01*
X144115106Y-145471020D01*
X143823983Y-145380902D01*
X143520901Y-145349047D01*
X143217404Y-145376667D01*
X142925052Y-145462711D01*
X142654980Y-145603902D01*
X142417476Y-145794860D01*
X142238969Y-146007596D01*
X142077995Y-145810223D01*
X141843180Y-145615967D01*
X141575106Y-145471020D01*
X141283983Y-145380902D01*
X140980901Y-145349047D01*
X140677404Y-145376667D01*
X140385052Y-145462711D01*
X140114980Y-145603902D01*
X139877476Y-145794860D01*
X139698969Y-146007596D01*
X139537995Y-145810223D01*
X139303180Y-145615967D01*
X139035106Y-145471020D01*
X138743983Y-145380902D01*
X138440901Y-145349047D01*
X138137404Y-145376667D01*
X137845052Y-145462711D01*
X137574980Y-145603902D01*
X137337476Y-145794860D01*
X137158969Y-146007596D01*
X136997995Y-145810223D01*
X136763180Y-145615967D01*
X136495106Y-145471020D01*
X136203983Y-145380902D01*
X135900901Y-145349047D01*
X135597404Y-145376667D01*
X135500982Y-145405046D01*
X132601268Y-142505332D01*
X132524224Y-142442047D01*
X132447899Y-142378003D01*
X132442933Y-142375273D01*
X132438543Y-142371667D01*
X132350648Y-142324539D01*
X132263363Y-142276553D01*
X132257955Y-142274837D01*
X132252954Y-142272156D01*
X132157644Y-142243017D01*
X132062637Y-142212879D01*
X132056997Y-142212246D01*
X132051573Y-142210588D01*
X131952453Y-142200520D01*
X131853365Y-142189405D01*
X131842271Y-142189328D01*
X131842067Y-142189307D01*
X131841877Y-142189325D01*
X131838300Y-142189300D01*
X120704080Y-142189300D01*
X120822447Y-141968022D01*
X120911399Y-141675124D01*
X120941500Y-141370500D01*
X120941500Y-140970500D01*
X119380500Y-140970500D01*
X119380500Y-140990500D01*
X119379500Y-140990500D01*
X119379500Y-140970500D01*
X119359500Y-140970500D01*
X119359500Y-140969500D01*
X119379500Y-140969500D01*
X119379500Y-139198875D01*
X119380500Y-139198875D01*
X119380500Y-140969500D01*
X120941500Y-140969500D01*
X120941500Y-140569500D01*
X120911399Y-140264876D01*
X120822447Y-139971978D01*
X120678062Y-139702061D01*
X120483794Y-139465499D01*
X120247107Y-139271382D01*
X119977098Y-139127170D01*
X119684143Y-139038406D01*
X119624766Y-139027803D01*
X119380500Y-139198875D01*
X119379500Y-139198875D01*
X119135234Y-139027803D01*
X119075857Y-139038406D01*
X118782902Y-139127170D01*
X118512893Y-139271382D01*
X118276206Y-139465499D01*
X118113695Y-139663390D01*
X117947995Y-139460223D01*
X117713180Y-139265967D01*
X117445106Y-139121020D01*
X117153983Y-139030902D01*
X116850901Y-138999047D01*
X116547404Y-139026667D01*
X116255052Y-139112711D01*
X115984980Y-139253902D01*
X115747476Y-139444860D01*
X115568969Y-139657596D01*
X115407995Y-139460223D01*
X115173180Y-139265967D01*
X114905106Y-139121020D01*
X114613983Y-139030902D01*
X114310901Y-138999047D01*
X114007404Y-139026667D01*
X113715052Y-139112711D01*
X113444980Y-139253902D01*
X113207476Y-139444860D01*
X113028969Y-139657596D01*
X112867995Y-139460223D01*
X112633180Y-139265967D01*
X112365106Y-139121020D01*
X112073983Y-139030902D01*
X111770901Y-138999047D01*
X111467404Y-139026667D01*
X111175052Y-139112711D01*
X110904980Y-139253902D01*
X110667476Y-139444860D01*
X110488969Y-139657596D01*
X110327995Y-139460223D01*
X110093180Y-139265967D01*
X109825106Y-139121020D01*
X109533983Y-139030902D01*
X109230901Y-138999047D01*
X108927404Y-139026667D01*
X108635052Y-139112711D01*
X108364980Y-139253902D01*
X108127476Y-139444860D01*
X107948969Y-139657596D01*
X107787995Y-139460223D01*
X107553180Y-139265967D01*
X107285106Y-139121020D01*
X106993983Y-139030902D01*
X106690901Y-138999047D01*
X106387404Y-139026667D01*
X106095052Y-139112711D01*
X105824980Y-139253902D01*
X105617239Y-139420930D01*
X105513344Y-139263262D01*
X105349471Y-139123594D01*
X105153175Y-139035110D01*
X104940000Y-139004816D01*
X103340000Y-139004816D01*
X103218734Y-139014486D01*
X103013054Y-139078182D01*
X102833262Y-139196656D01*
X102693594Y-139360529D01*
X102605110Y-139556825D01*
X102574816Y-139770000D01*
X102574816Y-142170000D01*
X102584486Y-142291266D01*
X102648182Y-142496946D01*
X102766656Y-142676738D01*
X102930529Y-142816406D01*
X103126825Y-142904890D01*
X103340000Y-142935184D01*
X104940000Y-142935184D01*
X105061266Y-142925514D01*
X105266946Y-142861818D01*
X105446738Y-142743344D01*
X105586406Y-142579471D01*
X105615227Y-142515533D01*
X105806820Y-142674033D01*
X106074894Y-142818980D01*
X106366017Y-142909098D01*
X106669099Y-142940953D01*
X106972596Y-142913333D01*
X107264948Y-142827289D01*
X107535020Y-142686098D01*
X107772524Y-142495140D01*
X107951031Y-142282404D01*
X108112005Y-142479777D01*
X108346820Y-142674033D01*
X108614894Y-142818980D01*
X108906017Y-142909098D01*
X109209099Y-142940953D01*
X109512596Y-142913333D01*
X109804948Y-142827289D01*
X110075020Y-142686098D01*
X110312524Y-142495140D01*
X110491031Y-142282404D01*
X110652005Y-142479777D01*
X110886820Y-142674033D01*
X111154894Y-142818980D01*
X111446017Y-142909098D01*
X111749099Y-142940953D01*
X112052596Y-142913333D01*
X112149018Y-142884954D01*
X114172032Y-144907968D01*
X114249076Y-144971253D01*
X114325401Y-145035297D01*
X114330367Y-145038027D01*
X114334757Y-145041633D01*
X114422670Y-145088772D01*
X114509937Y-145136747D01*
X114515343Y-145138462D01*
X114520345Y-145141144D01*
X114615670Y-145170288D01*
X114710663Y-145200421D01*
X114716303Y-145201054D01*
X114721727Y-145202712D01*
X114820847Y-145212780D01*
X114919935Y-145223895D01*
X114931029Y-145223972D01*
X114931233Y-145223993D01*
X114931423Y-145223975D01*
X114935000Y-145224000D01*
X119015086Y-145224000D01*
X119161051Y-145369965D01*
X119087404Y-145376667D01*
X118795052Y-145462711D01*
X118524980Y-145603902D01*
X118287476Y-145794860D01*
X118105218Y-146012066D01*
X117943794Y-145815499D01*
X117707107Y-145621382D01*
X117437098Y-145477170D01*
X117144143Y-145388406D01*
X117084766Y-145377803D01*
X116840500Y-145548875D01*
X116840500Y-147319500D01*
X116860500Y-147319500D01*
X116860500Y-147320500D01*
X116840500Y-147320500D01*
X116840500Y-149091125D01*
X117084766Y-149262197D01*
X117144143Y-149251594D01*
X117437098Y-149162830D01*
X117707107Y-149018618D01*
X117943794Y-148824501D01*
X118106305Y-148626610D01*
X118272005Y-148829777D01*
X118506820Y-149024033D01*
X118774894Y-149168980D01*
X119066017Y-149259098D01*
X119369099Y-149290953D01*
X119672596Y-149263333D01*
X119964948Y-149177289D01*
X120235020Y-149036098D01*
X120472524Y-148845140D01*
X120668415Y-148611687D01*
X120815230Y-148344631D01*
X120907377Y-148054145D01*
X120941348Y-147751293D01*
X120941500Y-147729491D01*
X120941500Y-147150414D01*
X123451358Y-149660272D01*
X113420728Y-149660272D01*
X113321510Y-149670000D01*
X113222245Y-149678685D01*
X113216800Y-149680267D01*
X113211149Y-149680821D01*
X113115696Y-149709640D01*
X113020022Y-149737436D01*
X113014985Y-149740047D01*
X113009553Y-149741687D01*
X112921567Y-149788470D01*
X112833063Y-149834346D01*
X112828627Y-149837887D01*
X112823619Y-149840550D01*
X112746407Y-149903523D01*
X112668487Y-149965725D01*
X112660587Y-149973516D01*
X112660428Y-149973645D01*
X112660306Y-149973792D01*
X112657760Y-149976303D01*
X109609718Y-153024346D01*
X109533983Y-153000902D01*
X109230901Y-152969047D01*
X108927404Y-152996667D01*
X108635052Y-153082711D01*
X108562025Y-153120889D01*
X105167787Y-149726651D01*
X105195421Y-149639537D01*
X105196054Y-149633896D01*
X105197712Y-149628472D01*
X105207785Y-149529314D01*
X105218895Y-149430265D01*
X105218972Y-149419181D01*
X105218994Y-149418967D01*
X105218975Y-149418767D01*
X105219000Y-149415200D01*
X105219000Y-148856014D01*
X105232524Y-148845140D01*
X105414782Y-148627934D01*
X105576206Y-148824501D01*
X105812893Y-149018618D01*
X106082902Y-149162830D01*
X106375857Y-149251594D01*
X106435234Y-149262197D01*
X106679500Y-149091125D01*
X106679500Y-147320500D01*
X106680500Y-147320500D01*
X106680500Y-149091125D01*
X106924766Y-149262197D01*
X106984143Y-149251594D01*
X107277098Y-149162830D01*
X107547107Y-149018618D01*
X107783794Y-148824501D01*
X107950000Y-148622110D01*
X108116206Y-148824501D01*
X108352893Y-149018618D01*
X108622902Y-149162830D01*
X108915857Y-149251594D01*
X108975234Y-149262197D01*
X109219500Y-149091125D01*
X109219500Y-147320500D01*
X106680500Y-147320500D01*
X106679500Y-147320500D01*
X106659500Y-147320500D01*
X106659500Y-147319500D01*
X106679500Y-147319500D01*
X106679500Y-145548875D01*
X106680500Y-145548875D01*
X106680500Y-147319500D01*
X109219500Y-147319500D01*
X109219500Y-145548875D01*
X109220500Y-145548875D01*
X109220500Y-147319500D01*
X109240500Y-147319500D01*
X109240500Y-147320500D01*
X109220500Y-147320500D01*
X109220500Y-149091125D01*
X109464766Y-149262197D01*
X109524143Y-149251594D01*
X109817098Y-149162830D01*
X110087107Y-149018618D01*
X110323794Y-148824501D01*
X110486305Y-148626610D01*
X110652005Y-148829777D01*
X110886820Y-149024033D01*
X111154894Y-149168980D01*
X111446017Y-149259098D01*
X111749099Y-149290953D01*
X112052596Y-149263333D01*
X112344948Y-149177289D01*
X112615020Y-149036098D01*
X112852524Y-148845140D01*
X113034782Y-148627934D01*
X113196206Y-148824501D01*
X113432893Y-149018618D01*
X113702902Y-149162830D01*
X113995857Y-149251594D01*
X114055234Y-149262197D01*
X114299500Y-149091125D01*
X114299500Y-147320500D01*
X114300500Y-147320500D01*
X114300500Y-149091125D01*
X114544766Y-149262197D01*
X114604143Y-149251594D01*
X114897098Y-149162830D01*
X115167107Y-149018618D01*
X115403794Y-148824501D01*
X115570000Y-148622110D01*
X115736206Y-148824501D01*
X115972893Y-149018618D01*
X116242902Y-149162830D01*
X116535857Y-149251594D01*
X116595234Y-149262197D01*
X116839500Y-149091125D01*
X116839500Y-147320500D01*
X114300500Y-147320500D01*
X114299500Y-147320500D01*
X114279500Y-147320500D01*
X114279500Y-147319500D01*
X114299500Y-147319500D01*
X114299500Y-145548875D01*
X114300500Y-145548875D01*
X114300500Y-147319500D01*
X116839500Y-147319500D01*
X116839500Y-145548875D01*
X116595234Y-145377803D01*
X116535857Y-145388406D01*
X116242902Y-145477170D01*
X115972893Y-145621382D01*
X115736206Y-145815499D01*
X115570000Y-146017890D01*
X115403794Y-145815499D01*
X115167107Y-145621382D01*
X114897098Y-145477170D01*
X114604143Y-145388406D01*
X114544766Y-145377803D01*
X114300500Y-145548875D01*
X114299500Y-145548875D01*
X114055234Y-145377803D01*
X113995857Y-145388406D01*
X113702902Y-145477170D01*
X113432893Y-145621382D01*
X113196206Y-145815499D01*
X113033695Y-146013390D01*
X112867995Y-145810223D01*
X112633180Y-145615967D01*
X112365106Y-145471020D01*
X112073983Y-145380902D01*
X111770901Y-145349047D01*
X111467404Y-145376667D01*
X111175052Y-145462711D01*
X110904980Y-145603902D01*
X110667476Y-145794860D01*
X110485218Y-146012066D01*
X110323794Y-145815499D01*
X110087107Y-145621382D01*
X109817098Y-145477170D01*
X109524143Y-145388406D01*
X109464766Y-145377803D01*
X109220500Y-145548875D01*
X109219500Y-145548875D01*
X108975234Y-145377803D01*
X108915857Y-145388406D01*
X108622902Y-145477170D01*
X108352893Y-145621382D01*
X108116206Y-145815499D01*
X107950000Y-146017890D01*
X107783794Y-145815499D01*
X107547107Y-145621382D01*
X107277098Y-145477170D01*
X106984143Y-145388406D01*
X106924766Y-145377803D01*
X106680500Y-145548875D01*
X106679500Y-145548875D01*
X106435234Y-145377803D01*
X106375857Y-145388406D01*
X106082902Y-145477170D01*
X105812893Y-145621382D01*
X105576206Y-145815499D01*
X105413695Y-146013390D01*
X105247995Y-145810223D01*
X105013180Y-145615967D01*
X104745106Y-145471020D01*
X104453983Y-145380902D01*
X104150901Y-145349047D01*
X103847404Y-145376667D01*
X103555052Y-145462711D01*
X103284980Y-145603902D01*
X103047476Y-145794860D01*
X102851585Y-146028313D01*
X102704770Y-146295369D01*
X102612623Y-146585855D01*
X102578652Y-146888707D01*
X102578500Y-146910509D01*
X102578500Y-147729491D01*
X102608239Y-148032788D01*
X102696321Y-148324532D01*
X102839393Y-148593612D01*
X102959600Y-148741000D01*
X100189227Y-148741000D01*
X100060153Y-148611022D01*
X99986885Y-148561602D01*
X100034520Y-148295228D01*
X99060000Y-147320707D01*
X98085480Y-148295228D01*
X98132913Y-148560473D01*
X98076824Y-148597176D01*
X97858034Y-148811431D01*
X97685027Y-149064102D01*
X97565684Y-149342548D01*
X96640446Y-148417310D01*
X96563402Y-148354025D01*
X96487077Y-148289981D01*
X96482111Y-148287251D01*
X96477721Y-148283645D01*
X96389826Y-148236517D01*
X96302541Y-148188531D01*
X96297133Y-148186815D01*
X96292132Y-148184134D01*
X96196822Y-148154995D01*
X96101815Y-148124857D01*
X96096175Y-148124224D01*
X96090751Y-148122566D01*
X95991631Y-148112498D01*
X95892543Y-148101383D01*
X95881449Y-148101306D01*
X95881245Y-148101285D01*
X95881055Y-148101303D01*
X95877478Y-148101278D01*
X94222426Y-148101278D01*
X94237377Y-148054145D01*
X94271348Y-147751293D01*
X94271500Y-147729491D01*
X94271500Y-147258900D01*
X97492134Y-147258900D01*
X97510340Y-147565949D01*
X97588099Y-147863547D01*
X97722421Y-148140257D01*
X97790314Y-148241863D01*
X98084772Y-148294520D01*
X99059293Y-147320000D01*
X99060707Y-147320000D01*
X100035228Y-148294520D01*
X100329686Y-148241863D01*
X100485136Y-147976446D01*
X100585819Y-147685802D01*
X100627866Y-147381100D01*
X100609660Y-147074051D01*
X100531901Y-146776453D01*
X100397579Y-146499743D01*
X100329686Y-146398137D01*
X100035228Y-146345480D01*
X99060707Y-147320000D01*
X99059293Y-147320000D01*
X98084772Y-146345480D01*
X97790314Y-146398137D01*
X97634864Y-146663554D01*
X97534181Y-146954198D01*
X97492134Y-147258900D01*
X94271500Y-147258900D01*
X94271500Y-146910509D01*
X94241761Y-146607212D01*
X94162527Y-146344772D01*
X98085480Y-146344772D01*
X99060000Y-147319293D01*
X100034520Y-146344772D01*
X99981863Y-146050314D01*
X99716446Y-145894864D01*
X99425802Y-145794181D01*
X99121100Y-145752134D01*
X98814051Y-145770340D01*
X98516453Y-145848099D01*
X98239743Y-145982421D01*
X98138137Y-146050314D01*
X98085480Y-146344772D01*
X94162527Y-146344772D01*
X94153679Y-146315468D01*
X94010607Y-146046388D01*
X93817995Y-145810223D01*
X93583180Y-145615967D01*
X93315106Y-145471020D01*
X93023983Y-145380902D01*
X92720901Y-145349047D01*
X92417404Y-145376667D01*
X92125052Y-145462711D01*
X91854980Y-145603902D01*
X91617476Y-145794860D01*
X91438969Y-146007596D01*
X91277995Y-145810223D01*
X91043180Y-145615967D01*
X90775106Y-145471020D01*
X90483983Y-145380902D01*
X90180901Y-145349047D01*
X89877404Y-145376667D01*
X89780982Y-145405046D01*
X87702368Y-143326432D01*
X87625324Y-143263147D01*
X87548999Y-143199103D01*
X87544033Y-143196373D01*
X87539643Y-143192767D01*
X87451748Y-143145639D01*
X87364463Y-143097653D01*
X87359055Y-143095937D01*
X87354054Y-143093256D01*
X87258744Y-143064117D01*
X87163737Y-143033979D01*
X87158097Y-143033346D01*
X87152673Y-143031688D01*
X87053553Y-143021620D01*
X86954465Y-143010505D01*
X86943371Y-143010428D01*
X86943167Y-143010407D01*
X86942977Y-143010425D01*
X86939400Y-143010400D01*
X83576336Y-143010400D01*
X83019729Y-142453793D01*
X83152596Y-142413679D01*
X83421676Y-142270607D01*
X83657841Y-142077995D01*
X83820829Y-141880977D01*
X83966796Y-142062524D01*
X84200249Y-142258415D01*
X84467305Y-142405230D01*
X84757791Y-142497377D01*
X85060643Y-142531348D01*
X85082445Y-142531500D01*
X85097555Y-142531500D01*
X85400852Y-142501761D01*
X85692596Y-142413679D01*
X85961676Y-142270607D01*
X86197841Y-142077995D01*
X86360829Y-141880977D01*
X86506796Y-142062524D01*
X86740249Y-142258415D01*
X87007305Y-142405230D01*
X87297791Y-142497377D01*
X87600643Y-142531348D01*
X87622445Y-142531500D01*
X87637555Y-142531500D01*
X87940852Y-142501761D01*
X88232596Y-142413679D01*
X88501676Y-142270607D01*
X88737841Y-142077995D01*
X88900829Y-141880977D01*
X89046796Y-142062524D01*
X89280249Y-142258415D01*
X89547305Y-142405230D01*
X89837791Y-142497377D01*
X90140643Y-142531348D01*
X90162445Y-142531500D01*
X90177555Y-142531500D01*
X90480852Y-142501761D01*
X90772596Y-142413679D01*
X91041676Y-142270607D01*
X91277841Y-142077995D01*
X91472097Y-141843180D01*
X91617044Y-141575106D01*
X91707162Y-141283983D01*
X91739017Y-140980901D01*
X91711397Y-140677404D01*
X91625353Y-140385052D01*
X91484162Y-140114980D01*
X91293204Y-139877476D01*
X91059751Y-139681585D01*
X90792695Y-139534770D01*
X90502209Y-139442623D01*
X90199357Y-139408652D01*
X90177555Y-139408500D01*
X90162445Y-139408500D01*
X89859148Y-139438239D01*
X89567404Y-139526321D01*
X89298324Y-139669393D01*
X89062159Y-139862005D01*
X88899171Y-140059023D01*
X88753204Y-139877476D01*
X88519751Y-139681585D01*
X88252695Y-139534770D01*
X87962209Y-139442623D01*
X87659357Y-139408652D01*
X87637555Y-139408500D01*
X87622445Y-139408500D01*
X87319148Y-139438239D01*
X87027404Y-139526321D01*
X86758324Y-139669393D01*
X86522159Y-139862005D01*
X86359171Y-140059023D01*
X86213204Y-139877476D01*
X85979751Y-139681585D01*
X85712695Y-139534770D01*
X85422209Y-139442623D01*
X85119357Y-139408652D01*
X85097555Y-139408500D01*
X85082445Y-139408500D01*
X84779148Y-139438239D01*
X84487404Y-139526321D01*
X84218324Y-139669393D01*
X83982159Y-139862005D01*
X83819171Y-140059023D01*
X83673204Y-139877476D01*
X83439751Y-139681585D01*
X83172695Y-139534770D01*
X82882209Y-139442623D01*
X82579357Y-139408652D01*
X82557555Y-139408500D01*
X82542445Y-139408500D01*
X82516938Y-139411001D01*
X81089000Y-137983064D01*
X81089000Y-136021295D01*
X97496448Y-136021295D01*
X97551728Y-136322490D01*
X97664457Y-136607212D01*
X97830342Y-136864615D01*
X98043064Y-137084895D01*
X98294521Y-137259663D01*
X98575135Y-137382260D01*
X98874218Y-137448017D01*
X99180376Y-137454431D01*
X99481950Y-137401255D01*
X99767452Y-137290516D01*
X100026007Y-137126432D01*
X100247767Y-136915253D01*
X100424285Y-136665022D01*
X100548839Y-136385271D01*
X100616683Y-136086655D01*
X100621567Y-135736887D01*
X100562087Y-135436493D01*
X100445393Y-135153373D01*
X100275931Y-134898311D01*
X100060153Y-134681022D01*
X99986885Y-134631602D01*
X100034520Y-134365228D01*
X99060000Y-133390707D01*
X98085480Y-134365228D01*
X98132913Y-134630473D01*
X98076824Y-134667176D01*
X97858034Y-134881431D01*
X97685027Y-135134102D01*
X97564391Y-135415565D01*
X97500723Y-135715099D01*
X97496448Y-136021295D01*
X81089000Y-136021295D01*
X81089000Y-134484078D01*
X81102524Y-134473204D01*
X81281031Y-134260468D01*
X81442005Y-134457841D01*
X81676820Y-134652097D01*
X81944894Y-134797044D01*
X82236017Y-134887162D01*
X82539099Y-134919017D01*
X82842596Y-134891397D01*
X83134948Y-134805353D01*
X83405020Y-134664162D01*
X83642524Y-134473204D01*
X83821031Y-134260468D01*
X83982005Y-134457841D01*
X84216820Y-134652097D01*
X84484894Y-134797044D01*
X84776017Y-134887162D01*
X85079099Y-134919017D01*
X85382596Y-134891397D01*
X85674948Y-134805353D01*
X85945020Y-134664162D01*
X86182524Y-134473204D01*
X86361031Y-134260468D01*
X86522005Y-134457841D01*
X86756820Y-134652097D01*
X87024894Y-134797044D01*
X87316017Y-134887162D01*
X87619099Y-134919017D01*
X87922596Y-134891397D01*
X88214948Y-134805353D01*
X88485020Y-134664162D01*
X88722524Y-134473204D01*
X88918415Y-134239751D01*
X89065230Y-133972695D01*
X89157377Y-133682209D01*
X89191348Y-133379357D01*
X89191500Y-133357555D01*
X89191500Y-133342445D01*
X89190172Y-133328900D01*
X97492134Y-133328900D01*
X97510340Y-133635949D01*
X97588099Y-133933547D01*
X97722421Y-134210257D01*
X97790314Y-134311863D01*
X98084772Y-134364520D01*
X99059293Y-133390000D01*
X99060707Y-133390000D01*
X100035228Y-134364520D01*
X100329686Y-134311863D01*
X100485136Y-134046446D01*
X100585819Y-133755802D01*
X100627866Y-133451100D01*
X100609660Y-133144051D01*
X100556477Y-132940509D01*
X102578500Y-132940509D01*
X102578500Y-133759491D01*
X102608239Y-134062788D01*
X102696321Y-134354532D01*
X102839393Y-134623612D01*
X103032005Y-134859777D01*
X103266820Y-135054033D01*
X103534894Y-135198980D01*
X103826017Y-135289098D01*
X104129099Y-135320953D01*
X104432596Y-135293333D01*
X104724948Y-135207289D01*
X104995020Y-135066098D01*
X105232524Y-134875140D01*
X105414782Y-134657934D01*
X105576206Y-134854501D01*
X105812893Y-135048618D01*
X106082902Y-135192830D01*
X106375857Y-135281594D01*
X106435234Y-135292197D01*
X106679500Y-135121125D01*
X106679500Y-133350500D01*
X106680500Y-133350500D01*
X106680500Y-135121125D01*
X106924766Y-135292197D01*
X106984143Y-135281594D01*
X107277098Y-135192830D01*
X107547107Y-135048618D01*
X107783794Y-134854501D01*
X107950000Y-134652110D01*
X108116206Y-134854501D01*
X108352893Y-135048618D01*
X108622902Y-135192830D01*
X108915857Y-135281594D01*
X108975234Y-135292197D01*
X109219500Y-135121125D01*
X109219500Y-133350500D01*
X106680500Y-133350500D01*
X106679500Y-133350500D01*
X106659500Y-133350500D01*
X106659500Y-133349500D01*
X106679500Y-133349500D01*
X106679500Y-131578875D01*
X106680500Y-131578875D01*
X106680500Y-133349500D01*
X109219500Y-133349500D01*
X109219500Y-131578875D01*
X109220500Y-131578875D01*
X109220500Y-133349500D01*
X109240500Y-133349500D01*
X109240500Y-133350500D01*
X109220500Y-133350500D01*
X109220500Y-135121125D01*
X109464766Y-135292197D01*
X109524143Y-135281594D01*
X109817098Y-135192830D01*
X110087107Y-135048618D01*
X110323794Y-134854501D01*
X110486305Y-134656610D01*
X110652005Y-134859777D01*
X110886820Y-135054033D01*
X111154894Y-135198980D01*
X111446017Y-135289098D01*
X111749099Y-135320953D01*
X112052596Y-135293333D01*
X112344948Y-135207289D01*
X112615020Y-135066098D01*
X112852524Y-134875140D01*
X113034782Y-134657934D01*
X113196206Y-134854501D01*
X113432893Y-135048618D01*
X113702902Y-135192830D01*
X113995857Y-135281594D01*
X114055234Y-135292197D01*
X114299500Y-135121125D01*
X114299500Y-133350500D01*
X114300500Y-133350500D01*
X114300500Y-135121125D01*
X114544766Y-135292197D01*
X114604143Y-135281594D01*
X114897098Y-135192830D01*
X115167107Y-135048618D01*
X115403794Y-134854501D01*
X115570000Y-134652110D01*
X115736206Y-134854501D01*
X115972893Y-135048618D01*
X116242902Y-135192830D01*
X116535857Y-135281594D01*
X116595234Y-135292197D01*
X116839500Y-135121125D01*
X116839500Y-133350500D01*
X114300500Y-133350500D01*
X114299500Y-133350500D01*
X114279500Y-133350500D01*
X114279500Y-133349500D01*
X114299500Y-133349500D01*
X114299500Y-131578875D01*
X114300500Y-131578875D01*
X114300500Y-133349500D01*
X116839500Y-133349500D01*
X116839500Y-131578875D01*
X116840500Y-131578875D01*
X116840500Y-133349500D01*
X116860500Y-133349500D01*
X116860500Y-133350500D01*
X116840500Y-133350500D01*
X116840500Y-135121125D01*
X117084766Y-135292197D01*
X117144143Y-135281594D01*
X117437098Y-135192830D01*
X117707107Y-135048618D01*
X117943794Y-134854501D01*
X118106305Y-134656610D01*
X118272005Y-134859777D01*
X118506820Y-135054033D01*
X118774894Y-135198980D01*
X119066017Y-135289098D01*
X119369099Y-135320953D01*
X119672596Y-135293333D01*
X119964948Y-135207289D01*
X120235020Y-135066098D01*
X120472524Y-134875140D01*
X120668415Y-134641687D01*
X120815230Y-134374631D01*
X120907377Y-134084145D01*
X120941348Y-133781293D01*
X120941500Y-133759491D01*
X120941500Y-132940509D01*
X120911761Y-132637212D01*
X120823679Y-132345468D01*
X120680607Y-132076388D01*
X120487995Y-131840223D01*
X120253180Y-131645967D01*
X119985106Y-131501020D01*
X119693983Y-131410902D01*
X119390901Y-131379047D01*
X119087404Y-131406667D01*
X118795052Y-131492711D01*
X118524980Y-131633902D01*
X118287476Y-131824860D01*
X118105218Y-132042066D01*
X117943794Y-131845499D01*
X117707107Y-131651382D01*
X117437098Y-131507170D01*
X117144143Y-131418406D01*
X117084766Y-131407803D01*
X116840500Y-131578875D01*
X116839500Y-131578875D01*
X116595234Y-131407803D01*
X116535857Y-131418406D01*
X116242902Y-131507170D01*
X115972893Y-131651382D01*
X115736206Y-131845499D01*
X115570000Y-132047890D01*
X115403794Y-131845499D01*
X115167107Y-131651382D01*
X114897098Y-131507170D01*
X114604143Y-131418406D01*
X114544766Y-131407803D01*
X114300500Y-131578875D01*
X114299500Y-131578875D01*
X114055234Y-131407803D01*
X113995857Y-131418406D01*
X113702902Y-131507170D01*
X113432893Y-131651382D01*
X113196206Y-131845499D01*
X113033695Y-132043390D01*
X112867995Y-131840223D01*
X112633180Y-131645967D01*
X112365106Y-131501020D01*
X112073983Y-131410902D01*
X111770901Y-131379047D01*
X111467404Y-131406667D01*
X111175052Y-131492711D01*
X110904980Y-131633902D01*
X110667476Y-131824860D01*
X110485218Y-132042066D01*
X110323794Y-131845499D01*
X110087107Y-131651382D01*
X109817098Y-131507170D01*
X109524143Y-131418406D01*
X109464766Y-131407803D01*
X109220500Y-131578875D01*
X109219500Y-131578875D01*
X108975234Y-131407803D01*
X108915857Y-131418406D01*
X108622902Y-131507170D01*
X108352893Y-131651382D01*
X108116206Y-131845499D01*
X107950000Y-132047890D01*
X107783794Y-131845499D01*
X107547107Y-131651382D01*
X107277098Y-131507170D01*
X106984143Y-131418406D01*
X106924766Y-131407803D01*
X106680500Y-131578875D01*
X106679500Y-131578875D01*
X106435234Y-131407803D01*
X106375857Y-131418406D01*
X106082902Y-131507170D01*
X105812893Y-131651382D01*
X105576206Y-131845499D01*
X105413695Y-132043390D01*
X105247995Y-131840223D01*
X105013180Y-131645967D01*
X104745106Y-131501020D01*
X104453983Y-131410902D01*
X104150901Y-131379047D01*
X103847404Y-131406667D01*
X103555052Y-131492711D01*
X103284980Y-131633902D01*
X103047476Y-131824860D01*
X102851585Y-132058313D01*
X102704770Y-132325369D01*
X102612623Y-132615855D01*
X102578652Y-132918707D01*
X102578500Y-132940509D01*
X100556477Y-132940509D01*
X100531901Y-132846453D01*
X100397579Y-132569743D01*
X100329686Y-132468137D01*
X100035228Y-132415480D01*
X99060707Y-133390000D01*
X99059293Y-133390000D01*
X98084772Y-132415480D01*
X97790314Y-132468137D01*
X97634864Y-132733554D01*
X97534181Y-133024198D01*
X97492134Y-133328900D01*
X89190172Y-133328900D01*
X89161761Y-133039148D01*
X89073679Y-132747404D01*
X88930607Y-132478324D01*
X88878776Y-132414772D01*
X98085480Y-132414772D01*
X99060000Y-133389293D01*
X100034520Y-132414772D01*
X99981863Y-132120314D01*
X99716446Y-131964864D01*
X99425802Y-131864181D01*
X99121100Y-131822134D01*
X98814051Y-131840340D01*
X98516453Y-131918099D01*
X98239743Y-132052421D01*
X98138137Y-132120314D01*
X98085480Y-132414772D01*
X88878776Y-132414772D01*
X88737995Y-132242159D01*
X88503180Y-132047903D01*
X88235106Y-131902956D01*
X87943983Y-131812838D01*
X87640901Y-131780983D01*
X87337404Y-131808603D01*
X87045052Y-131894647D01*
X86774980Y-132035838D01*
X86537476Y-132226796D01*
X86358969Y-132439532D01*
X86197995Y-132242159D01*
X85963180Y-132047903D01*
X85695106Y-131902956D01*
X85403983Y-131812838D01*
X85100901Y-131780983D01*
X84797404Y-131808603D01*
X84505052Y-131894647D01*
X84234980Y-132035838D01*
X83997476Y-132226796D01*
X83818969Y-132439532D01*
X83657995Y-132242159D01*
X83423180Y-132047903D01*
X83155106Y-131902956D01*
X82863983Y-131812838D01*
X82560901Y-131780983D01*
X82257404Y-131808603D01*
X81965052Y-131894647D01*
X81694980Y-132035838D01*
X81457476Y-132226796D01*
X81278969Y-132439532D01*
X81117995Y-132242159D01*
X80883180Y-132047903D01*
X80615106Y-131902956D01*
X80323983Y-131812838D01*
X80020901Y-131780983D01*
X79717404Y-131808603D01*
X79425052Y-131894647D01*
X79154980Y-132035838D01*
X78917476Y-132226796D01*
X78738969Y-132439532D01*
X78577995Y-132242159D01*
X78343180Y-132047903D01*
X78075106Y-131902956D01*
X77783983Y-131812838D01*
X77480901Y-131780983D01*
X77177404Y-131808603D01*
X76885052Y-131894647D01*
X76614980Y-132035838D01*
X76377476Y-132226796D01*
X76198969Y-132439532D01*
X76037995Y-132242159D01*
X75803180Y-132047903D01*
X75535106Y-131902956D01*
X75243983Y-131812838D01*
X74940901Y-131780983D01*
X74739000Y-131799357D01*
X74739000Y-131012597D01*
X133148110Y-131012597D01*
X133284697Y-131378738D01*
X133669074Y-131603912D01*
X134089995Y-131749771D01*
X134531284Y-131810709D01*
X134975982Y-131784387D01*
X135406999Y-131671813D01*
X135807773Y-131477315D01*
X135955303Y-131378738D01*
X136091890Y-131012597D01*
X134620000Y-129540707D01*
X133148110Y-131012597D01*
X74739000Y-131012597D01*
X74739000Y-129451284D01*
X132349291Y-129451284D01*
X132375613Y-129895982D01*
X132488187Y-130326999D01*
X132682685Y-130727773D01*
X132781262Y-130875303D01*
X133147403Y-131011890D01*
X134619293Y-129540000D01*
X134620707Y-129540000D01*
X136092597Y-131011890D01*
X136458738Y-130875303D01*
X136683912Y-130490926D01*
X136829771Y-130070005D01*
X136890709Y-129628716D01*
X136864387Y-129184018D01*
X136751813Y-128753001D01*
X136557315Y-128352227D01*
X136458738Y-128204697D01*
X136092597Y-128068110D01*
X134620707Y-129540000D01*
X134619293Y-129540000D01*
X133147403Y-128068110D01*
X132781262Y-128204697D01*
X132556088Y-128589074D01*
X132410229Y-129009995D01*
X132349291Y-129451284D01*
X74739000Y-129451284D01*
X74739000Y-127446936D01*
X74889980Y-127295956D01*
X74919099Y-127299017D01*
X75222596Y-127271397D01*
X75514948Y-127185353D01*
X75785020Y-127044162D01*
X76022524Y-126853204D01*
X76201031Y-126640468D01*
X76362005Y-126837841D01*
X76596820Y-127032097D01*
X76864894Y-127177044D01*
X77156017Y-127267162D01*
X77459099Y-127299017D01*
X77762596Y-127271397D01*
X78054948Y-127185353D01*
X78325020Y-127044162D01*
X78562524Y-126853204D01*
X78741031Y-126640468D01*
X78902005Y-126837841D01*
X79136820Y-127032097D01*
X79404894Y-127177044D01*
X79696017Y-127267162D01*
X79999099Y-127299017D01*
X80302596Y-127271397D01*
X80594948Y-127185353D01*
X80865020Y-127044162D01*
X81102524Y-126853204D01*
X81281031Y-126640468D01*
X81442005Y-126837841D01*
X81676820Y-127032097D01*
X81944894Y-127177044D01*
X82236017Y-127267162D01*
X82539099Y-127299017D01*
X82842596Y-127271397D01*
X83134948Y-127185353D01*
X83405020Y-127044162D01*
X83642524Y-126853204D01*
X83821031Y-126640468D01*
X83982005Y-126837841D01*
X84216820Y-127032097D01*
X84484894Y-127177044D01*
X84776017Y-127267162D01*
X85079099Y-127299017D01*
X85382596Y-127271397D01*
X85674948Y-127185353D01*
X85945020Y-127044162D01*
X86151927Y-126877805D01*
X86256656Y-127036738D01*
X86420529Y-127176406D01*
X86616825Y-127264890D01*
X86830000Y-127295184D01*
X88430000Y-127295184D01*
X88551266Y-127285514D01*
X88756946Y-127221818D01*
X88936738Y-127103344D01*
X88947007Y-127091295D01*
X97496448Y-127091295D01*
X97551728Y-127392490D01*
X97664457Y-127677212D01*
X97830342Y-127934615D01*
X98043064Y-128154895D01*
X98294521Y-128329663D01*
X98575135Y-128452260D01*
X98874218Y-128518017D01*
X99180376Y-128524431D01*
X99481950Y-128471255D01*
X99767452Y-128360516D01*
X100026007Y-128196432D01*
X100247767Y-127985253D01*
X100424285Y-127735022D01*
X100548839Y-127455271D01*
X100616683Y-127156655D01*
X100621567Y-126806887D01*
X100562087Y-126506493D01*
X100445393Y-126223373D01*
X100275931Y-125968311D01*
X100108791Y-125800000D01*
X102574816Y-125800000D01*
X102574816Y-128200000D01*
X102584486Y-128321266D01*
X102648182Y-128526946D01*
X102766656Y-128706738D01*
X102930529Y-128846406D01*
X103126825Y-128934890D01*
X103340000Y-128965184D01*
X104940000Y-128965184D01*
X105061266Y-128955514D01*
X105266946Y-128891818D01*
X105446738Y-128773344D01*
X105586406Y-128609471D01*
X105615227Y-128545533D01*
X105806820Y-128704033D01*
X106074894Y-128848980D01*
X106366017Y-128939098D01*
X106669099Y-128970953D01*
X106972596Y-128943333D01*
X107264948Y-128857289D01*
X107535020Y-128716098D01*
X107772524Y-128525140D01*
X107951031Y-128312404D01*
X108112005Y-128509777D01*
X108346820Y-128704033D01*
X108614894Y-128848980D01*
X108906017Y-128939098D01*
X109209099Y-128970953D01*
X109512596Y-128943333D01*
X109804948Y-128857289D01*
X110075020Y-128716098D01*
X110312524Y-128525140D01*
X110494782Y-128307934D01*
X110656206Y-128504501D01*
X110892893Y-128698618D01*
X111162902Y-128842830D01*
X111455857Y-128931594D01*
X111515234Y-128942197D01*
X111759500Y-128771125D01*
X111759500Y-127000500D01*
X111760500Y-127000500D01*
X111760500Y-128771125D01*
X112004766Y-128942197D01*
X112064143Y-128931594D01*
X112357098Y-128842830D01*
X112627107Y-128698618D01*
X112863794Y-128504501D01*
X113058062Y-128267939D01*
X113165333Y-128067403D01*
X133148110Y-128067403D01*
X134620000Y-129539293D01*
X136091890Y-128067403D01*
X135955303Y-127701262D01*
X135570926Y-127476088D01*
X135150005Y-127330229D01*
X134708716Y-127269291D01*
X134264018Y-127295613D01*
X133833001Y-127408187D01*
X133432227Y-127602685D01*
X133284697Y-127701262D01*
X133148110Y-128067403D01*
X113165333Y-128067403D01*
X113202447Y-127998022D01*
X113291399Y-127705124D01*
X113321500Y-127400500D01*
X113321500Y-127000500D01*
X111760500Y-127000500D01*
X111759500Y-127000500D01*
X111739500Y-127000500D01*
X111739500Y-126999500D01*
X111759500Y-126999500D01*
X111759500Y-125228875D01*
X111760500Y-125228875D01*
X111760500Y-126999500D01*
X113321500Y-126999500D01*
X113321500Y-126599500D01*
X113291399Y-126294876D01*
X113202447Y-126001978D01*
X113113699Y-125836070D01*
X114306842Y-125836070D01*
X114351501Y-126079399D01*
X114442572Y-126309419D01*
X114576587Y-126517369D01*
X114748441Y-126695329D01*
X114951587Y-126836520D01*
X115178289Y-126935563D01*
X115419911Y-126988687D01*
X115667249Y-126993868D01*
X115910884Y-126950909D01*
X116141534Y-126861445D01*
X116350415Y-126728886D01*
X116522549Y-126564965D01*
X116648441Y-126695329D01*
X116851587Y-126836520D01*
X117078289Y-126935563D01*
X117319911Y-126988687D01*
X117567249Y-126993868D01*
X117810884Y-126950909D01*
X118041534Y-126861445D01*
X118250415Y-126728886D01*
X118429570Y-126558279D01*
X118572175Y-126356123D01*
X118672799Y-126130118D01*
X118727609Y-125888873D01*
X118731554Y-125606304D01*
X118683502Y-125363622D01*
X118589228Y-125134896D01*
X118452323Y-124928837D01*
X118278001Y-124753294D01*
X118072903Y-124614954D01*
X117844841Y-124519085D01*
X117602501Y-124469340D01*
X117355114Y-124467613D01*
X117112103Y-124513970D01*
X116882724Y-124606645D01*
X116675715Y-124742108D01*
X116519148Y-124895430D01*
X116378001Y-124753294D01*
X116172903Y-124614954D01*
X115944841Y-124519085D01*
X115702501Y-124469340D01*
X115455114Y-124467613D01*
X115212103Y-124513970D01*
X114982724Y-124606645D01*
X114775715Y-124742108D01*
X114598959Y-124915200D01*
X114459190Y-125119327D01*
X114361732Y-125346715D01*
X114310296Y-125588702D01*
X114306842Y-125836070D01*
X113113699Y-125836070D01*
X113058062Y-125732061D01*
X112863794Y-125495499D01*
X112627107Y-125301382D01*
X112357098Y-125157170D01*
X112064143Y-125068406D01*
X112004766Y-125057803D01*
X111760500Y-125228875D01*
X111759500Y-125228875D01*
X111515234Y-125057803D01*
X111455857Y-125068406D01*
X111162902Y-125157170D01*
X110892893Y-125301382D01*
X110656206Y-125495499D01*
X110493695Y-125693390D01*
X110327995Y-125490223D01*
X110093180Y-125295967D01*
X109825106Y-125151020D01*
X109533983Y-125060902D01*
X109230901Y-125029047D01*
X108927404Y-125056667D01*
X108635052Y-125142711D01*
X108364980Y-125283902D01*
X108127476Y-125474860D01*
X107948969Y-125687596D01*
X107787995Y-125490223D01*
X107553180Y-125295967D01*
X107285106Y-125151020D01*
X106993983Y-125060902D01*
X106690901Y-125029047D01*
X106387404Y-125056667D01*
X106095052Y-125142711D01*
X105824980Y-125283902D01*
X105617239Y-125450930D01*
X105513344Y-125293262D01*
X105349471Y-125153594D01*
X105153175Y-125065110D01*
X104940000Y-125034816D01*
X103340000Y-125034816D01*
X103218734Y-125044486D01*
X103013054Y-125108182D01*
X102833262Y-125226656D01*
X102693594Y-125390529D01*
X102605110Y-125586825D01*
X102574816Y-125800000D01*
X100108791Y-125800000D01*
X100060153Y-125751022D01*
X99986885Y-125701602D01*
X100034520Y-125435228D01*
X99060000Y-124460707D01*
X98085480Y-125435228D01*
X98132913Y-125700473D01*
X98076824Y-125737176D01*
X97858034Y-125951431D01*
X97685027Y-126204102D01*
X97564391Y-126485565D01*
X97500723Y-126785099D01*
X97496448Y-127091295D01*
X88947007Y-127091295D01*
X89076406Y-126939471D01*
X89164890Y-126743175D01*
X89195184Y-126530000D01*
X89195184Y-124930000D01*
X89185514Y-124808734D01*
X89121818Y-124603054D01*
X89003344Y-124423262D01*
X88974760Y-124398900D01*
X97492134Y-124398900D01*
X97510340Y-124705949D01*
X97588099Y-125003547D01*
X97722421Y-125280257D01*
X97790314Y-125381863D01*
X98084772Y-125434520D01*
X99059293Y-124460000D01*
X99060707Y-124460000D01*
X100035228Y-125434520D01*
X100329686Y-125381863D01*
X100485136Y-125116446D01*
X100585819Y-124825802D01*
X100627866Y-124521100D01*
X100609660Y-124214051D01*
X100531901Y-123916453D01*
X100397579Y-123639743D01*
X100329686Y-123538137D01*
X100035228Y-123485480D01*
X99060707Y-124460000D01*
X99059293Y-124460000D01*
X98084772Y-123485480D01*
X97790314Y-123538137D01*
X97634864Y-123803554D01*
X97534181Y-124094198D01*
X97492134Y-124398900D01*
X88974760Y-124398900D01*
X88839471Y-124283594D01*
X88643175Y-124195110D01*
X88430000Y-124164816D01*
X86830000Y-124164816D01*
X86708734Y-124174486D01*
X86503054Y-124238182D01*
X86323262Y-124356656D01*
X86183594Y-124520529D01*
X86154137Y-124585877D01*
X85963180Y-124427903D01*
X85695106Y-124282956D01*
X85403983Y-124192838D01*
X85100901Y-124160983D01*
X84797404Y-124188603D01*
X84505052Y-124274647D01*
X84234980Y-124415838D01*
X83997476Y-124606796D01*
X83818969Y-124819532D01*
X83657995Y-124622159D01*
X83423180Y-124427903D01*
X83155106Y-124282956D01*
X82863983Y-124192838D01*
X82560901Y-124160983D01*
X82257404Y-124188603D01*
X81965052Y-124274647D01*
X81694980Y-124415838D01*
X81457476Y-124606796D01*
X81278969Y-124819532D01*
X81117995Y-124622159D01*
X80883180Y-124427903D01*
X80615106Y-124282956D01*
X80323983Y-124192838D01*
X80020901Y-124160983D01*
X79717404Y-124188603D01*
X79425052Y-124274647D01*
X79154980Y-124415838D01*
X78917476Y-124606796D01*
X78738969Y-124819532D01*
X78577995Y-124622159D01*
X78343180Y-124427903D01*
X78075106Y-124282956D01*
X77783983Y-124192838D01*
X77480901Y-124160983D01*
X77177404Y-124188603D01*
X76885052Y-124274647D01*
X76614980Y-124415838D01*
X76377476Y-124606796D01*
X76198969Y-124819532D01*
X76037995Y-124622159D01*
X75803180Y-124427903D01*
X75535106Y-124282956D01*
X75243983Y-124192838D01*
X74940901Y-124160983D01*
X74637404Y-124188603D01*
X74345052Y-124274647D01*
X74074980Y-124415838D01*
X73837476Y-124606796D01*
X73641585Y-124840249D01*
X73494770Y-125107305D01*
X73402623Y-125397791D01*
X73368652Y-125700643D01*
X73368500Y-125722445D01*
X73368500Y-125737555D01*
X73371001Y-125763063D01*
X72897032Y-126237032D01*
X72833747Y-126314076D01*
X72769703Y-126390401D01*
X72766973Y-126395367D01*
X72763367Y-126399757D01*
X72716239Y-126487652D01*
X72668253Y-126574937D01*
X72666537Y-126580345D01*
X72663856Y-126585346D01*
X72634717Y-126680656D01*
X72604579Y-126775663D01*
X72603946Y-126781303D01*
X72602288Y-126786727D01*
X72592220Y-126885847D01*
X72581105Y-126984935D01*
X72581028Y-126996029D01*
X72581007Y-126996233D01*
X72581025Y-126996423D01*
X72581000Y-127000000D01*
X72581000Y-139408500D01*
X72580875Y-139408500D01*
X72390500Y-139598875D01*
X72390500Y-140969500D01*
X72410500Y-140969500D01*
X72410500Y-140970500D01*
X72390500Y-140970500D01*
X72390500Y-142341125D01*
X72580875Y-142531500D01*
X72581000Y-142531500D01*
X72581000Y-142663064D01*
X69891772Y-145352292D01*
X69860901Y-145349047D01*
X69557404Y-145376667D01*
X69265052Y-145462711D01*
X68994980Y-145603902D01*
X68757476Y-145794860D01*
X68561585Y-146028313D01*
X68414770Y-146295369D01*
X68322623Y-146585855D01*
X68288652Y-146888707D01*
X68288500Y-146910509D01*
X68288500Y-147729491D01*
X68318239Y-148032788D01*
X68406321Y-148324532D01*
X68549393Y-148593612D01*
X68742005Y-148829777D01*
X68976820Y-149024033D01*
X69244894Y-149168980D01*
X69536017Y-149259098D01*
X69839099Y-149290953D01*
X70142596Y-149263333D01*
X70434948Y-149177289D01*
X70705020Y-149036098D01*
X70942524Y-148845140D01*
X71121031Y-148632404D01*
X71282005Y-148829777D01*
X71516820Y-149024033D01*
X71784894Y-149168980D01*
X72076017Y-149259098D01*
X72379099Y-149290953D01*
X72682596Y-149263333D01*
X72779018Y-149234954D01*
X73663662Y-150119598D01*
X73191402Y-150119598D01*
X73092184Y-150129326D01*
X72992919Y-150138011D01*
X72987474Y-150139593D01*
X72981823Y-150140147D01*
X72886370Y-150168966D01*
X72790696Y-150196762D01*
X72785659Y-150199373D01*
X72780227Y-150201013D01*
X72692241Y-150247796D01*
X72603737Y-150293672D01*
X72599301Y-150297213D01*
X72594293Y-150299876D01*
X72517081Y-150362849D01*
X72439161Y-150425051D01*
X72431265Y-150432838D01*
X72431102Y-150432971D01*
X72430977Y-150433122D01*
X72428434Y-150435630D01*
X69889248Y-152974816D01*
X69050000Y-152974816D01*
X68928734Y-152984486D01*
X68723054Y-153048182D01*
X68543262Y-153166656D01*
X68403594Y-153330529D01*
X68315110Y-153526825D01*
X68284816Y-153740000D01*
X68284816Y-156140000D01*
X68294486Y-156261266D01*
X68358182Y-156466946D01*
X68476656Y-156646738D01*
X68640529Y-156786406D01*
X68836825Y-156874890D01*
X69050000Y-156905184D01*
X70650000Y-156905184D01*
X70771266Y-156895514D01*
X70976946Y-156831818D01*
X71156738Y-156713344D01*
X71296406Y-156549471D01*
X71325227Y-156485533D01*
X71516820Y-156644033D01*
X71784894Y-156788980D01*
X72076017Y-156879098D01*
X72379099Y-156910953D01*
X72682596Y-156883333D01*
X72974948Y-156797289D01*
X73245020Y-156656098D01*
X73482524Y-156465140D01*
X73661031Y-156252404D01*
X73822005Y-156449777D01*
X74056820Y-156644033D01*
X74324894Y-156788980D01*
X74616017Y-156879098D01*
X74919099Y-156910953D01*
X75222596Y-156883333D01*
X75514948Y-156797289D01*
X75785020Y-156656098D01*
X76022524Y-156465140D01*
X76201031Y-156252404D01*
X76362005Y-156449777D01*
X76596820Y-156644033D01*
X76864894Y-156788980D01*
X77156017Y-156879098D01*
X77459099Y-156910953D01*
X77762596Y-156883333D01*
X78054948Y-156797289D01*
X78325020Y-156656098D01*
X78562524Y-156465140D01*
X78741031Y-156252404D01*
X78902005Y-156449777D01*
X79136820Y-156644033D01*
X79404894Y-156788980D01*
X79696017Y-156879098D01*
X79999099Y-156910953D01*
X80302596Y-156883333D01*
X80594948Y-156797289D01*
X80865020Y-156656098D01*
X81102524Y-156465140D01*
X81281031Y-156252404D01*
X81442005Y-156449777D01*
X81676820Y-156644033D01*
X81944894Y-156788980D01*
X82236017Y-156879098D01*
X82539099Y-156910953D01*
X82842596Y-156883333D01*
X83134948Y-156797289D01*
X83405020Y-156656098D01*
X83642524Y-156465140D01*
X83821031Y-156252404D01*
X83982005Y-156449777D01*
X84216820Y-156644033D01*
X84484894Y-156788980D01*
X84776017Y-156879098D01*
X85079099Y-156910953D01*
X85382596Y-156883333D01*
X85674948Y-156797289D01*
X85945020Y-156656098D01*
X86182524Y-156465140D01*
X86361031Y-156252404D01*
X86522005Y-156449777D01*
X86756820Y-156644033D01*
X87024894Y-156788980D01*
X87316017Y-156879098D01*
X87619099Y-156910953D01*
X87922596Y-156883333D01*
X88214948Y-156797289D01*
X88485020Y-156656098D01*
X88722524Y-156465140D01*
X88901031Y-156252404D01*
X89062005Y-156449777D01*
X89296820Y-156644033D01*
X89564894Y-156788980D01*
X89856017Y-156879098D01*
X90159099Y-156910953D01*
X90462596Y-156883333D01*
X90754948Y-156797289D01*
X91025020Y-156656098D01*
X91262524Y-156465140D01*
X91444782Y-156247934D01*
X91606206Y-156444501D01*
X91842893Y-156638618D01*
X92112902Y-156782830D01*
X92405857Y-156871594D01*
X92465234Y-156882197D01*
X92709500Y-156711125D01*
X92709500Y-154940500D01*
X92689500Y-154940500D01*
X92689500Y-154939500D01*
X92709500Y-154939500D01*
X92709500Y-153168875D01*
X92465234Y-152997803D01*
X92405857Y-153008406D01*
X92112902Y-153097170D01*
X91842893Y-153241382D01*
X91606206Y-153435499D01*
X91443695Y-153633390D01*
X91277995Y-153430223D01*
X91064615Y-153253700D01*
X91341200Y-153253700D01*
X91550779Y-153233151D01*
X91752375Y-153172285D01*
X91938309Y-153073422D01*
X92101500Y-152940327D01*
X92235732Y-152778069D01*
X92335890Y-152592829D01*
X92398162Y-152391663D01*
X92410151Y-152277598D01*
X94336362Y-152277598D01*
X99963232Y-157904468D01*
X100040276Y-157967753D01*
X100116601Y-158031797D01*
X100121567Y-158034527D01*
X100125957Y-158038133D01*
X100213852Y-158085261D01*
X100301137Y-158133247D01*
X100306545Y-158134963D01*
X100311546Y-158137644D01*
X100406885Y-158166792D01*
X100501863Y-158196921D01*
X100507499Y-158197553D01*
X100512928Y-158199213D01*
X100612132Y-158209290D01*
X100711135Y-158220395D01*
X100722220Y-158220472D01*
X100722434Y-158220494D01*
X100722633Y-158220475D01*
X100726200Y-158220500D01*
X103408400Y-158220500D01*
X103617979Y-158199951D01*
X103819575Y-158139085D01*
X104005509Y-158040222D01*
X104168700Y-157907127D01*
X104302932Y-157744869D01*
X104403090Y-157559629D01*
X104465362Y-157358463D01*
X104487374Y-157149033D01*
X104468288Y-156939316D01*
X104458242Y-156905184D01*
X104579248Y-156905184D01*
X109237881Y-161563818D01*
X109027543Y-161732933D01*
X108991149Y-161776306D01*
X108969909Y-161750264D01*
X108705018Y-161531127D01*
X108402609Y-161367615D01*
X108074199Y-161265955D01*
X107732297Y-161230020D01*
X107389928Y-161261178D01*
X107060130Y-161358243D01*
X106755467Y-161517517D01*
X106487543Y-161732933D01*
X106451149Y-161776306D01*
X106429909Y-161750264D01*
X106165018Y-161531127D01*
X105862609Y-161367615D01*
X105534199Y-161265955D01*
X105192297Y-161230020D01*
X104849928Y-161261178D01*
X104520130Y-161358243D01*
X104215467Y-161517517D01*
X103947543Y-161732933D01*
X103907272Y-161780926D01*
X103674979Y-161574623D01*
X103377015Y-161400097D01*
X103050728Y-161287054D01*
X102916053Y-161260265D01*
X102640500Y-161428875D01*
X102640500Y-162999500D01*
X102660500Y-162999500D01*
X102660500Y-163000500D01*
X102640500Y-163000500D01*
X102640500Y-163020500D01*
X102639500Y-163020500D01*
X102639500Y-163000500D01*
X102619500Y-163000500D01*
X102619500Y-162999500D01*
X102639500Y-162999500D01*
X102639500Y-161428875D01*
X102363947Y-161260265D01*
X102229272Y-161287054D01*
X101902985Y-161400097D01*
X101605021Y-161574623D01*
X101373997Y-161779799D01*
X101349909Y-161750264D01*
X101085018Y-161531127D01*
X100782609Y-161367615D01*
X100454199Y-161265955D01*
X100112297Y-161230020D01*
X99769928Y-161261178D01*
X99440130Y-161358243D01*
X99135467Y-161517517D01*
X98867543Y-161732933D01*
X98831149Y-161776306D01*
X98809909Y-161750264D01*
X98545018Y-161531127D01*
X98242609Y-161367615D01*
X97914199Y-161265955D01*
X97572297Y-161230020D01*
X97229928Y-161261178D01*
X96900130Y-161358243D01*
X96595467Y-161517517D01*
X96327543Y-161732933D01*
X96291149Y-161776306D01*
X96269909Y-161750264D01*
X96005018Y-161531127D01*
X95702609Y-161367615D01*
X95374199Y-161265955D01*
X95035300Y-161230336D01*
X95035300Y-154177700D01*
X95014751Y-153968121D01*
X94953885Y-153766525D01*
X94855022Y-153580591D01*
X94721927Y-153417400D01*
X94559669Y-153283168D01*
X94374429Y-153183010D01*
X94173263Y-153120738D01*
X93963833Y-153098726D01*
X93754116Y-153117812D01*
X93552099Y-153177269D01*
X93504075Y-153202375D01*
X93307098Y-153097170D01*
X93014143Y-153008406D01*
X92954766Y-152997803D01*
X92710500Y-153168875D01*
X92710500Y-154939500D01*
X92730500Y-154939500D01*
X92730500Y-154940500D01*
X92710500Y-154940500D01*
X92710500Y-156711125D01*
X92877300Y-156827944D01*
X92877300Y-161076763D01*
X92702003Y-161252061D01*
X92492297Y-161230020D01*
X92149928Y-161261178D01*
X91820130Y-161358243D01*
X91515467Y-161517517D01*
X91247543Y-161732933D01*
X91211149Y-161776306D01*
X91189909Y-161750264D01*
X90925018Y-161531127D01*
X90622609Y-161367615D01*
X90294199Y-161265955D01*
X89952297Y-161230020D01*
X89609928Y-161261178D01*
X89280130Y-161358243D01*
X88975467Y-161517517D01*
X88707543Y-161732933D01*
X88671149Y-161776306D01*
X88649909Y-161750264D01*
X88385018Y-161531127D01*
X88082609Y-161367615D01*
X87754199Y-161265955D01*
X87412297Y-161230020D01*
X87069928Y-161261178D01*
X86740130Y-161358243D01*
X86435467Y-161517517D01*
X86167543Y-161732933D01*
X86131149Y-161776306D01*
X86109909Y-161750264D01*
X85845018Y-161531127D01*
X85542609Y-161367615D01*
X85214199Y-161265955D01*
X84872297Y-161230020D01*
X84529928Y-161261178D01*
X84200130Y-161358243D01*
X83895467Y-161517517D01*
X83627543Y-161732933D01*
X83591149Y-161776306D01*
X83569909Y-161750264D01*
X83305018Y-161531127D01*
X83002609Y-161367615D01*
X82674199Y-161265955D01*
X82332297Y-161230020D01*
X81989928Y-161261178D01*
X81660130Y-161358243D01*
X81355467Y-161517517D01*
X81087543Y-161732933D01*
X81051149Y-161776306D01*
X81029909Y-161750264D01*
X80765018Y-161531127D01*
X80462609Y-161367615D01*
X80134199Y-161265955D01*
X79792297Y-161230020D01*
X79449928Y-161261178D01*
X79120130Y-161358243D01*
X78815467Y-161517517D01*
X78547543Y-161732933D01*
X78511149Y-161776306D01*
X78489909Y-161750264D01*
X78225018Y-161531127D01*
X77922609Y-161367615D01*
X77594199Y-161265955D01*
X77252297Y-161230020D01*
X76909928Y-161261178D01*
X76580130Y-161358243D01*
X76275467Y-161517517D01*
X76007543Y-161732933D01*
X75971149Y-161776306D01*
X75949909Y-161750264D01*
X75685018Y-161531127D01*
X75382609Y-161367615D01*
X75054199Y-161265955D01*
X74712297Y-161230020D01*
X74369928Y-161261178D01*
X74040130Y-161358243D01*
X73735467Y-161517517D01*
X73467543Y-161732933D01*
X73431149Y-161776306D01*
X73409909Y-161750264D01*
X73145018Y-161531127D01*
X72842609Y-161367615D01*
X72514199Y-161265955D01*
X72172297Y-161230020D01*
X71829928Y-161261178D01*
X71500130Y-161358243D01*
X71195467Y-161517517D01*
X70927543Y-161732933D01*
X70891149Y-161776306D01*
X70869909Y-161750264D01*
X70605018Y-161531127D01*
X70302609Y-161367615D01*
X69974199Y-161265955D01*
X69632297Y-161230020D01*
X69289928Y-161261178D01*
X68960130Y-161358243D01*
X68655467Y-161517517D01*
X68387543Y-161732933D01*
X68351149Y-161776306D01*
X68329909Y-161750264D01*
X68065018Y-161531127D01*
X67762609Y-161367615D01*
X67434199Y-161265955D01*
X67092297Y-161230020D01*
X66749928Y-161261178D01*
X66420130Y-161358243D01*
X66115467Y-161517517D01*
X65847543Y-161732933D01*
X65811149Y-161776306D01*
X65789909Y-161750264D01*
X65525018Y-161531127D01*
X65222609Y-161367615D01*
X64894199Y-161265955D01*
X64552297Y-161230020D01*
X64209928Y-161261178D01*
X63880130Y-161358243D01*
X63585776Y-161512128D01*
X63573344Y-161493262D01*
X63409471Y-161353594D01*
X63213175Y-161265110D01*
X63000000Y-161234816D01*
X61336500Y-161234816D01*
X61336500Y-155915228D01*
X63795480Y-155915228D01*
X63848137Y-156209686D01*
X64113554Y-156365136D01*
X64404198Y-156465819D01*
X64708900Y-156507866D01*
X65015949Y-156489660D01*
X65313547Y-156411901D01*
X65590257Y-156277579D01*
X65691863Y-156209686D01*
X65744520Y-155915228D01*
X64770000Y-154940707D01*
X63795480Y-155915228D01*
X61336500Y-155915228D01*
X61336500Y-154878900D01*
X63202134Y-154878900D01*
X63220340Y-155185949D01*
X63298099Y-155483547D01*
X63432421Y-155760257D01*
X63500314Y-155861863D01*
X63794772Y-155914520D01*
X64769293Y-154940000D01*
X64770707Y-154940000D01*
X65745228Y-155914520D01*
X66039686Y-155861863D01*
X66195136Y-155596446D01*
X66295819Y-155305802D01*
X66337866Y-155001100D01*
X66319660Y-154694051D01*
X66241901Y-154396453D01*
X66107579Y-154119743D01*
X66039686Y-154018137D01*
X65745228Y-153965480D01*
X64770707Y-154940000D01*
X64769293Y-154940000D01*
X63794772Y-153965480D01*
X63500314Y-154018137D01*
X63344864Y-154283554D01*
X63244181Y-154574198D01*
X63202134Y-154878900D01*
X61336500Y-154878900D01*
X61336500Y-152571295D01*
X63206448Y-152571295D01*
X63261728Y-152872490D01*
X63374457Y-153157212D01*
X63540342Y-153414615D01*
X63753064Y-153634895D01*
X63843260Y-153697583D01*
X63795480Y-153964772D01*
X64770000Y-154939293D01*
X65744520Y-153964772D01*
X65697345Y-153700968D01*
X65736007Y-153676432D01*
X65957767Y-153465253D01*
X66134285Y-153215022D01*
X66258839Y-152935271D01*
X66326683Y-152636655D01*
X66331567Y-152286887D01*
X66272087Y-151986493D01*
X66155393Y-151703373D01*
X65985931Y-151448311D01*
X65770153Y-151231022D01*
X65516281Y-151059783D01*
X65233982Y-150941116D01*
X64934011Y-150879540D01*
X64627792Y-150877403D01*
X64326991Y-150934784D01*
X64043063Y-151049498D01*
X63786824Y-151217176D01*
X63568034Y-151431431D01*
X63395027Y-151684102D01*
X63274391Y-151965565D01*
X63210723Y-152265099D01*
X63206448Y-152571295D01*
X61336500Y-152571295D01*
X61336500Y-141160875D01*
X70828500Y-141160875D01*
X70828500Y-141845001D01*
X70857764Y-141992122D01*
X70915168Y-142130706D01*
X70998504Y-142255428D01*
X71104572Y-142361496D01*
X71229295Y-142444833D01*
X71367879Y-142502236D01*
X71514999Y-142531500D01*
X72199125Y-142531500D01*
X72389500Y-142341125D01*
X72389500Y-140970500D01*
X71018875Y-140970500D01*
X70828500Y-141160875D01*
X61336500Y-141160875D01*
X61336500Y-140094999D01*
X70828500Y-140094999D01*
X70828500Y-140779125D01*
X71018875Y-140969500D01*
X72389500Y-140969500D01*
X72389500Y-139598875D01*
X72199125Y-139408500D01*
X71514999Y-139408500D01*
X71367879Y-139437764D01*
X71229295Y-139495167D01*
X71104572Y-139578504D01*
X70998504Y-139684572D01*
X70915168Y-139809294D01*
X70857764Y-139947878D01*
X70828500Y-140094999D01*
X61336500Y-140094999D01*
X61336500Y-129846490D01*
X67698218Y-123484772D01*
X98085480Y-123484772D01*
X99060000Y-124459293D01*
X100034520Y-123484772D01*
X99981863Y-123190314D01*
X99716446Y-123034864D01*
X99425802Y-122934181D01*
X99121100Y-122892134D01*
X98814051Y-122910340D01*
X98516453Y-122988099D01*
X98239743Y-123122421D01*
X98138137Y-123190314D01*
X98085480Y-123484772D01*
X67698218Y-123484772D01*
X72212481Y-118970509D01*
X102578500Y-118970509D01*
X102578500Y-119789491D01*
X102608239Y-120092788D01*
X102696321Y-120384532D01*
X102839393Y-120653612D01*
X103032005Y-120889777D01*
X103266820Y-121084033D01*
X103534894Y-121228980D01*
X103826017Y-121319098D01*
X104129099Y-121350953D01*
X104432596Y-121323333D01*
X104529018Y-121294954D01*
X105891932Y-122657868D01*
X105968976Y-122721153D01*
X106045301Y-122785197D01*
X106050267Y-122787927D01*
X106054657Y-122791533D01*
X106142552Y-122838661D01*
X106229837Y-122886647D01*
X106235245Y-122888363D01*
X106240246Y-122891044D01*
X106335544Y-122920179D01*
X106430563Y-122950321D01*
X106436204Y-122950954D01*
X106441628Y-122952612D01*
X106540786Y-122962685D01*
X106639835Y-122973795D01*
X106650919Y-122973872D01*
X106651133Y-122973894D01*
X106651333Y-122973875D01*
X106654900Y-122973900D01*
X147017964Y-122973900D01*
X152844816Y-128800752D01*
X152844816Y-131040000D01*
X152854486Y-131161266D01*
X152918182Y-131366946D01*
X153036656Y-131546738D01*
X153200529Y-131686406D01*
X153396825Y-131774890D01*
X153610000Y-131805184D01*
X156610000Y-131805184D01*
X156731266Y-131795514D01*
X156936946Y-131731818D01*
X157116738Y-131613344D01*
X157256406Y-131449471D01*
X157344890Y-131253175D01*
X157375184Y-131040000D01*
X157375184Y-128040000D01*
X157365514Y-127918734D01*
X157301818Y-127713054D01*
X157183344Y-127533262D01*
X157019471Y-127393594D01*
X156823175Y-127305110D01*
X156610000Y-127274816D01*
X154370752Y-127274816D01*
X148227868Y-121131932D01*
X148150824Y-121068647D01*
X148074499Y-121004603D01*
X148069533Y-121001873D01*
X148065143Y-120998267D01*
X147977248Y-120951139D01*
X147889963Y-120903153D01*
X147884555Y-120901437D01*
X147879554Y-120898756D01*
X147784244Y-120869617D01*
X147689237Y-120839479D01*
X147683597Y-120838846D01*
X147678173Y-120837188D01*
X147579053Y-120827120D01*
X147479965Y-120816005D01*
X147468871Y-120815928D01*
X147468667Y-120815907D01*
X147468477Y-120815925D01*
X147464900Y-120815900D01*
X112927406Y-120815900D01*
X113048415Y-120671687D01*
X113195230Y-120404631D01*
X113287377Y-120114145D01*
X113321348Y-119811293D01*
X113321500Y-119789491D01*
X113321500Y-118970509D01*
X113291761Y-118667212D01*
X113203679Y-118375468D01*
X113060607Y-118106388D01*
X112867995Y-117870223D01*
X112633180Y-117675967D01*
X112365106Y-117531020D01*
X112073983Y-117440902D01*
X111770901Y-117409047D01*
X111467404Y-117436667D01*
X111175052Y-117522711D01*
X110904980Y-117663902D01*
X110667476Y-117854860D01*
X110488969Y-118067596D01*
X110327995Y-117870223D01*
X110093180Y-117675967D01*
X109825106Y-117531020D01*
X109533983Y-117440902D01*
X109230901Y-117409047D01*
X108927404Y-117436667D01*
X108635052Y-117522711D01*
X108364980Y-117663902D01*
X108127476Y-117854860D01*
X107948969Y-118067596D01*
X107787995Y-117870223D01*
X107553180Y-117675967D01*
X107285106Y-117531020D01*
X106993983Y-117440902D01*
X106690901Y-117409047D01*
X106387404Y-117436667D01*
X106095052Y-117522711D01*
X105824980Y-117663902D01*
X105587476Y-117854860D01*
X105408969Y-118067596D01*
X105247995Y-117870223D01*
X105013180Y-117675967D01*
X104745106Y-117531020D01*
X104453983Y-117440902D01*
X104150901Y-117409047D01*
X103847404Y-117436667D01*
X103555052Y-117522711D01*
X103284980Y-117663902D01*
X103047476Y-117854860D01*
X102851585Y-118088313D01*
X102704770Y-118355369D01*
X102612623Y-118645855D01*
X102578652Y-118948707D01*
X102578500Y-118970509D01*
X72212481Y-118970509D01*
X75846490Y-115336500D01*
X154959085Y-115336500D01*
X155905033Y-115429251D01*
M02*
