G04 #@! TF.FileFunction,Copper,L2,Bot,Signal*
%FSLAX46Y46*%
G04 Gerber Fmt 4.6, Leading zero omitted, Abs format (unit mm)*
G04 Created by KiCad (PCBNEW 4.0.7) date Sun Jan 21 13:03:22 2018*
%MOMM*%
%LPD*%
G01*
G04 APERTURE LIST*
%ADD10C,0.100000*%
%ADD11C,0.600000*%
%ADD12C,1.600000*%
%ADD13R,2.000000X2.000000*%
%ADD14O,2.000000X2.000000*%
%ADD15R,1.600000X1.600000*%
%ADD16O,1.600000X1.600000*%
%ADD17R,1.600000X2.400000*%
%ADD18O,1.600000X2.400000*%
%ADD19C,1.000000*%
%ADD20C,3.000000*%
%ADD21R,3.000000X3.000000*%
%ADD22C,0.635000*%
%ADD23C,0.507000*%
G04 APERTURE END LIST*
D10*
D11*
X127000000Y-130810000D03*
X127000000Y-140970000D03*
X140970000Y-142240000D03*
X140970000Y-119380000D03*
X63500000Y-132080000D03*
X93980000Y-142240000D03*
X93980000Y-132080000D03*
X81280000Y-119380000D03*
X123190000Y-154940000D03*
X154940000Y-119380000D03*
X154940000Y-142240000D03*
X154940000Y-153670000D03*
X93980000Y-119380000D03*
X63500000Y-158750000D03*
D12*
X64770000Y-152440000D03*
X64770000Y-154940000D03*
D13*
X62000000Y-163000000D03*
D14*
X64540000Y-163000000D03*
X67080000Y-163000000D03*
X69620000Y-163000000D03*
X72160000Y-163000000D03*
X74700000Y-163000000D03*
X77240000Y-163000000D03*
X79780000Y-163000000D03*
X82320000Y-163000000D03*
X84860000Y-163000000D03*
X87400000Y-163000000D03*
X89940000Y-163000000D03*
X92480000Y-163000000D03*
X95020000Y-163000000D03*
X97560000Y-163000000D03*
X100100000Y-163000000D03*
X102640000Y-163000000D03*
X105180000Y-163000000D03*
X107720000Y-163000000D03*
X110260000Y-163000000D03*
X112800000Y-163000000D03*
X115340000Y-163000000D03*
X117880000Y-163000000D03*
X120420000Y-163000000D03*
X122960000Y-163000000D03*
X125500000Y-163000000D03*
X128040000Y-163000000D03*
X130580000Y-163000000D03*
X133120000Y-163000000D03*
X135660000Y-163000000D03*
X138200000Y-163000000D03*
X140740000Y-163000000D03*
X143280000Y-163000000D03*
X145820000Y-163000000D03*
X148360000Y-163000000D03*
X150900000Y-163000000D03*
X153440000Y-163000000D03*
X155980000Y-163000000D03*
X158520000Y-163000000D03*
D15*
X87630000Y-125730000D03*
D16*
X74930000Y-133350000D03*
X85090000Y-125730000D03*
X77470000Y-133350000D03*
X82550000Y-125730000D03*
X80010000Y-133350000D03*
X80010000Y-125730000D03*
X82550000Y-133350000D03*
X77470000Y-125730000D03*
X85090000Y-133350000D03*
X74930000Y-125730000D03*
X87630000Y-133350000D03*
D12*
X99060000Y-126960000D03*
X99060000Y-124460000D03*
X99060000Y-149820000D03*
X99060000Y-147320000D03*
D15*
X72390000Y-140970000D03*
D16*
X74930000Y-140970000D03*
X77470000Y-140970000D03*
X80010000Y-140970000D03*
X82550000Y-140970000D03*
X85090000Y-140970000D03*
X87630000Y-140970000D03*
X90170000Y-140970000D03*
D17*
X69850000Y-154940000D03*
D18*
X92710000Y-147320000D03*
X72390000Y-154940000D03*
X90170000Y-147320000D03*
X74930000Y-154940000D03*
X87630000Y-147320000D03*
X77470000Y-154940000D03*
X85090000Y-147320000D03*
X80010000Y-154940000D03*
X82550000Y-147320000D03*
X82550000Y-154940000D03*
X80010000Y-147320000D03*
X85090000Y-154940000D03*
X77470000Y-147320000D03*
X87630000Y-154940000D03*
X74930000Y-147320000D03*
X90170000Y-154940000D03*
X72390000Y-147320000D03*
X92710000Y-154940000D03*
X69850000Y-147320000D03*
D12*
X99060000Y-135890000D03*
X99060000Y-133390000D03*
X128270000Y-154940000D03*
X128270000Y-152440000D03*
D19*
X115570000Y-125730000D03*
X117470000Y-125730000D03*
D17*
X104140000Y-140970000D03*
D18*
X119380000Y-133350000D03*
X106680000Y-140970000D03*
X116840000Y-133350000D03*
X109220000Y-140970000D03*
X114300000Y-133350000D03*
X111760000Y-140970000D03*
X111760000Y-133350000D03*
X114300000Y-140970000D03*
X109220000Y-133350000D03*
X116840000Y-140970000D03*
X106680000Y-133350000D03*
X119380000Y-140970000D03*
X104140000Y-133350000D03*
D17*
X133350000Y-154940000D03*
D18*
X151130000Y-147320000D03*
X135890000Y-154940000D03*
X148590000Y-147320000D03*
X138430000Y-154940000D03*
X146050000Y-147320000D03*
X140970000Y-154940000D03*
X143510000Y-147320000D03*
X143510000Y-154940000D03*
X140970000Y-147320000D03*
X146050000Y-154940000D03*
X138430000Y-147320000D03*
X148590000Y-154940000D03*
X135890000Y-147320000D03*
X151130000Y-154940000D03*
X133350000Y-147320000D03*
D17*
X104140000Y-127000000D03*
D18*
X111760000Y-119380000D03*
X106680000Y-127000000D03*
X109220000Y-119380000D03*
X109220000Y-127000000D03*
X106680000Y-119380000D03*
X111760000Y-127000000D03*
X104140000Y-119380000D03*
D17*
X104140000Y-154940000D03*
D18*
X119380000Y-147320000D03*
X106680000Y-154940000D03*
X116840000Y-147320000D03*
X109220000Y-154940000D03*
X114300000Y-147320000D03*
X111760000Y-154940000D03*
X111760000Y-147320000D03*
X114300000Y-154940000D03*
X109220000Y-147320000D03*
X116840000Y-154940000D03*
X106680000Y-147320000D03*
X119380000Y-154940000D03*
X104140000Y-147320000D03*
D20*
X134620000Y-129540000D03*
D21*
X155110000Y-129540000D03*
D11*
X73660000Y-160020000D03*
X67310000Y-144780000D03*
X96520000Y-158750000D03*
X113335500Y-159924500D03*
X93956300Y-154177700D03*
X103408400Y-157141500D03*
X117868500Y-157818800D03*
X97221100Y-150523900D03*
X91341200Y-152174700D03*
D22*
X80010000Y-147320000D02*
X78049160Y-149280840D01*
X78049160Y-149280840D02*
X71300970Y-149280840D01*
X69850000Y-147829870D02*
X69850000Y-147320000D01*
X71300970Y-149280840D02*
X69850000Y-147829870D01*
X104140000Y-127000000D02*
X99100000Y-127000000D01*
X64770000Y-152400000D02*
X64770000Y-152440000D01*
X69850000Y-147320000D02*
X64770000Y-152400000D01*
X74930000Y-125730000D02*
X77470000Y-125730000D01*
X77470000Y-125730000D02*
X80010000Y-125730000D01*
X80010000Y-125730000D02*
X82550000Y-125730000D01*
X82550000Y-125730000D02*
X85090000Y-125730000D01*
X104140000Y-127000000D02*
X104140000Y-133350000D01*
X133350000Y-149860000D02*
X133350000Y-147320000D01*
X128270000Y-154940000D02*
X133350000Y-149860000D01*
X96400800Y-154220800D02*
X105180000Y-163000000D01*
X96400800Y-150193200D02*
X96400800Y-154220800D01*
X96871000Y-149723000D02*
X96400800Y-150193200D01*
X98963000Y-149723000D02*
X96871000Y-149723000D01*
X99060000Y-149820000D02*
X98963000Y-149723000D01*
X104140000Y-133350000D02*
X101600000Y-135890000D01*
X101600000Y-135890000D02*
X99060000Y-135890000D01*
X104140000Y-147320000D02*
X101600000Y-144780000D01*
X101600000Y-144780000D02*
X101600000Y-135890000D01*
X97830000Y-125730000D02*
X87630000Y-125730000D01*
X99060000Y-126960000D02*
X97830000Y-125730000D01*
X87630000Y-125730000D02*
X85090000Y-125730000D01*
X98627900Y-146887900D02*
X99060000Y-147320000D01*
X128270000Y-140970000D02*
X119380000Y-140970000D01*
X128270000Y-135890000D02*
X128270000Y-140970000D01*
X134620000Y-129540000D02*
X128270000Y-135890000D01*
X128270000Y-140970000D02*
X128270000Y-152440000D01*
X109220000Y-140970000D02*
X111659449Y-138530551D01*
X111659449Y-138530551D02*
X116689508Y-138530551D01*
X116689508Y-138530551D02*
X118110000Y-139951043D01*
X118110000Y-139951043D02*
X118110000Y-142752000D01*
X118110000Y-142752000D02*
X126944900Y-151586900D01*
X126944900Y-151586900D02*
X126944900Y-161904900D01*
X126944900Y-161904900D02*
X128040000Y-163000000D01*
X146050000Y-147320000D02*
X146050000Y-147976525D01*
X146050000Y-147976525D02*
X144660138Y-149366387D01*
X144660138Y-149366387D02*
X143032973Y-149366387D01*
X143032973Y-149366387D02*
X142227400Y-148560814D01*
X134645100Y-156905100D02*
X140740000Y-163000000D01*
X142227400Y-148560814D02*
X142227400Y-145671043D01*
X142227400Y-145671043D02*
X140774842Y-144218485D01*
X140774842Y-144218485D02*
X136323645Y-144218485D01*
X136323645Y-144218485D02*
X134645100Y-145897030D01*
X134645100Y-145897030D02*
X134645100Y-156905100D01*
X140970000Y-147320000D02*
X140970000Y-146507683D01*
X137160000Y-156880000D02*
X143280000Y-163000000D01*
X140970000Y-146507683D02*
X139789825Y-145327508D01*
X139789825Y-145327508D02*
X137783769Y-145327508D01*
X137783769Y-145327508D02*
X137160000Y-145951277D01*
X137160000Y-145951277D02*
X137160000Y-156880000D01*
X142240000Y-159420000D02*
X145820000Y-163000000D01*
X142240000Y-151130000D02*
X142240000Y-159420000D01*
X138430000Y-147320000D02*
X142240000Y-151130000D01*
X110260000Y-163000000D02*
X113335500Y-159924500D01*
X87630000Y-160690000D02*
X89940000Y-163000000D01*
X87630000Y-154940000D02*
X87630000Y-160690000D01*
X93956300Y-148566300D02*
X93956300Y-154177700D01*
X92710000Y-147320000D02*
X93956300Y-148566300D01*
X91440000Y-159420000D02*
X95020000Y-163000000D01*
X91440000Y-153351400D02*
X91440000Y-159420000D01*
X87630000Y-149541400D02*
X91440000Y-153351400D01*
X87630000Y-147320000D02*
X87630000Y-149541400D01*
X82550000Y-158150000D02*
X87400000Y-163000000D01*
X82550000Y-154940000D02*
X82550000Y-158150000D01*
X77470000Y-154940000D02*
X77470000Y-155610000D01*
X77470000Y-155610000D02*
X83860001Y-162000001D01*
X83860001Y-162000001D02*
X84860000Y-163000000D01*
X84860000Y-162330000D02*
X84860000Y-163000000D01*
X82320000Y-163000000D02*
X77325499Y-158005499D01*
X77325499Y-158005499D02*
X72915499Y-158005499D01*
X72915499Y-158005499D02*
X72390000Y-157480000D01*
X72390000Y-157480000D02*
X72390000Y-154940000D01*
X119532000Y-157032000D02*
X125500000Y-163000000D01*
X103517900Y-157032000D02*
X119532000Y-157032000D01*
X103408400Y-157141500D02*
X103517900Y-157032000D01*
X122960000Y-162910300D02*
X122960000Y-163000000D01*
X117868500Y-157818800D02*
X122960000Y-162910300D01*
X97221100Y-152501100D02*
X107720000Y-163000000D01*
X97221100Y-150523900D02*
X97221100Y-152501100D01*
X74930000Y-147320000D02*
X77470000Y-147320000D01*
X74930000Y-147320000D02*
X74930000Y-140970000D01*
X77470000Y-138430000D02*
X77470000Y-133350000D01*
X80010000Y-140970000D02*
X77470000Y-138430000D01*
X90170000Y-154940000D02*
X90170000Y-154628972D01*
X90170000Y-154628972D02*
X86360000Y-150818972D01*
X86360000Y-150818972D02*
X86360000Y-144780000D01*
X86360000Y-144780000D02*
X82550000Y-140970000D01*
X81280000Y-140414400D02*
X82907200Y-138787200D01*
X81280000Y-151130000D02*
X81280000Y-140414400D01*
X85090000Y-154940000D02*
X81280000Y-151130000D01*
X85090000Y-140970000D02*
X82907200Y-138787200D01*
X82550000Y-138430000D02*
X82550000Y-133350000D01*
X82907200Y-138787200D02*
X82550000Y-138430000D01*
X80010000Y-154940000D02*
X80010000Y-154540000D01*
X80010000Y-154540000D02*
X78129757Y-152659757D01*
X78129757Y-152659757D02*
X68887527Y-152659757D01*
X68887527Y-152659757D02*
X67310000Y-154237284D01*
X67310000Y-154237284D02*
X67310000Y-156210000D01*
X82961955Y-131221955D02*
X85090000Y-133350000D01*
X67310000Y-156210000D02*
X66503220Y-157016780D01*
X66503220Y-157016780D02*
X63678846Y-157016780D01*
X63678846Y-157016780D02*
X62595815Y-155933749D01*
X62595815Y-155933749D02*
X62595815Y-143842323D01*
X62595815Y-143842323D02*
X73164709Y-133273429D01*
X73164709Y-133273429D02*
X73164709Y-131845632D01*
X73164709Y-131845632D02*
X73788386Y-131221955D01*
X73788386Y-131221955D02*
X82961955Y-131221955D01*
X87630000Y-135890000D02*
X87630000Y-140970000D01*
X85090000Y-133350000D02*
X87630000Y-135890000D01*
X90170000Y-135890000D02*
X87630000Y-133350000D01*
X90170000Y-140970000D02*
X90170000Y-135890000D01*
X91440000Y-142240000D02*
X90170000Y-140970000D01*
X91440000Y-152075900D02*
X91440000Y-142240000D01*
X91341200Y-152174700D02*
X91440000Y-152075900D01*
X74930000Y-138430000D02*
X74930000Y-133350000D01*
X77470000Y-140970000D02*
X74930000Y-138430000D01*
X111760000Y-154940000D02*
X109754872Y-152934872D01*
X108685128Y-152934872D02*
X106680000Y-154940000D01*
X109754872Y-152934872D02*
X108685128Y-152934872D01*
X116840000Y-154940000D02*
X110490000Y-148590000D01*
X110490000Y-148590000D02*
X110490000Y-146399400D01*
X110490000Y-146399400D02*
X107662850Y-143572250D01*
X107662850Y-143572250D02*
X106742250Y-143572250D01*
X106742250Y-143572250D02*
X104140000Y-140970000D01*
X106680000Y-127000000D02*
X106680000Y-127716239D01*
X106680000Y-127716239D02*
X108362346Y-129398585D01*
X108362346Y-129398585D02*
X112701587Y-129398585D01*
X112701587Y-129398585D02*
X115570000Y-126530172D01*
X115570000Y-126530172D02*
X115570000Y-125730000D01*
X116516500Y-124776500D02*
X117470000Y-125730000D01*
X111443500Y-124776500D02*
X116516500Y-124776500D01*
X109220000Y-127000000D02*
X111443500Y-124776500D01*
X108326500Y-142616500D02*
X106680000Y-140970000D01*
X115193500Y-142616500D02*
X108326500Y-142616500D01*
X116840000Y-140970000D02*
X115193500Y-142616500D01*
X105384900Y-139674900D02*
X106680000Y-140970000D01*
X105384900Y-118490700D02*
X105384900Y-139674900D01*
X106148800Y-117726800D02*
X105384900Y-118490700D01*
X107566800Y-117726800D02*
X106148800Y-117726800D01*
X109220000Y-119380000D02*
X107566800Y-117726800D01*
X106680000Y-119380000D02*
X108874143Y-121574143D01*
X108874143Y-121574143D02*
X130498254Y-121574143D01*
X130498254Y-121574143D02*
X143510000Y-134585889D01*
X143510000Y-134585889D02*
X143510000Y-147320000D01*
X111760000Y-119380000D02*
X130853382Y-119380000D01*
X130853382Y-119380000D02*
X147320000Y-135846618D01*
X147320000Y-135846618D02*
X147320000Y-153670000D01*
X147320000Y-153670000D02*
X148590000Y-154940000D01*
D23*
G36*
X102640500Y-162999500D02*
X102660500Y-162999500D01*
X102660500Y-163000500D01*
X102640500Y-163000500D01*
X102640500Y-163020500D01*
X102639500Y-163020500D01*
X102639500Y-163000500D01*
X102619500Y-163000500D01*
X102619500Y-162999500D01*
X102639500Y-162999500D01*
X102639500Y-162979500D01*
X102640500Y-162979500D01*
X102640500Y-162999500D01*
X102640500Y-162999500D01*
G37*
X102640500Y-162999500D02*
X102660500Y-162999500D01*
X102660500Y-163000500D01*
X102640500Y-163000500D01*
X102640500Y-163020500D01*
X102639500Y-163020500D01*
X102639500Y-163000500D01*
X102619500Y-163000500D01*
X102619500Y-162999500D01*
X102639500Y-162999500D01*
X102639500Y-162979500D01*
X102640500Y-162979500D01*
X102640500Y-162999500D01*
G36*
X155906596Y-115421366D02*
X156778655Y-115684656D01*
X157582969Y-116112317D01*
X158288900Y-116688060D01*
X158869556Y-117389953D01*
X159302821Y-118191260D01*
X159572195Y-119061466D01*
X159671500Y-120006293D01*
X159671500Y-161679225D01*
X159500545Y-161537799D01*
X159199509Y-161375029D01*
X158872590Y-161273831D01*
X158532242Y-161238059D01*
X158191427Y-161269075D01*
X157863127Y-161365699D01*
X157559848Y-161524250D01*
X157293140Y-161738688D01*
X157251061Y-161788836D01*
X157224232Y-161755940D01*
X156960545Y-161537799D01*
X156659509Y-161375029D01*
X156332590Y-161273831D01*
X155992242Y-161238059D01*
X155651427Y-161269075D01*
X155323127Y-161365699D01*
X155019848Y-161524250D01*
X154753140Y-161738688D01*
X154711061Y-161788836D01*
X154684232Y-161755940D01*
X154420545Y-161537799D01*
X154119509Y-161375029D01*
X153792590Y-161273831D01*
X153452242Y-161238059D01*
X153111427Y-161269075D01*
X152783127Y-161365699D01*
X152479848Y-161524250D01*
X152213140Y-161738688D01*
X152171061Y-161788836D01*
X152144232Y-161755940D01*
X151880545Y-161537799D01*
X151579509Y-161375029D01*
X151252590Y-161273831D01*
X150912242Y-161238059D01*
X150571427Y-161269075D01*
X150243127Y-161365699D01*
X149939848Y-161524250D01*
X149673140Y-161738688D01*
X149631061Y-161788836D01*
X149604232Y-161755940D01*
X149340545Y-161537799D01*
X149039509Y-161375029D01*
X148712590Y-161273831D01*
X148372242Y-161238059D01*
X148031427Y-161269075D01*
X147703127Y-161365699D01*
X147399848Y-161524250D01*
X147133140Y-161738688D01*
X147091061Y-161788836D01*
X147064232Y-161755940D01*
X146800545Y-161537799D01*
X146499509Y-161375029D01*
X146172590Y-161273831D01*
X145832242Y-161238059D01*
X145594333Y-161259710D01*
X143311000Y-158976378D01*
X143311000Y-156883138D01*
X143499155Y-156902914D01*
X143801097Y-156875435D01*
X144091951Y-156789832D01*
X144360639Y-156649365D01*
X144596927Y-156459385D01*
X144781119Y-156239874D01*
X144947682Y-156444101D01*
X145181294Y-156637362D01*
X145447995Y-156781566D01*
X145737625Y-156871222D01*
X146039155Y-156902914D01*
X146341097Y-156875435D01*
X146631951Y-156789832D01*
X146900639Y-156649365D01*
X147136927Y-156459385D01*
X147321119Y-156239874D01*
X147487682Y-156444101D01*
X147721294Y-156637362D01*
X147987995Y-156781566D01*
X148277625Y-156871222D01*
X148579155Y-156902914D01*
X148881097Y-156875435D01*
X149171951Y-156789832D01*
X149440639Y-156649365D01*
X149676927Y-156459385D01*
X149859625Y-156241654D01*
X150026206Y-156444501D01*
X150262893Y-156638618D01*
X150532902Y-156782830D01*
X150825857Y-156871594D01*
X150885234Y-156882197D01*
X151129500Y-156711125D01*
X151129500Y-154940500D01*
X151130500Y-154940500D01*
X151130500Y-156711125D01*
X151374766Y-156882197D01*
X151434143Y-156871594D01*
X151727098Y-156782830D01*
X151997107Y-156638618D01*
X152233794Y-156444501D01*
X152428062Y-156207939D01*
X152572447Y-155938022D01*
X152661399Y-155645124D01*
X152691500Y-155340500D01*
X152691500Y-154940500D01*
X151130500Y-154940500D01*
X151129500Y-154940500D01*
X151109500Y-154940500D01*
X151109500Y-154939500D01*
X151129500Y-154939500D01*
X151129500Y-153168875D01*
X151130500Y-153168875D01*
X151130500Y-154939500D01*
X152691500Y-154939500D01*
X152691500Y-154539500D01*
X152661399Y-154234876D01*
X152572447Y-153941978D01*
X152428062Y-153672061D01*
X152233794Y-153435499D01*
X151997107Y-153241382D01*
X151727098Y-153097170D01*
X151434143Y-153008406D01*
X151374766Y-152997803D01*
X151130500Y-153168875D01*
X151129500Y-153168875D01*
X150885234Y-152997803D01*
X150825857Y-153008406D01*
X150532902Y-153097170D01*
X150262893Y-153241382D01*
X150026206Y-153435499D01*
X149858524Y-153639687D01*
X149692318Y-153435899D01*
X149458706Y-153242638D01*
X149192005Y-153098434D01*
X148902375Y-153008778D01*
X148600845Y-152977086D01*
X148391000Y-152996183D01*
X148391000Y-149263138D01*
X148579155Y-149282914D01*
X148881097Y-149255435D01*
X149171951Y-149169832D01*
X149440639Y-149029365D01*
X149676927Y-148839385D01*
X149861119Y-148619874D01*
X150027682Y-148824101D01*
X150261294Y-149017362D01*
X150527995Y-149161566D01*
X150817625Y-149251222D01*
X151119155Y-149282914D01*
X151421097Y-149255435D01*
X151711951Y-149169832D01*
X151980639Y-149029365D01*
X152216927Y-148839385D01*
X152411814Y-148607128D01*
X152557877Y-148341441D01*
X152649552Y-148052443D01*
X152683349Y-147751142D01*
X152683500Y-147729452D01*
X152683500Y-146910548D01*
X152653914Y-146608805D01*
X152566282Y-146318555D01*
X152423943Y-146050854D01*
X152232318Y-145815899D01*
X151998706Y-145622638D01*
X151732005Y-145478434D01*
X151442375Y-145388778D01*
X151140845Y-145357086D01*
X150838903Y-145384565D01*
X150548049Y-145470168D01*
X150279361Y-145610635D01*
X150043073Y-145800615D01*
X149858881Y-146020126D01*
X149692318Y-145815899D01*
X149458706Y-145622638D01*
X149192005Y-145478434D01*
X148902375Y-145388778D01*
X148600845Y-145357086D01*
X148391000Y-145376183D01*
X148391000Y-135846618D01*
X148381351Y-135748206D01*
X148372725Y-135649606D01*
X148371152Y-135644192D01*
X148370603Y-135638593D01*
X148342029Y-135543952D01*
X148314409Y-135448884D01*
X148311817Y-135443883D01*
X148310189Y-135438492D01*
X148263736Y-135351127D01*
X148218216Y-135263310D01*
X148214704Y-135258911D01*
X148212059Y-135253936D01*
X148149551Y-135177294D01*
X148087812Y-135099954D01*
X148080077Y-135092111D01*
X148079950Y-135091955D01*
X148079806Y-135091836D01*
X148077312Y-135089307D01*
X141028005Y-128040000D01*
X152852855Y-128040000D01*
X152852855Y-131040000D01*
X152862424Y-131159992D01*
X152925450Y-131363511D01*
X153042680Y-131541414D01*
X153204831Y-131679615D01*
X153399064Y-131767169D01*
X153610000Y-131797145D01*
X156610000Y-131797145D01*
X156729992Y-131787576D01*
X156933511Y-131724550D01*
X157111414Y-131607320D01*
X157249615Y-131445169D01*
X157337169Y-131250936D01*
X157367145Y-131040000D01*
X157367145Y-128040000D01*
X157357576Y-127920008D01*
X157294550Y-127716489D01*
X157177320Y-127538586D01*
X157015169Y-127400385D01*
X156820936Y-127312831D01*
X156610000Y-127282855D01*
X153610000Y-127282855D01*
X153490008Y-127292424D01*
X153286489Y-127355450D01*
X153108586Y-127472680D01*
X152970385Y-127634831D01*
X152882831Y-127829064D01*
X152852855Y-128040000D01*
X141028005Y-128040000D01*
X131610693Y-118622689D01*
X131534272Y-118559916D01*
X131458462Y-118496303D01*
X131453524Y-118493588D01*
X131449175Y-118490016D01*
X131362013Y-118443280D01*
X131275294Y-118395606D01*
X131269926Y-118393903D01*
X131264963Y-118391242D01*
X131170352Y-118362317D01*
X131076055Y-118332404D01*
X131070459Y-118331776D01*
X131065074Y-118330130D01*
X130966700Y-118320138D01*
X130868335Y-118309104D01*
X130857321Y-118309027D01*
X130857120Y-118309007D01*
X130856933Y-118309025D01*
X130853382Y-118309000D01*
X113159299Y-118309000D01*
X113053943Y-118110854D01*
X112862318Y-117875899D01*
X112628706Y-117682638D01*
X112362005Y-117538434D01*
X112072375Y-117448778D01*
X111770845Y-117417086D01*
X111468903Y-117444565D01*
X111178049Y-117530168D01*
X110909361Y-117670635D01*
X110673073Y-117860615D01*
X110488881Y-118080126D01*
X110322318Y-117875899D01*
X110088706Y-117682638D01*
X109822005Y-117538434D01*
X109532375Y-117448778D01*
X109230845Y-117417086D01*
X108928903Y-117444565D01*
X108828683Y-117474061D01*
X108324111Y-116969489D01*
X108247690Y-116906716D01*
X108171880Y-116843103D01*
X108166942Y-116840388D01*
X108162593Y-116836816D01*
X108075431Y-116790080D01*
X107988712Y-116742406D01*
X107983344Y-116740703D01*
X107978381Y-116738042D01*
X107883770Y-116709117D01*
X107789473Y-116679204D01*
X107783877Y-116678576D01*
X107778492Y-116676930D01*
X107680118Y-116666938D01*
X107581753Y-116655904D01*
X107570739Y-116655827D01*
X107570538Y-116655807D01*
X107570351Y-116655825D01*
X107566800Y-116655800D01*
X106148800Y-116655800D01*
X106050338Y-116665454D01*
X105951788Y-116674076D01*
X105946379Y-116675648D01*
X105940775Y-116676197D01*
X105846105Y-116704779D01*
X105751065Y-116732391D01*
X105746062Y-116734984D01*
X105740674Y-116736611D01*
X105653327Y-116783054D01*
X105565492Y-116828584D01*
X105561093Y-116832096D01*
X105556118Y-116834741D01*
X105479445Y-116897274D01*
X105402136Y-116958989D01*
X105394294Y-116966722D01*
X105394137Y-116966850D01*
X105394017Y-116966996D01*
X105391489Y-116969488D01*
X104794279Y-117566698D01*
X104742005Y-117538434D01*
X104452375Y-117448778D01*
X104150845Y-117417086D01*
X103848903Y-117444565D01*
X103558049Y-117530168D01*
X103289361Y-117670635D01*
X103053073Y-117860615D01*
X102858186Y-118092872D01*
X102712123Y-118358559D01*
X102620448Y-118647557D01*
X102586651Y-118948858D01*
X102586500Y-118970548D01*
X102586500Y-119789452D01*
X102616086Y-120091195D01*
X102703718Y-120381445D01*
X102846057Y-120649146D01*
X103037682Y-120884101D01*
X103271294Y-121077362D01*
X103537995Y-121221566D01*
X103827625Y-121311222D01*
X104129155Y-121342914D01*
X104313900Y-121326101D01*
X104313900Y-125042855D01*
X103340000Y-125042855D01*
X103220008Y-125052424D01*
X103016489Y-125115450D01*
X102838586Y-125232680D01*
X102700385Y-125394831D01*
X102612831Y-125589064D01*
X102582855Y-125800000D01*
X102582855Y-125929000D01*
X100225619Y-125929000D01*
X100055030Y-125757216D01*
X99985345Y-125710213D01*
X100034520Y-125435228D01*
X99060000Y-124460707D01*
X99045858Y-124474850D01*
X99045151Y-124474143D01*
X99059293Y-124460000D01*
X99060707Y-124460000D01*
X100035228Y-125434520D01*
X100329686Y-125381863D01*
X100485136Y-125116446D01*
X100585819Y-124825802D01*
X100627866Y-124521100D01*
X100609660Y-124214051D01*
X100531901Y-123916453D01*
X100397579Y-123639743D01*
X100329686Y-123538137D01*
X100035228Y-123485480D01*
X99060707Y-124460000D01*
X99059293Y-124460000D01*
X98084772Y-123485480D01*
X97790314Y-123538137D01*
X97634864Y-123803554D01*
X97534181Y-124094198D01*
X97492134Y-124398900D01*
X97507556Y-124659000D01*
X89130812Y-124659000D01*
X89114550Y-124606489D01*
X88997320Y-124428586D01*
X88835169Y-124290385D01*
X88640936Y-124202831D01*
X88430000Y-124172855D01*
X86830000Y-124172855D01*
X86710008Y-124182424D01*
X86506489Y-124245450D01*
X86328586Y-124362680D01*
X86190385Y-124524831D01*
X86157091Y-124598692D01*
X85958706Y-124434573D01*
X85692005Y-124290369D01*
X85402375Y-124200713D01*
X85100845Y-124169021D01*
X84798903Y-124196500D01*
X84508049Y-124282103D01*
X84239361Y-124422570D01*
X84003073Y-124612550D01*
X83964097Y-124659000D01*
X83677736Y-124659000D01*
X83652318Y-124627834D01*
X83418706Y-124434573D01*
X83152005Y-124290369D01*
X82862375Y-124200713D01*
X82560845Y-124169021D01*
X82258903Y-124196500D01*
X81968049Y-124282103D01*
X81699361Y-124422570D01*
X81463073Y-124612550D01*
X81424097Y-124659000D01*
X81137736Y-124659000D01*
X81112318Y-124627834D01*
X80878706Y-124434573D01*
X80612005Y-124290369D01*
X80322375Y-124200713D01*
X80020845Y-124169021D01*
X79718903Y-124196500D01*
X79428049Y-124282103D01*
X79159361Y-124422570D01*
X78923073Y-124612550D01*
X78884097Y-124659000D01*
X78597736Y-124659000D01*
X78572318Y-124627834D01*
X78338706Y-124434573D01*
X78072005Y-124290369D01*
X77782375Y-124200713D01*
X77480845Y-124169021D01*
X77178903Y-124196500D01*
X76888049Y-124282103D01*
X76619361Y-124422570D01*
X76383073Y-124612550D01*
X76344097Y-124659000D01*
X76057736Y-124659000D01*
X76032318Y-124627834D01*
X75798706Y-124434573D01*
X75532005Y-124290369D01*
X75242375Y-124200713D01*
X74940845Y-124169021D01*
X74638903Y-124196500D01*
X74348049Y-124282103D01*
X74079361Y-124422570D01*
X73843073Y-124612550D01*
X73648186Y-124844807D01*
X73502123Y-125110494D01*
X73410448Y-125399492D01*
X73376651Y-125700793D01*
X73376500Y-125722483D01*
X73376500Y-125737517D01*
X73406086Y-126039260D01*
X73493718Y-126329510D01*
X73636057Y-126597211D01*
X73827682Y-126832166D01*
X74061294Y-127025427D01*
X74327995Y-127169631D01*
X74617625Y-127259287D01*
X74919155Y-127290979D01*
X75221097Y-127263500D01*
X75511951Y-127177897D01*
X75780639Y-127037430D01*
X76016927Y-126847450D01*
X76055903Y-126801000D01*
X76342264Y-126801000D01*
X76367682Y-126832166D01*
X76601294Y-127025427D01*
X76867995Y-127169631D01*
X77157625Y-127259287D01*
X77459155Y-127290979D01*
X77761097Y-127263500D01*
X78051951Y-127177897D01*
X78320639Y-127037430D01*
X78556927Y-126847450D01*
X78595903Y-126801000D01*
X78882264Y-126801000D01*
X78907682Y-126832166D01*
X79141294Y-127025427D01*
X79407995Y-127169631D01*
X79697625Y-127259287D01*
X79999155Y-127290979D01*
X80301097Y-127263500D01*
X80591951Y-127177897D01*
X80860639Y-127037430D01*
X81096927Y-126847450D01*
X81135903Y-126801000D01*
X81422264Y-126801000D01*
X81447682Y-126832166D01*
X81681294Y-127025427D01*
X81947995Y-127169631D01*
X82237625Y-127259287D01*
X82539155Y-127290979D01*
X82841097Y-127263500D01*
X83131951Y-127177897D01*
X83400639Y-127037430D01*
X83636927Y-126847450D01*
X83675903Y-126801000D01*
X83962264Y-126801000D01*
X83987682Y-126832166D01*
X84221294Y-127025427D01*
X84487995Y-127169631D01*
X84777625Y-127259287D01*
X85079155Y-127290979D01*
X85381097Y-127263500D01*
X85671951Y-127177897D01*
X85940639Y-127037430D01*
X86153741Y-126866092D01*
X86262680Y-127031414D01*
X86424831Y-127169615D01*
X86619064Y-127257169D01*
X86830000Y-127287145D01*
X88430000Y-127287145D01*
X88549992Y-127277576D01*
X88753511Y-127214550D01*
X88931414Y-127097320D01*
X89069615Y-126935169D01*
X89130094Y-126801000D01*
X97386378Y-126801000D01*
X97506820Y-126921442D01*
X97504458Y-127090623D01*
X97559454Y-127390275D01*
X97671606Y-127673538D01*
X97836641Y-127929622D01*
X98048274Y-128148774D01*
X98298443Y-128322646D01*
X98577619Y-128444615D01*
X98875169Y-128510036D01*
X99179760Y-128516416D01*
X99479788Y-128463513D01*
X99763828Y-128353342D01*
X100021058Y-128190098D01*
X100146123Y-128071000D01*
X102582855Y-128071000D01*
X102582855Y-128200000D01*
X102592424Y-128319992D01*
X102655450Y-128523511D01*
X102772680Y-128701414D01*
X102934831Y-128839615D01*
X103069000Y-128900094D01*
X103069000Y-131817809D01*
X103053073Y-131830615D01*
X102858186Y-132062872D01*
X102712123Y-132328559D01*
X102620448Y-132617557D01*
X102586651Y-132918858D01*
X102586500Y-132940548D01*
X102586500Y-133388877D01*
X101156378Y-134819000D01*
X100185897Y-134819000D01*
X100055030Y-134687216D01*
X99985345Y-134640213D01*
X100034520Y-134365228D01*
X99060000Y-133390707D01*
X98085480Y-134365228D01*
X98134443Y-134639031D01*
X98081861Y-134673440D01*
X97864192Y-134886598D01*
X97692070Y-135137974D01*
X97572053Y-135417995D01*
X97508711Y-135715995D01*
X97504458Y-136020623D01*
X97559454Y-136320275D01*
X97671606Y-136603538D01*
X97836641Y-136859622D01*
X98048274Y-137078774D01*
X98298443Y-137252646D01*
X98577619Y-137374615D01*
X98875169Y-137440036D01*
X99179760Y-137446416D01*
X99479788Y-137393513D01*
X99763828Y-137283342D01*
X100021058Y-137120098D01*
X100188128Y-136961000D01*
X100529000Y-136961000D01*
X100529000Y-144780000D01*
X100538654Y-144878458D01*
X100547276Y-144977012D01*
X100548848Y-144982421D01*
X100549397Y-144988025D01*
X100577979Y-145082695D01*
X100605591Y-145177735D01*
X100608184Y-145182738D01*
X100609811Y-145188126D01*
X100656243Y-145275452D01*
X100701784Y-145363309D01*
X100705297Y-145367710D01*
X100707941Y-145372682D01*
X100770456Y-145449333D01*
X100832189Y-145526664D01*
X100839918Y-145534501D01*
X100840050Y-145534663D01*
X100840200Y-145534787D01*
X100842689Y-145537311D01*
X102586500Y-147281123D01*
X102586500Y-147729452D01*
X102616086Y-148031195D01*
X102703718Y-148321445D01*
X102846057Y-148589146D01*
X103037682Y-148824101D01*
X103271294Y-149017362D01*
X103537995Y-149161566D01*
X103827625Y-149251222D01*
X104129155Y-149282914D01*
X104431097Y-149255435D01*
X104721951Y-149169832D01*
X104990639Y-149029365D01*
X105226927Y-148839385D01*
X105409625Y-148621654D01*
X105576206Y-148824501D01*
X105812893Y-149018618D01*
X106082902Y-149162830D01*
X106375857Y-149251594D01*
X106435234Y-149262197D01*
X106679500Y-149091125D01*
X106679500Y-147320500D01*
X106680500Y-147320500D01*
X106680500Y-149091125D01*
X106924766Y-149262197D01*
X106984143Y-149251594D01*
X107277098Y-149162830D01*
X107547107Y-149018618D01*
X107783794Y-148824501D01*
X107950000Y-148622110D01*
X108116206Y-148824501D01*
X108352893Y-149018618D01*
X108622902Y-149162830D01*
X108915857Y-149251594D01*
X108975234Y-149262197D01*
X109219500Y-149091125D01*
X109219500Y-147320500D01*
X106680500Y-147320500D01*
X106679500Y-147320500D01*
X106659500Y-147320500D01*
X106659500Y-147319500D01*
X106679500Y-147319500D01*
X106679500Y-145548875D01*
X106435234Y-145377803D01*
X106375857Y-145388406D01*
X106082902Y-145477170D01*
X105812893Y-145621382D01*
X105576206Y-145815499D01*
X105408524Y-146019687D01*
X105242318Y-145815899D01*
X105008706Y-145622638D01*
X104742005Y-145478434D01*
X104452375Y-145388778D01*
X104150845Y-145357086D01*
X103848903Y-145384565D01*
X103748684Y-145414061D01*
X102671000Y-144336378D01*
X102671000Y-142517109D01*
X102772680Y-142671414D01*
X102934831Y-142809615D01*
X103129064Y-142897169D01*
X103340000Y-142927145D01*
X104582523Y-142927145D01*
X105984938Y-144329561D01*
X106061384Y-144392355D01*
X106137170Y-144455947D01*
X106142108Y-144458662D01*
X106146457Y-144462234D01*
X106233619Y-144508970D01*
X106320338Y-144556644D01*
X106325706Y-144558347D01*
X106330669Y-144561008D01*
X106425280Y-144589933D01*
X106519577Y-144619846D01*
X106525173Y-144620474D01*
X106530558Y-144622120D01*
X106628936Y-144632113D01*
X106727297Y-144643146D01*
X106738310Y-144643223D01*
X106738511Y-144643243D01*
X106738698Y-144643225D01*
X106742250Y-144643250D01*
X107219228Y-144643250D01*
X108267442Y-145691464D01*
X108116206Y-145815499D01*
X107950000Y-146017890D01*
X107783794Y-145815499D01*
X107547107Y-145621382D01*
X107277098Y-145477170D01*
X106984143Y-145388406D01*
X106924766Y-145377803D01*
X106680500Y-145548875D01*
X106680500Y-147319500D01*
X109219500Y-147319500D01*
X109219500Y-147299500D01*
X109220500Y-147299500D01*
X109220500Y-147319500D01*
X109240500Y-147319500D01*
X109240500Y-147320500D01*
X109220500Y-147320500D01*
X109220500Y-149091125D01*
X109464766Y-149262197D01*
X109524143Y-149251594D01*
X109628385Y-149220009D01*
X109660456Y-149259333D01*
X109722189Y-149336664D01*
X109729918Y-149344501D01*
X109730050Y-149344663D01*
X109730200Y-149344787D01*
X109732689Y-149347311D01*
X113558800Y-153173422D01*
X113449361Y-153230635D01*
X113213073Y-153420615D01*
X113028881Y-153640126D01*
X112862318Y-153435899D01*
X112628706Y-153242638D01*
X112362005Y-153098434D01*
X112072375Y-153008778D01*
X111770845Y-152977086D01*
X111468903Y-153004565D01*
X111368684Y-153034061D01*
X110512183Y-152177561D01*
X110435762Y-152114788D01*
X110359952Y-152051175D01*
X110355014Y-152048460D01*
X110350665Y-152044888D01*
X110263503Y-151998152D01*
X110176784Y-151950478D01*
X110171416Y-151948775D01*
X110166453Y-151946114D01*
X110071842Y-151917189D01*
X109977545Y-151887276D01*
X109971949Y-151886648D01*
X109966564Y-151885002D01*
X109868190Y-151875010D01*
X109769825Y-151863976D01*
X109758811Y-151863899D01*
X109758610Y-151863879D01*
X109758423Y-151863897D01*
X109754872Y-151863872D01*
X108685128Y-151863872D01*
X108586670Y-151873526D01*
X108488116Y-151882148D01*
X108482707Y-151883720D01*
X108477103Y-151884269D01*
X108382387Y-151912865D01*
X108287393Y-151940464D01*
X108282395Y-151943055D01*
X108277002Y-151944683D01*
X108189640Y-151991134D01*
X108101819Y-152036656D01*
X108097418Y-152040170D01*
X108092446Y-152042813D01*
X108015819Y-152105308D01*
X107938463Y-152167061D01*
X107930621Y-152174795D01*
X107930465Y-152174922D01*
X107930346Y-152175066D01*
X107927816Y-152177561D01*
X107071963Y-153033415D01*
X106992375Y-153008778D01*
X106690845Y-152977086D01*
X106388903Y-153004565D01*
X106098049Y-153090168D01*
X105829361Y-153230635D01*
X105615426Y-153402643D01*
X105507320Y-153238586D01*
X105345169Y-153100385D01*
X105150936Y-153012831D01*
X104940000Y-152982855D01*
X103340000Y-152982855D01*
X103220008Y-152992424D01*
X103016489Y-153055450D01*
X102838586Y-153172680D01*
X102700385Y-153334831D01*
X102612831Y-153529064D01*
X102582855Y-153740000D01*
X102582855Y-156140000D01*
X102592424Y-156259992D01*
X102636302Y-156401680D01*
X98292100Y-152057478D01*
X98292100Y-151178237D01*
X98298443Y-151182646D01*
X98577619Y-151304615D01*
X98875169Y-151370036D01*
X99179760Y-151376416D01*
X99479788Y-151323513D01*
X99763828Y-151213342D01*
X100021058Y-151050098D01*
X100241682Y-150840001D01*
X100417296Y-150591052D01*
X100541212Y-150312734D01*
X100608708Y-150015647D01*
X100613567Y-149667671D01*
X100554392Y-149368816D01*
X100438296Y-149087147D01*
X100269702Y-148833392D01*
X100055030Y-148617216D01*
X99985345Y-148570213D01*
X100034520Y-148295228D01*
X99060000Y-147320707D01*
X98085480Y-148295228D01*
X98134443Y-148569031D01*
X98081861Y-148603440D01*
X98032273Y-148652000D01*
X96871000Y-148652000D01*
X96772542Y-148661654D01*
X96673988Y-148670276D01*
X96668579Y-148671848D01*
X96662975Y-148672397D01*
X96568259Y-148700993D01*
X96473265Y-148728592D01*
X96468267Y-148731183D01*
X96462874Y-148732811D01*
X96375512Y-148779262D01*
X96287691Y-148824784D01*
X96283290Y-148828298D01*
X96278318Y-148830941D01*
X96201691Y-148893436D01*
X96124335Y-148955189D01*
X96116493Y-148962923D01*
X96116337Y-148963050D01*
X96116218Y-148963194D01*
X96113688Y-148965689D01*
X95643489Y-149435889D01*
X95580716Y-149512310D01*
X95517103Y-149588120D01*
X95514388Y-149593058D01*
X95510816Y-149597407D01*
X95464080Y-149684569D01*
X95416406Y-149771288D01*
X95414703Y-149776656D01*
X95412042Y-149781619D01*
X95383117Y-149876230D01*
X95353204Y-149970527D01*
X95352576Y-149976123D01*
X95350930Y-149981508D01*
X95340938Y-150079882D01*
X95329904Y-150178247D01*
X95329827Y-150189261D01*
X95329807Y-150189462D01*
X95329825Y-150189649D01*
X95329800Y-150193200D01*
X95329800Y-154220800D01*
X95339454Y-154319258D01*
X95348076Y-154417812D01*
X95349648Y-154423221D01*
X95350197Y-154428825D01*
X95378779Y-154523495D01*
X95406391Y-154618535D01*
X95408984Y-154623538D01*
X95410611Y-154628926D01*
X95457043Y-154716252D01*
X95502584Y-154804109D01*
X95506097Y-154808510D01*
X95508741Y-154813482D01*
X95571256Y-154890133D01*
X95632989Y-154967464D01*
X95640718Y-154975301D01*
X95640850Y-154975463D01*
X95641000Y-154975587D01*
X95643489Y-154978111D01*
X102023665Y-161358287D01*
X101902985Y-161400097D01*
X101605021Y-161574623D01*
X101368020Y-161785107D01*
X101344232Y-161755940D01*
X101080545Y-161537799D01*
X100779509Y-161375029D01*
X100452590Y-161273831D01*
X100112242Y-161238059D01*
X99771427Y-161269075D01*
X99443127Y-161365699D01*
X99139848Y-161524250D01*
X98873140Y-161738688D01*
X98831061Y-161788836D01*
X98804232Y-161755940D01*
X98540545Y-161537799D01*
X98239509Y-161375029D01*
X97912590Y-161273831D01*
X97572242Y-161238059D01*
X97231427Y-161269075D01*
X96903127Y-161365699D01*
X96599848Y-161524250D01*
X96333140Y-161738688D01*
X96291061Y-161788836D01*
X96264232Y-161755940D01*
X96000545Y-161537799D01*
X95699509Y-161375029D01*
X95372590Y-161273831D01*
X95032242Y-161238059D01*
X94794333Y-161259710D01*
X92511000Y-158976378D01*
X92511000Y-156850145D01*
X92709500Y-156711125D01*
X92709500Y-154940500D01*
X92689500Y-154940500D01*
X92689500Y-154939500D01*
X92709500Y-154939500D01*
X92709500Y-153168875D01*
X92465234Y-152997803D01*
X92448120Y-153000859D01*
X92434409Y-152953665D01*
X92431816Y-152948662D01*
X92430189Y-152943274D01*
X92383746Y-152855927D01*
X92338216Y-152768092D01*
X92334704Y-152763693D01*
X92332059Y-152758718D01*
X92295786Y-152714243D01*
X92323697Y-152680980D01*
X92326412Y-152676042D01*
X92329984Y-152671693D01*
X92376720Y-152584531D01*
X92424394Y-152497812D01*
X92426097Y-152492444D01*
X92428758Y-152487481D01*
X92457683Y-152392870D01*
X92487596Y-152298573D01*
X92488224Y-152292977D01*
X92489870Y-152287592D01*
X92499863Y-152189214D01*
X92510896Y-152090853D01*
X92510973Y-152079840D01*
X92510993Y-152079639D01*
X92510975Y-152079452D01*
X92511000Y-152075900D01*
X92511000Y-149263138D01*
X92699155Y-149282914D01*
X92885300Y-149265973D01*
X92885300Y-153046454D01*
X92710500Y-153168875D01*
X92710500Y-154939500D01*
X92730500Y-154939500D01*
X92730500Y-154940500D01*
X92710500Y-154940500D01*
X92710500Y-156711125D01*
X92954766Y-156882197D01*
X93014143Y-156871594D01*
X93307098Y-156782830D01*
X93577107Y-156638618D01*
X93813794Y-156444501D01*
X94008062Y-156207939D01*
X94152447Y-155938022D01*
X94241399Y-155645124D01*
X94271500Y-155340500D01*
X94271500Y-155196026D01*
X94357504Y-155170714D01*
X94542740Y-155073875D01*
X94705639Y-154942900D01*
X94839997Y-154782780D01*
X94940694Y-154599612D01*
X95003896Y-154400373D01*
X95027196Y-154192653D01*
X95027300Y-154177700D01*
X95027300Y-148566300D01*
X95017646Y-148467842D01*
X95009024Y-148369288D01*
X95007452Y-148363879D01*
X95006903Y-148358275D01*
X94978307Y-148263559D01*
X94950708Y-148168565D01*
X94948117Y-148163567D01*
X94946489Y-148158174D01*
X94900038Y-148070812D01*
X94854516Y-147982991D01*
X94851002Y-147978590D01*
X94848359Y-147973618D01*
X94785864Y-147896991D01*
X94724111Y-147819635D01*
X94716377Y-147811793D01*
X94716250Y-147811637D01*
X94716106Y-147811518D01*
X94713611Y-147808988D01*
X94263500Y-147358877D01*
X94263500Y-147258900D01*
X97492134Y-147258900D01*
X97510340Y-147565949D01*
X97588099Y-147863547D01*
X97722421Y-148140257D01*
X97790314Y-148241863D01*
X98084772Y-148294520D01*
X99059293Y-147320000D01*
X99060707Y-147320000D01*
X100035228Y-148294520D01*
X100329686Y-148241863D01*
X100485136Y-147976446D01*
X100585819Y-147685802D01*
X100627866Y-147381100D01*
X100609660Y-147074051D01*
X100531901Y-146776453D01*
X100397579Y-146499743D01*
X100329686Y-146398137D01*
X100035228Y-146345480D01*
X99060707Y-147320000D01*
X99059293Y-147320000D01*
X98084772Y-146345480D01*
X97790314Y-146398137D01*
X97634864Y-146663554D01*
X97534181Y-146954198D01*
X97492134Y-147258900D01*
X94263500Y-147258900D01*
X94263500Y-146910548D01*
X94233914Y-146608805D01*
X94154198Y-146344772D01*
X98085480Y-146344772D01*
X99060000Y-147319293D01*
X100034520Y-146344772D01*
X99981863Y-146050314D01*
X99716446Y-145894864D01*
X99425802Y-145794181D01*
X99121100Y-145752134D01*
X98814051Y-145770340D01*
X98516453Y-145848099D01*
X98239743Y-145982421D01*
X98138137Y-146050314D01*
X98085480Y-146344772D01*
X94154198Y-146344772D01*
X94146282Y-146318555D01*
X94003943Y-146050854D01*
X93812318Y-145815899D01*
X93578706Y-145622638D01*
X93312005Y-145478434D01*
X93022375Y-145388778D01*
X92720845Y-145357086D01*
X92511000Y-145376183D01*
X92511000Y-142240000D01*
X92501346Y-142141542D01*
X92492724Y-142042988D01*
X92491152Y-142037579D01*
X92490603Y-142031975D01*
X92462007Y-141937259D01*
X92434408Y-141842265D01*
X92431817Y-141837267D01*
X92430189Y-141831874D01*
X92383738Y-141744512D01*
X92338216Y-141656691D01*
X92334702Y-141652290D01*
X92332059Y-141647318D01*
X92269564Y-141570691D01*
X92207811Y-141493335D01*
X92200077Y-141485493D01*
X92199950Y-141485337D01*
X92199806Y-141485218D01*
X92197311Y-141482688D01*
X91727602Y-141012979D01*
X91730979Y-140980845D01*
X91703500Y-140678903D01*
X91617897Y-140388049D01*
X91477430Y-140119361D01*
X91287450Y-139883073D01*
X91241000Y-139844097D01*
X91241000Y-135890000D01*
X91231342Y-135791497D01*
X91222724Y-135692988D01*
X91221152Y-135687579D01*
X91220603Y-135681975D01*
X91192007Y-135587259D01*
X91164408Y-135492265D01*
X91161817Y-135487267D01*
X91160189Y-135481874D01*
X91113738Y-135394512D01*
X91068216Y-135306691D01*
X91064702Y-135302290D01*
X91062059Y-135297318D01*
X90999564Y-135220691D01*
X90937811Y-135143335D01*
X90930077Y-135135493D01*
X90929950Y-135135337D01*
X90929806Y-135135218D01*
X90927311Y-135132688D01*
X89182389Y-133387767D01*
X89183349Y-133379207D01*
X89183500Y-133357517D01*
X89183500Y-133342483D01*
X89182169Y-133328900D01*
X97492134Y-133328900D01*
X97510340Y-133635949D01*
X97588099Y-133933547D01*
X97722421Y-134210257D01*
X97790314Y-134311863D01*
X98084772Y-134364520D01*
X99059293Y-133390000D01*
X99060707Y-133390000D01*
X100035228Y-134364520D01*
X100329686Y-134311863D01*
X100485136Y-134046446D01*
X100585819Y-133755802D01*
X100627866Y-133451100D01*
X100609660Y-133144051D01*
X100531901Y-132846453D01*
X100397579Y-132569743D01*
X100329686Y-132468137D01*
X100035228Y-132415480D01*
X99060707Y-133390000D01*
X99059293Y-133390000D01*
X98084772Y-132415480D01*
X97790314Y-132468137D01*
X97634864Y-132733554D01*
X97534181Y-133024198D01*
X97492134Y-133328900D01*
X89182169Y-133328900D01*
X89153914Y-133040740D01*
X89066282Y-132750490D01*
X88923943Y-132482789D01*
X88868470Y-132414772D01*
X98085480Y-132414772D01*
X99060000Y-133389293D01*
X100034520Y-132414772D01*
X99981863Y-132120314D01*
X99716446Y-131964864D01*
X99425802Y-131864181D01*
X99121100Y-131822134D01*
X98814051Y-131840340D01*
X98516453Y-131918099D01*
X98239743Y-132052421D01*
X98138137Y-132120314D01*
X98085480Y-132414772D01*
X88868470Y-132414772D01*
X88732318Y-132247834D01*
X88498706Y-132054573D01*
X88232005Y-131910369D01*
X87942375Y-131820713D01*
X87640845Y-131789021D01*
X87338903Y-131816500D01*
X87048049Y-131902103D01*
X86779361Y-132042570D01*
X86543073Y-132232550D01*
X86358881Y-132452061D01*
X86192318Y-132247834D01*
X85958706Y-132054573D01*
X85692005Y-131910369D01*
X85402375Y-131820713D01*
X85100845Y-131789021D01*
X85048415Y-131793793D01*
X83719266Y-130464644D01*
X83642845Y-130401871D01*
X83567035Y-130338258D01*
X83562097Y-130335543D01*
X83557748Y-130331971D01*
X83470586Y-130285235D01*
X83383867Y-130237561D01*
X83378499Y-130235858D01*
X83373536Y-130233197D01*
X83278925Y-130204272D01*
X83184628Y-130174359D01*
X83179032Y-130173731D01*
X83173647Y-130172085D01*
X83075273Y-130162093D01*
X82976908Y-130151059D01*
X82965894Y-130150982D01*
X82965693Y-130150962D01*
X82965506Y-130150980D01*
X82961955Y-130150955D01*
X73788386Y-130150955D01*
X73689883Y-130160613D01*
X73591374Y-130169231D01*
X73585965Y-130170803D01*
X73580361Y-130171352D01*
X73485645Y-130199948D01*
X73390651Y-130227547D01*
X73385653Y-130230138D01*
X73380260Y-130231766D01*
X73292859Y-130278238D01*
X73205077Y-130323740D01*
X73200679Y-130327251D01*
X73195704Y-130329896D01*
X73119050Y-130392414D01*
X73041721Y-130454144D01*
X73033879Y-130461878D01*
X73033723Y-130462005D01*
X73033604Y-130462149D01*
X73031074Y-130464644D01*
X72407398Y-131088321D01*
X72344625Y-131164742D01*
X72281012Y-131240552D01*
X72278297Y-131245490D01*
X72274725Y-131249839D01*
X72227989Y-131337001D01*
X72180315Y-131423720D01*
X72178612Y-131429088D01*
X72175951Y-131434051D01*
X72147026Y-131528662D01*
X72117113Y-131622959D01*
X72116485Y-131628555D01*
X72114839Y-131633940D01*
X72104847Y-131732314D01*
X72093813Y-131830679D01*
X72093736Y-131841693D01*
X72093716Y-131841894D01*
X72093734Y-131842081D01*
X72093709Y-131845632D01*
X72093709Y-132829806D01*
X61838504Y-143085012D01*
X61775731Y-143161433D01*
X61712118Y-143237243D01*
X61709403Y-143242181D01*
X61705831Y-143246530D01*
X61659095Y-143333692D01*
X61611421Y-143420411D01*
X61609718Y-143425779D01*
X61607057Y-143430742D01*
X61578132Y-143525353D01*
X61548219Y-143619650D01*
X61547591Y-143625246D01*
X61545945Y-143630631D01*
X61535953Y-143729005D01*
X61524919Y-143827370D01*
X61524842Y-143838384D01*
X61524822Y-143838585D01*
X61524840Y-143838772D01*
X61524815Y-143842323D01*
X61524815Y-155933749D01*
X61534469Y-156032207D01*
X61543091Y-156130761D01*
X61544663Y-156136170D01*
X61545212Y-156141774D01*
X61573794Y-156236444D01*
X61601406Y-156331484D01*
X61603999Y-156336487D01*
X61605626Y-156341875D01*
X61652058Y-156429201D01*
X61697599Y-156517058D01*
X61701112Y-156521459D01*
X61703756Y-156526431D01*
X61766271Y-156603082D01*
X61828004Y-156680413D01*
X61835733Y-156688250D01*
X61835865Y-156688412D01*
X61836015Y-156688536D01*
X61838504Y-156691060D01*
X62921535Y-157774091D01*
X62997956Y-157836864D01*
X63073766Y-157900477D01*
X63078704Y-157903192D01*
X63083053Y-157906764D01*
X63170215Y-157953500D01*
X63256934Y-158001174D01*
X63262302Y-158002877D01*
X63267265Y-158005538D01*
X63361876Y-158034463D01*
X63456173Y-158064376D01*
X63461769Y-158065004D01*
X63467154Y-158066650D01*
X63565532Y-158076643D01*
X63663893Y-158087676D01*
X63674906Y-158087753D01*
X63675107Y-158087773D01*
X63675294Y-158087755D01*
X63678846Y-158087780D01*
X66503220Y-158087780D01*
X66601678Y-158078126D01*
X66700232Y-158069504D01*
X66705641Y-158067932D01*
X66711245Y-158067383D01*
X66805915Y-158038801D01*
X66900955Y-158011189D01*
X66905958Y-158008596D01*
X66911346Y-158006969D01*
X66998672Y-157960537D01*
X67086529Y-157914996D01*
X67090930Y-157911483D01*
X67095902Y-157908839D01*
X67172553Y-157846324D01*
X67249884Y-157784591D01*
X67257721Y-157776862D01*
X67257883Y-157776730D01*
X67258007Y-157776580D01*
X67260531Y-157774091D01*
X68067311Y-156967312D01*
X68130105Y-156890866D01*
X68193697Y-156815080D01*
X68196412Y-156810142D01*
X68199984Y-156805793D01*
X68246720Y-156718631D01*
X68294394Y-156631912D01*
X68296097Y-156626544D01*
X68298758Y-156621581D01*
X68327683Y-156526970D01*
X68356738Y-156435378D01*
X68365450Y-156463511D01*
X68482680Y-156641414D01*
X68644831Y-156779615D01*
X68839064Y-156867169D01*
X69050000Y-156897145D01*
X70650000Y-156897145D01*
X70769992Y-156887576D01*
X70973511Y-156824550D01*
X71151414Y-156707320D01*
X71289615Y-156545169D01*
X71319000Y-156479980D01*
X71319000Y-157480000D01*
X71328654Y-157578458D01*
X71337276Y-157677012D01*
X71338848Y-157682421D01*
X71339397Y-157688025D01*
X71367979Y-157782695D01*
X71395591Y-157877735D01*
X71398184Y-157882738D01*
X71399811Y-157888126D01*
X71446243Y-157975452D01*
X71491784Y-158063309D01*
X71495297Y-158067710D01*
X71497941Y-158072682D01*
X71560456Y-158149333D01*
X71622189Y-158226664D01*
X71629918Y-158234501D01*
X71630050Y-158234663D01*
X71630200Y-158234787D01*
X71632689Y-158237311D01*
X72158188Y-158762810D01*
X72234612Y-158825586D01*
X72310419Y-158889196D01*
X72315356Y-158891910D01*
X72319707Y-158895484D01*
X72406886Y-158942229D01*
X72493587Y-158989893D01*
X72498955Y-158991596D01*
X72503918Y-158994257D01*
X72598558Y-159023192D01*
X72692826Y-159053095D01*
X72698419Y-159053722D01*
X72703808Y-159055370D01*
X72802225Y-159065366D01*
X72900546Y-159076395D01*
X72911560Y-159076472D01*
X72911761Y-159076492D01*
X72911948Y-159076474D01*
X72915499Y-159076499D01*
X76881877Y-159076499D01*
X79160174Y-161354796D01*
X79123127Y-161365699D01*
X78819848Y-161524250D01*
X78553140Y-161738688D01*
X78511061Y-161788836D01*
X78484232Y-161755940D01*
X78220545Y-161537799D01*
X77919509Y-161375029D01*
X77592590Y-161273831D01*
X77252242Y-161238059D01*
X76911427Y-161269075D01*
X76583127Y-161365699D01*
X76279848Y-161524250D01*
X76013140Y-161738688D01*
X75971061Y-161788836D01*
X75944232Y-161755940D01*
X75680545Y-161537799D01*
X75379509Y-161375029D01*
X75052590Y-161273831D01*
X74712242Y-161238059D01*
X74371427Y-161269075D01*
X74043127Y-161365699D01*
X73739848Y-161524250D01*
X73473140Y-161738688D01*
X73431061Y-161788836D01*
X73404232Y-161755940D01*
X73140545Y-161537799D01*
X72839509Y-161375029D01*
X72512590Y-161273831D01*
X72172242Y-161238059D01*
X71831427Y-161269075D01*
X71503127Y-161365699D01*
X71199848Y-161524250D01*
X70933140Y-161738688D01*
X70891061Y-161788836D01*
X70864232Y-161755940D01*
X70600545Y-161537799D01*
X70299509Y-161375029D01*
X69972590Y-161273831D01*
X69632242Y-161238059D01*
X69291427Y-161269075D01*
X68963127Y-161365699D01*
X68659848Y-161524250D01*
X68393140Y-161738688D01*
X68351061Y-161788836D01*
X68324232Y-161755940D01*
X68060545Y-161537799D01*
X67759509Y-161375029D01*
X67432590Y-161273831D01*
X67092242Y-161238059D01*
X66751427Y-161269075D01*
X66423127Y-161365699D01*
X66119848Y-161524250D01*
X65853140Y-161738688D01*
X65811061Y-161788836D01*
X65784232Y-161755940D01*
X65520545Y-161537799D01*
X65219509Y-161375029D01*
X64892590Y-161273831D01*
X64552242Y-161238059D01*
X64211427Y-161269075D01*
X63883127Y-161365699D01*
X63583108Y-161522546D01*
X63567320Y-161498586D01*
X63405169Y-161360385D01*
X63210936Y-161272831D01*
X63000000Y-161242855D01*
X61328500Y-161242855D01*
X61328500Y-129843176D01*
X67686904Y-123484772D01*
X98085480Y-123484772D01*
X99060000Y-124459293D01*
X100034520Y-123484772D01*
X99981863Y-123190314D01*
X99716446Y-123034864D01*
X99425802Y-122934181D01*
X99121100Y-122892134D01*
X98814051Y-122910340D01*
X98516453Y-122988099D01*
X98239743Y-123122421D01*
X98138137Y-123190314D01*
X98085480Y-123484772D01*
X67686904Y-123484772D01*
X75843176Y-115328500D01*
X154959478Y-115328500D01*
X155906596Y-115421366D01*
X155906596Y-115421366D01*
G37*
X155906596Y-115421366D02*
X156778655Y-115684656D01*
X157582969Y-116112317D01*
X158288900Y-116688060D01*
X158869556Y-117389953D01*
X159302821Y-118191260D01*
X159572195Y-119061466D01*
X159671500Y-120006293D01*
X159671500Y-161679225D01*
X159500545Y-161537799D01*
X159199509Y-161375029D01*
X158872590Y-161273831D01*
X158532242Y-161238059D01*
X158191427Y-161269075D01*
X157863127Y-161365699D01*
X157559848Y-161524250D01*
X157293140Y-161738688D01*
X157251061Y-161788836D01*
X157224232Y-161755940D01*
X156960545Y-161537799D01*
X156659509Y-161375029D01*
X156332590Y-161273831D01*
X155992242Y-161238059D01*
X155651427Y-161269075D01*
X155323127Y-161365699D01*
X155019848Y-161524250D01*
X154753140Y-161738688D01*
X154711061Y-161788836D01*
X154684232Y-161755940D01*
X154420545Y-161537799D01*
X154119509Y-161375029D01*
X153792590Y-161273831D01*
X153452242Y-161238059D01*
X153111427Y-161269075D01*
X152783127Y-161365699D01*
X152479848Y-161524250D01*
X152213140Y-161738688D01*
X152171061Y-161788836D01*
X152144232Y-161755940D01*
X151880545Y-161537799D01*
X151579509Y-161375029D01*
X151252590Y-161273831D01*
X150912242Y-161238059D01*
X150571427Y-161269075D01*
X150243127Y-161365699D01*
X149939848Y-161524250D01*
X149673140Y-161738688D01*
X149631061Y-161788836D01*
X149604232Y-161755940D01*
X149340545Y-161537799D01*
X149039509Y-161375029D01*
X148712590Y-161273831D01*
X148372242Y-161238059D01*
X148031427Y-161269075D01*
X147703127Y-161365699D01*
X147399848Y-161524250D01*
X147133140Y-161738688D01*
X147091061Y-161788836D01*
X147064232Y-161755940D01*
X146800545Y-161537799D01*
X146499509Y-161375029D01*
X146172590Y-161273831D01*
X145832242Y-161238059D01*
X145594333Y-161259710D01*
X143311000Y-158976378D01*
X143311000Y-156883138D01*
X143499155Y-156902914D01*
X143801097Y-156875435D01*
X144091951Y-156789832D01*
X144360639Y-156649365D01*
X144596927Y-156459385D01*
X144781119Y-156239874D01*
X144947682Y-156444101D01*
X145181294Y-156637362D01*
X145447995Y-156781566D01*
X145737625Y-156871222D01*
X146039155Y-156902914D01*
X146341097Y-156875435D01*
X146631951Y-156789832D01*
X146900639Y-156649365D01*
X147136927Y-156459385D01*
X147321119Y-156239874D01*
X147487682Y-156444101D01*
X147721294Y-156637362D01*
X147987995Y-156781566D01*
X148277625Y-156871222D01*
X148579155Y-156902914D01*
X148881097Y-156875435D01*
X149171951Y-156789832D01*
X149440639Y-156649365D01*
X149676927Y-156459385D01*
X149859625Y-156241654D01*
X150026206Y-156444501D01*
X150262893Y-156638618D01*
X150532902Y-156782830D01*
X150825857Y-156871594D01*
X150885234Y-156882197D01*
X151129500Y-156711125D01*
X151129500Y-154940500D01*
X151130500Y-154940500D01*
X151130500Y-156711125D01*
X151374766Y-156882197D01*
X151434143Y-156871594D01*
X151727098Y-156782830D01*
X151997107Y-156638618D01*
X152233794Y-156444501D01*
X152428062Y-156207939D01*
X152572447Y-155938022D01*
X152661399Y-155645124D01*
X152691500Y-155340500D01*
X152691500Y-154940500D01*
X151130500Y-154940500D01*
X151129500Y-154940500D01*
X151109500Y-154940500D01*
X151109500Y-154939500D01*
X151129500Y-154939500D01*
X151129500Y-153168875D01*
X151130500Y-153168875D01*
X151130500Y-154939500D01*
X152691500Y-154939500D01*
X152691500Y-154539500D01*
X152661399Y-154234876D01*
X152572447Y-153941978D01*
X152428062Y-153672061D01*
X152233794Y-153435499D01*
X151997107Y-153241382D01*
X151727098Y-153097170D01*
X151434143Y-153008406D01*
X151374766Y-152997803D01*
X151130500Y-153168875D01*
X151129500Y-153168875D01*
X150885234Y-152997803D01*
X150825857Y-153008406D01*
X150532902Y-153097170D01*
X150262893Y-153241382D01*
X150026206Y-153435499D01*
X149858524Y-153639687D01*
X149692318Y-153435899D01*
X149458706Y-153242638D01*
X149192005Y-153098434D01*
X148902375Y-153008778D01*
X148600845Y-152977086D01*
X148391000Y-152996183D01*
X148391000Y-149263138D01*
X148579155Y-149282914D01*
X148881097Y-149255435D01*
X149171951Y-149169832D01*
X149440639Y-149029365D01*
X149676927Y-148839385D01*
X149861119Y-148619874D01*
X150027682Y-148824101D01*
X150261294Y-149017362D01*
X150527995Y-149161566D01*
X150817625Y-149251222D01*
X151119155Y-149282914D01*
X151421097Y-149255435D01*
X151711951Y-149169832D01*
X151980639Y-149029365D01*
X152216927Y-148839385D01*
X152411814Y-148607128D01*
X152557877Y-148341441D01*
X152649552Y-148052443D01*
X152683349Y-147751142D01*
X152683500Y-147729452D01*
X152683500Y-146910548D01*
X152653914Y-146608805D01*
X152566282Y-146318555D01*
X152423943Y-146050854D01*
X152232318Y-145815899D01*
X151998706Y-145622638D01*
X151732005Y-145478434D01*
X151442375Y-145388778D01*
X151140845Y-145357086D01*
X150838903Y-145384565D01*
X150548049Y-145470168D01*
X150279361Y-145610635D01*
X150043073Y-145800615D01*
X149858881Y-146020126D01*
X149692318Y-145815899D01*
X149458706Y-145622638D01*
X149192005Y-145478434D01*
X148902375Y-145388778D01*
X148600845Y-145357086D01*
X148391000Y-145376183D01*
X148391000Y-135846618D01*
X148381351Y-135748206D01*
X148372725Y-135649606D01*
X148371152Y-135644192D01*
X148370603Y-135638593D01*
X148342029Y-135543952D01*
X148314409Y-135448884D01*
X148311817Y-135443883D01*
X148310189Y-135438492D01*
X148263736Y-135351127D01*
X148218216Y-135263310D01*
X148214704Y-135258911D01*
X148212059Y-135253936D01*
X148149551Y-135177294D01*
X148087812Y-135099954D01*
X148080077Y-135092111D01*
X148079950Y-135091955D01*
X148079806Y-135091836D01*
X148077312Y-135089307D01*
X141028005Y-128040000D01*
X152852855Y-128040000D01*
X152852855Y-131040000D01*
X152862424Y-131159992D01*
X152925450Y-131363511D01*
X153042680Y-131541414D01*
X153204831Y-131679615D01*
X153399064Y-131767169D01*
X153610000Y-131797145D01*
X156610000Y-131797145D01*
X156729992Y-131787576D01*
X156933511Y-131724550D01*
X157111414Y-131607320D01*
X157249615Y-131445169D01*
X157337169Y-131250936D01*
X157367145Y-131040000D01*
X157367145Y-128040000D01*
X157357576Y-127920008D01*
X157294550Y-127716489D01*
X157177320Y-127538586D01*
X157015169Y-127400385D01*
X156820936Y-127312831D01*
X156610000Y-127282855D01*
X153610000Y-127282855D01*
X153490008Y-127292424D01*
X153286489Y-127355450D01*
X153108586Y-127472680D01*
X152970385Y-127634831D01*
X152882831Y-127829064D01*
X152852855Y-128040000D01*
X141028005Y-128040000D01*
X131610693Y-118622689D01*
X131534272Y-118559916D01*
X131458462Y-118496303D01*
X131453524Y-118493588D01*
X131449175Y-118490016D01*
X131362013Y-118443280D01*
X131275294Y-118395606D01*
X131269926Y-118393903D01*
X131264963Y-118391242D01*
X131170352Y-118362317D01*
X131076055Y-118332404D01*
X131070459Y-118331776D01*
X131065074Y-118330130D01*
X130966700Y-118320138D01*
X130868335Y-118309104D01*
X130857321Y-118309027D01*
X130857120Y-118309007D01*
X130856933Y-118309025D01*
X130853382Y-118309000D01*
X113159299Y-118309000D01*
X113053943Y-118110854D01*
X112862318Y-117875899D01*
X112628706Y-117682638D01*
X112362005Y-117538434D01*
X112072375Y-117448778D01*
X111770845Y-117417086D01*
X111468903Y-117444565D01*
X111178049Y-117530168D01*
X110909361Y-117670635D01*
X110673073Y-117860615D01*
X110488881Y-118080126D01*
X110322318Y-117875899D01*
X110088706Y-117682638D01*
X109822005Y-117538434D01*
X109532375Y-117448778D01*
X109230845Y-117417086D01*
X108928903Y-117444565D01*
X108828683Y-117474061D01*
X108324111Y-116969489D01*
X108247690Y-116906716D01*
X108171880Y-116843103D01*
X108166942Y-116840388D01*
X108162593Y-116836816D01*
X108075431Y-116790080D01*
X107988712Y-116742406D01*
X107983344Y-116740703D01*
X107978381Y-116738042D01*
X107883770Y-116709117D01*
X107789473Y-116679204D01*
X107783877Y-116678576D01*
X107778492Y-116676930D01*
X107680118Y-116666938D01*
X107581753Y-116655904D01*
X107570739Y-116655827D01*
X107570538Y-116655807D01*
X107570351Y-116655825D01*
X107566800Y-116655800D01*
X106148800Y-116655800D01*
X106050338Y-116665454D01*
X105951788Y-116674076D01*
X105946379Y-116675648D01*
X105940775Y-116676197D01*
X105846105Y-116704779D01*
X105751065Y-116732391D01*
X105746062Y-116734984D01*
X105740674Y-116736611D01*
X105653327Y-116783054D01*
X105565492Y-116828584D01*
X105561093Y-116832096D01*
X105556118Y-116834741D01*
X105479445Y-116897274D01*
X105402136Y-116958989D01*
X105394294Y-116966722D01*
X105394137Y-116966850D01*
X105394017Y-116966996D01*
X105391489Y-116969488D01*
X104794279Y-117566698D01*
X104742005Y-117538434D01*
X104452375Y-117448778D01*
X104150845Y-117417086D01*
X103848903Y-117444565D01*
X103558049Y-117530168D01*
X103289361Y-117670635D01*
X103053073Y-117860615D01*
X102858186Y-118092872D01*
X102712123Y-118358559D01*
X102620448Y-118647557D01*
X102586651Y-118948858D01*
X102586500Y-118970548D01*
X102586500Y-119789452D01*
X102616086Y-120091195D01*
X102703718Y-120381445D01*
X102846057Y-120649146D01*
X103037682Y-120884101D01*
X103271294Y-121077362D01*
X103537995Y-121221566D01*
X103827625Y-121311222D01*
X104129155Y-121342914D01*
X104313900Y-121326101D01*
X104313900Y-125042855D01*
X103340000Y-125042855D01*
X103220008Y-125052424D01*
X103016489Y-125115450D01*
X102838586Y-125232680D01*
X102700385Y-125394831D01*
X102612831Y-125589064D01*
X102582855Y-125800000D01*
X102582855Y-125929000D01*
X100225619Y-125929000D01*
X100055030Y-125757216D01*
X99985345Y-125710213D01*
X100034520Y-125435228D01*
X99060000Y-124460707D01*
X99045858Y-124474850D01*
X99045151Y-124474143D01*
X99059293Y-124460000D01*
X99060707Y-124460000D01*
X100035228Y-125434520D01*
X100329686Y-125381863D01*
X100485136Y-125116446D01*
X100585819Y-124825802D01*
X100627866Y-124521100D01*
X100609660Y-124214051D01*
X100531901Y-123916453D01*
X100397579Y-123639743D01*
X100329686Y-123538137D01*
X100035228Y-123485480D01*
X99060707Y-124460000D01*
X99059293Y-124460000D01*
X98084772Y-123485480D01*
X97790314Y-123538137D01*
X97634864Y-123803554D01*
X97534181Y-124094198D01*
X97492134Y-124398900D01*
X97507556Y-124659000D01*
X89130812Y-124659000D01*
X89114550Y-124606489D01*
X88997320Y-124428586D01*
X88835169Y-124290385D01*
X88640936Y-124202831D01*
X88430000Y-124172855D01*
X86830000Y-124172855D01*
X86710008Y-124182424D01*
X86506489Y-124245450D01*
X86328586Y-124362680D01*
X86190385Y-124524831D01*
X86157091Y-124598692D01*
X85958706Y-124434573D01*
X85692005Y-124290369D01*
X85402375Y-124200713D01*
X85100845Y-124169021D01*
X84798903Y-124196500D01*
X84508049Y-124282103D01*
X84239361Y-124422570D01*
X84003073Y-124612550D01*
X83964097Y-124659000D01*
X83677736Y-124659000D01*
X83652318Y-124627834D01*
X83418706Y-124434573D01*
X83152005Y-124290369D01*
X82862375Y-124200713D01*
X82560845Y-124169021D01*
X82258903Y-124196500D01*
X81968049Y-124282103D01*
X81699361Y-124422570D01*
X81463073Y-124612550D01*
X81424097Y-124659000D01*
X81137736Y-124659000D01*
X81112318Y-124627834D01*
X80878706Y-124434573D01*
X80612005Y-124290369D01*
X80322375Y-124200713D01*
X80020845Y-124169021D01*
X79718903Y-124196500D01*
X79428049Y-124282103D01*
X79159361Y-124422570D01*
X78923073Y-124612550D01*
X78884097Y-124659000D01*
X78597736Y-124659000D01*
X78572318Y-124627834D01*
X78338706Y-124434573D01*
X78072005Y-124290369D01*
X77782375Y-124200713D01*
X77480845Y-124169021D01*
X77178903Y-124196500D01*
X76888049Y-124282103D01*
X76619361Y-124422570D01*
X76383073Y-124612550D01*
X76344097Y-124659000D01*
X76057736Y-124659000D01*
X76032318Y-124627834D01*
X75798706Y-124434573D01*
X75532005Y-124290369D01*
X75242375Y-124200713D01*
X74940845Y-124169021D01*
X74638903Y-124196500D01*
X74348049Y-124282103D01*
X74079361Y-124422570D01*
X73843073Y-124612550D01*
X73648186Y-124844807D01*
X73502123Y-125110494D01*
X73410448Y-125399492D01*
X73376651Y-125700793D01*
X73376500Y-125722483D01*
X73376500Y-125737517D01*
X73406086Y-126039260D01*
X73493718Y-126329510D01*
X73636057Y-126597211D01*
X73827682Y-126832166D01*
X74061294Y-127025427D01*
X74327995Y-127169631D01*
X74617625Y-127259287D01*
X74919155Y-127290979D01*
X75221097Y-127263500D01*
X75511951Y-127177897D01*
X75780639Y-127037430D01*
X76016927Y-126847450D01*
X76055903Y-126801000D01*
X76342264Y-126801000D01*
X76367682Y-126832166D01*
X76601294Y-127025427D01*
X76867995Y-127169631D01*
X77157625Y-127259287D01*
X77459155Y-127290979D01*
X77761097Y-127263500D01*
X78051951Y-127177897D01*
X78320639Y-127037430D01*
X78556927Y-126847450D01*
X78595903Y-126801000D01*
X78882264Y-126801000D01*
X78907682Y-126832166D01*
X79141294Y-127025427D01*
X79407995Y-127169631D01*
X79697625Y-127259287D01*
X79999155Y-127290979D01*
X80301097Y-127263500D01*
X80591951Y-127177897D01*
X80860639Y-127037430D01*
X81096927Y-126847450D01*
X81135903Y-126801000D01*
X81422264Y-126801000D01*
X81447682Y-126832166D01*
X81681294Y-127025427D01*
X81947995Y-127169631D01*
X82237625Y-127259287D01*
X82539155Y-127290979D01*
X82841097Y-127263500D01*
X83131951Y-127177897D01*
X83400639Y-127037430D01*
X83636927Y-126847450D01*
X83675903Y-126801000D01*
X83962264Y-126801000D01*
X83987682Y-126832166D01*
X84221294Y-127025427D01*
X84487995Y-127169631D01*
X84777625Y-127259287D01*
X85079155Y-127290979D01*
X85381097Y-127263500D01*
X85671951Y-127177897D01*
X85940639Y-127037430D01*
X86153741Y-126866092D01*
X86262680Y-127031414D01*
X86424831Y-127169615D01*
X86619064Y-127257169D01*
X86830000Y-127287145D01*
X88430000Y-127287145D01*
X88549992Y-127277576D01*
X88753511Y-127214550D01*
X88931414Y-127097320D01*
X89069615Y-126935169D01*
X89130094Y-126801000D01*
X97386378Y-126801000D01*
X97506820Y-126921442D01*
X97504458Y-127090623D01*
X97559454Y-127390275D01*
X97671606Y-127673538D01*
X97836641Y-127929622D01*
X98048274Y-128148774D01*
X98298443Y-128322646D01*
X98577619Y-128444615D01*
X98875169Y-128510036D01*
X99179760Y-128516416D01*
X99479788Y-128463513D01*
X99763828Y-128353342D01*
X100021058Y-128190098D01*
X100146123Y-128071000D01*
X102582855Y-128071000D01*
X102582855Y-128200000D01*
X102592424Y-128319992D01*
X102655450Y-128523511D01*
X102772680Y-128701414D01*
X102934831Y-128839615D01*
X103069000Y-128900094D01*
X103069000Y-131817809D01*
X103053073Y-131830615D01*
X102858186Y-132062872D01*
X102712123Y-132328559D01*
X102620448Y-132617557D01*
X102586651Y-132918858D01*
X102586500Y-132940548D01*
X102586500Y-133388877D01*
X101156378Y-134819000D01*
X100185897Y-134819000D01*
X100055030Y-134687216D01*
X99985345Y-134640213D01*
X100034520Y-134365228D01*
X99060000Y-133390707D01*
X98085480Y-134365228D01*
X98134443Y-134639031D01*
X98081861Y-134673440D01*
X97864192Y-134886598D01*
X97692070Y-135137974D01*
X97572053Y-135417995D01*
X97508711Y-135715995D01*
X97504458Y-136020623D01*
X97559454Y-136320275D01*
X97671606Y-136603538D01*
X97836641Y-136859622D01*
X98048274Y-137078774D01*
X98298443Y-137252646D01*
X98577619Y-137374615D01*
X98875169Y-137440036D01*
X99179760Y-137446416D01*
X99479788Y-137393513D01*
X99763828Y-137283342D01*
X100021058Y-137120098D01*
X100188128Y-136961000D01*
X100529000Y-136961000D01*
X100529000Y-144780000D01*
X100538654Y-144878458D01*
X100547276Y-144977012D01*
X100548848Y-144982421D01*
X100549397Y-144988025D01*
X100577979Y-145082695D01*
X100605591Y-145177735D01*
X100608184Y-145182738D01*
X100609811Y-145188126D01*
X100656243Y-145275452D01*
X100701784Y-145363309D01*
X100705297Y-145367710D01*
X100707941Y-145372682D01*
X100770456Y-145449333D01*
X100832189Y-145526664D01*
X100839918Y-145534501D01*
X100840050Y-145534663D01*
X100840200Y-145534787D01*
X100842689Y-145537311D01*
X102586500Y-147281123D01*
X102586500Y-147729452D01*
X102616086Y-148031195D01*
X102703718Y-148321445D01*
X102846057Y-148589146D01*
X103037682Y-148824101D01*
X103271294Y-149017362D01*
X103537995Y-149161566D01*
X103827625Y-149251222D01*
X104129155Y-149282914D01*
X104431097Y-149255435D01*
X104721951Y-149169832D01*
X104990639Y-149029365D01*
X105226927Y-148839385D01*
X105409625Y-148621654D01*
X105576206Y-148824501D01*
X105812893Y-149018618D01*
X106082902Y-149162830D01*
X106375857Y-149251594D01*
X106435234Y-149262197D01*
X106679500Y-149091125D01*
X106679500Y-147320500D01*
X106680500Y-147320500D01*
X106680500Y-149091125D01*
X106924766Y-149262197D01*
X106984143Y-149251594D01*
X107277098Y-149162830D01*
X107547107Y-149018618D01*
X107783794Y-148824501D01*
X107950000Y-148622110D01*
X108116206Y-148824501D01*
X108352893Y-149018618D01*
X108622902Y-149162830D01*
X108915857Y-149251594D01*
X108975234Y-149262197D01*
X109219500Y-149091125D01*
X109219500Y-147320500D01*
X106680500Y-147320500D01*
X106679500Y-147320500D01*
X106659500Y-147320500D01*
X106659500Y-147319500D01*
X106679500Y-147319500D01*
X106679500Y-145548875D01*
X106435234Y-145377803D01*
X106375857Y-145388406D01*
X106082902Y-145477170D01*
X105812893Y-145621382D01*
X105576206Y-145815499D01*
X105408524Y-146019687D01*
X105242318Y-145815899D01*
X105008706Y-145622638D01*
X104742005Y-145478434D01*
X104452375Y-145388778D01*
X104150845Y-145357086D01*
X103848903Y-145384565D01*
X103748684Y-145414061D01*
X102671000Y-144336378D01*
X102671000Y-142517109D01*
X102772680Y-142671414D01*
X102934831Y-142809615D01*
X103129064Y-142897169D01*
X103340000Y-142927145D01*
X104582523Y-142927145D01*
X105984938Y-144329561D01*
X106061384Y-144392355D01*
X106137170Y-144455947D01*
X106142108Y-144458662D01*
X106146457Y-144462234D01*
X106233619Y-144508970D01*
X106320338Y-144556644D01*
X106325706Y-144558347D01*
X106330669Y-144561008D01*
X106425280Y-144589933D01*
X106519577Y-144619846D01*
X106525173Y-144620474D01*
X106530558Y-144622120D01*
X106628936Y-144632113D01*
X106727297Y-144643146D01*
X106738310Y-144643223D01*
X106738511Y-144643243D01*
X106738698Y-144643225D01*
X106742250Y-144643250D01*
X107219228Y-144643250D01*
X108267442Y-145691464D01*
X108116206Y-145815499D01*
X107950000Y-146017890D01*
X107783794Y-145815499D01*
X107547107Y-145621382D01*
X107277098Y-145477170D01*
X106984143Y-145388406D01*
X106924766Y-145377803D01*
X106680500Y-145548875D01*
X106680500Y-147319500D01*
X109219500Y-147319500D01*
X109219500Y-147299500D01*
X109220500Y-147299500D01*
X109220500Y-147319500D01*
X109240500Y-147319500D01*
X109240500Y-147320500D01*
X109220500Y-147320500D01*
X109220500Y-149091125D01*
X109464766Y-149262197D01*
X109524143Y-149251594D01*
X109628385Y-149220009D01*
X109660456Y-149259333D01*
X109722189Y-149336664D01*
X109729918Y-149344501D01*
X109730050Y-149344663D01*
X109730200Y-149344787D01*
X109732689Y-149347311D01*
X113558800Y-153173422D01*
X113449361Y-153230635D01*
X113213073Y-153420615D01*
X113028881Y-153640126D01*
X112862318Y-153435899D01*
X112628706Y-153242638D01*
X112362005Y-153098434D01*
X112072375Y-153008778D01*
X111770845Y-152977086D01*
X111468903Y-153004565D01*
X111368684Y-153034061D01*
X110512183Y-152177561D01*
X110435762Y-152114788D01*
X110359952Y-152051175D01*
X110355014Y-152048460D01*
X110350665Y-152044888D01*
X110263503Y-151998152D01*
X110176784Y-151950478D01*
X110171416Y-151948775D01*
X110166453Y-151946114D01*
X110071842Y-151917189D01*
X109977545Y-151887276D01*
X109971949Y-151886648D01*
X109966564Y-151885002D01*
X109868190Y-151875010D01*
X109769825Y-151863976D01*
X109758811Y-151863899D01*
X109758610Y-151863879D01*
X109758423Y-151863897D01*
X109754872Y-151863872D01*
X108685128Y-151863872D01*
X108586670Y-151873526D01*
X108488116Y-151882148D01*
X108482707Y-151883720D01*
X108477103Y-151884269D01*
X108382387Y-151912865D01*
X108287393Y-151940464D01*
X108282395Y-151943055D01*
X108277002Y-151944683D01*
X108189640Y-151991134D01*
X108101819Y-152036656D01*
X108097418Y-152040170D01*
X108092446Y-152042813D01*
X108015819Y-152105308D01*
X107938463Y-152167061D01*
X107930621Y-152174795D01*
X107930465Y-152174922D01*
X107930346Y-152175066D01*
X107927816Y-152177561D01*
X107071963Y-153033415D01*
X106992375Y-153008778D01*
X106690845Y-152977086D01*
X106388903Y-153004565D01*
X106098049Y-153090168D01*
X105829361Y-153230635D01*
X105615426Y-153402643D01*
X105507320Y-153238586D01*
X105345169Y-153100385D01*
X105150936Y-153012831D01*
X104940000Y-152982855D01*
X103340000Y-152982855D01*
X103220008Y-152992424D01*
X103016489Y-153055450D01*
X102838586Y-153172680D01*
X102700385Y-153334831D01*
X102612831Y-153529064D01*
X102582855Y-153740000D01*
X102582855Y-156140000D01*
X102592424Y-156259992D01*
X102636302Y-156401680D01*
X98292100Y-152057478D01*
X98292100Y-151178237D01*
X98298443Y-151182646D01*
X98577619Y-151304615D01*
X98875169Y-151370036D01*
X99179760Y-151376416D01*
X99479788Y-151323513D01*
X99763828Y-151213342D01*
X100021058Y-151050098D01*
X100241682Y-150840001D01*
X100417296Y-150591052D01*
X100541212Y-150312734D01*
X100608708Y-150015647D01*
X100613567Y-149667671D01*
X100554392Y-149368816D01*
X100438296Y-149087147D01*
X100269702Y-148833392D01*
X100055030Y-148617216D01*
X99985345Y-148570213D01*
X100034520Y-148295228D01*
X99060000Y-147320707D01*
X98085480Y-148295228D01*
X98134443Y-148569031D01*
X98081861Y-148603440D01*
X98032273Y-148652000D01*
X96871000Y-148652000D01*
X96772542Y-148661654D01*
X96673988Y-148670276D01*
X96668579Y-148671848D01*
X96662975Y-148672397D01*
X96568259Y-148700993D01*
X96473265Y-148728592D01*
X96468267Y-148731183D01*
X96462874Y-148732811D01*
X96375512Y-148779262D01*
X96287691Y-148824784D01*
X96283290Y-148828298D01*
X96278318Y-148830941D01*
X96201691Y-148893436D01*
X96124335Y-148955189D01*
X96116493Y-148962923D01*
X96116337Y-148963050D01*
X96116218Y-148963194D01*
X96113688Y-148965689D01*
X95643489Y-149435889D01*
X95580716Y-149512310D01*
X95517103Y-149588120D01*
X95514388Y-149593058D01*
X95510816Y-149597407D01*
X95464080Y-149684569D01*
X95416406Y-149771288D01*
X95414703Y-149776656D01*
X95412042Y-149781619D01*
X95383117Y-149876230D01*
X95353204Y-149970527D01*
X95352576Y-149976123D01*
X95350930Y-149981508D01*
X95340938Y-150079882D01*
X95329904Y-150178247D01*
X95329827Y-150189261D01*
X95329807Y-150189462D01*
X95329825Y-150189649D01*
X95329800Y-150193200D01*
X95329800Y-154220800D01*
X95339454Y-154319258D01*
X95348076Y-154417812D01*
X95349648Y-154423221D01*
X95350197Y-154428825D01*
X95378779Y-154523495D01*
X95406391Y-154618535D01*
X95408984Y-154623538D01*
X95410611Y-154628926D01*
X95457043Y-154716252D01*
X95502584Y-154804109D01*
X95506097Y-154808510D01*
X95508741Y-154813482D01*
X95571256Y-154890133D01*
X95632989Y-154967464D01*
X95640718Y-154975301D01*
X95640850Y-154975463D01*
X95641000Y-154975587D01*
X95643489Y-154978111D01*
X102023665Y-161358287D01*
X101902985Y-161400097D01*
X101605021Y-161574623D01*
X101368020Y-161785107D01*
X101344232Y-161755940D01*
X101080545Y-161537799D01*
X100779509Y-161375029D01*
X100452590Y-161273831D01*
X100112242Y-161238059D01*
X99771427Y-161269075D01*
X99443127Y-161365699D01*
X99139848Y-161524250D01*
X98873140Y-161738688D01*
X98831061Y-161788836D01*
X98804232Y-161755940D01*
X98540545Y-161537799D01*
X98239509Y-161375029D01*
X97912590Y-161273831D01*
X97572242Y-161238059D01*
X97231427Y-161269075D01*
X96903127Y-161365699D01*
X96599848Y-161524250D01*
X96333140Y-161738688D01*
X96291061Y-161788836D01*
X96264232Y-161755940D01*
X96000545Y-161537799D01*
X95699509Y-161375029D01*
X95372590Y-161273831D01*
X95032242Y-161238059D01*
X94794333Y-161259710D01*
X92511000Y-158976378D01*
X92511000Y-156850145D01*
X92709500Y-156711125D01*
X92709500Y-154940500D01*
X92689500Y-154940500D01*
X92689500Y-154939500D01*
X92709500Y-154939500D01*
X92709500Y-153168875D01*
X92465234Y-152997803D01*
X92448120Y-153000859D01*
X92434409Y-152953665D01*
X92431816Y-152948662D01*
X92430189Y-152943274D01*
X92383746Y-152855927D01*
X92338216Y-152768092D01*
X92334704Y-152763693D01*
X92332059Y-152758718D01*
X92295786Y-152714243D01*
X92323697Y-152680980D01*
X92326412Y-152676042D01*
X92329984Y-152671693D01*
X92376720Y-152584531D01*
X92424394Y-152497812D01*
X92426097Y-152492444D01*
X92428758Y-152487481D01*
X92457683Y-152392870D01*
X92487596Y-152298573D01*
X92488224Y-152292977D01*
X92489870Y-152287592D01*
X92499863Y-152189214D01*
X92510896Y-152090853D01*
X92510973Y-152079840D01*
X92510993Y-152079639D01*
X92510975Y-152079452D01*
X92511000Y-152075900D01*
X92511000Y-149263138D01*
X92699155Y-149282914D01*
X92885300Y-149265973D01*
X92885300Y-153046454D01*
X92710500Y-153168875D01*
X92710500Y-154939500D01*
X92730500Y-154939500D01*
X92730500Y-154940500D01*
X92710500Y-154940500D01*
X92710500Y-156711125D01*
X92954766Y-156882197D01*
X93014143Y-156871594D01*
X93307098Y-156782830D01*
X93577107Y-156638618D01*
X93813794Y-156444501D01*
X94008062Y-156207939D01*
X94152447Y-155938022D01*
X94241399Y-155645124D01*
X94271500Y-155340500D01*
X94271500Y-155196026D01*
X94357504Y-155170714D01*
X94542740Y-155073875D01*
X94705639Y-154942900D01*
X94839997Y-154782780D01*
X94940694Y-154599612D01*
X95003896Y-154400373D01*
X95027196Y-154192653D01*
X95027300Y-154177700D01*
X95027300Y-148566300D01*
X95017646Y-148467842D01*
X95009024Y-148369288D01*
X95007452Y-148363879D01*
X95006903Y-148358275D01*
X94978307Y-148263559D01*
X94950708Y-148168565D01*
X94948117Y-148163567D01*
X94946489Y-148158174D01*
X94900038Y-148070812D01*
X94854516Y-147982991D01*
X94851002Y-147978590D01*
X94848359Y-147973618D01*
X94785864Y-147896991D01*
X94724111Y-147819635D01*
X94716377Y-147811793D01*
X94716250Y-147811637D01*
X94716106Y-147811518D01*
X94713611Y-147808988D01*
X94263500Y-147358877D01*
X94263500Y-147258900D01*
X97492134Y-147258900D01*
X97510340Y-147565949D01*
X97588099Y-147863547D01*
X97722421Y-148140257D01*
X97790314Y-148241863D01*
X98084772Y-148294520D01*
X99059293Y-147320000D01*
X99060707Y-147320000D01*
X100035228Y-148294520D01*
X100329686Y-148241863D01*
X100485136Y-147976446D01*
X100585819Y-147685802D01*
X100627866Y-147381100D01*
X100609660Y-147074051D01*
X100531901Y-146776453D01*
X100397579Y-146499743D01*
X100329686Y-146398137D01*
X100035228Y-146345480D01*
X99060707Y-147320000D01*
X99059293Y-147320000D01*
X98084772Y-146345480D01*
X97790314Y-146398137D01*
X97634864Y-146663554D01*
X97534181Y-146954198D01*
X97492134Y-147258900D01*
X94263500Y-147258900D01*
X94263500Y-146910548D01*
X94233914Y-146608805D01*
X94154198Y-146344772D01*
X98085480Y-146344772D01*
X99060000Y-147319293D01*
X100034520Y-146344772D01*
X99981863Y-146050314D01*
X99716446Y-145894864D01*
X99425802Y-145794181D01*
X99121100Y-145752134D01*
X98814051Y-145770340D01*
X98516453Y-145848099D01*
X98239743Y-145982421D01*
X98138137Y-146050314D01*
X98085480Y-146344772D01*
X94154198Y-146344772D01*
X94146282Y-146318555D01*
X94003943Y-146050854D01*
X93812318Y-145815899D01*
X93578706Y-145622638D01*
X93312005Y-145478434D01*
X93022375Y-145388778D01*
X92720845Y-145357086D01*
X92511000Y-145376183D01*
X92511000Y-142240000D01*
X92501346Y-142141542D01*
X92492724Y-142042988D01*
X92491152Y-142037579D01*
X92490603Y-142031975D01*
X92462007Y-141937259D01*
X92434408Y-141842265D01*
X92431817Y-141837267D01*
X92430189Y-141831874D01*
X92383738Y-141744512D01*
X92338216Y-141656691D01*
X92334702Y-141652290D01*
X92332059Y-141647318D01*
X92269564Y-141570691D01*
X92207811Y-141493335D01*
X92200077Y-141485493D01*
X92199950Y-141485337D01*
X92199806Y-141485218D01*
X92197311Y-141482688D01*
X91727602Y-141012979D01*
X91730979Y-140980845D01*
X91703500Y-140678903D01*
X91617897Y-140388049D01*
X91477430Y-140119361D01*
X91287450Y-139883073D01*
X91241000Y-139844097D01*
X91241000Y-135890000D01*
X91231342Y-135791497D01*
X91222724Y-135692988D01*
X91221152Y-135687579D01*
X91220603Y-135681975D01*
X91192007Y-135587259D01*
X91164408Y-135492265D01*
X91161817Y-135487267D01*
X91160189Y-135481874D01*
X91113738Y-135394512D01*
X91068216Y-135306691D01*
X91064702Y-135302290D01*
X91062059Y-135297318D01*
X90999564Y-135220691D01*
X90937811Y-135143335D01*
X90930077Y-135135493D01*
X90929950Y-135135337D01*
X90929806Y-135135218D01*
X90927311Y-135132688D01*
X89182389Y-133387767D01*
X89183349Y-133379207D01*
X89183500Y-133357517D01*
X89183500Y-133342483D01*
X89182169Y-133328900D01*
X97492134Y-133328900D01*
X97510340Y-133635949D01*
X97588099Y-133933547D01*
X97722421Y-134210257D01*
X97790314Y-134311863D01*
X98084772Y-134364520D01*
X99059293Y-133390000D01*
X99060707Y-133390000D01*
X100035228Y-134364520D01*
X100329686Y-134311863D01*
X100485136Y-134046446D01*
X100585819Y-133755802D01*
X100627866Y-133451100D01*
X100609660Y-133144051D01*
X100531901Y-132846453D01*
X100397579Y-132569743D01*
X100329686Y-132468137D01*
X100035228Y-132415480D01*
X99060707Y-133390000D01*
X99059293Y-133390000D01*
X98084772Y-132415480D01*
X97790314Y-132468137D01*
X97634864Y-132733554D01*
X97534181Y-133024198D01*
X97492134Y-133328900D01*
X89182169Y-133328900D01*
X89153914Y-133040740D01*
X89066282Y-132750490D01*
X88923943Y-132482789D01*
X88868470Y-132414772D01*
X98085480Y-132414772D01*
X99060000Y-133389293D01*
X100034520Y-132414772D01*
X99981863Y-132120314D01*
X99716446Y-131964864D01*
X99425802Y-131864181D01*
X99121100Y-131822134D01*
X98814051Y-131840340D01*
X98516453Y-131918099D01*
X98239743Y-132052421D01*
X98138137Y-132120314D01*
X98085480Y-132414772D01*
X88868470Y-132414772D01*
X88732318Y-132247834D01*
X88498706Y-132054573D01*
X88232005Y-131910369D01*
X87942375Y-131820713D01*
X87640845Y-131789021D01*
X87338903Y-131816500D01*
X87048049Y-131902103D01*
X86779361Y-132042570D01*
X86543073Y-132232550D01*
X86358881Y-132452061D01*
X86192318Y-132247834D01*
X85958706Y-132054573D01*
X85692005Y-131910369D01*
X85402375Y-131820713D01*
X85100845Y-131789021D01*
X85048415Y-131793793D01*
X83719266Y-130464644D01*
X83642845Y-130401871D01*
X83567035Y-130338258D01*
X83562097Y-130335543D01*
X83557748Y-130331971D01*
X83470586Y-130285235D01*
X83383867Y-130237561D01*
X83378499Y-130235858D01*
X83373536Y-130233197D01*
X83278925Y-130204272D01*
X83184628Y-130174359D01*
X83179032Y-130173731D01*
X83173647Y-130172085D01*
X83075273Y-130162093D01*
X82976908Y-130151059D01*
X82965894Y-130150982D01*
X82965693Y-130150962D01*
X82965506Y-130150980D01*
X82961955Y-130150955D01*
X73788386Y-130150955D01*
X73689883Y-130160613D01*
X73591374Y-130169231D01*
X73585965Y-130170803D01*
X73580361Y-130171352D01*
X73485645Y-130199948D01*
X73390651Y-130227547D01*
X73385653Y-130230138D01*
X73380260Y-130231766D01*
X73292859Y-130278238D01*
X73205077Y-130323740D01*
X73200679Y-130327251D01*
X73195704Y-130329896D01*
X73119050Y-130392414D01*
X73041721Y-130454144D01*
X73033879Y-130461878D01*
X73033723Y-130462005D01*
X73033604Y-130462149D01*
X73031074Y-130464644D01*
X72407398Y-131088321D01*
X72344625Y-131164742D01*
X72281012Y-131240552D01*
X72278297Y-131245490D01*
X72274725Y-131249839D01*
X72227989Y-131337001D01*
X72180315Y-131423720D01*
X72178612Y-131429088D01*
X72175951Y-131434051D01*
X72147026Y-131528662D01*
X72117113Y-131622959D01*
X72116485Y-131628555D01*
X72114839Y-131633940D01*
X72104847Y-131732314D01*
X72093813Y-131830679D01*
X72093736Y-131841693D01*
X72093716Y-131841894D01*
X72093734Y-131842081D01*
X72093709Y-131845632D01*
X72093709Y-132829806D01*
X61838504Y-143085012D01*
X61775731Y-143161433D01*
X61712118Y-143237243D01*
X61709403Y-143242181D01*
X61705831Y-143246530D01*
X61659095Y-143333692D01*
X61611421Y-143420411D01*
X61609718Y-143425779D01*
X61607057Y-143430742D01*
X61578132Y-143525353D01*
X61548219Y-143619650D01*
X61547591Y-143625246D01*
X61545945Y-143630631D01*
X61535953Y-143729005D01*
X61524919Y-143827370D01*
X61524842Y-143838384D01*
X61524822Y-143838585D01*
X61524840Y-143838772D01*
X61524815Y-143842323D01*
X61524815Y-155933749D01*
X61534469Y-156032207D01*
X61543091Y-156130761D01*
X61544663Y-156136170D01*
X61545212Y-156141774D01*
X61573794Y-156236444D01*
X61601406Y-156331484D01*
X61603999Y-156336487D01*
X61605626Y-156341875D01*
X61652058Y-156429201D01*
X61697599Y-156517058D01*
X61701112Y-156521459D01*
X61703756Y-156526431D01*
X61766271Y-156603082D01*
X61828004Y-156680413D01*
X61835733Y-156688250D01*
X61835865Y-156688412D01*
X61836015Y-156688536D01*
X61838504Y-156691060D01*
X62921535Y-157774091D01*
X62997956Y-157836864D01*
X63073766Y-157900477D01*
X63078704Y-157903192D01*
X63083053Y-157906764D01*
X63170215Y-157953500D01*
X63256934Y-158001174D01*
X63262302Y-158002877D01*
X63267265Y-158005538D01*
X63361876Y-158034463D01*
X63456173Y-158064376D01*
X63461769Y-158065004D01*
X63467154Y-158066650D01*
X63565532Y-158076643D01*
X63663893Y-158087676D01*
X63674906Y-158087753D01*
X63675107Y-158087773D01*
X63675294Y-158087755D01*
X63678846Y-158087780D01*
X66503220Y-158087780D01*
X66601678Y-158078126D01*
X66700232Y-158069504D01*
X66705641Y-158067932D01*
X66711245Y-158067383D01*
X66805915Y-158038801D01*
X66900955Y-158011189D01*
X66905958Y-158008596D01*
X66911346Y-158006969D01*
X66998672Y-157960537D01*
X67086529Y-157914996D01*
X67090930Y-157911483D01*
X67095902Y-157908839D01*
X67172553Y-157846324D01*
X67249884Y-157784591D01*
X67257721Y-157776862D01*
X67257883Y-157776730D01*
X67258007Y-157776580D01*
X67260531Y-157774091D01*
X68067311Y-156967312D01*
X68130105Y-156890866D01*
X68193697Y-156815080D01*
X68196412Y-156810142D01*
X68199984Y-156805793D01*
X68246720Y-156718631D01*
X68294394Y-156631912D01*
X68296097Y-156626544D01*
X68298758Y-156621581D01*
X68327683Y-156526970D01*
X68356738Y-156435378D01*
X68365450Y-156463511D01*
X68482680Y-156641414D01*
X68644831Y-156779615D01*
X68839064Y-156867169D01*
X69050000Y-156897145D01*
X70650000Y-156897145D01*
X70769992Y-156887576D01*
X70973511Y-156824550D01*
X71151414Y-156707320D01*
X71289615Y-156545169D01*
X71319000Y-156479980D01*
X71319000Y-157480000D01*
X71328654Y-157578458D01*
X71337276Y-157677012D01*
X71338848Y-157682421D01*
X71339397Y-157688025D01*
X71367979Y-157782695D01*
X71395591Y-157877735D01*
X71398184Y-157882738D01*
X71399811Y-157888126D01*
X71446243Y-157975452D01*
X71491784Y-158063309D01*
X71495297Y-158067710D01*
X71497941Y-158072682D01*
X71560456Y-158149333D01*
X71622189Y-158226664D01*
X71629918Y-158234501D01*
X71630050Y-158234663D01*
X71630200Y-158234787D01*
X71632689Y-158237311D01*
X72158188Y-158762810D01*
X72234612Y-158825586D01*
X72310419Y-158889196D01*
X72315356Y-158891910D01*
X72319707Y-158895484D01*
X72406886Y-158942229D01*
X72493587Y-158989893D01*
X72498955Y-158991596D01*
X72503918Y-158994257D01*
X72598558Y-159023192D01*
X72692826Y-159053095D01*
X72698419Y-159053722D01*
X72703808Y-159055370D01*
X72802225Y-159065366D01*
X72900546Y-159076395D01*
X72911560Y-159076472D01*
X72911761Y-159076492D01*
X72911948Y-159076474D01*
X72915499Y-159076499D01*
X76881877Y-159076499D01*
X79160174Y-161354796D01*
X79123127Y-161365699D01*
X78819848Y-161524250D01*
X78553140Y-161738688D01*
X78511061Y-161788836D01*
X78484232Y-161755940D01*
X78220545Y-161537799D01*
X77919509Y-161375029D01*
X77592590Y-161273831D01*
X77252242Y-161238059D01*
X76911427Y-161269075D01*
X76583127Y-161365699D01*
X76279848Y-161524250D01*
X76013140Y-161738688D01*
X75971061Y-161788836D01*
X75944232Y-161755940D01*
X75680545Y-161537799D01*
X75379509Y-161375029D01*
X75052590Y-161273831D01*
X74712242Y-161238059D01*
X74371427Y-161269075D01*
X74043127Y-161365699D01*
X73739848Y-161524250D01*
X73473140Y-161738688D01*
X73431061Y-161788836D01*
X73404232Y-161755940D01*
X73140545Y-161537799D01*
X72839509Y-161375029D01*
X72512590Y-161273831D01*
X72172242Y-161238059D01*
X71831427Y-161269075D01*
X71503127Y-161365699D01*
X71199848Y-161524250D01*
X70933140Y-161738688D01*
X70891061Y-161788836D01*
X70864232Y-161755940D01*
X70600545Y-161537799D01*
X70299509Y-161375029D01*
X69972590Y-161273831D01*
X69632242Y-161238059D01*
X69291427Y-161269075D01*
X68963127Y-161365699D01*
X68659848Y-161524250D01*
X68393140Y-161738688D01*
X68351061Y-161788836D01*
X68324232Y-161755940D01*
X68060545Y-161537799D01*
X67759509Y-161375029D01*
X67432590Y-161273831D01*
X67092242Y-161238059D01*
X66751427Y-161269075D01*
X66423127Y-161365699D01*
X66119848Y-161524250D01*
X65853140Y-161738688D01*
X65811061Y-161788836D01*
X65784232Y-161755940D01*
X65520545Y-161537799D01*
X65219509Y-161375029D01*
X64892590Y-161273831D01*
X64552242Y-161238059D01*
X64211427Y-161269075D01*
X63883127Y-161365699D01*
X63583108Y-161522546D01*
X63567320Y-161498586D01*
X63405169Y-161360385D01*
X63210936Y-161272831D01*
X63000000Y-161242855D01*
X61328500Y-161242855D01*
X61328500Y-129843176D01*
X67686904Y-123484772D01*
X98085480Y-123484772D01*
X99060000Y-124459293D01*
X100034520Y-123484772D01*
X99981863Y-123190314D01*
X99716446Y-123034864D01*
X99425802Y-122934181D01*
X99121100Y-122892134D01*
X98814051Y-122910340D01*
X98516453Y-122988099D01*
X98239743Y-123122421D01*
X98138137Y-123190314D01*
X98085480Y-123484772D01*
X67686904Y-123484772D01*
X75843176Y-115328500D01*
X154959478Y-115328500D01*
X155906596Y-115421366D01*
G36*
X116527625Y-142901222D02*
X116829155Y-142932914D01*
X117054077Y-142912444D01*
X117057276Y-142949012D01*
X117058848Y-142954421D01*
X117059397Y-142960025D01*
X117087979Y-143054695D01*
X117115591Y-143149735D01*
X117118184Y-143154738D01*
X117119811Y-143160126D01*
X117166243Y-143247452D01*
X117211784Y-143335309D01*
X117215297Y-143339710D01*
X117217941Y-143344682D01*
X117280456Y-143421333D01*
X117342189Y-143498664D01*
X117349918Y-143506501D01*
X117350050Y-143506663D01*
X117350200Y-143506787D01*
X117352689Y-143509311D01*
X119216345Y-145372967D01*
X119088903Y-145384565D01*
X118798049Y-145470168D01*
X118529361Y-145610635D01*
X118293073Y-145800615D01*
X118110375Y-146018346D01*
X117943794Y-145815499D01*
X117707107Y-145621382D01*
X117437098Y-145477170D01*
X117144143Y-145388406D01*
X117084766Y-145377803D01*
X116840500Y-145548875D01*
X116840500Y-147319500D01*
X116860500Y-147319500D01*
X116860500Y-147320500D01*
X116840500Y-147320500D01*
X116840500Y-149091125D01*
X117084766Y-149262197D01*
X117144143Y-149251594D01*
X117437098Y-149162830D01*
X117707107Y-149018618D01*
X117943794Y-148824501D01*
X118111476Y-148620313D01*
X118277682Y-148824101D01*
X118511294Y-149017362D01*
X118777995Y-149161566D01*
X119067625Y-149251222D01*
X119369155Y-149282914D01*
X119671097Y-149255435D01*
X119961951Y-149169832D01*
X120230639Y-149029365D01*
X120466927Y-148839385D01*
X120661814Y-148607128D01*
X120807877Y-148341441D01*
X120899552Y-148052443D01*
X120933349Y-147751142D01*
X120933500Y-147729452D01*
X120933500Y-147090122D01*
X125873900Y-152030523D01*
X125873900Y-161280428D01*
X125852590Y-161273831D01*
X125512242Y-161238059D01*
X125274333Y-161259710D01*
X120470240Y-156455618D01*
X120483794Y-156444501D01*
X120678062Y-156207939D01*
X120822447Y-155938022D01*
X120911399Y-155645124D01*
X120941500Y-155340500D01*
X120941500Y-154940500D01*
X119380500Y-154940500D01*
X119380500Y-154960500D01*
X119379500Y-154960500D01*
X119379500Y-154940500D01*
X119359500Y-154940500D01*
X119359500Y-154939500D01*
X119379500Y-154939500D01*
X119379500Y-153168875D01*
X119380500Y-153168875D01*
X119380500Y-154939500D01*
X120941500Y-154939500D01*
X120941500Y-154539500D01*
X120911399Y-154234876D01*
X120822447Y-153941978D01*
X120678062Y-153672061D01*
X120483794Y-153435499D01*
X120247107Y-153241382D01*
X119977098Y-153097170D01*
X119684143Y-153008406D01*
X119624766Y-152997803D01*
X119380500Y-153168875D01*
X119379500Y-153168875D01*
X119135234Y-152997803D01*
X119075857Y-153008406D01*
X118782902Y-153097170D01*
X118512893Y-153241382D01*
X118276206Y-153435499D01*
X118108524Y-153639687D01*
X117942318Y-153435899D01*
X117708706Y-153242638D01*
X117442005Y-153098434D01*
X117152375Y-153008778D01*
X116850845Y-152977086D01*
X116548903Y-153004565D01*
X116448683Y-153034061D01*
X112501200Y-149086578D01*
X112610639Y-149029365D01*
X112846927Y-148839385D01*
X113029625Y-148621654D01*
X113196206Y-148824501D01*
X113432893Y-149018618D01*
X113702902Y-149162830D01*
X113995857Y-149251594D01*
X114055234Y-149262197D01*
X114299500Y-149091125D01*
X114299500Y-147320500D01*
X114300500Y-147320500D01*
X114300500Y-149091125D01*
X114544766Y-149262197D01*
X114604143Y-149251594D01*
X114897098Y-149162830D01*
X115167107Y-149018618D01*
X115403794Y-148824501D01*
X115570000Y-148622110D01*
X115736206Y-148824501D01*
X115972893Y-149018618D01*
X116242902Y-149162830D01*
X116535857Y-149251594D01*
X116595234Y-149262197D01*
X116839500Y-149091125D01*
X116839500Y-147320500D01*
X114300500Y-147320500D01*
X114299500Y-147320500D01*
X114279500Y-147320500D01*
X114279500Y-147319500D01*
X114299500Y-147319500D01*
X114299500Y-145548875D01*
X114300500Y-145548875D01*
X114300500Y-147319500D01*
X116839500Y-147319500D01*
X116839500Y-145548875D01*
X116595234Y-145377803D01*
X116535857Y-145388406D01*
X116242902Y-145477170D01*
X115972893Y-145621382D01*
X115736206Y-145815499D01*
X115570000Y-146017890D01*
X115403794Y-145815499D01*
X115167107Y-145621382D01*
X114897098Y-145477170D01*
X114604143Y-145388406D01*
X114544766Y-145377803D01*
X114300500Y-145548875D01*
X114299500Y-145548875D01*
X114055234Y-145377803D01*
X113995857Y-145388406D01*
X113702902Y-145477170D01*
X113432893Y-145621382D01*
X113196206Y-145815499D01*
X113028524Y-146019687D01*
X112862318Y-145815899D01*
X112628706Y-145622638D01*
X112362005Y-145478434D01*
X112072375Y-145388778D01*
X111770845Y-145357086D01*
X111468903Y-145384565D01*
X111178049Y-145470168D01*
X111110634Y-145505412D01*
X109292722Y-143687500D01*
X115193500Y-143687500D01*
X115291958Y-143677846D01*
X115390512Y-143669224D01*
X115395921Y-143667652D01*
X115401525Y-143667103D01*
X115496195Y-143638521D01*
X115591235Y-143610909D01*
X115596238Y-143608316D01*
X115601626Y-143606689D01*
X115688952Y-143560257D01*
X115776809Y-143514716D01*
X115781210Y-143511203D01*
X115786182Y-143508559D01*
X115862833Y-143446044D01*
X115940164Y-143384311D01*
X115948001Y-143376582D01*
X115948163Y-143376450D01*
X115948287Y-143376300D01*
X115950811Y-143373811D01*
X116448037Y-142876585D01*
X116527625Y-142901222D01*
X116527625Y-142901222D01*
G37*
X116527625Y-142901222D02*
X116829155Y-142932914D01*
X117054077Y-142912444D01*
X117057276Y-142949012D01*
X117058848Y-142954421D01*
X117059397Y-142960025D01*
X117087979Y-143054695D01*
X117115591Y-143149735D01*
X117118184Y-143154738D01*
X117119811Y-143160126D01*
X117166243Y-143247452D01*
X117211784Y-143335309D01*
X117215297Y-143339710D01*
X117217941Y-143344682D01*
X117280456Y-143421333D01*
X117342189Y-143498664D01*
X117349918Y-143506501D01*
X117350050Y-143506663D01*
X117350200Y-143506787D01*
X117352689Y-143509311D01*
X119216345Y-145372967D01*
X119088903Y-145384565D01*
X118798049Y-145470168D01*
X118529361Y-145610635D01*
X118293073Y-145800615D01*
X118110375Y-146018346D01*
X117943794Y-145815499D01*
X117707107Y-145621382D01*
X117437098Y-145477170D01*
X117144143Y-145388406D01*
X117084766Y-145377803D01*
X116840500Y-145548875D01*
X116840500Y-147319500D01*
X116860500Y-147319500D01*
X116860500Y-147320500D01*
X116840500Y-147320500D01*
X116840500Y-149091125D01*
X117084766Y-149262197D01*
X117144143Y-149251594D01*
X117437098Y-149162830D01*
X117707107Y-149018618D01*
X117943794Y-148824501D01*
X118111476Y-148620313D01*
X118277682Y-148824101D01*
X118511294Y-149017362D01*
X118777995Y-149161566D01*
X119067625Y-149251222D01*
X119369155Y-149282914D01*
X119671097Y-149255435D01*
X119961951Y-149169832D01*
X120230639Y-149029365D01*
X120466927Y-148839385D01*
X120661814Y-148607128D01*
X120807877Y-148341441D01*
X120899552Y-148052443D01*
X120933349Y-147751142D01*
X120933500Y-147729452D01*
X120933500Y-147090122D01*
X125873900Y-152030523D01*
X125873900Y-161280428D01*
X125852590Y-161273831D01*
X125512242Y-161238059D01*
X125274333Y-161259710D01*
X120470240Y-156455618D01*
X120483794Y-156444501D01*
X120678062Y-156207939D01*
X120822447Y-155938022D01*
X120911399Y-155645124D01*
X120941500Y-155340500D01*
X120941500Y-154940500D01*
X119380500Y-154940500D01*
X119380500Y-154960500D01*
X119379500Y-154960500D01*
X119379500Y-154940500D01*
X119359500Y-154940500D01*
X119359500Y-154939500D01*
X119379500Y-154939500D01*
X119379500Y-153168875D01*
X119380500Y-153168875D01*
X119380500Y-154939500D01*
X120941500Y-154939500D01*
X120941500Y-154539500D01*
X120911399Y-154234876D01*
X120822447Y-153941978D01*
X120678062Y-153672061D01*
X120483794Y-153435499D01*
X120247107Y-153241382D01*
X119977098Y-153097170D01*
X119684143Y-153008406D01*
X119624766Y-152997803D01*
X119380500Y-153168875D01*
X119379500Y-153168875D01*
X119135234Y-152997803D01*
X119075857Y-153008406D01*
X118782902Y-153097170D01*
X118512893Y-153241382D01*
X118276206Y-153435499D01*
X118108524Y-153639687D01*
X117942318Y-153435899D01*
X117708706Y-153242638D01*
X117442005Y-153098434D01*
X117152375Y-153008778D01*
X116850845Y-152977086D01*
X116548903Y-153004565D01*
X116448683Y-153034061D01*
X112501200Y-149086578D01*
X112610639Y-149029365D01*
X112846927Y-148839385D01*
X113029625Y-148621654D01*
X113196206Y-148824501D01*
X113432893Y-149018618D01*
X113702902Y-149162830D01*
X113995857Y-149251594D01*
X114055234Y-149262197D01*
X114299500Y-149091125D01*
X114299500Y-147320500D01*
X114300500Y-147320500D01*
X114300500Y-149091125D01*
X114544766Y-149262197D01*
X114604143Y-149251594D01*
X114897098Y-149162830D01*
X115167107Y-149018618D01*
X115403794Y-148824501D01*
X115570000Y-148622110D01*
X115736206Y-148824501D01*
X115972893Y-149018618D01*
X116242902Y-149162830D01*
X116535857Y-149251594D01*
X116595234Y-149262197D01*
X116839500Y-149091125D01*
X116839500Y-147320500D01*
X114300500Y-147320500D01*
X114299500Y-147320500D01*
X114279500Y-147320500D01*
X114279500Y-147319500D01*
X114299500Y-147319500D01*
X114299500Y-145548875D01*
X114300500Y-145548875D01*
X114300500Y-147319500D01*
X116839500Y-147319500D01*
X116839500Y-145548875D01*
X116595234Y-145377803D01*
X116535857Y-145388406D01*
X116242902Y-145477170D01*
X115972893Y-145621382D01*
X115736206Y-145815499D01*
X115570000Y-146017890D01*
X115403794Y-145815499D01*
X115167107Y-145621382D01*
X114897098Y-145477170D01*
X114604143Y-145388406D01*
X114544766Y-145377803D01*
X114300500Y-145548875D01*
X114299500Y-145548875D01*
X114055234Y-145377803D01*
X113995857Y-145388406D01*
X113702902Y-145477170D01*
X113432893Y-145621382D01*
X113196206Y-145815499D01*
X113028524Y-146019687D01*
X112862318Y-145815899D01*
X112628706Y-145622638D01*
X112362005Y-145478434D01*
X112072375Y-145388778D01*
X111770845Y-145357086D01*
X111468903Y-145384565D01*
X111178049Y-145470168D01*
X111110634Y-145505412D01*
X109292722Y-143687500D01*
X115193500Y-143687500D01*
X115291958Y-143677846D01*
X115390512Y-143669224D01*
X115395921Y-143667652D01*
X115401525Y-143667103D01*
X115496195Y-143638521D01*
X115591235Y-143610909D01*
X115596238Y-143608316D01*
X115601626Y-143606689D01*
X115688952Y-143560257D01*
X115776809Y-143514716D01*
X115781210Y-143511203D01*
X115786182Y-143508559D01*
X115862833Y-143446044D01*
X115940164Y-143384311D01*
X115948001Y-143376582D01*
X115948163Y-143376450D01*
X115948287Y-143376300D01*
X115950811Y-143373811D01*
X116448037Y-142876585D01*
X116527625Y-142901222D01*
G36*
X79697625Y-149251222D02*
X79999155Y-149282914D01*
X80209000Y-149263817D01*
X80209000Y-151130000D01*
X80218654Y-151228458D01*
X80227276Y-151327012D01*
X80228848Y-151332421D01*
X80229397Y-151338025D01*
X80257979Y-151432695D01*
X80285591Y-151527735D01*
X80288184Y-151532738D01*
X80289811Y-151538126D01*
X80336243Y-151625452D01*
X80381784Y-151713309D01*
X80385297Y-151717710D01*
X80387941Y-151722682D01*
X80450456Y-151799333D01*
X80512189Y-151876664D01*
X80519918Y-151884501D01*
X80520050Y-151884663D01*
X80520200Y-151884787D01*
X80522689Y-151887311D01*
X81808799Y-153173422D01*
X81699361Y-153230635D01*
X81463073Y-153420615D01*
X81278881Y-153640126D01*
X81112318Y-153435899D01*
X80878706Y-153242638D01*
X80612005Y-153098434D01*
X80322375Y-153008778D01*
X80020845Y-152977086D01*
X79966641Y-152982019D01*
X78887068Y-151902446D01*
X78810647Y-151839673D01*
X78734837Y-151776060D01*
X78729899Y-151773345D01*
X78725550Y-151769773D01*
X78638388Y-151723037D01*
X78551669Y-151675363D01*
X78546301Y-151673660D01*
X78541338Y-151670999D01*
X78446727Y-151642074D01*
X78352430Y-151612161D01*
X78346834Y-151611533D01*
X78341449Y-151609887D01*
X78243075Y-151599895D01*
X78144710Y-151588861D01*
X78133696Y-151588784D01*
X78133495Y-151588764D01*
X78133308Y-151588782D01*
X78129757Y-151588757D01*
X68887527Y-151588757D01*
X68789069Y-151598411D01*
X68690515Y-151607033D01*
X68685106Y-151608605D01*
X68679502Y-151609154D01*
X68584786Y-151637750D01*
X68489792Y-151665349D01*
X68484794Y-151667940D01*
X68479401Y-151669568D01*
X68392039Y-151716019D01*
X68304218Y-151761541D01*
X68299817Y-151765055D01*
X68294845Y-151767698D01*
X68218218Y-151830193D01*
X68140862Y-151891946D01*
X68133024Y-151899676D01*
X68132864Y-151899807D01*
X68132741Y-151899955D01*
X68130216Y-151902446D01*
X66552689Y-153479973D01*
X66489916Y-153556394D01*
X66426303Y-153632204D01*
X66423588Y-153637142D01*
X66420016Y-153641491D01*
X66373280Y-153728653D01*
X66325606Y-153815372D01*
X66323903Y-153820740D01*
X66321242Y-153825703D01*
X66292317Y-153920314D01*
X66262404Y-154014611D01*
X66261776Y-154020207D01*
X66260130Y-154025592D01*
X66250138Y-154123966D01*
X66239104Y-154222331D01*
X66239027Y-154233345D01*
X66239007Y-154233546D01*
X66239025Y-154233733D01*
X66239000Y-154237284D01*
X66239000Y-154390477D01*
X66107579Y-154119743D01*
X66039686Y-154018137D01*
X65745228Y-153965480D01*
X64770707Y-154940000D01*
X64784850Y-154954142D01*
X64784142Y-154954850D01*
X64770000Y-154940707D01*
X64755858Y-154954850D01*
X64755150Y-154954142D01*
X64769293Y-154940000D01*
X64755150Y-154925858D01*
X64755858Y-154925150D01*
X64770000Y-154939293D01*
X65744520Y-153964772D01*
X65695823Y-153692459D01*
X65731058Y-153670098D01*
X65951682Y-153460001D01*
X66127296Y-153211052D01*
X66251212Y-152932734D01*
X66318708Y-152635647D01*
X66322528Y-152362094D01*
X69458037Y-149226585D01*
X69537625Y-149251222D01*
X69782463Y-149276955D01*
X70543658Y-150038151D01*
X70620104Y-150100945D01*
X70695890Y-150164537D01*
X70700828Y-150167252D01*
X70705177Y-150170824D01*
X70792339Y-150217560D01*
X70879058Y-150265234D01*
X70884426Y-150266937D01*
X70889389Y-150269598D01*
X70984000Y-150298523D01*
X71078297Y-150328436D01*
X71083893Y-150329064D01*
X71089278Y-150330710D01*
X71187656Y-150340703D01*
X71286017Y-150351736D01*
X71297030Y-150351813D01*
X71297231Y-150351833D01*
X71297418Y-150351815D01*
X71300970Y-150351840D01*
X78049160Y-150351840D01*
X78147618Y-150342186D01*
X78246172Y-150333564D01*
X78251581Y-150331992D01*
X78257185Y-150331443D01*
X78351855Y-150302861D01*
X78446895Y-150275249D01*
X78451898Y-150272656D01*
X78457286Y-150271029D01*
X78544612Y-150224597D01*
X78632469Y-150179056D01*
X78636870Y-150175543D01*
X78641842Y-150172899D01*
X78718493Y-150110384D01*
X78795824Y-150048651D01*
X78803661Y-150040922D01*
X78803823Y-150040790D01*
X78803947Y-150040640D01*
X78806471Y-150038151D01*
X79618037Y-149226585D01*
X79697625Y-149251222D01*
X79697625Y-149251222D01*
G37*
X79697625Y-149251222D02*
X79999155Y-149282914D01*
X80209000Y-149263817D01*
X80209000Y-151130000D01*
X80218654Y-151228458D01*
X80227276Y-151327012D01*
X80228848Y-151332421D01*
X80229397Y-151338025D01*
X80257979Y-151432695D01*
X80285591Y-151527735D01*
X80288184Y-151532738D01*
X80289811Y-151538126D01*
X80336243Y-151625452D01*
X80381784Y-151713309D01*
X80385297Y-151717710D01*
X80387941Y-151722682D01*
X80450456Y-151799333D01*
X80512189Y-151876664D01*
X80519918Y-151884501D01*
X80520050Y-151884663D01*
X80520200Y-151884787D01*
X80522689Y-151887311D01*
X81808799Y-153173422D01*
X81699361Y-153230635D01*
X81463073Y-153420615D01*
X81278881Y-153640126D01*
X81112318Y-153435899D01*
X80878706Y-153242638D01*
X80612005Y-153098434D01*
X80322375Y-153008778D01*
X80020845Y-152977086D01*
X79966641Y-152982019D01*
X78887068Y-151902446D01*
X78810647Y-151839673D01*
X78734837Y-151776060D01*
X78729899Y-151773345D01*
X78725550Y-151769773D01*
X78638388Y-151723037D01*
X78551669Y-151675363D01*
X78546301Y-151673660D01*
X78541338Y-151670999D01*
X78446727Y-151642074D01*
X78352430Y-151612161D01*
X78346834Y-151611533D01*
X78341449Y-151609887D01*
X78243075Y-151599895D01*
X78144710Y-151588861D01*
X78133696Y-151588784D01*
X78133495Y-151588764D01*
X78133308Y-151588782D01*
X78129757Y-151588757D01*
X68887527Y-151588757D01*
X68789069Y-151598411D01*
X68690515Y-151607033D01*
X68685106Y-151608605D01*
X68679502Y-151609154D01*
X68584786Y-151637750D01*
X68489792Y-151665349D01*
X68484794Y-151667940D01*
X68479401Y-151669568D01*
X68392039Y-151716019D01*
X68304218Y-151761541D01*
X68299817Y-151765055D01*
X68294845Y-151767698D01*
X68218218Y-151830193D01*
X68140862Y-151891946D01*
X68133024Y-151899676D01*
X68132864Y-151899807D01*
X68132741Y-151899955D01*
X68130216Y-151902446D01*
X66552689Y-153479973D01*
X66489916Y-153556394D01*
X66426303Y-153632204D01*
X66423588Y-153637142D01*
X66420016Y-153641491D01*
X66373280Y-153728653D01*
X66325606Y-153815372D01*
X66323903Y-153820740D01*
X66321242Y-153825703D01*
X66292317Y-153920314D01*
X66262404Y-154014611D01*
X66261776Y-154020207D01*
X66260130Y-154025592D01*
X66250138Y-154123966D01*
X66239104Y-154222331D01*
X66239027Y-154233345D01*
X66239007Y-154233546D01*
X66239025Y-154233733D01*
X66239000Y-154237284D01*
X66239000Y-154390477D01*
X66107579Y-154119743D01*
X66039686Y-154018137D01*
X65745228Y-153965480D01*
X64770707Y-154940000D01*
X64784850Y-154954142D01*
X64784142Y-154954850D01*
X64770000Y-154940707D01*
X64755858Y-154954850D01*
X64755150Y-154954142D01*
X64769293Y-154940000D01*
X64755150Y-154925858D01*
X64755858Y-154925150D01*
X64770000Y-154939293D01*
X65744520Y-153964772D01*
X65695823Y-153692459D01*
X65731058Y-153670098D01*
X65951682Y-153460001D01*
X66127296Y-153211052D01*
X66251212Y-152932734D01*
X66318708Y-152635647D01*
X66322528Y-152362094D01*
X69458037Y-149226585D01*
X69537625Y-149251222D01*
X69782463Y-149276955D01*
X70543658Y-150038151D01*
X70620104Y-150100945D01*
X70695890Y-150164537D01*
X70700828Y-150167252D01*
X70705177Y-150170824D01*
X70792339Y-150217560D01*
X70879058Y-150265234D01*
X70884426Y-150266937D01*
X70889389Y-150269598D01*
X70984000Y-150298523D01*
X71078297Y-150328436D01*
X71083893Y-150329064D01*
X71089278Y-150330710D01*
X71187656Y-150340703D01*
X71286017Y-150351736D01*
X71297030Y-150351813D01*
X71297231Y-150351833D01*
X71297418Y-150351815D01*
X71300970Y-150351840D01*
X78049160Y-150351840D01*
X78147618Y-150342186D01*
X78246172Y-150333564D01*
X78251581Y-150331992D01*
X78257185Y-150331443D01*
X78351855Y-150302861D01*
X78446895Y-150275249D01*
X78451898Y-150272656D01*
X78457286Y-150271029D01*
X78544612Y-150224597D01*
X78632469Y-150179056D01*
X78636870Y-150175543D01*
X78641842Y-150172899D01*
X78718493Y-150110384D01*
X78795824Y-150048651D01*
X78803661Y-150040922D01*
X78803823Y-150040790D01*
X78803947Y-150040640D01*
X78806471Y-150038151D01*
X79618037Y-149226585D01*
X79697625Y-149251222D01*
G36*
X108116832Y-122331455D02*
X108193288Y-122394256D01*
X108269063Y-122457840D01*
X108274000Y-122460554D01*
X108278351Y-122464128D01*
X108365530Y-122510873D01*
X108452231Y-122558537D01*
X108457599Y-122560240D01*
X108462562Y-122562901D01*
X108557202Y-122591836D01*
X108651470Y-122621739D01*
X108657063Y-122622366D01*
X108662452Y-122624014D01*
X108760869Y-122634010D01*
X108859190Y-122645039D01*
X108870204Y-122645116D01*
X108870405Y-122645136D01*
X108870592Y-122645118D01*
X108874143Y-122645143D01*
X130054632Y-122645143D01*
X134680453Y-127270964D01*
X134264018Y-127295613D01*
X133833001Y-127408187D01*
X133432227Y-127602685D01*
X133284697Y-127701262D01*
X133148110Y-128067403D01*
X134620000Y-129539293D01*
X134634143Y-129525151D01*
X134634850Y-129525858D01*
X134620707Y-129540000D01*
X136092597Y-131011890D01*
X136458738Y-130875303D01*
X136683912Y-130490926D01*
X136829771Y-130070005D01*
X136890709Y-129628716D01*
X136881429Y-129471941D01*
X142439000Y-135029512D01*
X142439000Y-144368020D01*
X141532153Y-143461174D01*
X141455732Y-143398401D01*
X141379922Y-143334788D01*
X141374984Y-143332073D01*
X141370635Y-143328501D01*
X141283473Y-143281765D01*
X141196754Y-143234091D01*
X141191386Y-143232388D01*
X141186423Y-143229727D01*
X141091812Y-143200802D01*
X140997515Y-143170889D01*
X140991919Y-143170261D01*
X140986534Y-143168615D01*
X140888160Y-143158623D01*
X140789795Y-143147589D01*
X140778781Y-143147512D01*
X140778580Y-143147492D01*
X140778393Y-143147510D01*
X140774842Y-143147485D01*
X136323645Y-143147485D01*
X136225187Y-143157139D01*
X136126633Y-143165761D01*
X136121224Y-143167333D01*
X136115620Y-143167882D01*
X136020904Y-143196478D01*
X135925910Y-143224077D01*
X135920912Y-143226668D01*
X135915519Y-143228296D01*
X135828157Y-143274747D01*
X135740336Y-143320269D01*
X135735935Y-143323783D01*
X135730963Y-143326426D01*
X135654336Y-143388921D01*
X135576980Y-143450674D01*
X135569142Y-143458404D01*
X135568982Y-143458535D01*
X135568859Y-143458683D01*
X135566334Y-143461174D01*
X133887789Y-145139719D01*
X133825016Y-145216140D01*
X133761403Y-145291950D01*
X133758688Y-145296888D01*
X133755116Y-145301237D01*
X133708380Y-145388399D01*
X133701511Y-145400893D01*
X133662375Y-145388778D01*
X133360845Y-145357086D01*
X133058903Y-145384565D01*
X132768049Y-145470168D01*
X132499361Y-145610635D01*
X132263073Y-145800615D01*
X132068186Y-146032872D01*
X131922123Y-146298559D01*
X131830448Y-146587557D01*
X131796651Y-146888858D01*
X131796500Y-146910548D01*
X131796500Y-147729452D01*
X131826086Y-148031195D01*
X131913718Y-148321445D01*
X132056057Y-148589146D01*
X132247682Y-148824101D01*
X132279000Y-148850010D01*
X132279000Y-149416378D01*
X129753714Y-151941664D01*
X129741901Y-151896453D01*
X129607579Y-151619743D01*
X129539686Y-151518137D01*
X129245228Y-151465480D01*
X128270707Y-152440000D01*
X128284850Y-152454142D01*
X128284142Y-152454850D01*
X128270000Y-152440707D01*
X128255858Y-152454850D01*
X128255151Y-152454143D01*
X128269293Y-152440000D01*
X128255151Y-152425858D01*
X128255858Y-152425151D01*
X128270000Y-152439293D01*
X129244520Y-151464772D01*
X129191863Y-151170314D01*
X128926446Y-151014864D01*
X128635802Y-150914181D01*
X128331100Y-150872134D01*
X128024051Y-150890340D01*
X127799987Y-150948886D01*
X127774464Y-150917591D01*
X127712711Y-150840235D01*
X127704977Y-150832393D01*
X127704850Y-150832237D01*
X127704706Y-150832118D01*
X127702211Y-150829588D01*
X119753271Y-142880649D01*
X119977098Y-142812830D01*
X120247107Y-142668618D01*
X120483794Y-142474501D01*
X120678062Y-142237939D01*
X120822447Y-141968022D01*
X120911399Y-141675124D01*
X120941500Y-141370500D01*
X120941500Y-140970500D01*
X119380500Y-140970500D01*
X119380500Y-140990500D01*
X119379500Y-140990500D01*
X119379500Y-140970500D01*
X119359500Y-140970500D01*
X119359500Y-140969500D01*
X119379500Y-140969500D01*
X119379500Y-139198875D01*
X119380500Y-139198875D01*
X119380500Y-140969500D01*
X120941500Y-140969500D01*
X120941500Y-140569500D01*
X120911399Y-140264876D01*
X120822447Y-139971978D01*
X120678062Y-139702061D01*
X120483794Y-139465499D01*
X120247107Y-139271382D01*
X119977098Y-139127170D01*
X119684143Y-139038406D01*
X119624766Y-139027803D01*
X119380500Y-139198875D01*
X119379500Y-139198875D01*
X119135234Y-139027803D01*
X119075857Y-139038406D01*
X118796599Y-139123020D01*
X117446819Y-137773240D01*
X117370398Y-137710467D01*
X117294588Y-137646854D01*
X117289650Y-137644139D01*
X117285301Y-137640567D01*
X117198139Y-137593831D01*
X117111420Y-137546157D01*
X117106052Y-137544454D01*
X117101089Y-137541793D01*
X117006478Y-137512868D01*
X116912181Y-137482955D01*
X116906585Y-137482327D01*
X116901200Y-137480681D01*
X116802826Y-137470689D01*
X116704461Y-137459655D01*
X116693447Y-137459578D01*
X116693246Y-137459558D01*
X116693059Y-137459576D01*
X116689508Y-137459551D01*
X111659449Y-137459551D01*
X111560987Y-137469205D01*
X111462437Y-137477827D01*
X111457028Y-137479399D01*
X111451424Y-137479948D01*
X111356754Y-137508530D01*
X111261714Y-137536142D01*
X111256711Y-137538735D01*
X111251323Y-137540362D01*
X111163997Y-137586794D01*
X111076140Y-137632335D01*
X111071739Y-137635848D01*
X111066767Y-137638492D01*
X110990116Y-137701007D01*
X110912785Y-137762740D01*
X110904948Y-137770469D01*
X110904786Y-137770601D01*
X110904662Y-137770751D01*
X110902138Y-137773240D01*
X109611963Y-139063415D01*
X109532375Y-139038778D01*
X109230845Y-139007086D01*
X108928903Y-139034565D01*
X108638049Y-139120168D01*
X108369361Y-139260635D01*
X108133073Y-139450615D01*
X107948881Y-139670126D01*
X107782318Y-139465899D01*
X107548706Y-139272638D01*
X107282005Y-139128434D01*
X106992375Y-139038778D01*
X106690845Y-139007086D01*
X106455900Y-139028468D01*
X106455900Y-135277724D01*
X106679500Y-135121125D01*
X106679500Y-133350500D01*
X106680500Y-133350500D01*
X106680500Y-135121125D01*
X106924766Y-135292197D01*
X106984143Y-135281594D01*
X107277098Y-135192830D01*
X107547107Y-135048618D01*
X107783794Y-134854501D01*
X107950000Y-134652110D01*
X108116206Y-134854501D01*
X108352893Y-135048618D01*
X108622902Y-135192830D01*
X108915857Y-135281594D01*
X108975234Y-135292197D01*
X109219500Y-135121125D01*
X109219500Y-133350500D01*
X106680500Y-133350500D01*
X106679500Y-133350500D01*
X106659500Y-133350500D01*
X106659500Y-133349500D01*
X106679500Y-133349500D01*
X106679500Y-131578875D01*
X106680500Y-131578875D01*
X106680500Y-133349500D01*
X109219500Y-133349500D01*
X109219500Y-131578875D01*
X109220500Y-131578875D01*
X109220500Y-133349500D01*
X109240500Y-133349500D01*
X109240500Y-133350500D01*
X109220500Y-133350500D01*
X109220500Y-135121125D01*
X109464766Y-135292197D01*
X109524143Y-135281594D01*
X109817098Y-135192830D01*
X110087107Y-135048618D01*
X110323794Y-134854501D01*
X110491476Y-134650313D01*
X110657682Y-134854101D01*
X110891294Y-135047362D01*
X111157995Y-135191566D01*
X111447625Y-135281222D01*
X111749155Y-135312914D01*
X112051097Y-135285435D01*
X112341951Y-135199832D01*
X112610639Y-135059365D01*
X112846927Y-134869385D01*
X113029625Y-134651654D01*
X113196206Y-134854501D01*
X113432893Y-135048618D01*
X113702902Y-135192830D01*
X113995857Y-135281594D01*
X114055234Y-135292197D01*
X114299500Y-135121125D01*
X114299500Y-133350500D01*
X114300500Y-133350500D01*
X114300500Y-135121125D01*
X114544766Y-135292197D01*
X114604143Y-135281594D01*
X114897098Y-135192830D01*
X115167107Y-135048618D01*
X115403794Y-134854501D01*
X115570000Y-134652110D01*
X115736206Y-134854501D01*
X115972893Y-135048618D01*
X116242902Y-135192830D01*
X116535857Y-135281594D01*
X116595234Y-135292197D01*
X116839500Y-135121125D01*
X116839500Y-133350500D01*
X114300500Y-133350500D01*
X114299500Y-133350500D01*
X114279500Y-133350500D01*
X114279500Y-133349500D01*
X114299500Y-133349500D01*
X114299500Y-131578875D01*
X114300500Y-131578875D01*
X114300500Y-133349500D01*
X116839500Y-133349500D01*
X116839500Y-131578875D01*
X116840500Y-131578875D01*
X116840500Y-133349500D01*
X116860500Y-133349500D01*
X116860500Y-133350500D01*
X116840500Y-133350500D01*
X116840500Y-135121125D01*
X117084766Y-135292197D01*
X117144143Y-135281594D01*
X117437098Y-135192830D01*
X117707107Y-135048618D01*
X117943794Y-134854501D01*
X118111476Y-134650313D01*
X118277682Y-134854101D01*
X118511294Y-135047362D01*
X118777995Y-135191566D01*
X119067625Y-135281222D01*
X119369155Y-135312914D01*
X119671097Y-135285435D01*
X119961951Y-135199832D01*
X120230639Y-135059365D01*
X120466927Y-134869385D01*
X120661814Y-134637128D01*
X120807877Y-134371441D01*
X120899552Y-134082443D01*
X120933349Y-133781142D01*
X120933500Y-133759452D01*
X120933500Y-132940548D01*
X120903914Y-132638805D01*
X120816282Y-132348555D01*
X120673943Y-132080854D01*
X120482318Y-131845899D01*
X120248706Y-131652638D01*
X119982005Y-131508434D01*
X119692375Y-131418778D01*
X119390845Y-131387086D01*
X119088903Y-131414565D01*
X118798049Y-131500168D01*
X118529361Y-131640635D01*
X118293073Y-131830615D01*
X118110375Y-132048346D01*
X117943794Y-131845499D01*
X117707107Y-131651382D01*
X117437098Y-131507170D01*
X117144143Y-131418406D01*
X117084766Y-131407803D01*
X116840500Y-131578875D01*
X116839500Y-131578875D01*
X116595234Y-131407803D01*
X116535857Y-131418406D01*
X116242902Y-131507170D01*
X115972893Y-131651382D01*
X115736206Y-131845499D01*
X115570000Y-132047890D01*
X115403794Y-131845499D01*
X115167107Y-131651382D01*
X114897098Y-131507170D01*
X114604143Y-131418406D01*
X114544766Y-131407803D01*
X114300500Y-131578875D01*
X114299500Y-131578875D01*
X114055234Y-131407803D01*
X113995857Y-131418406D01*
X113702902Y-131507170D01*
X113432893Y-131651382D01*
X113196206Y-131845499D01*
X113028524Y-132049687D01*
X112862318Y-131845899D01*
X112628706Y-131652638D01*
X112362005Y-131508434D01*
X112072375Y-131418778D01*
X111770845Y-131387086D01*
X111468903Y-131414565D01*
X111178049Y-131500168D01*
X110909361Y-131640635D01*
X110673073Y-131830615D01*
X110490375Y-132048346D01*
X110323794Y-131845499D01*
X110087107Y-131651382D01*
X109817098Y-131507170D01*
X109524143Y-131418406D01*
X109464766Y-131407803D01*
X109220500Y-131578875D01*
X109219500Y-131578875D01*
X108975234Y-131407803D01*
X108915857Y-131418406D01*
X108622902Y-131507170D01*
X108352893Y-131651382D01*
X108116206Y-131845499D01*
X107950000Y-132047890D01*
X107783794Y-131845499D01*
X107547107Y-131651382D01*
X107277098Y-131507170D01*
X106984143Y-131418406D01*
X106924766Y-131407803D01*
X106680500Y-131578875D01*
X106679500Y-131578875D01*
X106455900Y-131422276D01*
X106455900Y-131012597D01*
X133148110Y-131012597D01*
X133284697Y-131378738D01*
X133669074Y-131603912D01*
X134089995Y-131749771D01*
X134531284Y-131810709D01*
X134975982Y-131784387D01*
X135406999Y-131671813D01*
X135807773Y-131477315D01*
X135955303Y-131378738D01*
X136091890Y-131012597D01*
X134620000Y-129540707D01*
X133148110Y-131012597D01*
X106455900Y-131012597D01*
X106455900Y-129006761D01*
X107605035Y-130155897D01*
X107681491Y-130218698D01*
X107757266Y-130282282D01*
X107762203Y-130284996D01*
X107766554Y-130288570D01*
X107853714Y-130335304D01*
X107940434Y-130382979D01*
X107945804Y-130384683D01*
X107950766Y-130387343D01*
X108045391Y-130416273D01*
X108139673Y-130446181D01*
X108145266Y-130446808D01*
X108150655Y-130448456D01*
X108249072Y-130458452D01*
X108347393Y-130469481D01*
X108358407Y-130469558D01*
X108358608Y-130469578D01*
X108358795Y-130469560D01*
X108362346Y-130469585D01*
X112701587Y-130469585D01*
X112800045Y-130459931D01*
X112898599Y-130451309D01*
X112904008Y-130449737D01*
X112909612Y-130449188D01*
X113004282Y-130420606D01*
X113099322Y-130392994D01*
X113104325Y-130390401D01*
X113109713Y-130388774D01*
X113197039Y-130342342D01*
X113284896Y-130296801D01*
X113289297Y-130293288D01*
X113294269Y-130290644D01*
X113370920Y-130228129D01*
X113448251Y-130166396D01*
X113456088Y-130158667D01*
X113456250Y-130158535D01*
X113456374Y-130158385D01*
X113458898Y-130155896D01*
X114163510Y-129451284D01*
X132349291Y-129451284D01*
X132375613Y-129895982D01*
X132488187Y-130326999D01*
X132682685Y-130727773D01*
X132781262Y-130875303D01*
X133147403Y-131011890D01*
X134619293Y-129540000D01*
X133147403Y-128068110D01*
X132781262Y-128204697D01*
X132556088Y-128589074D01*
X132410229Y-129009995D01*
X132349291Y-129451284D01*
X114163510Y-129451284D01*
X116327312Y-127287483D01*
X116390113Y-127211027D01*
X116453697Y-127135252D01*
X116456411Y-127130315D01*
X116459985Y-127125964D01*
X116506719Y-127038804D01*
X116554394Y-126952084D01*
X116556098Y-126946714D01*
X116558758Y-126941752D01*
X116587688Y-126847127D01*
X116617596Y-126752845D01*
X116618223Y-126747252D01*
X116619871Y-126741863D01*
X116627925Y-126662567D01*
X116653651Y-126689207D01*
X116855509Y-126829502D01*
X117080773Y-126927918D01*
X117320863Y-126980705D01*
X117566633Y-126985853D01*
X117808722Y-126943166D01*
X118037910Y-126854270D01*
X118245466Y-126722551D01*
X118423484Y-126553026D01*
X118565185Y-126352152D01*
X118665171Y-126127580D01*
X118719633Y-125887865D01*
X118723554Y-125607088D01*
X118675806Y-125365946D01*
X118582130Y-125138670D01*
X118446093Y-124933918D01*
X118272877Y-124759488D01*
X118069080Y-124622025D01*
X117842464Y-124526765D01*
X117765612Y-124510990D01*
X117273811Y-124019189D01*
X117197390Y-123956416D01*
X117121580Y-123892803D01*
X117116642Y-123890088D01*
X117112293Y-123886516D01*
X117025131Y-123839780D01*
X116938412Y-123792106D01*
X116933044Y-123790403D01*
X116928081Y-123787742D01*
X116833470Y-123758817D01*
X116739173Y-123728904D01*
X116733577Y-123728276D01*
X116728192Y-123726630D01*
X116629818Y-123716638D01*
X116531453Y-123705604D01*
X116520439Y-123705527D01*
X116520238Y-123705507D01*
X116520051Y-123705525D01*
X116516500Y-123705500D01*
X111443500Y-123705500D01*
X111345038Y-123715154D01*
X111246488Y-123723776D01*
X111241079Y-123725348D01*
X111235475Y-123725897D01*
X111140805Y-123754479D01*
X111045765Y-123782091D01*
X111040762Y-123784684D01*
X111035374Y-123786311D01*
X110948048Y-123832743D01*
X110860191Y-123878284D01*
X110855790Y-123881797D01*
X110850818Y-123884441D01*
X110774167Y-123946956D01*
X110696836Y-124008689D01*
X110688999Y-124016418D01*
X110688837Y-124016550D01*
X110688713Y-124016700D01*
X110686189Y-124019189D01*
X109611963Y-125093415D01*
X109532375Y-125068778D01*
X109230845Y-125037086D01*
X108928903Y-125064565D01*
X108638049Y-125150168D01*
X108369361Y-125290635D01*
X108133073Y-125480615D01*
X107948881Y-125700126D01*
X107782318Y-125495899D01*
X107548706Y-125302638D01*
X107282005Y-125158434D01*
X106992375Y-125068778D01*
X106690845Y-125037086D01*
X106455900Y-125058468D01*
X106455900Y-121320500D01*
X106669155Y-121342914D01*
X106971097Y-121315435D01*
X107071316Y-121285939D01*
X108116832Y-122331455D01*
X108116832Y-122331455D01*
G37*
X108116832Y-122331455D02*
X108193288Y-122394256D01*
X108269063Y-122457840D01*
X108274000Y-122460554D01*
X108278351Y-122464128D01*
X108365530Y-122510873D01*
X108452231Y-122558537D01*
X108457599Y-122560240D01*
X108462562Y-122562901D01*
X108557202Y-122591836D01*
X108651470Y-122621739D01*
X108657063Y-122622366D01*
X108662452Y-122624014D01*
X108760869Y-122634010D01*
X108859190Y-122645039D01*
X108870204Y-122645116D01*
X108870405Y-122645136D01*
X108870592Y-122645118D01*
X108874143Y-122645143D01*
X130054632Y-122645143D01*
X134680453Y-127270964D01*
X134264018Y-127295613D01*
X133833001Y-127408187D01*
X133432227Y-127602685D01*
X133284697Y-127701262D01*
X133148110Y-128067403D01*
X134620000Y-129539293D01*
X134634143Y-129525151D01*
X134634850Y-129525858D01*
X134620707Y-129540000D01*
X136092597Y-131011890D01*
X136458738Y-130875303D01*
X136683912Y-130490926D01*
X136829771Y-130070005D01*
X136890709Y-129628716D01*
X136881429Y-129471941D01*
X142439000Y-135029512D01*
X142439000Y-144368020D01*
X141532153Y-143461174D01*
X141455732Y-143398401D01*
X141379922Y-143334788D01*
X141374984Y-143332073D01*
X141370635Y-143328501D01*
X141283473Y-143281765D01*
X141196754Y-143234091D01*
X141191386Y-143232388D01*
X141186423Y-143229727D01*
X141091812Y-143200802D01*
X140997515Y-143170889D01*
X140991919Y-143170261D01*
X140986534Y-143168615D01*
X140888160Y-143158623D01*
X140789795Y-143147589D01*
X140778781Y-143147512D01*
X140778580Y-143147492D01*
X140778393Y-143147510D01*
X140774842Y-143147485D01*
X136323645Y-143147485D01*
X136225187Y-143157139D01*
X136126633Y-143165761D01*
X136121224Y-143167333D01*
X136115620Y-143167882D01*
X136020904Y-143196478D01*
X135925910Y-143224077D01*
X135920912Y-143226668D01*
X135915519Y-143228296D01*
X135828157Y-143274747D01*
X135740336Y-143320269D01*
X135735935Y-143323783D01*
X135730963Y-143326426D01*
X135654336Y-143388921D01*
X135576980Y-143450674D01*
X135569142Y-143458404D01*
X135568982Y-143458535D01*
X135568859Y-143458683D01*
X135566334Y-143461174D01*
X133887789Y-145139719D01*
X133825016Y-145216140D01*
X133761403Y-145291950D01*
X133758688Y-145296888D01*
X133755116Y-145301237D01*
X133708380Y-145388399D01*
X133701511Y-145400893D01*
X133662375Y-145388778D01*
X133360845Y-145357086D01*
X133058903Y-145384565D01*
X132768049Y-145470168D01*
X132499361Y-145610635D01*
X132263073Y-145800615D01*
X132068186Y-146032872D01*
X131922123Y-146298559D01*
X131830448Y-146587557D01*
X131796651Y-146888858D01*
X131796500Y-146910548D01*
X131796500Y-147729452D01*
X131826086Y-148031195D01*
X131913718Y-148321445D01*
X132056057Y-148589146D01*
X132247682Y-148824101D01*
X132279000Y-148850010D01*
X132279000Y-149416378D01*
X129753714Y-151941664D01*
X129741901Y-151896453D01*
X129607579Y-151619743D01*
X129539686Y-151518137D01*
X129245228Y-151465480D01*
X128270707Y-152440000D01*
X128284850Y-152454142D01*
X128284142Y-152454850D01*
X128270000Y-152440707D01*
X128255858Y-152454850D01*
X128255151Y-152454143D01*
X128269293Y-152440000D01*
X128255151Y-152425858D01*
X128255858Y-152425151D01*
X128270000Y-152439293D01*
X129244520Y-151464772D01*
X129191863Y-151170314D01*
X128926446Y-151014864D01*
X128635802Y-150914181D01*
X128331100Y-150872134D01*
X128024051Y-150890340D01*
X127799987Y-150948886D01*
X127774464Y-150917591D01*
X127712711Y-150840235D01*
X127704977Y-150832393D01*
X127704850Y-150832237D01*
X127704706Y-150832118D01*
X127702211Y-150829588D01*
X119753271Y-142880649D01*
X119977098Y-142812830D01*
X120247107Y-142668618D01*
X120483794Y-142474501D01*
X120678062Y-142237939D01*
X120822447Y-141968022D01*
X120911399Y-141675124D01*
X120941500Y-141370500D01*
X120941500Y-140970500D01*
X119380500Y-140970500D01*
X119380500Y-140990500D01*
X119379500Y-140990500D01*
X119379500Y-140970500D01*
X119359500Y-140970500D01*
X119359500Y-140969500D01*
X119379500Y-140969500D01*
X119379500Y-139198875D01*
X119380500Y-139198875D01*
X119380500Y-140969500D01*
X120941500Y-140969500D01*
X120941500Y-140569500D01*
X120911399Y-140264876D01*
X120822447Y-139971978D01*
X120678062Y-139702061D01*
X120483794Y-139465499D01*
X120247107Y-139271382D01*
X119977098Y-139127170D01*
X119684143Y-139038406D01*
X119624766Y-139027803D01*
X119380500Y-139198875D01*
X119379500Y-139198875D01*
X119135234Y-139027803D01*
X119075857Y-139038406D01*
X118796599Y-139123020D01*
X117446819Y-137773240D01*
X117370398Y-137710467D01*
X117294588Y-137646854D01*
X117289650Y-137644139D01*
X117285301Y-137640567D01*
X117198139Y-137593831D01*
X117111420Y-137546157D01*
X117106052Y-137544454D01*
X117101089Y-137541793D01*
X117006478Y-137512868D01*
X116912181Y-137482955D01*
X116906585Y-137482327D01*
X116901200Y-137480681D01*
X116802826Y-137470689D01*
X116704461Y-137459655D01*
X116693447Y-137459578D01*
X116693246Y-137459558D01*
X116693059Y-137459576D01*
X116689508Y-137459551D01*
X111659449Y-137459551D01*
X111560987Y-137469205D01*
X111462437Y-137477827D01*
X111457028Y-137479399D01*
X111451424Y-137479948D01*
X111356754Y-137508530D01*
X111261714Y-137536142D01*
X111256711Y-137538735D01*
X111251323Y-137540362D01*
X111163997Y-137586794D01*
X111076140Y-137632335D01*
X111071739Y-137635848D01*
X111066767Y-137638492D01*
X110990116Y-137701007D01*
X110912785Y-137762740D01*
X110904948Y-137770469D01*
X110904786Y-137770601D01*
X110904662Y-137770751D01*
X110902138Y-137773240D01*
X109611963Y-139063415D01*
X109532375Y-139038778D01*
X109230845Y-139007086D01*
X108928903Y-139034565D01*
X108638049Y-139120168D01*
X108369361Y-139260635D01*
X108133073Y-139450615D01*
X107948881Y-139670126D01*
X107782318Y-139465899D01*
X107548706Y-139272638D01*
X107282005Y-139128434D01*
X106992375Y-139038778D01*
X106690845Y-139007086D01*
X106455900Y-139028468D01*
X106455900Y-135277724D01*
X106679500Y-135121125D01*
X106679500Y-133350500D01*
X106680500Y-133350500D01*
X106680500Y-135121125D01*
X106924766Y-135292197D01*
X106984143Y-135281594D01*
X107277098Y-135192830D01*
X107547107Y-135048618D01*
X107783794Y-134854501D01*
X107950000Y-134652110D01*
X108116206Y-134854501D01*
X108352893Y-135048618D01*
X108622902Y-135192830D01*
X108915857Y-135281594D01*
X108975234Y-135292197D01*
X109219500Y-135121125D01*
X109219500Y-133350500D01*
X106680500Y-133350500D01*
X106679500Y-133350500D01*
X106659500Y-133350500D01*
X106659500Y-133349500D01*
X106679500Y-133349500D01*
X106679500Y-131578875D01*
X106680500Y-131578875D01*
X106680500Y-133349500D01*
X109219500Y-133349500D01*
X109219500Y-131578875D01*
X109220500Y-131578875D01*
X109220500Y-133349500D01*
X109240500Y-133349500D01*
X109240500Y-133350500D01*
X109220500Y-133350500D01*
X109220500Y-135121125D01*
X109464766Y-135292197D01*
X109524143Y-135281594D01*
X109817098Y-135192830D01*
X110087107Y-135048618D01*
X110323794Y-134854501D01*
X110491476Y-134650313D01*
X110657682Y-134854101D01*
X110891294Y-135047362D01*
X111157995Y-135191566D01*
X111447625Y-135281222D01*
X111749155Y-135312914D01*
X112051097Y-135285435D01*
X112341951Y-135199832D01*
X112610639Y-135059365D01*
X112846927Y-134869385D01*
X113029625Y-134651654D01*
X113196206Y-134854501D01*
X113432893Y-135048618D01*
X113702902Y-135192830D01*
X113995857Y-135281594D01*
X114055234Y-135292197D01*
X114299500Y-135121125D01*
X114299500Y-133350500D01*
X114300500Y-133350500D01*
X114300500Y-135121125D01*
X114544766Y-135292197D01*
X114604143Y-135281594D01*
X114897098Y-135192830D01*
X115167107Y-135048618D01*
X115403794Y-134854501D01*
X115570000Y-134652110D01*
X115736206Y-134854501D01*
X115972893Y-135048618D01*
X116242902Y-135192830D01*
X116535857Y-135281594D01*
X116595234Y-135292197D01*
X116839500Y-135121125D01*
X116839500Y-133350500D01*
X114300500Y-133350500D01*
X114299500Y-133350500D01*
X114279500Y-133350500D01*
X114279500Y-133349500D01*
X114299500Y-133349500D01*
X114299500Y-131578875D01*
X114300500Y-131578875D01*
X114300500Y-133349500D01*
X116839500Y-133349500D01*
X116839500Y-131578875D01*
X116840500Y-131578875D01*
X116840500Y-133349500D01*
X116860500Y-133349500D01*
X116860500Y-133350500D01*
X116840500Y-133350500D01*
X116840500Y-135121125D01*
X117084766Y-135292197D01*
X117144143Y-135281594D01*
X117437098Y-135192830D01*
X117707107Y-135048618D01*
X117943794Y-134854501D01*
X118111476Y-134650313D01*
X118277682Y-134854101D01*
X118511294Y-135047362D01*
X118777995Y-135191566D01*
X119067625Y-135281222D01*
X119369155Y-135312914D01*
X119671097Y-135285435D01*
X119961951Y-135199832D01*
X120230639Y-135059365D01*
X120466927Y-134869385D01*
X120661814Y-134637128D01*
X120807877Y-134371441D01*
X120899552Y-134082443D01*
X120933349Y-133781142D01*
X120933500Y-133759452D01*
X120933500Y-132940548D01*
X120903914Y-132638805D01*
X120816282Y-132348555D01*
X120673943Y-132080854D01*
X120482318Y-131845899D01*
X120248706Y-131652638D01*
X119982005Y-131508434D01*
X119692375Y-131418778D01*
X119390845Y-131387086D01*
X119088903Y-131414565D01*
X118798049Y-131500168D01*
X118529361Y-131640635D01*
X118293073Y-131830615D01*
X118110375Y-132048346D01*
X117943794Y-131845499D01*
X117707107Y-131651382D01*
X117437098Y-131507170D01*
X117144143Y-131418406D01*
X117084766Y-131407803D01*
X116840500Y-131578875D01*
X116839500Y-131578875D01*
X116595234Y-131407803D01*
X116535857Y-131418406D01*
X116242902Y-131507170D01*
X115972893Y-131651382D01*
X115736206Y-131845499D01*
X115570000Y-132047890D01*
X115403794Y-131845499D01*
X115167107Y-131651382D01*
X114897098Y-131507170D01*
X114604143Y-131418406D01*
X114544766Y-131407803D01*
X114300500Y-131578875D01*
X114299500Y-131578875D01*
X114055234Y-131407803D01*
X113995857Y-131418406D01*
X113702902Y-131507170D01*
X113432893Y-131651382D01*
X113196206Y-131845499D01*
X113028524Y-132049687D01*
X112862318Y-131845899D01*
X112628706Y-131652638D01*
X112362005Y-131508434D01*
X112072375Y-131418778D01*
X111770845Y-131387086D01*
X111468903Y-131414565D01*
X111178049Y-131500168D01*
X110909361Y-131640635D01*
X110673073Y-131830615D01*
X110490375Y-132048346D01*
X110323794Y-131845499D01*
X110087107Y-131651382D01*
X109817098Y-131507170D01*
X109524143Y-131418406D01*
X109464766Y-131407803D01*
X109220500Y-131578875D01*
X109219500Y-131578875D01*
X108975234Y-131407803D01*
X108915857Y-131418406D01*
X108622902Y-131507170D01*
X108352893Y-131651382D01*
X108116206Y-131845499D01*
X107950000Y-132047890D01*
X107783794Y-131845499D01*
X107547107Y-131651382D01*
X107277098Y-131507170D01*
X106984143Y-131418406D01*
X106924766Y-131407803D01*
X106680500Y-131578875D01*
X106679500Y-131578875D01*
X106455900Y-131422276D01*
X106455900Y-131012597D01*
X133148110Y-131012597D01*
X133284697Y-131378738D01*
X133669074Y-131603912D01*
X134089995Y-131749771D01*
X134531284Y-131810709D01*
X134975982Y-131784387D01*
X135406999Y-131671813D01*
X135807773Y-131477315D01*
X135955303Y-131378738D01*
X136091890Y-131012597D01*
X134620000Y-129540707D01*
X133148110Y-131012597D01*
X106455900Y-131012597D01*
X106455900Y-129006761D01*
X107605035Y-130155897D01*
X107681491Y-130218698D01*
X107757266Y-130282282D01*
X107762203Y-130284996D01*
X107766554Y-130288570D01*
X107853714Y-130335304D01*
X107940434Y-130382979D01*
X107945804Y-130384683D01*
X107950766Y-130387343D01*
X108045391Y-130416273D01*
X108139673Y-130446181D01*
X108145266Y-130446808D01*
X108150655Y-130448456D01*
X108249072Y-130458452D01*
X108347393Y-130469481D01*
X108358407Y-130469558D01*
X108358608Y-130469578D01*
X108358795Y-130469560D01*
X108362346Y-130469585D01*
X112701587Y-130469585D01*
X112800045Y-130459931D01*
X112898599Y-130451309D01*
X112904008Y-130449737D01*
X112909612Y-130449188D01*
X113004282Y-130420606D01*
X113099322Y-130392994D01*
X113104325Y-130390401D01*
X113109713Y-130388774D01*
X113197039Y-130342342D01*
X113284896Y-130296801D01*
X113289297Y-130293288D01*
X113294269Y-130290644D01*
X113370920Y-130228129D01*
X113448251Y-130166396D01*
X113456088Y-130158667D01*
X113456250Y-130158535D01*
X113456374Y-130158385D01*
X113458898Y-130155896D01*
X114163510Y-129451284D01*
X132349291Y-129451284D01*
X132375613Y-129895982D01*
X132488187Y-130326999D01*
X132682685Y-130727773D01*
X132781262Y-130875303D01*
X133147403Y-131011890D01*
X134619293Y-129540000D01*
X133147403Y-128068110D01*
X132781262Y-128204697D01*
X132556088Y-128589074D01*
X132410229Y-129009995D01*
X132349291Y-129451284D01*
X114163510Y-129451284D01*
X116327312Y-127287483D01*
X116390113Y-127211027D01*
X116453697Y-127135252D01*
X116456411Y-127130315D01*
X116459985Y-127125964D01*
X116506719Y-127038804D01*
X116554394Y-126952084D01*
X116556098Y-126946714D01*
X116558758Y-126941752D01*
X116587688Y-126847127D01*
X116617596Y-126752845D01*
X116618223Y-126747252D01*
X116619871Y-126741863D01*
X116627925Y-126662567D01*
X116653651Y-126689207D01*
X116855509Y-126829502D01*
X117080773Y-126927918D01*
X117320863Y-126980705D01*
X117566633Y-126985853D01*
X117808722Y-126943166D01*
X118037910Y-126854270D01*
X118245466Y-126722551D01*
X118423484Y-126553026D01*
X118565185Y-126352152D01*
X118665171Y-126127580D01*
X118719633Y-125887865D01*
X118723554Y-125607088D01*
X118675806Y-125365946D01*
X118582130Y-125138670D01*
X118446093Y-124933918D01*
X118272877Y-124759488D01*
X118069080Y-124622025D01*
X117842464Y-124526765D01*
X117765612Y-124510990D01*
X117273811Y-124019189D01*
X117197390Y-123956416D01*
X117121580Y-123892803D01*
X117116642Y-123890088D01*
X117112293Y-123886516D01*
X117025131Y-123839780D01*
X116938412Y-123792106D01*
X116933044Y-123790403D01*
X116928081Y-123787742D01*
X116833470Y-123758817D01*
X116739173Y-123728904D01*
X116733577Y-123728276D01*
X116728192Y-123726630D01*
X116629818Y-123716638D01*
X116531453Y-123705604D01*
X116520439Y-123705527D01*
X116520238Y-123705507D01*
X116520051Y-123705525D01*
X116516500Y-123705500D01*
X111443500Y-123705500D01*
X111345038Y-123715154D01*
X111246488Y-123723776D01*
X111241079Y-123725348D01*
X111235475Y-123725897D01*
X111140805Y-123754479D01*
X111045765Y-123782091D01*
X111040762Y-123784684D01*
X111035374Y-123786311D01*
X110948048Y-123832743D01*
X110860191Y-123878284D01*
X110855790Y-123881797D01*
X110850818Y-123884441D01*
X110774167Y-123946956D01*
X110696836Y-124008689D01*
X110688999Y-124016418D01*
X110688837Y-124016550D01*
X110688713Y-124016700D01*
X110686189Y-124019189D01*
X109611963Y-125093415D01*
X109532375Y-125068778D01*
X109230845Y-125037086D01*
X108928903Y-125064565D01*
X108638049Y-125150168D01*
X108369361Y-125290635D01*
X108133073Y-125480615D01*
X107948881Y-125700126D01*
X107782318Y-125495899D01*
X107548706Y-125302638D01*
X107282005Y-125158434D01*
X106992375Y-125068778D01*
X106690845Y-125037086D01*
X106455900Y-125058468D01*
X106455900Y-121320500D01*
X106669155Y-121342914D01*
X106971097Y-121315435D01*
X107071316Y-121285939D01*
X108116832Y-122331455D01*
G36*
X73827682Y-134452166D02*
X73859000Y-134478075D01*
X73859000Y-138430000D01*
X73868654Y-138528458D01*
X73877276Y-138627012D01*
X73878848Y-138632421D01*
X73879397Y-138638025D01*
X73907979Y-138732695D01*
X73935591Y-138827735D01*
X73938184Y-138832738D01*
X73939811Y-138838126D01*
X73986243Y-138925452D01*
X74031784Y-139013309D01*
X74035297Y-139017710D01*
X74037941Y-139022682D01*
X74100456Y-139099333D01*
X74162189Y-139176664D01*
X74169918Y-139184501D01*
X74170050Y-139184663D01*
X74170200Y-139184787D01*
X74172689Y-139187311D01*
X74475358Y-139489980D01*
X74330490Y-139533718D01*
X74062789Y-139676057D01*
X73873567Y-139830383D01*
X73864832Y-139809294D01*
X73781496Y-139684572D01*
X73675428Y-139578504D01*
X73550705Y-139495167D01*
X73412121Y-139437764D01*
X73265001Y-139408500D01*
X72580875Y-139408500D01*
X72390500Y-139598875D01*
X72390500Y-140969500D01*
X72410500Y-140969500D01*
X72410500Y-140970500D01*
X72390500Y-140970500D01*
X72390500Y-142341125D01*
X72580875Y-142531500D01*
X73265001Y-142531500D01*
X73412121Y-142502236D01*
X73550705Y-142444833D01*
X73675428Y-142361496D01*
X73781496Y-142255428D01*
X73859000Y-142139434D01*
X73859000Y-145787809D01*
X73843073Y-145800615D01*
X73658881Y-146020126D01*
X73492318Y-145815899D01*
X73258706Y-145622638D01*
X72992005Y-145478434D01*
X72702375Y-145388778D01*
X72400845Y-145357086D01*
X72098903Y-145384565D01*
X71808049Y-145470168D01*
X71539361Y-145610635D01*
X71303073Y-145800615D01*
X71118881Y-146020126D01*
X70952318Y-145815899D01*
X70718706Y-145622638D01*
X70452005Y-145478434D01*
X70162375Y-145388778D01*
X69860845Y-145357086D01*
X69558903Y-145384565D01*
X69268049Y-145470168D01*
X68999361Y-145610635D01*
X68763073Y-145800615D01*
X68568186Y-146032872D01*
X68422123Y-146298559D01*
X68330448Y-146587557D01*
X68296651Y-146888858D01*
X68296500Y-146910548D01*
X68296500Y-147358878D01*
X64768990Y-150886388D01*
X64628521Y-150885408D01*
X64329260Y-150942495D01*
X64046787Y-151056621D01*
X63791861Y-151223440D01*
X63666815Y-151345895D01*
X63666815Y-144285945D01*
X66791885Y-141160875D01*
X70828500Y-141160875D01*
X70828500Y-141845001D01*
X70857764Y-141992122D01*
X70915168Y-142130706D01*
X70998504Y-142255428D01*
X71104572Y-142361496D01*
X71229295Y-142444833D01*
X71367879Y-142502236D01*
X71514999Y-142531500D01*
X72199125Y-142531500D01*
X72389500Y-142341125D01*
X72389500Y-140970500D01*
X71018875Y-140970500D01*
X70828500Y-141160875D01*
X66791885Y-141160875D01*
X67857761Y-140094999D01*
X70828500Y-140094999D01*
X70828500Y-140779125D01*
X71018875Y-140969500D01*
X72389500Y-140969500D01*
X72389500Y-139598875D01*
X72199125Y-139408500D01*
X71514999Y-139408500D01*
X71367879Y-139437764D01*
X71229295Y-139495167D01*
X71104572Y-139578504D01*
X70998504Y-139684572D01*
X70915168Y-139809294D01*
X70857764Y-139947878D01*
X70828500Y-140094999D01*
X67857761Y-140094999D01*
X73680750Y-134272011D01*
X73827682Y-134452166D01*
X73827682Y-134452166D01*
G37*
X73827682Y-134452166D02*
X73859000Y-134478075D01*
X73859000Y-138430000D01*
X73868654Y-138528458D01*
X73877276Y-138627012D01*
X73878848Y-138632421D01*
X73879397Y-138638025D01*
X73907979Y-138732695D01*
X73935591Y-138827735D01*
X73938184Y-138832738D01*
X73939811Y-138838126D01*
X73986243Y-138925452D01*
X74031784Y-139013309D01*
X74035297Y-139017710D01*
X74037941Y-139022682D01*
X74100456Y-139099333D01*
X74162189Y-139176664D01*
X74169918Y-139184501D01*
X74170050Y-139184663D01*
X74170200Y-139184787D01*
X74172689Y-139187311D01*
X74475358Y-139489980D01*
X74330490Y-139533718D01*
X74062789Y-139676057D01*
X73873567Y-139830383D01*
X73864832Y-139809294D01*
X73781496Y-139684572D01*
X73675428Y-139578504D01*
X73550705Y-139495167D01*
X73412121Y-139437764D01*
X73265001Y-139408500D01*
X72580875Y-139408500D01*
X72390500Y-139598875D01*
X72390500Y-140969500D01*
X72410500Y-140969500D01*
X72410500Y-140970500D01*
X72390500Y-140970500D01*
X72390500Y-142341125D01*
X72580875Y-142531500D01*
X73265001Y-142531500D01*
X73412121Y-142502236D01*
X73550705Y-142444833D01*
X73675428Y-142361496D01*
X73781496Y-142255428D01*
X73859000Y-142139434D01*
X73859000Y-145787809D01*
X73843073Y-145800615D01*
X73658881Y-146020126D01*
X73492318Y-145815899D01*
X73258706Y-145622638D01*
X72992005Y-145478434D01*
X72702375Y-145388778D01*
X72400845Y-145357086D01*
X72098903Y-145384565D01*
X71808049Y-145470168D01*
X71539361Y-145610635D01*
X71303073Y-145800615D01*
X71118881Y-146020126D01*
X70952318Y-145815899D01*
X70718706Y-145622638D01*
X70452005Y-145478434D01*
X70162375Y-145388778D01*
X69860845Y-145357086D01*
X69558903Y-145384565D01*
X69268049Y-145470168D01*
X68999361Y-145610635D01*
X68763073Y-145800615D01*
X68568186Y-146032872D01*
X68422123Y-146298559D01*
X68330448Y-146587557D01*
X68296651Y-146888858D01*
X68296500Y-146910548D01*
X68296500Y-147358878D01*
X64768990Y-150886388D01*
X64628521Y-150885408D01*
X64329260Y-150942495D01*
X64046787Y-151056621D01*
X63791861Y-151223440D01*
X63666815Y-151345895D01*
X63666815Y-144285945D01*
X66791885Y-141160875D01*
X70828500Y-141160875D01*
X70828500Y-141845001D01*
X70857764Y-141992122D01*
X70915168Y-142130706D01*
X70998504Y-142255428D01*
X71104572Y-142361496D01*
X71229295Y-142444833D01*
X71367879Y-142502236D01*
X71514999Y-142531500D01*
X72199125Y-142531500D01*
X72389500Y-142341125D01*
X72389500Y-140970500D01*
X71018875Y-140970500D01*
X70828500Y-141160875D01*
X66791885Y-141160875D01*
X67857761Y-140094999D01*
X70828500Y-140094999D01*
X70828500Y-140779125D01*
X71018875Y-140969500D01*
X72389500Y-140969500D01*
X72389500Y-139598875D01*
X72199125Y-139408500D01*
X71514999Y-139408500D01*
X71367879Y-139437764D01*
X71229295Y-139495167D01*
X71104572Y-139578504D01*
X70998504Y-139684572D01*
X70915168Y-139809294D01*
X70857764Y-139947878D01*
X70828500Y-140094999D01*
X67857761Y-140094999D01*
X73680750Y-134272011D01*
X73827682Y-134452166D01*
G36*
X114359228Y-126077183D02*
X114401528Y-126184021D01*
X113321500Y-127264050D01*
X113321500Y-127000500D01*
X111760500Y-127000500D01*
X111760500Y-127020500D01*
X111759500Y-127020500D01*
X111759500Y-127000500D01*
X111739500Y-127000500D01*
X111739500Y-126999500D01*
X111759500Y-126999500D01*
X111759500Y-126979500D01*
X111760500Y-126979500D01*
X111760500Y-126999500D01*
X113321500Y-126999500D01*
X113321500Y-126599500D01*
X113291399Y-126294876D01*
X113202447Y-126001978D01*
X113119813Y-125847500D01*
X114317073Y-125847500D01*
X114359228Y-126077183D01*
X114359228Y-126077183D01*
G37*
X114359228Y-126077183D02*
X114401528Y-126184021D01*
X113321500Y-127264050D01*
X113321500Y-127000500D01*
X111760500Y-127000500D01*
X111760500Y-127020500D01*
X111759500Y-127020500D01*
X111759500Y-127000500D01*
X111739500Y-127000500D01*
X111739500Y-126999500D01*
X111759500Y-126999500D01*
X111759500Y-126979500D01*
X111760500Y-126979500D01*
X111760500Y-126999500D01*
X113321500Y-126999500D01*
X113321500Y-126599500D01*
X113291399Y-126294876D01*
X113202447Y-126001978D01*
X113119813Y-125847500D01*
X114317073Y-125847500D01*
X114359228Y-126077183D01*
M02*
