G04 #@! TF.FileFunction,Soldermask,Bot*
%FSLAX46Y46*%
G04 Gerber Fmt 4.6, Leading zero omitted, Abs format (unit mm)*
G04 Created by KiCad (PCBNEW 4.0.7) date Sun Jan 21 13:03:22 2018*
%MOMM*%
%LPD*%
G01*
G04 APERTURE LIST*
%ADD10C,0.100000*%
%ADD11C,2.000000*%
%ADD12R,2.400000X2.400000*%
%ADD13O,2.400000X2.400000*%
%ADD14R,2.000000X2.000000*%
%ADD15O,2.000000X2.000000*%
%ADD16R,2.000000X2.800000*%
%ADD17O,2.000000X2.800000*%
%ADD18C,1.400000*%
%ADD19C,3.400000*%
%ADD20R,3.400000X3.400000*%
G04 APERTURE END LIST*
D10*
D11*
X64770000Y-152440000D03*
X64770000Y-154940000D03*
D12*
X62000000Y-163000000D03*
D13*
X64540000Y-163000000D03*
X67080000Y-163000000D03*
X69620000Y-163000000D03*
X72160000Y-163000000D03*
X74700000Y-163000000D03*
X77240000Y-163000000D03*
X79780000Y-163000000D03*
X82320000Y-163000000D03*
X84860000Y-163000000D03*
X87400000Y-163000000D03*
X89940000Y-163000000D03*
X92480000Y-163000000D03*
X95020000Y-163000000D03*
X97560000Y-163000000D03*
X100100000Y-163000000D03*
X102640000Y-163000000D03*
X105180000Y-163000000D03*
X107720000Y-163000000D03*
X110260000Y-163000000D03*
X112800000Y-163000000D03*
X115340000Y-163000000D03*
X117880000Y-163000000D03*
X120420000Y-163000000D03*
X122960000Y-163000000D03*
X125500000Y-163000000D03*
X128040000Y-163000000D03*
X130580000Y-163000000D03*
X133120000Y-163000000D03*
X135660000Y-163000000D03*
X138200000Y-163000000D03*
X140740000Y-163000000D03*
X143280000Y-163000000D03*
X145820000Y-163000000D03*
X148360000Y-163000000D03*
X150900000Y-163000000D03*
X153440000Y-163000000D03*
X155980000Y-163000000D03*
X158520000Y-163000000D03*
D14*
X87630000Y-125730000D03*
D15*
X74930000Y-133350000D03*
X85090000Y-125730000D03*
X77470000Y-133350000D03*
X82550000Y-125730000D03*
X80010000Y-133350000D03*
X80010000Y-125730000D03*
X82550000Y-133350000D03*
X77470000Y-125730000D03*
X85090000Y-133350000D03*
X74930000Y-125730000D03*
X87630000Y-133350000D03*
D11*
X99060000Y-126960000D03*
X99060000Y-124460000D03*
X99060000Y-149820000D03*
X99060000Y-147320000D03*
D14*
X72390000Y-140970000D03*
D15*
X74930000Y-140970000D03*
X77470000Y-140970000D03*
X80010000Y-140970000D03*
X82550000Y-140970000D03*
X85090000Y-140970000D03*
X87630000Y-140970000D03*
X90170000Y-140970000D03*
D16*
X69850000Y-154940000D03*
D17*
X92710000Y-147320000D03*
X72390000Y-154940000D03*
X90170000Y-147320000D03*
X74930000Y-154940000D03*
X87630000Y-147320000D03*
X77470000Y-154940000D03*
X85090000Y-147320000D03*
X80010000Y-154940000D03*
X82550000Y-147320000D03*
X82550000Y-154940000D03*
X80010000Y-147320000D03*
X85090000Y-154940000D03*
X77470000Y-147320000D03*
X87630000Y-154940000D03*
X74930000Y-147320000D03*
X90170000Y-154940000D03*
X72390000Y-147320000D03*
X92710000Y-154940000D03*
X69850000Y-147320000D03*
D11*
X99060000Y-135890000D03*
X99060000Y-133390000D03*
X128270000Y-154940000D03*
X128270000Y-152440000D03*
D18*
X115570000Y-125730000D03*
X117470000Y-125730000D03*
D16*
X104140000Y-140970000D03*
D17*
X119380000Y-133350000D03*
X106680000Y-140970000D03*
X116840000Y-133350000D03*
X109220000Y-140970000D03*
X114300000Y-133350000D03*
X111760000Y-140970000D03*
X111760000Y-133350000D03*
X114300000Y-140970000D03*
X109220000Y-133350000D03*
X116840000Y-140970000D03*
X106680000Y-133350000D03*
X119380000Y-140970000D03*
X104140000Y-133350000D03*
D16*
X133350000Y-154940000D03*
D17*
X151130000Y-147320000D03*
X135890000Y-154940000D03*
X148590000Y-147320000D03*
X138430000Y-154940000D03*
X146050000Y-147320000D03*
X140970000Y-154940000D03*
X143510000Y-147320000D03*
X143510000Y-154940000D03*
X140970000Y-147320000D03*
X146050000Y-154940000D03*
X138430000Y-147320000D03*
X148590000Y-154940000D03*
X135890000Y-147320000D03*
X151130000Y-154940000D03*
X133350000Y-147320000D03*
D16*
X104140000Y-127000000D03*
D17*
X111760000Y-119380000D03*
X106680000Y-127000000D03*
X109220000Y-119380000D03*
X109220000Y-127000000D03*
X106680000Y-119380000D03*
X111760000Y-127000000D03*
X104140000Y-119380000D03*
D16*
X104140000Y-154940000D03*
D17*
X119380000Y-147320000D03*
X106680000Y-154940000D03*
X116840000Y-147320000D03*
X109220000Y-154940000D03*
X114300000Y-147320000D03*
X111760000Y-154940000D03*
X111760000Y-147320000D03*
X114300000Y-154940000D03*
X109220000Y-147320000D03*
X116840000Y-154940000D03*
X106680000Y-147320000D03*
X119380000Y-154940000D03*
X104140000Y-147320000D03*
D19*
X134620000Y-129540000D03*
D20*
X155110000Y-129540000D03*
M02*
